%TF.GenerationSoftware,KiCad,Pcbnew,(5.1.4)-1*%
%TF.CreationDate,2020-01-11T00:21:51+01:00*%
%TF.ProjectId,WROOM02_EV,57524f4f-4d30-4325-9f45-562e6b696361,rev?*%
%TF.SameCoordinates,Original*%
%TF.FileFunction,Soldermask,Bot*%
%TF.FilePolarity,Negative*%
%FSLAX46Y46*%
G04 Gerber Fmt 4.6, Leading zero omitted, Abs format (unit mm)*
G04 Created by KiCad (PCBNEW (5.1.4)-1) date 2020-01-11 00:21:51*
%MOMM*%
%LPD*%
G04 APERTURE LIST*
%ADD10C,0.100000*%
G04 APERTURE END LIST*
D10*
G36*
X150241636Y-97538609D02*
G01*
X150353800Y-97572633D01*
X150457160Y-97627881D01*
X150547764Y-97702236D01*
X150622119Y-97792839D01*
X150677367Y-97896199D01*
X150711391Y-98008363D01*
X150720000Y-98095769D01*
X150720000Y-98804231D01*
X150711391Y-98891637D01*
X150677367Y-99003801D01*
X150622119Y-99107161D01*
X150547764Y-99197764D01*
X150457161Y-99272119D01*
X150353801Y-99327367D01*
X150241637Y-99361391D01*
X150125000Y-99372879D01*
X150008364Y-99361391D01*
X149896200Y-99327367D01*
X149792840Y-99272119D01*
X149702237Y-99197764D01*
X149627883Y-99107163D01*
X149572633Y-99003798D01*
X149538609Y-98891637D01*
X149530000Y-98804231D01*
X149530000Y-98095770D01*
X149538609Y-98008364D01*
X149572633Y-97896200D01*
X149627881Y-97792840D01*
X149702236Y-97702236D01*
X149792839Y-97627881D01*
X149896199Y-97572633D01*
X150008363Y-97538609D01*
X150125000Y-97527121D01*
X150241636Y-97538609D01*
X150241636Y-97538609D01*
G37*
G36*
X157991636Y-97538609D02*
G01*
X158103800Y-97572633D01*
X158207160Y-97627881D01*
X158297764Y-97702236D01*
X158372119Y-97792839D01*
X158427367Y-97896199D01*
X158461391Y-98008363D01*
X158470000Y-98095769D01*
X158470000Y-98804231D01*
X158461391Y-98891637D01*
X158427367Y-99003801D01*
X158372119Y-99107161D01*
X158297764Y-99197764D01*
X158207161Y-99272119D01*
X158103801Y-99327367D01*
X157991637Y-99361391D01*
X157875000Y-99372879D01*
X157758364Y-99361391D01*
X157646200Y-99327367D01*
X157542840Y-99272119D01*
X157452237Y-99197764D01*
X157377883Y-99107163D01*
X157322633Y-99003798D01*
X157288609Y-98891637D01*
X157280000Y-98804231D01*
X157280000Y-98095770D01*
X157288609Y-98008364D01*
X157322633Y-97896200D01*
X157377881Y-97792840D01*
X157452236Y-97702236D01*
X157542839Y-97627881D01*
X157646199Y-97572633D01*
X157758363Y-97538609D01*
X157875000Y-97527121D01*
X157991636Y-97538609D01*
X157991636Y-97538609D01*
G37*
G36*
X168325001Y-94648216D02*
G01*
X168691307Y-94721078D01*
X169122617Y-94899733D01*
X169510782Y-95159097D01*
X169510784Y-95159099D01*
X169510787Y-95159101D01*
X169840899Y-95489213D01*
X169840901Y-95489216D01*
X169840903Y-95489218D01*
X170100267Y-95877383D01*
X170278922Y-96308693D01*
X170370000Y-96766576D01*
X170370000Y-97233424D01*
X170278922Y-97691307D01*
X170100267Y-98122617D01*
X169840903Y-98510782D01*
X169840901Y-98510784D01*
X169840899Y-98510787D01*
X169510787Y-98840899D01*
X169510784Y-98840901D01*
X169510782Y-98840903D01*
X169122617Y-99100267D01*
X168691307Y-99278922D01*
X168325001Y-99351784D01*
X168233425Y-99370000D01*
X167766575Y-99370000D01*
X167674999Y-99351784D01*
X167308693Y-99278922D01*
X166877383Y-99100267D01*
X166489218Y-98840903D01*
X166489216Y-98840901D01*
X166489213Y-98840899D01*
X166159101Y-98510787D01*
X166159099Y-98510784D01*
X166159097Y-98510782D01*
X165899733Y-98122617D01*
X165721078Y-97691307D01*
X165630000Y-97233424D01*
X165630000Y-96766576D01*
X165721078Y-96308693D01*
X165899733Y-95877383D01*
X166159097Y-95489218D01*
X166159099Y-95489216D01*
X166159101Y-95489213D01*
X166489213Y-95159101D01*
X166489216Y-95159099D01*
X166489218Y-95159097D01*
X166877383Y-94899733D01*
X167308693Y-94721078D01*
X167674999Y-94648216D01*
X167766575Y-94630000D01*
X168233425Y-94630000D01*
X168325001Y-94648216D01*
X168325001Y-94648216D01*
G37*
G36*
X124325001Y-94648216D02*
G01*
X124691307Y-94721078D01*
X125122617Y-94899733D01*
X125510782Y-95159097D01*
X125510784Y-95159099D01*
X125510787Y-95159101D01*
X125840899Y-95489213D01*
X125840901Y-95489216D01*
X125840903Y-95489218D01*
X126100267Y-95877383D01*
X126278922Y-96308693D01*
X126370000Y-96766576D01*
X126370000Y-97233424D01*
X126278922Y-97691307D01*
X126100267Y-98122617D01*
X125840903Y-98510782D01*
X125840901Y-98510784D01*
X125840899Y-98510787D01*
X125510787Y-98840899D01*
X125510784Y-98840901D01*
X125510782Y-98840903D01*
X125122617Y-99100267D01*
X124691307Y-99278922D01*
X124325001Y-99351784D01*
X124233425Y-99370000D01*
X123766575Y-99370000D01*
X123674999Y-99351784D01*
X123308693Y-99278922D01*
X122877383Y-99100267D01*
X122489218Y-98840903D01*
X122489216Y-98840901D01*
X122489213Y-98840899D01*
X122159101Y-98510787D01*
X122159099Y-98510784D01*
X122159097Y-98510782D01*
X121899733Y-98122617D01*
X121721078Y-97691307D01*
X121630000Y-97233424D01*
X121630000Y-96766576D01*
X121721078Y-96308693D01*
X121899733Y-95877383D01*
X122159097Y-95489218D01*
X122159099Y-95489216D01*
X122159101Y-95489213D01*
X122489213Y-95159101D01*
X122489216Y-95159099D01*
X122489218Y-95159097D01*
X122877383Y-94899733D01*
X123308693Y-94721078D01*
X123674999Y-94648216D01*
X123766575Y-94630000D01*
X124233425Y-94630000D01*
X124325001Y-94648216D01*
X124325001Y-94648216D01*
G37*
G36*
X130909727Y-96849800D02*
G01*
X131057526Y-96879198D01*
X131243148Y-96956085D01*
X131410211Y-97067713D01*
X131552287Y-97209789D01*
X131663915Y-97376852D01*
X131740802Y-97562474D01*
X131780000Y-97759540D01*
X131780000Y-97960460D01*
X131740802Y-98157526D01*
X131663915Y-98343148D01*
X131552287Y-98510211D01*
X131410211Y-98652287D01*
X131243148Y-98763915D01*
X131057526Y-98840802D01*
X130909727Y-98870200D01*
X130860461Y-98880000D01*
X130659539Y-98880000D01*
X130610274Y-98870201D01*
X130462474Y-98840802D01*
X130276852Y-98763915D01*
X130109789Y-98652287D01*
X129967713Y-98510211D01*
X129856085Y-98343148D01*
X129779198Y-98157526D01*
X129740000Y-97960460D01*
X129740000Y-97759540D01*
X129779198Y-97562474D01*
X129856085Y-97376852D01*
X129967713Y-97209789D01*
X130109789Y-97067713D01*
X130276852Y-96956085D01*
X130462474Y-96879198D01*
X130610273Y-96849800D01*
X130659539Y-96840000D01*
X130860461Y-96840000D01*
X130909727Y-96849800D01*
X130909727Y-96849800D01*
G37*
G36*
X146170550Y-97002589D02*
G01*
X146334545Y-97052336D01*
X146334548Y-97052337D01*
X146485686Y-97133123D01*
X146618160Y-97241840D01*
X146726877Y-97374314D01*
X146807663Y-97525452D01*
X146807664Y-97525455D01*
X146857411Y-97689450D01*
X146874209Y-97860000D01*
X146857411Y-98030550D01*
X146807664Y-98194545D01*
X146807663Y-98194548D01*
X146726877Y-98345686D01*
X146618160Y-98478160D01*
X146485686Y-98586877D01*
X146334548Y-98667663D01*
X146334545Y-98667664D01*
X146170550Y-98717411D01*
X146042734Y-98730000D01*
X145957266Y-98730000D01*
X145829450Y-98717411D01*
X145665455Y-98667664D01*
X145665452Y-98667663D01*
X145514314Y-98586877D01*
X145381840Y-98478160D01*
X145273123Y-98345686D01*
X145192337Y-98194548D01*
X145192336Y-98194545D01*
X145142589Y-98030550D01*
X145125791Y-97860000D01*
X145142589Y-97689450D01*
X145192336Y-97525455D01*
X145192337Y-97525452D01*
X145273123Y-97374314D01*
X145381840Y-97241840D01*
X145514314Y-97133123D01*
X145665452Y-97052337D01*
X145665455Y-97052336D01*
X145829450Y-97002589D01*
X145957266Y-96990000D01*
X146042734Y-96990000D01*
X146170550Y-97002589D01*
X146170550Y-97002589D01*
G37*
G36*
X164650000Y-98730000D02*
G01*
X162910000Y-98730000D01*
X162910000Y-96990000D01*
X164650000Y-96990000D01*
X164650000Y-98730000D01*
X164650000Y-98730000D01*
G37*
G36*
X161410550Y-97002589D02*
G01*
X161574545Y-97052336D01*
X161574548Y-97052337D01*
X161725686Y-97133123D01*
X161858160Y-97241840D01*
X161966877Y-97374314D01*
X162047663Y-97525452D01*
X162047664Y-97525455D01*
X162097411Y-97689450D01*
X162114209Y-97860000D01*
X162097411Y-98030550D01*
X162047664Y-98194545D01*
X162047663Y-98194548D01*
X161966877Y-98345686D01*
X161858160Y-98478160D01*
X161725686Y-98586877D01*
X161574548Y-98667663D01*
X161574545Y-98667664D01*
X161410550Y-98717411D01*
X161282734Y-98730000D01*
X161197266Y-98730000D01*
X161069450Y-98717411D01*
X160905455Y-98667664D01*
X160905452Y-98667663D01*
X160754314Y-98586877D01*
X160621840Y-98478160D01*
X160513123Y-98345686D01*
X160432337Y-98194548D01*
X160432336Y-98194545D01*
X160382589Y-98030550D01*
X160365791Y-97860000D01*
X160382589Y-97689450D01*
X160432336Y-97525455D01*
X160432337Y-97525452D01*
X160513123Y-97374314D01*
X160621840Y-97241840D01*
X160754314Y-97133123D01*
X160905452Y-97052337D01*
X160905455Y-97052336D01*
X161069450Y-97002589D01*
X161197266Y-96990000D01*
X161282734Y-96990000D01*
X161410550Y-97002589D01*
X161410550Y-97002589D01*
G37*
G36*
X130909727Y-94309800D02*
G01*
X131057526Y-94339198D01*
X131243148Y-94416085D01*
X131410211Y-94527713D01*
X131552287Y-94669789D01*
X131663915Y-94836852D01*
X131740802Y-95022474D01*
X131750463Y-95071045D01*
X131778397Y-95211478D01*
X131780000Y-95219540D01*
X131780000Y-95420460D01*
X131740802Y-95617526D01*
X131663915Y-95803148D01*
X131552287Y-95970211D01*
X131410211Y-96112287D01*
X131243148Y-96223915D01*
X131057526Y-96300802D01*
X130909727Y-96330200D01*
X130860461Y-96340000D01*
X130659539Y-96340000D01*
X130610274Y-96330201D01*
X130462474Y-96300802D01*
X130276852Y-96223915D01*
X130109789Y-96112287D01*
X129967713Y-95970211D01*
X129856085Y-95803148D01*
X129779198Y-95617526D01*
X129740000Y-95420460D01*
X129740000Y-95219540D01*
X129741604Y-95211478D01*
X129769537Y-95071045D01*
X129779198Y-95022474D01*
X129856085Y-94836852D01*
X129967713Y-94669789D01*
X130109789Y-94527713D01*
X130276852Y-94416085D01*
X130462474Y-94339198D01*
X130610273Y-94309800D01*
X130659539Y-94300000D01*
X130860461Y-94300000D01*
X130909727Y-94309800D01*
X130909727Y-94309800D01*
G37*
G36*
X146870000Y-96190000D02*
G01*
X145130000Y-96190000D01*
X145130000Y-94450000D01*
X146870000Y-94450000D01*
X146870000Y-96190000D01*
X146870000Y-96190000D01*
G37*
G36*
X151582334Y-95286077D02*
G01*
X151661505Y-95310093D01*
X151661507Y-95310094D01*
X151734467Y-95349092D01*
X151734469Y-95349093D01*
X151734468Y-95349093D01*
X151798422Y-95401578D01*
X151850907Y-95465532D01*
X151889907Y-95538495D01*
X151913923Y-95617666D01*
X151922032Y-95700000D01*
X151913923Y-95782334D01*
X151907608Y-95803151D01*
X151889906Y-95861507D01*
X151881420Y-95877384D01*
X151850907Y-95934468D01*
X151798422Y-95998422D01*
X151740202Y-96046202D01*
X151734467Y-96050908D01*
X151661507Y-96089906D01*
X151661505Y-96089907D01*
X151582334Y-96113923D01*
X151520632Y-96120000D01*
X151479368Y-96120000D01*
X151417666Y-96113923D01*
X151338495Y-96089907D01*
X151338493Y-96089906D01*
X151265533Y-96050908D01*
X151259799Y-96046202D01*
X151201578Y-95998422D01*
X151149093Y-95934468D01*
X151118581Y-95877384D01*
X151110094Y-95861507D01*
X151092392Y-95803151D01*
X151086077Y-95782334D01*
X151077968Y-95700000D01*
X151086077Y-95617666D01*
X151110093Y-95538495D01*
X151149093Y-95465532D01*
X151201578Y-95401578D01*
X151265532Y-95349093D01*
X151265531Y-95349093D01*
X151265533Y-95349092D01*
X151338493Y-95310094D01*
X151338495Y-95310093D01*
X151417666Y-95286077D01*
X151479368Y-95280000D01*
X151520632Y-95280000D01*
X151582334Y-95286077D01*
X151582334Y-95286077D01*
G37*
G36*
X156582334Y-95286077D02*
G01*
X156661505Y-95310093D01*
X156661507Y-95310094D01*
X156734467Y-95349092D01*
X156734469Y-95349093D01*
X156734468Y-95349093D01*
X156798422Y-95401578D01*
X156850907Y-95465532D01*
X156889907Y-95538495D01*
X156913923Y-95617666D01*
X156922032Y-95700000D01*
X156913923Y-95782334D01*
X156907608Y-95803151D01*
X156889906Y-95861507D01*
X156881420Y-95877384D01*
X156850907Y-95934468D01*
X156798422Y-95998422D01*
X156740202Y-96046202D01*
X156734467Y-96050908D01*
X156661507Y-96089906D01*
X156661505Y-96089907D01*
X156582334Y-96113923D01*
X156520632Y-96120000D01*
X156479368Y-96120000D01*
X156417666Y-96113923D01*
X156338495Y-96089907D01*
X156338493Y-96089906D01*
X156265533Y-96050908D01*
X156259799Y-96046202D01*
X156201578Y-95998422D01*
X156149093Y-95934468D01*
X156118581Y-95877384D01*
X156110094Y-95861507D01*
X156092392Y-95803151D01*
X156086077Y-95782334D01*
X156077968Y-95700000D01*
X156086077Y-95617666D01*
X156110093Y-95538495D01*
X156149093Y-95465532D01*
X156201578Y-95401578D01*
X156265532Y-95349093D01*
X156265531Y-95349093D01*
X156265533Y-95349092D01*
X156338493Y-95310094D01*
X156338495Y-95310093D01*
X156417666Y-95286077D01*
X156479368Y-95280000D01*
X156520632Y-95280000D01*
X156582334Y-95286077D01*
X156582334Y-95286077D01*
G37*
G36*
X150421044Y-93640780D02*
G01*
X150561477Y-93683380D01*
X150561480Y-93683381D01*
X150677616Y-93745458D01*
X150690901Y-93752559D01*
X150804343Y-93845657D01*
X150897441Y-93959098D01*
X150897442Y-93959100D01*
X150966619Y-94088519D01*
X150966619Y-94088520D01*
X150966620Y-94088522D01*
X151009220Y-94228955D01*
X151020000Y-94338408D01*
X151020000Y-94961592D01*
X151009220Y-95071045D01*
X150982508Y-95159101D01*
X150966619Y-95211481D01*
X150962311Y-95219540D01*
X150897441Y-95340902D01*
X150804343Y-95454343D01*
X150690902Y-95547441D01*
X150690900Y-95547442D01*
X150561481Y-95616619D01*
X150561478Y-95616620D01*
X150421045Y-95659220D01*
X150275000Y-95673604D01*
X150128956Y-95659220D01*
X149988523Y-95616620D01*
X149988520Y-95616619D01*
X149859101Y-95547442D01*
X149859099Y-95547441D01*
X149745658Y-95454343D01*
X149652560Y-95340902D01*
X149583380Y-95211478D01*
X149540780Y-95071045D01*
X149530000Y-94961592D01*
X149530000Y-94338409D01*
X149540780Y-94228956D01*
X149583380Y-94088523D01*
X149583381Y-94088520D01*
X149652558Y-93959101D01*
X149652559Y-93959099D01*
X149745657Y-93845657D01*
X149859098Y-93752559D01*
X149872383Y-93745458D01*
X149988519Y-93683381D01*
X149988522Y-93683380D01*
X150128955Y-93640780D01*
X150275000Y-93626396D01*
X150421044Y-93640780D01*
X150421044Y-93640780D01*
G37*
G36*
X157871044Y-93640780D02*
G01*
X158011477Y-93683380D01*
X158011480Y-93683381D01*
X158127616Y-93745458D01*
X158140901Y-93752559D01*
X158254343Y-93845657D01*
X158347441Y-93959098D01*
X158347442Y-93959100D01*
X158416619Y-94088519D01*
X158416619Y-94088520D01*
X158416620Y-94088522D01*
X158459220Y-94228955D01*
X158470000Y-94338408D01*
X158470000Y-94961592D01*
X158459220Y-95071045D01*
X158432508Y-95159101D01*
X158416619Y-95211481D01*
X158412311Y-95219540D01*
X158347441Y-95340902D01*
X158254343Y-95454343D01*
X158140902Y-95547441D01*
X158140900Y-95547442D01*
X158011481Y-95616619D01*
X158011478Y-95616620D01*
X157871045Y-95659220D01*
X157725000Y-95673604D01*
X157578956Y-95659220D01*
X157438523Y-95616620D01*
X157438520Y-95616619D01*
X157309101Y-95547442D01*
X157309099Y-95547441D01*
X157195658Y-95454343D01*
X157102560Y-95340902D01*
X157033380Y-95211478D01*
X156990780Y-95071045D01*
X156980000Y-94961592D01*
X156980000Y-94338409D01*
X156990780Y-94228956D01*
X157033380Y-94088523D01*
X157033381Y-94088520D01*
X157102558Y-93959101D01*
X157102559Y-93959099D01*
X157195657Y-93845657D01*
X157309098Y-93752559D01*
X157322383Y-93745458D01*
X157438519Y-93683381D01*
X157438522Y-93683380D01*
X157578955Y-93640780D01*
X157725000Y-93626396D01*
X157871044Y-93640780D01*
X157871044Y-93640780D01*
G37*
G36*
X124010000Y-93650000D02*
G01*
X122270000Y-93650000D01*
X122270000Y-91910000D01*
X124010000Y-91910000D01*
X124010000Y-93650000D01*
X124010000Y-93650000D01*
G37*
G36*
X123310550Y-89382589D02*
G01*
X123474545Y-89432336D01*
X123474548Y-89432337D01*
X123625686Y-89513123D01*
X123758160Y-89621840D01*
X123866877Y-89754314D01*
X123947663Y-89905452D01*
X123947664Y-89905455D01*
X123997411Y-90069450D01*
X124014209Y-90240000D01*
X123997411Y-90410550D01*
X123947664Y-90574545D01*
X123947663Y-90574548D01*
X123866877Y-90725686D01*
X123758160Y-90858160D01*
X123625686Y-90966877D01*
X123474548Y-91047663D01*
X123474545Y-91047664D01*
X123310550Y-91097411D01*
X123182734Y-91110000D01*
X123097266Y-91110000D01*
X122969450Y-91097411D01*
X122805455Y-91047664D01*
X122805452Y-91047663D01*
X122654314Y-90966877D01*
X122521840Y-90858160D01*
X122413123Y-90725686D01*
X122332337Y-90574548D01*
X122332336Y-90574545D01*
X122282589Y-90410550D01*
X122265791Y-90240000D01*
X122282589Y-90069450D01*
X122332336Y-89905455D01*
X122332337Y-89905452D01*
X122413123Y-89754314D01*
X122521840Y-89621840D01*
X122654314Y-89513123D01*
X122805452Y-89432337D01*
X122805455Y-89432336D01*
X122969450Y-89382589D01*
X123097266Y-89370000D01*
X123182734Y-89370000D01*
X123310550Y-89382589D01*
X123310550Y-89382589D01*
G37*
G36*
X138871537Y-89113971D02*
G01*
X138988413Y-89149424D01*
X139096121Y-89206996D01*
X139150994Y-89252029D01*
X139190527Y-89284473D01*
X139227404Y-89329408D01*
X139268006Y-89378881D01*
X139325576Y-89486586D01*
X139361029Y-89603462D01*
X139370000Y-89694541D01*
X139370000Y-90305459D01*
X139361029Y-90396538D01*
X139325576Y-90513414D01*
X139268004Y-90621122D01*
X139190528Y-90715528D01*
X139096122Y-90793004D01*
X138988414Y-90850576D01*
X138871538Y-90886029D01*
X138750000Y-90898000D01*
X138628463Y-90886029D01*
X138511587Y-90850576D01*
X138403879Y-90793004D01*
X138309476Y-90715529D01*
X138231994Y-90621119D01*
X138174424Y-90513414D01*
X138138971Y-90396538D01*
X138130000Y-90305459D01*
X138130000Y-89694542D01*
X138138971Y-89603463D01*
X138174424Y-89486587D01*
X138231996Y-89378879D01*
X138309471Y-89284476D01*
X138309473Y-89284473D01*
X138403880Y-89206995D01*
X138403879Y-89206995D01*
X138403881Y-89206994D01*
X138511586Y-89149424D01*
X138628462Y-89113971D01*
X138750000Y-89102000D01*
X138871537Y-89113971D01*
X138871537Y-89113971D01*
G37*
G36*
X137191818Y-89109553D02*
G01*
X137233278Y-89122129D01*
X137271479Y-89142549D01*
X137304968Y-89170032D01*
X137332451Y-89203521D01*
X137352871Y-89241722D01*
X137365447Y-89283182D01*
X137370000Y-89329408D01*
X137370000Y-90670592D01*
X137365447Y-90716818D01*
X137352871Y-90758278D01*
X137332451Y-90796479D01*
X137304968Y-90829968D01*
X137271479Y-90857451D01*
X137233278Y-90877871D01*
X137191818Y-90890447D01*
X137145592Y-90895000D01*
X136354408Y-90895000D01*
X136308182Y-90890447D01*
X136266722Y-90877871D01*
X136228521Y-90857451D01*
X136195032Y-90829968D01*
X136167549Y-90796479D01*
X136147129Y-90758278D01*
X136134553Y-90716818D01*
X136130000Y-90670592D01*
X136130000Y-89329408D01*
X136134553Y-89283182D01*
X136147129Y-89241722D01*
X136167549Y-89203521D01*
X136195032Y-89170032D01*
X136228521Y-89142549D01*
X136266722Y-89122129D01*
X136308182Y-89109553D01*
X136354408Y-89105000D01*
X137145592Y-89105000D01*
X137191818Y-89109553D01*
X137191818Y-89109553D01*
G37*
G36*
X158170550Y-86842589D02*
G01*
X158334545Y-86892336D01*
X158334548Y-86892337D01*
X158485686Y-86973123D01*
X158618160Y-87081840D01*
X158726877Y-87214314D01*
X158807663Y-87365452D01*
X158807664Y-87365455D01*
X158857411Y-87529450D01*
X158874209Y-87700000D01*
X158857411Y-87870550D01*
X158807664Y-88034545D01*
X158807663Y-88034548D01*
X158726877Y-88185686D01*
X158618160Y-88318160D01*
X158485686Y-88426877D01*
X158334548Y-88507663D01*
X158334545Y-88507664D01*
X158170550Y-88557411D01*
X158042734Y-88570000D01*
X157957266Y-88570000D01*
X157829450Y-88557411D01*
X157665455Y-88507664D01*
X157665452Y-88507663D01*
X157514314Y-88426877D01*
X157381840Y-88318160D01*
X157273123Y-88185686D01*
X157192337Y-88034548D01*
X157192336Y-88034545D01*
X157142589Y-87870550D01*
X157125791Y-87700000D01*
X157142589Y-87529450D01*
X157192336Y-87365455D01*
X157192337Y-87365452D01*
X157273123Y-87214314D01*
X157381840Y-87081840D01*
X157514314Y-86973123D01*
X157665452Y-86892337D01*
X157665455Y-86892336D01*
X157829450Y-86842589D01*
X157957266Y-86830000D01*
X158042734Y-86830000D01*
X158170550Y-86842589D01*
X158170550Y-86842589D01*
G37*
G36*
X123310550Y-86842589D02*
G01*
X123474545Y-86892336D01*
X123474548Y-86892337D01*
X123625686Y-86973123D01*
X123758160Y-87081840D01*
X123866877Y-87214314D01*
X123947663Y-87365452D01*
X123947664Y-87365455D01*
X123997411Y-87529450D01*
X124014209Y-87700000D01*
X123997411Y-87870550D01*
X123947664Y-88034545D01*
X123947663Y-88034548D01*
X123866877Y-88185686D01*
X123758160Y-88318160D01*
X123625686Y-88426877D01*
X123474548Y-88507663D01*
X123474545Y-88507664D01*
X123310550Y-88557411D01*
X123182734Y-88570000D01*
X123097266Y-88570000D01*
X122969450Y-88557411D01*
X122805455Y-88507664D01*
X122805452Y-88507663D01*
X122654314Y-88426877D01*
X122521840Y-88318160D01*
X122413123Y-88185686D01*
X122332337Y-88034548D01*
X122332336Y-88034545D01*
X122282589Y-87870550D01*
X122265791Y-87700000D01*
X122282589Y-87529450D01*
X122332336Y-87365455D01*
X122332337Y-87365452D01*
X122413123Y-87214314D01*
X122521840Y-87081840D01*
X122654314Y-86973123D01*
X122805452Y-86892337D01*
X122805455Y-86892336D01*
X122969450Y-86842589D01*
X123097266Y-86830000D01*
X123182734Y-86830000D01*
X123310550Y-86842589D01*
X123310550Y-86842589D01*
G37*
G36*
X138149727Y-84149800D02*
G01*
X138297526Y-84179198D01*
X138483148Y-84256085D01*
X138650211Y-84367713D01*
X138792287Y-84509789D01*
X138903915Y-84676852D01*
X138980802Y-84862474D01*
X139020000Y-85059540D01*
X139020000Y-85260460D01*
X138980802Y-85457526D01*
X138903915Y-85643148D01*
X138792287Y-85810211D01*
X138650211Y-85952287D01*
X138483148Y-86063915D01*
X138297526Y-86140802D01*
X138149727Y-86170200D01*
X138100461Y-86180000D01*
X137899539Y-86180000D01*
X137850273Y-86170200D01*
X137702474Y-86140802D01*
X137516852Y-86063915D01*
X137349789Y-85952287D01*
X137207713Y-85810211D01*
X137096085Y-85643148D01*
X137019198Y-85457526D01*
X136980000Y-85260460D01*
X136980000Y-85059540D01*
X137019198Y-84862474D01*
X137096085Y-84676852D01*
X137207713Y-84509789D01*
X137349789Y-84367713D01*
X137516852Y-84256085D01*
X137702474Y-84179198D01*
X137850273Y-84149800D01*
X137899539Y-84140000D01*
X138100461Y-84140000D01*
X138149727Y-84149800D01*
X138149727Y-84149800D01*
G37*
G36*
X123310550Y-84302589D02*
G01*
X123474545Y-84352336D01*
X123474548Y-84352337D01*
X123625686Y-84433123D01*
X123758160Y-84541840D01*
X123866877Y-84674314D01*
X123947663Y-84825452D01*
X123947664Y-84825455D01*
X123997411Y-84989450D01*
X124014209Y-85160000D01*
X123997411Y-85330550D01*
X123947664Y-85494545D01*
X123947663Y-85494548D01*
X123866877Y-85645686D01*
X123758160Y-85778160D01*
X123625686Y-85886877D01*
X123474548Y-85967663D01*
X123474545Y-85967664D01*
X123310550Y-86017411D01*
X123182734Y-86030000D01*
X123097266Y-86030000D01*
X122969450Y-86017411D01*
X122805455Y-85967664D01*
X122805452Y-85967663D01*
X122654314Y-85886877D01*
X122521840Y-85778160D01*
X122413123Y-85645686D01*
X122332337Y-85494548D01*
X122332336Y-85494545D01*
X122282589Y-85330550D01*
X122265791Y-85160000D01*
X122282589Y-84989450D01*
X122332336Y-84825455D01*
X122332337Y-84825452D01*
X122413123Y-84674314D01*
X122521840Y-84541840D01*
X122654314Y-84433123D01*
X122805452Y-84352337D01*
X122805455Y-84352336D01*
X122969450Y-84302589D01*
X123097266Y-84290000D01*
X123182734Y-84290000D01*
X123310550Y-84302589D01*
X123310550Y-84302589D01*
G37*
G36*
X158870000Y-86030000D02*
G01*
X157130000Y-86030000D01*
X157130000Y-84290000D01*
X158870000Y-84290000D01*
X158870000Y-86030000D01*
X158870000Y-86030000D01*
G37*
G36*
X123310550Y-81762589D02*
G01*
X123474545Y-81812336D01*
X123474548Y-81812337D01*
X123625686Y-81893123D01*
X123758160Y-82001840D01*
X123866877Y-82134314D01*
X123947663Y-82285452D01*
X123947664Y-82285455D01*
X123997411Y-82449450D01*
X124014209Y-82620000D01*
X123997411Y-82790550D01*
X123947664Y-82954545D01*
X123947663Y-82954548D01*
X123866877Y-83105686D01*
X123758160Y-83238160D01*
X123625686Y-83346877D01*
X123474548Y-83427663D01*
X123474545Y-83427664D01*
X123310550Y-83477411D01*
X123182734Y-83490000D01*
X123097266Y-83490000D01*
X122969450Y-83477411D01*
X122805455Y-83427664D01*
X122805452Y-83427663D01*
X122654314Y-83346877D01*
X122521840Y-83238160D01*
X122413123Y-83105686D01*
X122332337Y-82954548D01*
X122332336Y-82954545D01*
X122282589Y-82790550D01*
X122265791Y-82620000D01*
X122282589Y-82449450D01*
X122332336Y-82285455D01*
X122332337Y-82285452D01*
X122413123Y-82134314D01*
X122521840Y-82001840D01*
X122654314Y-81893123D01*
X122805452Y-81812337D01*
X122805455Y-81812336D01*
X122969450Y-81762589D01*
X123097266Y-81750000D01*
X123182734Y-81750000D01*
X123310550Y-81762589D01*
X123310550Y-81762589D01*
G37*
G36*
X123310550Y-79222589D02*
G01*
X123474545Y-79272336D01*
X123474548Y-79272337D01*
X123625686Y-79353123D01*
X123758160Y-79461840D01*
X123866877Y-79594314D01*
X123947663Y-79745452D01*
X123947664Y-79745455D01*
X123997411Y-79909450D01*
X124014209Y-80080000D01*
X123997411Y-80250550D01*
X123947664Y-80414545D01*
X123947663Y-80414548D01*
X123866877Y-80565686D01*
X123758160Y-80698160D01*
X123625686Y-80806877D01*
X123474548Y-80887663D01*
X123474545Y-80887664D01*
X123310550Y-80937411D01*
X123182734Y-80950000D01*
X123097266Y-80950000D01*
X122969450Y-80937411D01*
X122805455Y-80887664D01*
X122805452Y-80887663D01*
X122654314Y-80806877D01*
X122521840Y-80698160D01*
X122413123Y-80565686D01*
X122332337Y-80414548D01*
X122332336Y-80414545D01*
X122282589Y-80250550D01*
X122265791Y-80080000D01*
X122282589Y-79909450D01*
X122332336Y-79745455D01*
X122332337Y-79745452D01*
X122413123Y-79594314D01*
X122521840Y-79461840D01*
X122654314Y-79353123D01*
X122805452Y-79272337D01*
X122805455Y-79272336D01*
X122969450Y-79222589D01*
X123097266Y-79210000D01*
X123182734Y-79210000D01*
X123310550Y-79222589D01*
X123310550Y-79222589D01*
G37*
G36*
X138210550Y-74642589D02*
G01*
X138374545Y-74692336D01*
X138374548Y-74692337D01*
X138525686Y-74773123D01*
X138658160Y-74881840D01*
X138766877Y-75014314D01*
X138847663Y-75165452D01*
X138847664Y-75165455D01*
X138897411Y-75329450D01*
X138914209Y-75500000D01*
X138897411Y-75670550D01*
X138847664Y-75834545D01*
X138847663Y-75834548D01*
X138766877Y-75985686D01*
X138658160Y-76118160D01*
X138525686Y-76226877D01*
X138374548Y-76307663D01*
X138374545Y-76307664D01*
X138210550Y-76357411D01*
X138082734Y-76370000D01*
X137997266Y-76370000D01*
X137869450Y-76357411D01*
X137705455Y-76307664D01*
X137705452Y-76307663D01*
X137554314Y-76226877D01*
X137421840Y-76118160D01*
X137313123Y-75985686D01*
X137232337Y-75834548D01*
X137232336Y-75834545D01*
X137182589Y-75670550D01*
X137165791Y-75500000D01*
X137182589Y-75329450D01*
X137232336Y-75165455D01*
X137232337Y-75165452D01*
X137313123Y-75014314D01*
X137421840Y-74881840D01*
X137554314Y-74773123D01*
X137705452Y-74692337D01*
X137705455Y-74692336D01*
X137869450Y-74642589D01*
X137997266Y-74630000D01*
X138082734Y-74630000D01*
X138210550Y-74642589D01*
X138210550Y-74642589D01*
G37*
G36*
X136370000Y-76370000D02*
G01*
X134630000Y-76370000D01*
X134630000Y-74630000D01*
X136370000Y-74630000D01*
X136370000Y-76370000D01*
X136370000Y-76370000D01*
G37*
G36*
X169009726Y-73989799D02*
G01*
X169157526Y-74019198D01*
X169343148Y-74096085D01*
X169510211Y-74207713D01*
X169652287Y-74349789D01*
X169763915Y-74516852D01*
X169840802Y-74702474D01*
X169880000Y-74899540D01*
X169880000Y-75100460D01*
X169840802Y-75297526D01*
X169763915Y-75483148D01*
X169652287Y-75650211D01*
X169510211Y-75792287D01*
X169343148Y-75903915D01*
X169157526Y-75980802D01*
X169009726Y-76010201D01*
X168960461Y-76020000D01*
X168759539Y-76020000D01*
X168710273Y-76010200D01*
X168562474Y-75980802D01*
X168376852Y-75903915D01*
X168209789Y-75792287D01*
X168067713Y-75650211D01*
X167956085Y-75483148D01*
X167879198Y-75297526D01*
X167840000Y-75100460D01*
X167840000Y-74899540D01*
X167879198Y-74702474D01*
X167956085Y-74516852D01*
X168067713Y-74349789D01*
X168209789Y-74207713D01*
X168376852Y-74096085D01*
X168562474Y-74019198D01*
X168710274Y-73989799D01*
X168759539Y-73980000D01*
X168960461Y-73980000D01*
X169009726Y-73989799D01*
X169009726Y-73989799D01*
G37*
G36*
X166470000Y-69775000D02*
G01*
X163890000Y-69775000D01*
X163890000Y-66225000D01*
X166470000Y-66225000D01*
X166470000Y-69775000D01*
X166470000Y-69775000D01*
G37*
G36*
X137110000Y-69775000D02*
G01*
X134530000Y-69775000D01*
X134530000Y-66225000D01*
X137110000Y-66225000D01*
X137110000Y-69775000D01*
X137110000Y-69775000D01*
G37*
G36*
X123310550Y-66522589D02*
G01*
X123474545Y-66572336D01*
X123474548Y-66572337D01*
X123625686Y-66653123D01*
X123758160Y-66761840D01*
X123866877Y-66894314D01*
X123947663Y-67045452D01*
X123947664Y-67045455D01*
X123997411Y-67209450D01*
X124014209Y-67380000D01*
X123997411Y-67550550D01*
X123947664Y-67714545D01*
X123947663Y-67714548D01*
X123866877Y-67865686D01*
X123758160Y-67998160D01*
X123625686Y-68106877D01*
X123474548Y-68187663D01*
X123474545Y-68187664D01*
X123310550Y-68237411D01*
X123182734Y-68250000D01*
X123097266Y-68250000D01*
X122969450Y-68237411D01*
X122805455Y-68187664D01*
X122805452Y-68187663D01*
X122654314Y-68106877D01*
X122521840Y-67998160D01*
X122413123Y-67865686D01*
X122332337Y-67714548D01*
X122332336Y-67714545D01*
X122282589Y-67550550D01*
X122265791Y-67380000D01*
X122282589Y-67209450D01*
X122332336Y-67045455D01*
X122332337Y-67045452D01*
X122413123Y-66894314D01*
X122521840Y-66761840D01*
X122654314Y-66653123D01*
X122805452Y-66572337D01*
X122805455Y-66572336D01*
X122969450Y-66522589D01*
X123097266Y-66510000D01*
X123182734Y-66510000D01*
X123310550Y-66522589D01*
X123310550Y-66522589D01*
G37*
G36*
X125850550Y-66522589D02*
G01*
X126014545Y-66572336D01*
X126014548Y-66572337D01*
X126165686Y-66653123D01*
X126298160Y-66761840D01*
X126406877Y-66894314D01*
X126487663Y-67045452D01*
X126487664Y-67045455D01*
X126537411Y-67209450D01*
X126554209Y-67380000D01*
X126537411Y-67550550D01*
X126487664Y-67714545D01*
X126487663Y-67714548D01*
X126406877Y-67865686D01*
X126298160Y-67998160D01*
X126165686Y-68106877D01*
X126014548Y-68187663D01*
X126014545Y-68187664D01*
X125850550Y-68237411D01*
X125722734Y-68250000D01*
X125637266Y-68250000D01*
X125509450Y-68237411D01*
X125345455Y-68187664D01*
X125345452Y-68187663D01*
X125194314Y-68106877D01*
X125061840Y-67998160D01*
X124953123Y-67865686D01*
X124872337Y-67714548D01*
X124872336Y-67714545D01*
X124822589Y-67550550D01*
X124805791Y-67380000D01*
X124822589Y-67209450D01*
X124872336Y-67045455D01*
X124872337Y-67045452D01*
X124953123Y-66894314D01*
X125061840Y-66761840D01*
X125194314Y-66653123D01*
X125345452Y-66572337D01*
X125345455Y-66572336D01*
X125509450Y-66522589D01*
X125637266Y-66510000D01*
X125722734Y-66510000D01*
X125850550Y-66522589D01*
X125850550Y-66522589D01*
G37*
G36*
X123310550Y-63982589D02*
G01*
X123474545Y-64032336D01*
X123474548Y-64032337D01*
X123625686Y-64113123D01*
X123758160Y-64221840D01*
X123866877Y-64354314D01*
X123947663Y-64505452D01*
X123947664Y-64505455D01*
X123997411Y-64669450D01*
X124014209Y-64840000D01*
X123997411Y-65010550D01*
X123947664Y-65174545D01*
X123947663Y-65174548D01*
X123866877Y-65325686D01*
X123758160Y-65458160D01*
X123625686Y-65566877D01*
X123474548Y-65647663D01*
X123474545Y-65647664D01*
X123310550Y-65697411D01*
X123182734Y-65710000D01*
X123097266Y-65710000D01*
X122969450Y-65697411D01*
X122805455Y-65647664D01*
X122805452Y-65647663D01*
X122654314Y-65566877D01*
X122521840Y-65458160D01*
X122413123Y-65325686D01*
X122332337Y-65174548D01*
X122332336Y-65174545D01*
X122282589Y-65010550D01*
X122265791Y-64840000D01*
X122282589Y-64669450D01*
X122332336Y-64505455D01*
X122332337Y-64505452D01*
X122413123Y-64354314D01*
X122521840Y-64221840D01*
X122654314Y-64113123D01*
X122805452Y-64032337D01*
X122805455Y-64032336D01*
X122969450Y-63982589D01*
X123097266Y-63970000D01*
X123182734Y-63970000D01*
X123310550Y-63982589D01*
X123310550Y-63982589D01*
G37*
G36*
X125850550Y-63982589D02*
G01*
X126014545Y-64032336D01*
X126014548Y-64032337D01*
X126165686Y-64113123D01*
X126298160Y-64221840D01*
X126406877Y-64354314D01*
X126487663Y-64505452D01*
X126487664Y-64505455D01*
X126537411Y-64669450D01*
X126554209Y-64840000D01*
X126537411Y-65010550D01*
X126487664Y-65174545D01*
X126487663Y-65174548D01*
X126406877Y-65325686D01*
X126298160Y-65458160D01*
X126165686Y-65566877D01*
X126014548Y-65647663D01*
X126014545Y-65647664D01*
X125850550Y-65697411D01*
X125722734Y-65710000D01*
X125637266Y-65710000D01*
X125509450Y-65697411D01*
X125345455Y-65647664D01*
X125345452Y-65647663D01*
X125194314Y-65566877D01*
X125061840Y-65458160D01*
X124953123Y-65325686D01*
X124872337Y-65174548D01*
X124872336Y-65174545D01*
X124822589Y-65010550D01*
X124805791Y-64840000D01*
X124822589Y-64669450D01*
X124872336Y-64505455D01*
X124872337Y-64505452D01*
X124953123Y-64354314D01*
X125061840Y-64221840D01*
X125194314Y-64113123D01*
X125345452Y-64032337D01*
X125345455Y-64032336D01*
X125509450Y-63982589D01*
X125637266Y-63970000D01*
X125722734Y-63970000D01*
X125850550Y-63982589D01*
X125850550Y-63982589D01*
G37*
G36*
X123310550Y-61442589D02*
G01*
X123474545Y-61492336D01*
X123474548Y-61492337D01*
X123625686Y-61573123D01*
X123758160Y-61681840D01*
X123866877Y-61814314D01*
X123947663Y-61965452D01*
X123947664Y-61965455D01*
X123997411Y-62129450D01*
X124014209Y-62300000D01*
X123997411Y-62470550D01*
X123947664Y-62634545D01*
X123947663Y-62634548D01*
X123866877Y-62785686D01*
X123758160Y-62918160D01*
X123625686Y-63026877D01*
X123474548Y-63107663D01*
X123474545Y-63107664D01*
X123310550Y-63157411D01*
X123182734Y-63170000D01*
X123097266Y-63170000D01*
X122969450Y-63157411D01*
X122805455Y-63107664D01*
X122805452Y-63107663D01*
X122654314Y-63026877D01*
X122521840Y-62918160D01*
X122413123Y-62785686D01*
X122332337Y-62634548D01*
X122332336Y-62634545D01*
X122282589Y-62470550D01*
X122265791Y-62300000D01*
X122282589Y-62129450D01*
X122332336Y-61965455D01*
X122332337Y-61965452D01*
X122413123Y-61814314D01*
X122521840Y-61681840D01*
X122654314Y-61573123D01*
X122805452Y-61492337D01*
X122805455Y-61492336D01*
X122969450Y-61442589D01*
X123097266Y-61430000D01*
X123182734Y-61430000D01*
X123310550Y-61442589D01*
X123310550Y-61442589D01*
G37*
G36*
X125850550Y-61442589D02*
G01*
X126014545Y-61492336D01*
X126014548Y-61492337D01*
X126165686Y-61573123D01*
X126298160Y-61681840D01*
X126406877Y-61814314D01*
X126487663Y-61965452D01*
X126487664Y-61965455D01*
X126537411Y-62129450D01*
X126554209Y-62300000D01*
X126537411Y-62470550D01*
X126487664Y-62634545D01*
X126487663Y-62634548D01*
X126406877Y-62785686D01*
X126298160Y-62918160D01*
X126165686Y-63026877D01*
X126014548Y-63107663D01*
X126014545Y-63107664D01*
X125850550Y-63157411D01*
X125722734Y-63170000D01*
X125637266Y-63170000D01*
X125509450Y-63157411D01*
X125345455Y-63107664D01*
X125345452Y-63107663D01*
X125194314Y-63026877D01*
X125061840Y-62918160D01*
X124953123Y-62785686D01*
X124872337Y-62634548D01*
X124872336Y-62634545D01*
X124822589Y-62470550D01*
X124805791Y-62300000D01*
X124822589Y-62129450D01*
X124872336Y-61965455D01*
X124872337Y-61965452D01*
X124953123Y-61814314D01*
X125061840Y-61681840D01*
X125194314Y-61573123D01*
X125345452Y-61492337D01*
X125345455Y-61492336D01*
X125509450Y-61442589D01*
X125637266Y-61430000D01*
X125722734Y-61430000D01*
X125850550Y-61442589D01*
X125850550Y-61442589D01*
G37*
G36*
X169030550Y-61442589D02*
G01*
X169194545Y-61492336D01*
X169194548Y-61492337D01*
X169345686Y-61573123D01*
X169478160Y-61681840D01*
X169586877Y-61814314D01*
X169667663Y-61965452D01*
X169667664Y-61965455D01*
X169717411Y-62129450D01*
X169734209Y-62300000D01*
X169717411Y-62470550D01*
X169667664Y-62634545D01*
X169667663Y-62634548D01*
X169586877Y-62785686D01*
X169478160Y-62918160D01*
X169345686Y-63026877D01*
X169194548Y-63107663D01*
X169194545Y-63107664D01*
X169030550Y-63157411D01*
X168902734Y-63170000D01*
X168817266Y-63170000D01*
X168689450Y-63157411D01*
X168525455Y-63107664D01*
X168525452Y-63107663D01*
X168374314Y-63026877D01*
X168241840Y-62918160D01*
X168133123Y-62785686D01*
X168052337Y-62634548D01*
X168052336Y-62634545D01*
X168002589Y-62470550D01*
X167985791Y-62300000D01*
X168002589Y-62129450D01*
X168052336Y-61965455D01*
X168052337Y-61965452D01*
X168133123Y-61814314D01*
X168241840Y-61681840D01*
X168374314Y-61573123D01*
X168525452Y-61492337D01*
X168525455Y-61492336D01*
X168689450Y-61442589D01*
X168817266Y-61430000D01*
X168902734Y-61430000D01*
X169030550Y-61442589D01*
X169030550Y-61442589D01*
G37*
G36*
X123310550Y-58902589D02*
G01*
X123474545Y-58952336D01*
X123474548Y-58952337D01*
X123625686Y-59033123D01*
X123758160Y-59141840D01*
X123866877Y-59274314D01*
X123947663Y-59425452D01*
X123947664Y-59425455D01*
X123997411Y-59589450D01*
X124014209Y-59760000D01*
X123997411Y-59930550D01*
X123947664Y-60094545D01*
X123947663Y-60094548D01*
X123866877Y-60245686D01*
X123758160Y-60378160D01*
X123625686Y-60486877D01*
X123474548Y-60567663D01*
X123474545Y-60567664D01*
X123310550Y-60617411D01*
X123182734Y-60630000D01*
X123097266Y-60630000D01*
X122969450Y-60617411D01*
X122805455Y-60567664D01*
X122805452Y-60567663D01*
X122654314Y-60486877D01*
X122521840Y-60378160D01*
X122413123Y-60245686D01*
X122332337Y-60094548D01*
X122332336Y-60094545D01*
X122282589Y-59930550D01*
X122265791Y-59760000D01*
X122282589Y-59589450D01*
X122332336Y-59425455D01*
X122332337Y-59425452D01*
X122413123Y-59274314D01*
X122521840Y-59141840D01*
X122654314Y-59033123D01*
X122805452Y-58952337D01*
X122805455Y-58952336D01*
X122969450Y-58902589D01*
X123097266Y-58890000D01*
X123182734Y-58890000D01*
X123310550Y-58902589D01*
X123310550Y-58902589D01*
G37*
G36*
X169030550Y-58902589D02*
G01*
X169194545Y-58952336D01*
X169194548Y-58952337D01*
X169345686Y-59033123D01*
X169478160Y-59141840D01*
X169586877Y-59274314D01*
X169667663Y-59425452D01*
X169667664Y-59425455D01*
X169717411Y-59589450D01*
X169734209Y-59760000D01*
X169717411Y-59930550D01*
X169667664Y-60094545D01*
X169667663Y-60094548D01*
X169586877Y-60245686D01*
X169478160Y-60378160D01*
X169345686Y-60486877D01*
X169194548Y-60567663D01*
X169194545Y-60567664D01*
X169030550Y-60617411D01*
X168902734Y-60630000D01*
X168817266Y-60630000D01*
X168689450Y-60617411D01*
X168525455Y-60567664D01*
X168525452Y-60567663D01*
X168374314Y-60486877D01*
X168241840Y-60378160D01*
X168133123Y-60245686D01*
X168052337Y-60094548D01*
X168052336Y-60094545D01*
X168002589Y-59930550D01*
X167985791Y-59760000D01*
X168002589Y-59589450D01*
X168052336Y-59425455D01*
X168052337Y-59425452D01*
X168133123Y-59274314D01*
X168241840Y-59141840D01*
X168374314Y-59033123D01*
X168525452Y-58952337D01*
X168525455Y-58952336D01*
X168689450Y-58902589D01*
X168817266Y-58890000D01*
X168902734Y-58890000D01*
X169030550Y-58902589D01*
X169030550Y-58902589D01*
G37*
G36*
X125850550Y-58902589D02*
G01*
X126014545Y-58952336D01*
X126014548Y-58952337D01*
X126165686Y-59033123D01*
X126298160Y-59141840D01*
X126406877Y-59274314D01*
X126487663Y-59425452D01*
X126487664Y-59425455D01*
X126537411Y-59589450D01*
X126554209Y-59760000D01*
X126537411Y-59930550D01*
X126487664Y-60094545D01*
X126487663Y-60094548D01*
X126406877Y-60245686D01*
X126298160Y-60378160D01*
X126165686Y-60486877D01*
X126014548Y-60567663D01*
X126014545Y-60567664D01*
X125850550Y-60617411D01*
X125722734Y-60630000D01*
X125637266Y-60630000D01*
X125509450Y-60617411D01*
X125345455Y-60567664D01*
X125345452Y-60567663D01*
X125194314Y-60486877D01*
X125061840Y-60378160D01*
X124953123Y-60245686D01*
X124872337Y-60094548D01*
X124872336Y-60094545D01*
X124822589Y-59930550D01*
X124805791Y-59760000D01*
X124822589Y-59589450D01*
X124872336Y-59425455D01*
X124872337Y-59425452D01*
X124953123Y-59274314D01*
X125061840Y-59141840D01*
X125194314Y-59033123D01*
X125345452Y-58952337D01*
X125345455Y-58952336D01*
X125509450Y-58902589D01*
X125637266Y-58890000D01*
X125722734Y-58890000D01*
X125850550Y-58902589D01*
X125850550Y-58902589D01*
G37*
G36*
X124010000Y-58090000D02*
G01*
X122270000Y-58090000D01*
X122270000Y-56350000D01*
X124010000Y-56350000D01*
X124010000Y-58090000D01*
X124010000Y-58090000D01*
G37*
G36*
X169730000Y-58090000D02*
G01*
X167990000Y-58090000D01*
X167990000Y-56350000D01*
X169730000Y-56350000D01*
X169730000Y-58090000D01*
X169730000Y-58090000D01*
G37*
G36*
X125850550Y-56362589D02*
G01*
X126014545Y-56412336D01*
X126014548Y-56412337D01*
X126165686Y-56493123D01*
X126298160Y-56601840D01*
X126406877Y-56734314D01*
X126487663Y-56885452D01*
X126487664Y-56885455D01*
X126537411Y-57049450D01*
X126554209Y-57220000D01*
X126537411Y-57390550D01*
X126487664Y-57554545D01*
X126487663Y-57554548D01*
X126406877Y-57705686D01*
X126298160Y-57838160D01*
X126165686Y-57946877D01*
X126014548Y-58027663D01*
X126014545Y-58027664D01*
X125850550Y-58077411D01*
X125722734Y-58090000D01*
X125637266Y-58090000D01*
X125509450Y-58077411D01*
X125345455Y-58027664D01*
X125345452Y-58027663D01*
X125194314Y-57946877D01*
X125061840Y-57838160D01*
X124953123Y-57705686D01*
X124872337Y-57554548D01*
X124872336Y-57554545D01*
X124822589Y-57390550D01*
X124805791Y-57220000D01*
X124822589Y-57049450D01*
X124872336Y-56885455D01*
X124872337Y-56885452D01*
X124953123Y-56734314D01*
X125061840Y-56601840D01*
X125194314Y-56493123D01*
X125345452Y-56412337D01*
X125345455Y-56412336D01*
X125509450Y-56362589D01*
X125637266Y-56350000D01*
X125722734Y-56350000D01*
X125850550Y-56362589D01*
X125850550Y-56362589D01*
G37*
G36*
X168325001Y-50648216D02*
G01*
X168691307Y-50721078D01*
X169122617Y-50899733D01*
X169510782Y-51159097D01*
X169510784Y-51159099D01*
X169510787Y-51159101D01*
X169840899Y-51489213D01*
X169840901Y-51489216D01*
X169840903Y-51489218D01*
X170100267Y-51877383D01*
X170278922Y-52308693D01*
X170370000Y-52766576D01*
X170370000Y-53233424D01*
X170278922Y-53691307D01*
X170100267Y-54122617D01*
X169840903Y-54510782D01*
X169840901Y-54510784D01*
X169840899Y-54510787D01*
X169510787Y-54840899D01*
X169510784Y-54840901D01*
X169510782Y-54840903D01*
X169122617Y-55100267D01*
X168691307Y-55278922D01*
X168325001Y-55351784D01*
X168233425Y-55370000D01*
X167766575Y-55370000D01*
X167674999Y-55351784D01*
X167308693Y-55278922D01*
X166877383Y-55100267D01*
X166489218Y-54840903D01*
X166489216Y-54840901D01*
X166489213Y-54840899D01*
X166159101Y-54510787D01*
X166159099Y-54510784D01*
X166159097Y-54510782D01*
X165899733Y-54122617D01*
X165721078Y-53691307D01*
X165630000Y-53233424D01*
X165630000Y-52766576D01*
X165721078Y-52308693D01*
X165899733Y-51877383D01*
X166159097Y-51489218D01*
X166159099Y-51489216D01*
X166159101Y-51489213D01*
X166489213Y-51159101D01*
X166489216Y-51159099D01*
X166489218Y-51159097D01*
X166877383Y-50899733D01*
X167308693Y-50721078D01*
X167674999Y-50648216D01*
X167766575Y-50630000D01*
X168233425Y-50630000D01*
X168325001Y-50648216D01*
X168325001Y-50648216D01*
G37*
G36*
X124325001Y-50648216D02*
G01*
X124691307Y-50721078D01*
X125122617Y-50899733D01*
X125510782Y-51159097D01*
X125510784Y-51159099D01*
X125510787Y-51159101D01*
X125840899Y-51489213D01*
X125840901Y-51489216D01*
X125840903Y-51489218D01*
X126100267Y-51877383D01*
X126278922Y-52308693D01*
X126370000Y-52766576D01*
X126370000Y-53233424D01*
X126278922Y-53691307D01*
X126100267Y-54122617D01*
X125840903Y-54510782D01*
X125840901Y-54510784D01*
X125840899Y-54510787D01*
X125510787Y-54840899D01*
X125510784Y-54840901D01*
X125510782Y-54840903D01*
X125122617Y-55100267D01*
X124691307Y-55278922D01*
X124325001Y-55351784D01*
X124233425Y-55370000D01*
X123766575Y-55370000D01*
X123674999Y-55351784D01*
X123308693Y-55278922D01*
X122877383Y-55100267D01*
X122489218Y-54840903D01*
X122489216Y-54840901D01*
X122489213Y-54840899D01*
X122159101Y-54510787D01*
X122159099Y-54510784D01*
X122159097Y-54510782D01*
X121899733Y-54122617D01*
X121721078Y-53691307D01*
X121630000Y-53233424D01*
X121630000Y-52766576D01*
X121721078Y-52308693D01*
X121899733Y-51877383D01*
X122159097Y-51489218D01*
X122159099Y-51489216D01*
X122159101Y-51489213D01*
X122489213Y-51159101D01*
X122489216Y-51159099D01*
X122489218Y-51159097D01*
X122877383Y-50899733D01*
X123308693Y-50721078D01*
X123674999Y-50648216D01*
X123766575Y-50630000D01*
X124233425Y-50630000D01*
X124325001Y-50648216D01*
X124325001Y-50648216D01*
G37*
M02*
