%TF.GenerationSoftware,KiCad,Pcbnew,(5.1.4)-1*%
%TF.CreationDate,2020-01-11T00:21:51+01:00*%
%TF.ProjectId,WROOM02_EV,57524f4f-4d30-4325-9f45-562e6b696361,rev?*%
%TF.SameCoordinates,Original*%
%TF.FileFunction,Soldermask,Top*%
%TF.FilePolarity,Negative*%
%FSLAX46Y46*%
G04 Gerber Fmt 4.6, Leading zero omitted, Abs format (unit mm)*
G04 Created by KiCad (PCBNEW (5.1.4)-1) date 2020-01-11 00:21:51*
%MOMM*%
%LPD*%
G04 APERTURE LIST*
%ADD10C,0.100000*%
G04 APERTURE END LIST*
D10*
G36*
X150241636Y-97538609D02*
G01*
X150353800Y-97572633D01*
X150457160Y-97627881D01*
X150547764Y-97702236D01*
X150622119Y-97792839D01*
X150677367Y-97896199D01*
X150711391Y-98008363D01*
X150720000Y-98095769D01*
X150720000Y-98804231D01*
X150711391Y-98891637D01*
X150677367Y-99003801D01*
X150622119Y-99107161D01*
X150547764Y-99197764D01*
X150457161Y-99272119D01*
X150353801Y-99327367D01*
X150241637Y-99361391D01*
X150125000Y-99372879D01*
X150008364Y-99361391D01*
X149896200Y-99327367D01*
X149792840Y-99272119D01*
X149702237Y-99197764D01*
X149627883Y-99107163D01*
X149572633Y-99003798D01*
X149538609Y-98891637D01*
X149530000Y-98804231D01*
X149530000Y-98095770D01*
X149538609Y-98008364D01*
X149572633Y-97896200D01*
X149627881Y-97792840D01*
X149702236Y-97702236D01*
X149792839Y-97627881D01*
X149896199Y-97572633D01*
X150008363Y-97538609D01*
X150125000Y-97527121D01*
X150241636Y-97538609D01*
X150241636Y-97538609D01*
G37*
G36*
X157991636Y-97538609D02*
G01*
X158103800Y-97572633D01*
X158207160Y-97627881D01*
X158297764Y-97702236D01*
X158372119Y-97792839D01*
X158427367Y-97896199D01*
X158461391Y-98008363D01*
X158470000Y-98095769D01*
X158470000Y-98804231D01*
X158461391Y-98891637D01*
X158427367Y-99003801D01*
X158372119Y-99107161D01*
X158297764Y-99197764D01*
X158207161Y-99272119D01*
X158103801Y-99327367D01*
X157991637Y-99361391D01*
X157875000Y-99372879D01*
X157758364Y-99361391D01*
X157646200Y-99327367D01*
X157542840Y-99272119D01*
X157452237Y-99197764D01*
X157377883Y-99107163D01*
X157322633Y-99003798D01*
X157288609Y-98891637D01*
X157280000Y-98804231D01*
X157280000Y-98095770D01*
X157288609Y-98008364D01*
X157322633Y-97896200D01*
X157377881Y-97792840D01*
X157452236Y-97702236D01*
X157542839Y-97627881D01*
X157646199Y-97572633D01*
X157758363Y-97538609D01*
X157875000Y-97527121D01*
X157991636Y-97538609D01*
X157991636Y-97538609D01*
G37*
G36*
X168325001Y-94648216D02*
G01*
X168691307Y-94721078D01*
X169122617Y-94899733D01*
X169510782Y-95159097D01*
X169510784Y-95159099D01*
X169510787Y-95159101D01*
X169840899Y-95489213D01*
X169840901Y-95489216D01*
X169840903Y-95489218D01*
X170100267Y-95877383D01*
X170278922Y-96308693D01*
X170370000Y-96766576D01*
X170370000Y-97233424D01*
X170278922Y-97691307D01*
X170100267Y-98122617D01*
X169840903Y-98510782D01*
X169840901Y-98510784D01*
X169840899Y-98510787D01*
X169510787Y-98840899D01*
X169510784Y-98840901D01*
X169510782Y-98840903D01*
X169122617Y-99100267D01*
X168691307Y-99278922D01*
X168325001Y-99351784D01*
X168233425Y-99370000D01*
X167766575Y-99370000D01*
X167674999Y-99351784D01*
X167308693Y-99278922D01*
X166877383Y-99100267D01*
X166489218Y-98840903D01*
X166489216Y-98840901D01*
X166489213Y-98840899D01*
X166159101Y-98510787D01*
X166159099Y-98510784D01*
X166159097Y-98510782D01*
X165899733Y-98122617D01*
X165721078Y-97691307D01*
X165630000Y-97233424D01*
X165630000Y-96766576D01*
X165721078Y-96308693D01*
X165899733Y-95877383D01*
X166159097Y-95489218D01*
X166159099Y-95489216D01*
X166159101Y-95489213D01*
X166489213Y-95159101D01*
X166489216Y-95159099D01*
X166489218Y-95159097D01*
X166877383Y-94899733D01*
X167308693Y-94721078D01*
X167674999Y-94648216D01*
X167766575Y-94630000D01*
X168233425Y-94630000D01*
X168325001Y-94648216D01*
X168325001Y-94648216D01*
G37*
G36*
X124325001Y-94648216D02*
G01*
X124691307Y-94721078D01*
X125122617Y-94899733D01*
X125510782Y-95159097D01*
X125510784Y-95159099D01*
X125510787Y-95159101D01*
X125840899Y-95489213D01*
X125840901Y-95489216D01*
X125840903Y-95489218D01*
X126100267Y-95877383D01*
X126278922Y-96308693D01*
X126370000Y-96766576D01*
X126370000Y-97233424D01*
X126278922Y-97691307D01*
X126100267Y-98122617D01*
X125840903Y-98510782D01*
X125840901Y-98510784D01*
X125840899Y-98510787D01*
X125510787Y-98840899D01*
X125510784Y-98840901D01*
X125510782Y-98840903D01*
X125122617Y-99100267D01*
X124691307Y-99278922D01*
X124325001Y-99351784D01*
X124233425Y-99370000D01*
X123766575Y-99370000D01*
X123674999Y-99351784D01*
X123308693Y-99278922D01*
X122877383Y-99100267D01*
X122489218Y-98840903D01*
X122489216Y-98840901D01*
X122489213Y-98840899D01*
X122159101Y-98510787D01*
X122159099Y-98510784D01*
X122159097Y-98510782D01*
X121899733Y-98122617D01*
X121721078Y-97691307D01*
X121630000Y-97233424D01*
X121630000Y-96766576D01*
X121721078Y-96308693D01*
X121899733Y-95877383D01*
X122159097Y-95489218D01*
X122159099Y-95489216D01*
X122159101Y-95489213D01*
X122489213Y-95159101D01*
X122489216Y-95159099D01*
X122489218Y-95159097D01*
X122877383Y-94899733D01*
X123308693Y-94721078D01*
X123674999Y-94648216D01*
X123766575Y-94630000D01*
X124233425Y-94630000D01*
X124325001Y-94648216D01*
X124325001Y-94648216D01*
G37*
G36*
X136522421Y-97609419D02*
G01*
X136562570Y-97621599D01*
X136599572Y-97641376D01*
X136632006Y-97667994D01*
X136658624Y-97700428D01*
X136678401Y-97737430D01*
X136690581Y-97777579D01*
X136695000Y-97822450D01*
X136695000Y-98927550D01*
X136690581Y-98972421D01*
X136678401Y-99012570D01*
X136658624Y-99049572D01*
X136632006Y-99082006D01*
X136599572Y-99108624D01*
X136562570Y-99128401D01*
X136522421Y-99140581D01*
X136477550Y-99145000D01*
X134522450Y-99145000D01*
X134477579Y-99140581D01*
X134437430Y-99128401D01*
X134400428Y-99108624D01*
X134367994Y-99082006D01*
X134341376Y-99049572D01*
X134321599Y-99012570D01*
X134309419Y-98972421D01*
X134305000Y-98927550D01*
X134305000Y-97822450D01*
X134309419Y-97777579D01*
X134321599Y-97737430D01*
X134341376Y-97700428D01*
X134367994Y-97667994D01*
X134400428Y-97641376D01*
X134437430Y-97621599D01*
X134477579Y-97609419D01*
X134522450Y-97605000D01*
X136477550Y-97605000D01*
X136522421Y-97609419D01*
X136522421Y-97609419D01*
G37*
G36*
X143540603Y-97934582D02*
G01*
X143582340Y-97947244D01*
X143620807Y-97967804D01*
X143654525Y-97995475D01*
X143682196Y-98029193D01*
X143702756Y-98067660D01*
X143715418Y-98109397D01*
X143720000Y-98155921D01*
X143720000Y-98894079D01*
X143715418Y-98940603D01*
X143702756Y-98982340D01*
X143682196Y-99020807D01*
X143654525Y-99054525D01*
X143620807Y-99082196D01*
X143582340Y-99102756D01*
X143540603Y-99115418D01*
X143494079Y-99120000D01*
X142505921Y-99120000D01*
X142459397Y-99115418D01*
X142417660Y-99102756D01*
X142379193Y-99082196D01*
X142345475Y-99054525D01*
X142317804Y-99020807D01*
X142297244Y-98982340D01*
X142284582Y-98940603D01*
X142280000Y-98894079D01*
X142280000Y-98155921D01*
X142284582Y-98109397D01*
X142297244Y-98067660D01*
X142317804Y-98029193D01*
X142345475Y-97995475D01*
X142379193Y-97967804D01*
X142417660Y-97947244D01*
X142459397Y-97934582D01*
X142505921Y-97930000D01*
X143494079Y-97930000D01*
X143540603Y-97934582D01*
X143540603Y-97934582D01*
G37*
G36*
X141040603Y-97934582D02*
G01*
X141082340Y-97947244D01*
X141120807Y-97967804D01*
X141154525Y-97995475D01*
X141182196Y-98029193D01*
X141202756Y-98067660D01*
X141215418Y-98109397D01*
X141220000Y-98155921D01*
X141220000Y-98894079D01*
X141215418Y-98940603D01*
X141202756Y-98982340D01*
X141182196Y-99020807D01*
X141154525Y-99054525D01*
X141120807Y-99082196D01*
X141082340Y-99102756D01*
X141040603Y-99115418D01*
X140994079Y-99120000D01*
X140005921Y-99120000D01*
X139959397Y-99115418D01*
X139917660Y-99102756D01*
X139879193Y-99082196D01*
X139845475Y-99054525D01*
X139817804Y-99020807D01*
X139797244Y-98982340D01*
X139784582Y-98940603D01*
X139780000Y-98894079D01*
X139780000Y-98155921D01*
X139784582Y-98109397D01*
X139797244Y-98067660D01*
X139817804Y-98029193D01*
X139845475Y-97995475D01*
X139879193Y-97967804D01*
X139917660Y-97947244D01*
X139959397Y-97934582D01*
X140005921Y-97930000D01*
X140994079Y-97930000D01*
X141040603Y-97934582D01*
X141040603Y-97934582D01*
G37*
G36*
X130909727Y-96849800D02*
G01*
X131057526Y-96879198D01*
X131243148Y-96956085D01*
X131410211Y-97067713D01*
X131552287Y-97209789D01*
X131663915Y-97376852D01*
X131740802Y-97562474D01*
X131780000Y-97759540D01*
X131780000Y-97960460D01*
X131740802Y-98157526D01*
X131663915Y-98343148D01*
X131552287Y-98510211D01*
X131410211Y-98652287D01*
X131243148Y-98763915D01*
X131057526Y-98840802D01*
X130909727Y-98870200D01*
X130860461Y-98880000D01*
X130659539Y-98880000D01*
X130610274Y-98870201D01*
X130462474Y-98840802D01*
X130276852Y-98763915D01*
X130109789Y-98652287D01*
X129967713Y-98510211D01*
X129856085Y-98343148D01*
X129779198Y-98157526D01*
X129740000Y-97960460D01*
X129740000Y-97759540D01*
X129779198Y-97562474D01*
X129856085Y-97376852D01*
X129967713Y-97209789D01*
X130109789Y-97067713D01*
X130276852Y-96956085D01*
X130462474Y-96879198D01*
X130610273Y-96849800D01*
X130659539Y-96840000D01*
X130860461Y-96840000D01*
X130909727Y-96849800D01*
X130909727Y-96849800D01*
G37*
G36*
X164650000Y-98730000D02*
G01*
X162910000Y-98730000D01*
X162910000Y-96990000D01*
X164650000Y-96990000D01*
X164650000Y-98730000D01*
X164650000Y-98730000D01*
G37*
G36*
X161410550Y-97002589D02*
G01*
X161574545Y-97052336D01*
X161574548Y-97052337D01*
X161725686Y-97133123D01*
X161858160Y-97241840D01*
X161966877Y-97374314D01*
X162047663Y-97525452D01*
X162047664Y-97525455D01*
X162097411Y-97689450D01*
X162114209Y-97860000D01*
X162097411Y-98030550D01*
X162047664Y-98194545D01*
X162047663Y-98194548D01*
X161966877Y-98345686D01*
X161858160Y-98478160D01*
X161725686Y-98586877D01*
X161574548Y-98667663D01*
X161574545Y-98667664D01*
X161410550Y-98717411D01*
X161282734Y-98730000D01*
X161197266Y-98730000D01*
X161069450Y-98717411D01*
X160905455Y-98667664D01*
X160905452Y-98667663D01*
X160754314Y-98586877D01*
X160621840Y-98478160D01*
X160513123Y-98345686D01*
X160432337Y-98194548D01*
X160432336Y-98194545D01*
X160382589Y-98030550D01*
X160365791Y-97860000D01*
X160382589Y-97689450D01*
X160432336Y-97525455D01*
X160432337Y-97525452D01*
X160513123Y-97374314D01*
X160621840Y-97241840D01*
X160754314Y-97133123D01*
X160905452Y-97052337D01*
X160905455Y-97052336D01*
X161069450Y-97002589D01*
X161197266Y-96990000D01*
X161282734Y-96990000D01*
X161410550Y-97002589D01*
X161410550Y-97002589D01*
G37*
G36*
X146170550Y-97002589D02*
G01*
X146334545Y-97052336D01*
X146334548Y-97052337D01*
X146485686Y-97133123D01*
X146618160Y-97241840D01*
X146726877Y-97374314D01*
X146807663Y-97525452D01*
X146807664Y-97525455D01*
X146857411Y-97689450D01*
X146874209Y-97860000D01*
X146857411Y-98030550D01*
X146807664Y-98194545D01*
X146807663Y-98194548D01*
X146726877Y-98345686D01*
X146618160Y-98478160D01*
X146485686Y-98586877D01*
X146334548Y-98667663D01*
X146334545Y-98667664D01*
X146170550Y-98717411D01*
X146042734Y-98730000D01*
X145957266Y-98730000D01*
X145829450Y-98717411D01*
X145665455Y-98667664D01*
X145665452Y-98667663D01*
X145514314Y-98586877D01*
X145381840Y-98478160D01*
X145273123Y-98345686D01*
X145192337Y-98194548D01*
X145192336Y-98194545D01*
X145142589Y-98030550D01*
X145125791Y-97860000D01*
X145142589Y-97689450D01*
X145192336Y-97525455D01*
X145192337Y-97525452D01*
X145273123Y-97374314D01*
X145381840Y-97241840D01*
X145514314Y-97133123D01*
X145665452Y-97052337D01*
X145665455Y-97052336D01*
X145829450Y-97002589D01*
X145957266Y-96990000D01*
X146042734Y-96990000D01*
X146170550Y-97002589D01*
X146170550Y-97002589D01*
G37*
G36*
X138790603Y-95934582D02*
G01*
X138832340Y-95947244D01*
X138870807Y-95967804D01*
X138904525Y-95995475D01*
X138932196Y-96029193D01*
X138952756Y-96067660D01*
X138965418Y-96109397D01*
X138970000Y-96155921D01*
X138970000Y-96894079D01*
X138965418Y-96940603D01*
X138952756Y-96982340D01*
X138932196Y-97020807D01*
X138904525Y-97054525D01*
X138870807Y-97082196D01*
X138832340Y-97102756D01*
X138790603Y-97115418D01*
X138744079Y-97120000D01*
X137755921Y-97120000D01*
X137709397Y-97115418D01*
X137667660Y-97102756D01*
X137629193Y-97082196D01*
X137595475Y-97054525D01*
X137567804Y-97020807D01*
X137547244Y-96982340D01*
X137534582Y-96940603D01*
X137530000Y-96894079D01*
X137530000Y-96155921D01*
X137534582Y-96109397D01*
X137547244Y-96067660D01*
X137567804Y-96029193D01*
X137595475Y-95995475D01*
X137629193Y-95967804D01*
X137667660Y-95947244D01*
X137709397Y-95934582D01*
X137755921Y-95930000D01*
X138744079Y-95930000D01*
X138790603Y-95934582D01*
X138790603Y-95934582D01*
G37*
G36*
X141040603Y-95884582D02*
G01*
X141082340Y-95897244D01*
X141120807Y-95917804D01*
X141154525Y-95945475D01*
X141182196Y-95979193D01*
X141202756Y-96017660D01*
X141215418Y-96059397D01*
X141220000Y-96105921D01*
X141220000Y-96844079D01*
X141215418Y-96890603D01*
X141202756Y-96932340D01*
X141182196Y-96970807D01*
X141154525Y-97004525D01*
X141120807Y-97032196D01*
X141082340Y-97052756D01*
X141040603Y-97065418D01*
X140994079Y-97070000D01*
X140005921Y-97070000D01*
X139959397Y-97065418D01*
X139917660Y-97052756D01*
X139879193Y-97032196D01*
X139845475Y-97004525D01*
X139817804Y-96970807D01*
X139797244Y-96932340D01*
X139784582Y-96890603D01*
X139780000Y-96844079D01*
X139780000Y-96105921D01*
X139784582Y-96059397D01*
X139797244Y-96017660D01*
X139817804Y-95979193D01*
X139845475Y-95945475D01*
X139879193Y-95917804D01*
X139917660Y-95897244D01*
X139959397Y-95884582D01*
X140005921Y-95880000D01*
X140994079Y-95880000D01*
X141040603Y-95884582D01*
X141040603Y-95884582D01*
G37*
G36*
X143540603Y-95884582D02*
G01*
X143582340Y-95897244D01*
X143620807Y-95917804D01*
X143654525Y-95945475D01*
X143682196Y-95979193D01*
X143702756Y-96017660D01*
X143715418Y-96059397D01*
X143720000Y-96105921D01*
X143720000Y-96844079D01*
X143715418Y-96890603D01*
X143702756Y-96932340D01*
X143682196Y-96970807D01*
X143654525Y-97004525D01*
X143620807Y-97032196D01*
X143582340Y-97052756D01*
X143540603Y-97065418D01*
X143494079Y-97070000D01*
X142505921Y-97070000D01*
X142459397Y-97065418D01*
X142417660Y-97052756D01*
X142379193Y-97032196D01*
X142345475Y-97004525D01*
X142317804Y-96970807D01*
X142297244Y-96932340D01*
X142284582Y-96890603D01*
X142280000Y-96844079D01*
X142280000Y-96105921D01*
X142284582Y-96059397D01*
X142297244Y-96017660D01*
X142317804Y-95979193D01*
X142345475Y-95945475D01*
X142379193Y-95917804D01*
X142417660Y-95897244D01*
X142459397Y-95884582D01*
X142505921Y-95880000D01*
X143494079Y-95880000D01*
X143540603Y-95884582D01*
X143540603Y-95884582D01*
G37*
G36*
X130909727Y-94309800D02*
G01*
X131057526Y-94339198D01*
X131243148Y-94416085D01*
X131410211Y-94527713D01*
X131552287Y-94669789D01*
X131663915Y-94836852D01*
X131740802Y-95022474D01*
X131750463Y-95071045D01*
X131780000Y-95219539D01*
X131780000Y-95420461D01*
X131773260Y-95454343D01*
X131740802Y-95617526D01*
X131663915Y-95803148D01*
X131552287Y-95970211D01*
X131410211Y-96112287D01*
X131243148Y-96223915D01*
X131057526Y-96300802D01*
X130909727Y-96330200D01*
X130860461Y-96340000D01*
X130659539Y-96340000D01*
X130610274Y-96330201D01*
X130462474Y-96300802D01*
X130276852Y-96223915D01*
X130109789Y-96112287D01*
X129967713Y-95970211D01*
X129856085Y-95803148D01*
X129779198Y-95617526D01*
X129746740Y-95454343D01*
X129740000Y-95420461D01*
X129740000Y-95219539D01*
X129769537Y-95071045D01*
X129779198Y-95022474D01*
X129856085Y-94836852D01*
X129967713Y-94669789D01*
X130109789Y-94527713D01*
X130276852Y-94416085D01*
X130462474Y-94339198D01*
X130610273Y-94309800D01*
X130659539Y-94300000D01*
X130860461Y-94300000D01*
X130909727Y-94309800D01*
X130909727Y-94309800D01*
G37*
G36*
X146870000Y-96190000D02*
G01*
X145130000Y-96190000D01*
X145130000Y-94450000D01*
X146870000Y-94450000D01*
X146870000Y-96190000D01*
X146870000Y-96190000D01*
G37*
G36*
X151582334Y-95286077D02*
G01*
X151661505Y-95310093D01*
X151661507Y-95310094D01*
X151734467Y-95349092D01*
X151734469Y-95349093D01*
X151734468Y-95349093D01*
X151798422Y-95401578D01*
X151846202Y-95459799D01*
X151850908Y-95465533D01*
X151889906Y-95538493D01*
X151889907Y-95538495D01*
X151913923Y-95617666D01*
X151922032Y-95700000D01*
X151913923Y-95782334D01*
X151890781Y-95858624D01*
X151889906Y-95861507D01*
X151850908Y-95934467D01*
X151850494Y-95934971D01*
X151798422Y-95998422D01*
X151741700Y-96044972D01*
X151734467Y-96050908D01*
X151718585Y-96059397D01*
X151661505Y-96089907D01*
X151582334Y-96113923D01*
X151520632Y-96120000D01*
X151479368Y-96120000D01*
X151417666Y-96113923D01*
X151338495Y-96089907D01*
X151281415Y-96059397D01*
X151265533Y-96050908D01*
X151258300Y-96044972D01*
X151201578Y-95998422D01*
X151149506Y-95934971D01*
X151149092Y-95934467D01*
X151110094Y-95861507D01*
X151109219Y-95858624D01*
X151086077Y-95782334D01*
X151077968Y-95700000D01*
X151086077Y-95617666D01*
X151110093Y-95538495D01*
X151110094Y-95538493D01*
X151149092Y-95465533D01*
X151153798Y-95459799D01*
X151201578Y-95401578D01*
X151265532Y-95349093D01*
X151265531Y-95349093D01*
X151265533Y-95349092D01*
X151338493Y-95310094D01*
X151338495Y-95310093D01*
X151417666Y-95286077D01*
X151479368Y-95280000D01*
X151520632Y-95280000D01*
X151582334Y-95286077D01*
X151582334Y-95286077D01*
G37*
G36*
X156582334Y-95286077D02*
G01*
X156661505Y-95310093D01*
X156661507Y-95310094D01*
X156734467Y-95349092D01*
X156734469Y-95349093D01*
X156734468Y-95349093D01*
X156798422Y-95401578D01*
X156846202Y-95459799D01*
X156850908Y-95465533D01*
X156889906Y-95538493D01*
X156889907Y-95538495D01*
X156913923Y-95617666D01*
X156922032Y-95700000D01*
X156913923Y-95782334D01*
X156890781Y-95858624D01*
X156889906Y-95861507D01*
X156850908Y-95934467D01*
X156850494Y-95934971D01*
X156798422Y-95998422D01*
X156741700Y-96044972D01*
X156734467Y-96050908D01*
X156718585Y-96059397D01*
X156661505Y-96089907D01*
X156582334Y-96113923D01*
X156520632Y-96120000D01*
X156479368Y-96120000D01*
X156417666Y-96113923D01*
X156338495Y-96089907D01*
X156281415Y-96059397D01*
X156265533Y-96050908D01*
X156258300Y-96044972D01*
X156201578Y-95998422D01*
X156149506Y-95934971D01*
X156149092Y-95934467D01*
X156110094Y-95861507D01*
X156109219Y-95858624D01*
X156086077Y-95782334D01*
X156077968Y-95700000D01*
X156086077Y-95617666D01*
X156110093Y-95538495D01*
X156110094Y-95538493D01*
X156149092Y-95465533D01*
X156153798Y-95459799D01*
X156201578Y-95401578D01*
X156265532Y-95349093D01*
X156265531Y-95349093D01*
X156265533Y-95349092D01*
X156338493Y-95310094D01*
X156338495Y-95310093D01*
X156417666Y-95286077D01*
X156479368Y-95280000D01*
X156520632Y-95280000D01*
X156582334Y-95286077D01*
X156582334Y-95286077D01*
G37*
G36*
X136522421Y-94359419D02*
G01*
X136562570Y-94371599D01*
X136599572Y-94391376D01*
X136632006Y-94417994D01*
X136658624Y-94450428D01*
X136678401Y-94487430D01*
X136690581Y-94527579D01*
X136695000Y-94572450D01*
X136695000Y-95677550D01*
X136690581Y-95722421D01*
X136678401Y-95762570D01*
X136658624Y-95799572D01*
X136632006Y-95832006D01*
X136599572Y-95858624D01*
X136562570Y-95878401D01*
X136522421Y-95890581D01*
X136477550Y-95895000D01*
X134522450Y-95895000D01*
X134477579Y-95890581D01*
X134437430Y-95878401D01*
X134400428Y-95858624D01*
X134367994Y-95832006D01*
X134341376Y-95799572D01*
X134321599Y-95762570D01*
X134309419Y-95722421D01*
X134305000Y-95677550D01*
X134305000Y-94572450D01*
X134309419Y-94527579D01*
X134321599Y-94487430D01*
X134341376Y-94450428D01*
X134367994Y-94417994D01*
X134400428Y-94391376D01*
X134437430Y-94371599D01*
X134477579Y-94359419D01*
X134522450Y-94355000D01*
X136477550Y-94355000D01*
X136522421Y-94359419D01*
X136522421Y-94359419D01*
G37*
G36*
X150421044Y-93640780D02*
G01*
X150561477Y-93683380D01*
X150561480Y-93683381D01*
X150677616Y-93745458D01*
X150690901Y-93752559D01*
X150804343Y-93845657D01*
X150897441Y-93959098D01*
X150897442Y-93959100D01*
X150966619Y-94088519D01*
X150966619Y-94088520D01*
X150966620Y-94088522D01*
X151009220Y-94228955D01*
X151020000Y-94338408D01*
X151020000Y-94961592D01*
X151009220Y-95071045D01*
X150982508Y-95159101D01*
X150966619Y-95211481D01*
X150962311Y-95219540D01*
X150897441Y-95340902D01*
X150804343Y-95454343D01*
X150690902Y-95547441D01*
X150690900Y-95547442D01*
X150561481Y-95616619D01*
X150561478Y-95616620D01*
X150421045Y-95659220D01*
X150275000Y-95673604D01*
X150128956Y-95659220D01*
X149988523Y-95616620D01*
X149988520Y-95616619D01*
X149859101Y-95547442D01*
X149859099Y-95547441D01*
X149745658Y-95454343D01*
X149652560Y-95340902D01*
X149583380Y-95211478D01*
X149540780Y-95071045D01*
X149530000Y-94961592D01*
X149530000Y-94338409D01*
X149540780Y-94228956D01*
X149583380Y-94088523D01*
X149583381Y-94088520D01*
X149652558Y-93959101D01*
X149652559Y-93959099D01*
X149745657Y-93845657D01*
X149859098Y-93752559D01*
X149872383Y-93745458D01*
X149988519Y-93683381D01*
X149988522Y-93683380D01*
X150128955Y-93640780D01*
X150275000Y-93626396D01*
X150421044Y-93640780D01*
X150421044Y-93640780D01*
G37*
G36*
X157871044Y-93640780D02*
G01*
X158011477Y-93683380D01*
X158011480Y-93683381D01*
X158127616Y-93745458D01*
X158140901Y-93752559D01*
X158254343Y-93845657D01*
X158347441Y-93959098D01*
X158347442Y-93959100D01*
X158416619Y-94088519D01*
X158416619Y-94088520D01*
X158416620Y-94088522D01*
X158459220Y-94228955D01*
X158470000Y-94338408D01*
X158470000Y-94961592D01*
X158459220Y-95071045D01*
X158432508Y-95159101D01*
X158416619Y-95211481D01*
X158412311Y-95219540D01*
X158347441Y-95340902D01*
X158254343Y-95454343D01*
X158140902Y-95547441D01*
X158140900Y-95547442D01*
X158011481Y-95616619D01*
X158011478Y-95616620D01*
X157871045Y-95659220D01*
X157725000Y-95673604D01*
X157578956Y-95659220D01*
X157438523Y-95616620D01*
X157438520Y-95616619D01*
X157309101Y-95547442D01*
X157309099Y-95547441D01*
X157195658Y-95454343D01*
X157102560Y-95340902D01*
X157033380Y-95211478D01*
X156990780Y-95071045D01*
X156980000Y-94961592D01*
X156980000Y-94338409D01*
X156990780Y-94228956D01*
X157033380Y-94088523D01*
X157033381Y-94088520D01*
X157102558Y-93959101D01*
X157102559Y-93959099D01*
X157195657Y-93845657D01*
X157309098Y-93752559D01*
X157322383Y-93745458D01*
X157438519Y-93683381D01*
X157438522Y-93683380D01*
X157578955Y-93640780D01*
X157725000Y-93626396D01*
X157871044Y-93640780D01*
X157871044Y-93640780D01*
G37*
G36*
X164040603Y-94434582D02*
G01*
X164082340Y-94447244D01*
X164120807Y-94467804D01*
X164154525Y-94495475D01*
X164182196Y-94529193D01*
X164202756Y-94567660D01*
X164215418Y-94609397D01*
X164220000Y-94655921D01*
X164220000Y-95394079D01*
X164215418Y-95440603D01*
X164202756Y-95482340D01*
X164182196Y-95520807D01*
X164154525Y-95554525D01*
X164120807Y-95582196D01*
X164082340Y-95602756D01*
X164040603Y-95615418D01*
X163994079Y-95620000D01*
X163005921Y-95620000D01*
X162959397Y-95615418D01*
X162917660Y-95602756D01*
X162879193Y-95582196D01*
X162845475Y-95554525D01*
X162817804Y-95520807D01*
X162797244Y-95482340D01*
X162784582Y-95440603D01*
X162780000Y-95394079D01*
X162780000Y-94655921D01*
X162784582Y-94609397D01*
X162797244Y-94567660D01*
X162817804Y-94529193D01*
X162845475Y-94495475D01*
X162879193Y-94467804D01*
X162917660Y-94447244D01*
X162959397Y-94434582D01*
X163005921Y-94430000D01*
X163994079Y-94430000D01*
X164040603Y-94434582D01*
X164040603Y-94434582D01*
G37*
G36*
X152945000Y-95270000D02*
G01*
X152455000Y-95270000D01*
X152455000Y-93930000D01*
X152945000Y-93930000D01*
X152945000Y-95270000D01*
X152945000Y-95270000D01*
G37*
G36*
X155545000Y-95270000D02*
G01*
X155055000Y-95270000D01*
X155055000Y-93930000D01*
X155545000Y-93930000D01*
X155545000Y-95270000D01*
X155545000Y-95270000D01*
G37*
G36*
X154895000Y-95270000D02*
G01*
X154405000Y-95270000D01*
X154405000Y-93930000D01*
X154895000Y-93930000D01*
X154895000Y-95270000D01*
X154895000Y-95270000D01*
G37*
G36*
X154245000Y-95270000D02*
G01*
X153755000Y-95270000D01*
X153755000Y-93930000D01*
X154245000Y-93930000D01*
X154245000Y-95270000D01*
X154245000Y-95270000D01*
G37*
G36*
X153595000Y-95270000D02*
G01*
X153105000Y-95270000D01*
X153105000Y-93930000D01*
X153595000Y-93930000D01*
X153595000Y-95270000D01*
X153595000Y-95270000D01*
G37*
G36*
X138790603Y-93884582D02*
G01*
X138832340Y-93897244D01*
X138870807Y-93917804D01*
X138904525Y-93945475D01*
X138932196Y-93979193D01*
X138952756Y-94017660D01*
X138965418Y-94059397D01*
X138970000Y-94105921D01*
X138970000Y-94844079D01*
X138965418Y-94890603D01*
X138952756Y-94932340D01*
X138932196Y-94970807D01*
X138904525Y-95004525D01*
X138870807Y-95032196D01*
X138832340Y-95052756D01*
X138790603Y-95065418D01*
X138744079Y-95070000D01*
X137755921Y-95070000D01*
X137709397Y-95065418D01*
X137667660Y-95052756D01*
X137629193Y-95032196D01*
X137595475Y-95004525D01*
X137567804Y-94970807D01*
X137547244Y-94932340D01*
X137534582Y-94890603D01*
X137530000Y-94844079D01*
X137530000Y-94105921D01*
X137534582Y-94059397D01*
X137547244Y-94017660D01*
X137567804Y-93979193D01*
X137595475Y-93945475D01*
X137629193Y-93917804D01*
X137667660Y-93897244D01*
X137709397Y-93884582D01*
X137755921Y-93880000D01*
X138744079Y-93880000D01*
X138790603Y-93884582D01*
X138790603Y-93884582D01*
G37*
G36*
X143540603Y-93754582D02*
G01*
X143582340Y-93767244D01*
X143620807Y-93787804D01*
X143654525Y-93815475D01*
X143682196Y-93849193D01*
X143702756Y-93887660D01*
X143715418Y-93929397D01*
X143720000Y-93975921D01*
X143720000Y-94714079D01*
X143715418Y-94760603D01*
X143702756Y-94802340D01*
X143682196Y-94840807D01*
X143654525Y-94874525D01*
X143620807Y-94902196D01*
X143582340Y-94922756D01*
X143540603Y-94935418D01*
X143494079Y-94940000D01*
X142505921Y-94940000D01*
X142459397Y-94935418D01*
X142417660Y-94922756D01*
X142379193Y-94902196D01*
X142345475Y-94874525D01*
X142317804Y-94840807D01*
X142297244Y-94802340D01*
X142284582Y-94760603D01*
X142280000Y-94714079D01*
X142280000Y-93975921D01*
X142284582Y-93929397D01*
X142297244Y-93887660D01*
X142317804Y-93849193D01*
X142345475Y-93815475D01*
X142379193Y-93787804D01*
X142417660Y-93767244D01*
X142459397Y-93754582D01*
X142505921Y-93750000D01*
X143494079Y-93750000D01*
X143540603Y-93754582D01*
X143540603Y-93754582D01*
G37*
G36*
X165890603Y-92784582D02*
G01*
X165932340Y-92797244D01*
X165970807Y-92817804D01*
X166004525Y-92845475D01*
X166032196Y-92879193D01*
X166052756Y-92917660D01*
X166065418Y-92959397D01*
X166070000Y-93005921D01*
X166070000Y-93994079D01*
X166065418Y-94040603D01*
X166052756Y-94082340D01*
X166032196Y-94120807D01*
X166004525Y-94154525D01*
X165970807Y-94182196D01*
X165932340Y-94202756D01*
X165890603Y-94215418D01*
X165844079Y-94220000D01*
X165105921Y-94220000D01*
X165059397Y-94215418D01*
X165017660Y-94202756D01*
X164979193Y-94182196D01*
X164945475Y-94154525D01*
X164917804Y-94120807D01*
X164897244Y-94082340D01*
X164884582Y-94040603D01*
X164880000Y-93994079D01*
X164880000Y-93005921D01*
X164884582Y-92959397D01*
X164897244Y-92917660D01*
X164917804Y-92879193D01*
X164945475Y-92845475D01*
X164979193Y-92817804D01*
X165017660Y-92797244D01*
X165059397Y-92784582D01*
X165105921Y-92780000D01*
X165844079Y-92780000D01*
X165890603Y-92784582D01*
X165890603Y-92784582D01*
G37*
G36*
X167940603Y-92784582D02*
G01*
X167982340Y-92797244D01*
X168020807Y-92817804D01*
X168054525Y-92845475D01*
X168082196Y-92879193D01*
X168102756Y-92917660D01*
X168115418Y-92959397D01*
X168120000Y-93005921D01*
X168120000Y-93994079D01*
X168115418Y-94040603D01*
X168102756Y-94082340D01*
X168082196Y-94120807D01*
X168054525Y-94154525D01*
X168020807Y-94182196D01*
X167982340Y-94202756D01*
X167940603Y-94215418D01*
X167894079Y-94220000D01*
X167155921Y-94220000D01*
X167109397Y-94215418D01*
X167067660Y-94202756D01*
X167029193Y-94182196D01*
X166995475Y-94154525D01*
X166967804Y-94120807D01*
X166947244Y-94082340D01*
X166934582Y-94040603D01*
X166930000Y-93994079D01*
X166930000Y-93005921D01*
X166934582Y-92959397D01*
X166947244Y-92917660D01*
X166967804Y-92879193D01*
X166995475Y-92845475D01*
X167029193Y-92817804D01*
X167067660Y-92797244D01*
X167109397Y-92784582D01*
X167155921Y-92780000D01*
X167894079Y-92780000D01*
X167940603Y-92784582D01*
X167940603Y-92784582D01*
G37*
G36*
X124010000Y-93650000D02*
G01*
X122270000Y-93650000D01*
X122270000Y-91910000D01*
X124010000Y-91910000D01*
X124010000Y-93650000D01*
X124010000Y-93650000D01*
G37*
G36*
X164040603Y-92384582D02*
G01*
X164082340Y-92397244D01*
X164120807Y-92417804D01*
X164154525Y-92445475D01*
X164182196Y-92479193D01*
X164202756Y-92517660D01*
X164215418Y-92559397D01*
X164220000Y-92605921D01*
X164220000Y-93344079D01*
X164215418Y-93390603D01*
X164202756Y-93432340D01*
X164182196Y-93470807D01*
X164154525Y-93504525D01*
X164120807Y-93532196D01*
X164082340Y-93552756D01*
X164040603Y-93565418D01*
X163994079Y-93570000D01*
X163005921Y-93570000D01*
X162959397Y-93565418D01*
X162917660Y-93552756D01*
X162879193Y-93532196D01*
X162845475Y-93504525D01*
X162817804Y-93470807D01*
X162797244Y-93432340D01*
X162784582Y-93390603D01*
X162780000Y-93344079D01*
X162780000Y-92605921D01*
X162784582Y-92559397D01*
X162797244Y-92517660D01*
X162817804Y-92479193D01*
X162845475Y-92445475D01*
X162879193Y-92417804D01*
X162917660Y-92397244D01*
X162959397Y-92384582D01*
X163005921Y-92380000D01*
X163994079Y-92380000D01*
X164040603Y-92384582D01*
X164040603Y-92384582D01*
G37*
G36*
X133440603Y-91784582D02*
G01*
X133482340Y-91797244D01*
X133520807Y-91817804D01*
X133554525Y-91845475D01*
X133582196Y-91879193D01*
X133602756Y-91917660D01*
X133615418Y-91959397D01*
X133620000Y-92005921D01*
X133620000Y-92994079D01*
X133615418Y-93040603D01*
X133602756Y-93082340D01*
X133582196Y-93120807D01*
X133554525Y-93154525D01*
X133520807Y-93182196D01*
X133482340Y-93202756D01*
X133440603Y-93215418D01*
X133394079Y-93220000D01*
X132655921Y-93220000D01*
X132609397Y-93215418D01*
X132567660Y-93202756D01*
X132529193Y-93182196D01*
X132495475Y-93154525D01*
X132467804Y-93120807D01*
X132447244Y-93082340D01*
X132434582Y-93040603D01*
X132430000Y-92994079D01*
X132430000Y-92005921D01*
X132434582Y-91959397D01*
X132447244Y-91917660D01*
X132467804Y-91879193D01*
X132495475Y-91845475D01*
X132529193Y-91817804D01*
X132567660Y-91797244D01*
X132609397Y-91784582D01*
X132655921Y-91780000D01*
X133394079Y-91780000D01*
X133440603Y-91784582D01*
X133440603Y-91784582D01*
G37*
G36*
X131390603Y-91784582D02*
G01*
X131432340Y-91797244D01*
X131470807Y-91817804D01*
X131504525Y-91845475D01*
X131532196Y-91879193D01*
X131552756Y-91917660D01*
X131565418Y-91959397D01*
X131570000Y-92005921D01*
X131570000Y-92994079D01*
X131565418Y-93040603D01*
X131552756Y-93082340D01*
X131532196Y-93120807D01*
X131504525Y-93154525D01*
X131470807Y-93182196D01*
X131432340Y-93202756D01*
X131390603Y-93215418D01*
X131344079Y-93220000D01*
X130605921Y-93220000D01*
X130559397Y-93215418D01*
X130517660Y-93202756D01*
X130479193Y-93182196D01*
X130445475Y-93154525D01*
X130417804Y-93120807D01*
X130397244Y-93082340D01*
X130384582Y-93040603D01*
X130380000Y-92994079D01*
X130380000Y-92005921D01*
X130384582Y-91959397D01*
X130397244Y-91917660D01*
X130417804Y-91879193D01*
X130445475Y-91845475D01*
X130479193Y-91817804D01*
X130517660Y-91797244D01*
X130559397Y-91784582D01*
X130605921Y-91780000D01*
X131344079Y-91780000D01*
X131390603Y-91784582D01*
X131390603Y-91784582D01*
G37*
G36*
X143540603Y-91704582D02*
G01*
X143582340Y-91717244D01*
X143620807Y-91737804D01*
X143654525Y-91765475D01*
X143682196Y-91799193D01*
X143702756Y-91837660D01*
X143715418Y-91879397D01*
X143720000Y-91925921D01*
X143720000Y-92664079D01*
X143715418Y-92710603D01*
X143702756Y-92752340D01*
X143682196Y-92790807D01*
X143654525Y-92824525D01*
X143620807Y-92852196D01*
X143582340Y-92872756D01*
X143540603Y-92885418D01*
X143494079Y-92890000D01*
X142505921Y-92890000D01*
X142459397Y-92885418D01*
X142417660Y-92872756D01*
X142379193Y-92852196D01*
X142345475Y-92824525D01*
X142317804Y-92790807D01*
X142297244Y-92752340D01*
X142284582Y-92710603D01*
X142280000Y-92664079D01*
X142280000Y-91925921D01*
X142284582Y-91879397D01*
X142297244Y-91837660D01*
X142317804Y-91799193D01*
X142345475Y-91765475D01*
X142379193Y-91737804D01*
X142417660Y-91717244D01*
X142459397Y-91704582D01*
X142505921Y-91700000D01*
X143494079Y-91700000D01*
X143540603Y-91704582D01*
X143540603Y-91704582D01*
G37*
G36*
X127040603Y-91434582D02*
G01*
X127082340Y-91447244D01*
X127120807Y-91467804D01*
X127154525Y-91495475D01*
X127182196Y-91529193D01*
X127202756Y-91567660D01*
X127215418Y-91609397D01*
X127220000Y-91655921D01*
X127220000Y-92394079D01*
X127215418Y-92440603D01*
X127202756Y-92482340D01*
X127182196Y-92520807D01*
X127154525Y-92554525D01*
X127120807Y-92582196D01*
X127082340Y-92602756D01*
X127040603Y-92615418D01*
X126994079Y-92620000D01*
X126005921Y-92620000D01*
X125959397Y-92615418D01*
X125917660Y-92602756D01*
X125879193Y-92582196D01*
X125845475Y-92554525D01*
X125817804Y-92520807D01*
X125797244Y-92482340D01*
X125784582Y-92440603D01*
X125780000Y-92394079D01*
X125780000Y-91655921D01*
X125784582Y-91609397D01*
X125797244Y-91567660D01*
X125817804Y-91529193D01*
X125845475Y-91495475D01*
X125879193Y-91467804D01*
X125917660Y-91447244D01*
X125959397Y-91434582D01*
X126005921Y-91430000D01*
X126994079Y-91430000D01*
X127040603Y-91434582D01*
X127040603Y-91434582D01*
G37*
G36*
X158222421Y-90059419D02*
G01*
X158262570Y-90071599D01*
X158299572Y-90091376D01*
X158332006Y-90117994D01*
X158358624Y-90150428D01*
X158378401Y-90187430D01*
X158390581Y-90227579D01*
X158395000Y-90272450D01*
X158395000Y-92227550D01*
X158390581Y-92272421D01*
X158378401Y-92312570D01*
X158358624Y-92349572D01*
X158332006Y-92382006D01*
X158299572Y-92408624D01*
X158262570Y-92428401D01*
X158222421Y-92440581D01*
X158177550Y-92445000D01*
X157072450Y-92445000D01*
X157027579Y-92440581D01*
X156987430Y-92428401D01*
X156950428Y-92408624D01*
X156917994Y-92382006D01*
X156891376Y-92349572D01*
X156871599Y-92312570D01*
X156859419Y-92272421D01*
X156855000Y-92227550D01*
X156855000Y-90272450D01*
X156859419Y-90227579D01*
X156871599Y-90187430D01*
X156891376Y-90150428D01*
X156917994Y-90117994D01*
X156950428Y-90091376D01*
X156987430Y-90071599D01*
X157027579Y-90059419D01*
X157072450Y-90055000D01*
X158177550Y-90055000D01*
X158222421Y-90059419D01*
X158222421Y-90059419D01*
G37*
G36*
X154972421Y-90059419D02*
G01*
X155012570Y-90071599D01*
X155049572Y-90091376D01*
X155082006Y-90117994D01*
X155108624Y-90150428D01*
X155128401Y-90187430D01*
X155140581Y-90227579D01*
X155145000Y-90272450D01*
X155145000Y-92227550D01*
X155140581Y-92272421D01*
X155128401Y-92312570D01*
X155108624Y-92349572D01*
X155082006Y-92382006D01*
X155049572Y-92408624D01*
X155012570Y-92428401D01*
X154972421Y-92440581D01*
X154927550Y-92445000D01*
X153822450Y-92445000D01*
X153777579Y-92440581D01*
X153737430Y-92428401D01*
X153700428Y-92408624D01*
X153667994Y-92382006D01*
X153641376Y-92349572D01*
X153621599Y-92312570D01*
X153609419Y-92272421D01*
X153605000Y-92227550D01*
X153605000Y-90272450D01*
X153609419Y-90227579D01*
X153621599Y-90187430D01*
X153641376Y-90150428D01*
X153667994Y-90117994D01*
X153700428Y-90091376D01*
X153737430Y-90071599D01*
X153777579Y-90059419D01*
X153822450Y-90055000D01*
X154927550Y-90055000D01*
X154972421Y-90059419D01*
X154972421Y-90059419D01*
G37*
G36*
X152770000Y-91920000D02*
G01*
X150230000Y-91920000D01*
X150230000Y-90080000D01*
X152770000Y-90080000D01*
X152770000Y-91920000D01*
X152770000Y-91920000D01*
G37*
G36*
X148770000Y-91920000D02*
G01*
X146230000Y-91920000D01*
X146230000Y-90080000D01*
X148770000Y-90080000D01*
X148770000Y-91920000D01*
X148770000Y-91920000D01*
G37*
G36*
X167940603Y-90284582D02*
G01*
X167982340Y-90297244D01*
X168020807Y-90317804D01*
X168054525Y-90345475D01*
X168082196Y-90379193D01*
X168102756Y-90417660D01*
X168115418Y-90459397D01*
X168120000Y-90505921D01*
X168120000Y-91494079D01*
X168115418Y-91540603D01*
X168102756Y-91582340D01*
X168082196Y-91620807D01*
X168054525Y-91654525D01*
X168020807Y-91682196D01*
X167982340Y-91702756D01*
X167940603Y-91715418D01*
X167894079Y-91720000D01*
X167155921Y-91720000D01*
X167109397Y-91715418D01*
X167067660Y-91702756D01*
X167029193Y-91682196D01*
X166995475Y-91654525D01*
X166967804Y-91620807D01*
X166947244Y-91582340D01*
X166934582Y-91540603D01*
X166930000Y-91494079D01*
X166930000Y-90505921D01*
X166934582Y-90459397D01*
X166947244Y-90417660D01*
X166967804Y-90379193D01*
X166995475Y-90345475D01*
X167029193Y-90317804D01*
X167067660Y-90297244D01*
X167109397Y-90284582D01*
X167155921Y-90280000D01*
X167894079Y-90280000D01*
X167940603Y-90284582D01*
X167940603Y-90284582D01*
G37*
G36*
X165890603Y-90284582D02*
G01*
X165932340Y-90297244D01*
X165970807Y-90317804D01*
X166004525Y-90345475D01*
X166032196Y-90379193D01*
X166052756Y-90417660D01*
X166065418Y-90459397D01*
X166070000Y-90505921D01*
X166070000Y-91494079D01*
X166065418Y-91540603D01*
X166052756Y-91582340D01*
X166032196Y-91620807D01*
X166004525Y-91654525D01*
X165970807Y-91682196D01*
X165932340Y-91702756D01*
X165890603Y-91715418D01*
X165844079Y-91720000D01*
X165105921Y-91720000D01*
X165059397Y-91715418D01*
X165017660Y-91702756D01*
X164979193Y-91682196D01*
X164945475Y-91654525D01*
X164917804Y-91620807D01*
X164897244Y-91582340D01*
X164884582Y-91540603D01*
X164880000Y-91494079D01*
X164880000Y-90505921D01*
X164884582Y-90459397D01*
X164897244Y-90417660D01*
X164917804Y-90379193D01*
X164945475Y-90345475D01*
X164979193Y-90317804D01*
X165017660Y-90297244D01*
X165059397Y-90284582D01*
X165105921Y-90280000D01*
X165844079Y-90280000D01*
X165890603Y-90284582D01*
X165890603Y-90284582D01*
G37*
G36*
X164040603Y-90434582D02*
G01*
X164082340Y-90447244D01*
X164120807Y-90467804D01*
X164154525Y-90495475D01*
X164182196Y-90529193D01*
X164202756Y-90567660D01*
X164215418Y-90609397D01*
X164220000Y-90655921D01*
X164220000Y-91394079D01*
X164215418Y-91440603D01*
X164202756Y-91482340D01*
X164182196Y-91520807D01*
X164154525Y-91554525D01*
X164120807Y-91582196D01*
X164082340Y-91602756D01*
X164040603Y-91615418D01*
X163994079Y-91620000D01*
X163005921Y-91620000D01*
X162959397Y-91615418D01*
X162917660Y-91602756D01*
X162879193Y-91582196D01*
X162845475Y-91554525D01*
X162817804Y-91520807D01*
X162797244Y-91482340D01*
X162784582Y-91440603D01*
X162780000Y-91394079D01*
X162780000Y-90655921D01*
X162784582Y-90609397D01*
X162797244Y-90567660D01*
X162817804Y-90529193D01*
X162845475Y-90495475D01*
X162879193Y-90467804D01*
X162917660Y-90447244D01*
X162959397Y-90434582D01*
X163005921Y-90430000D01*
X163994079Y-90430000D01*
X164040603Y-90434582D01*
X164040603Y-90434582D01*
G37*
G36*
X123310550Y-89382589D02*
G01*
X123445739Y-89423598D01*
X123474548Y-89432337D01*
X123625686Y-89513123D01*
X123758160Y-89621840D01*
X123866877Y-89754314D01*
X123947663Y-89905452D01*
X123947664Y-89905455D01*
X123997411Y-90069450D01*
X124014209Y-90240000D01*
X123997411Y-90410550D01*
X123949043Y-90570000D01*
X123947663Y-90574548D01*
X123866877Y-90725686D01*
X123758160Y-90858160D01*
X123625686Y-90966877D01*
X123474548Y-91047663D01*
X123474545Y-91047664D01*
X123310550Y-91097411D01*
X123182734Y-91110000D01*
X123097266Y-91110000D01*
X122969450Y-91097411D01*
X122805455Y-91047664D01*
X122805452Y-91047663D01*
X122654314Y-90966877D01*
X122521840Y-90858160D01*
X122413123Y-90725686D01*
X122332337Y-90574548D01*
X122330957Y-90570000D01*
X122282589Y-90410550D01*
X122265791Y-90240000D01*
X122282589Y-90069450D01*
X122332336Y-89905455D01*
X122332337Y-89905452D01*
X122413123Y-89754314D01*
X122521840Y-89621840D01*
X122654314Y-89513123D01*
X122805452Y-89432337D01*
X122834261Y-89423598D01*
X122969450Y-89382589D01*
X123097266Y-89370000D01*
X123182734Y-89370000D01*
X123310550Y-89382589D01*
X123310550Y-89382589D01*
G37*
G36*
X138871537Y-89113971D02*
G01*
X138988413Y-89149424D01*
X139096121Y-89206996D01*
X139150994Y-89252029D01*
X139190527Y-89284473D01*
X139227404Y-89329408D01*
X139268006Y-89378881D01*
X139325576Y-89486586D01*
X139361029Y-89603462D01*
X139370000Y-89694541D01*
X139370000Y-90305459D01*
X139361029Y-90396538D01*
X139325576Y-90513414D01*
X139268004Y-90621122D01*
X139190528Y-90715528D01*
X139096122Y-90793004D01*
X138988414Y-90850576D01*
X138871538Y-90886029D01*
X138750000Y-90898000D01*
X138628463Y-90886029D01*
X138511587Y-90850576D01*
X138403879Y-90793004D01*
X138309476Y-90715529D01*
X138231994Y-90621119D01*
X138174424Y-90513414D01*
X138138971Y-90396538D01*
X138130000Y-90305459D01*
X138130000Y-89694542D01*
X138138971Y-89603463D01*
X138174424Y-89486587D01*
X138231996Y-89378879D01*
X138309471Y-89284476D01*
X138309473Y-89284473D01*
X138403880Y-89206995D01*
X138403879Y-89206995D01*
X138403881Y-89206994D01*
X138511586Y-89149424D01*
X138628462Y-89113971D01*
X138750000Y-89102000D01*
X138871537Y-89113971D01*
X138871537Y-89113971D01*
G37*
G36*
X137191818Y-89109553D02*
G01*
X137233278Y-89122129D01*
X137271479Y-89142549D01*
X137304968Y-89170032D01*
X137332451Y-89203521D01*
X137352871Y-89241722D01*
X137365447Y-89283182D01*
X137370000Y-89329408D01*
X137370000Y-90670592D01*
X137365447Y-90716818D01*
X137352871Y-90758278D01*
X137332451Y-90796479D01*
X137304968Y-90829968D01*
X137271479Y-90857451D01*
X137233278Y-90877871D01*
X137191818Y-90890447D01*
X137145592Y-90895000D01*
X136354408Y-90895000D01*
X136308182Y-90890447D01*
X136266722Y-90877871D01*
X136228521Y-90857451D01*
X136195032Y-90829968D01*
X136167549Y-90796479D01*
X136147129Y-90758278D01*
X136134553Y-90716818D01*
X136130000Y-90670592D01*
X136130000Y-89329408D01*
X136134553Y-89283182D01*
X136147129Y-89241722D01*
X136167549Y-89203521D01*
X136195032Y-89170032D01*
X136228521Y-89142549D01*
X136266722Y-89122129D01*
X136308182Y-89109553D01*
X136354408Y-89105000D01*
X137145592Y-89105000D01*
X137191818Y-89109553D01*
X137191818Y-89109553D01*
G37*
G36*
X127040603Y-89384582D02*
G01*
X127082340Y-89397244D01*
X127120807Y-89417804D01*
X127154525Y-89445475D01*
X127182196Y-89479193D01*
X127202756Y-89517660D01*
X127215418Y-89559397D01*
X127220000Y-89605921D01*
X127220000Y-90344079D01*
X127215418Y-90390603D01*
X127202756Y-90432340D01*
X127182196Y-90470807D01*
X127154525Y-90504525D01*
X127120807Y-90532196D01*
X127082340Y-90552756D01*
X127040603Y-90565418D01*
X126994079Y-90570000D01*
X126005921Y-90570000D01*
X125959397Y-90565418D01*
X125917660Y-90552756D01*
X125879193Y-90532196D01*
X125845475Y-90504525D01*
X125817804Y-90470807D01*
X125797244Y-90432340D01*
X125784582Y-90390603D01*
X125780000Y-90344079D01*
X125780000Y-89605921D01*
X125784582Y-89559397D01*
X125797244Y-89517660D01*
X125817804Y-89479193D01*
X125845475Y-89445475D01*
X125879193Y-89417804D01*
X125917660Y-89397244D01*
X125959397Y-89384582D01*
X126005921Y-89380000D01*
X126994079Y-89380000D01*
X127040603Y-89384582D01*
X127040603Y-89384582D01*
G37*
G36*
X164040603Y-88384582D02*
G01*
X164082340Y-88397244D01*
X164120807Y-88417804D01*
X164154525Y-88445475D01*
X164182196Y-88479193D01*
X164202756Y-88517660D01*
X164215418Y-88559397D01*
X164220000Y-88605921D01*
X164220000Y-89344079D01*
X164215418Y-89390603D01*
X164202756Y-89432340D01*
X164182196Y-89470807D01*
X164154525Y-89504525D01*
X164120807Y-89532196D01*
X164082340Y-89552756D01*
X164040603Y-89565418D01*
X163994079Y-89570000D01*
X163005921Y-89570000D01*
X162959397Y-89565418D01*
X162917660Y-89552756D01*
X162879193Y-89532196D01*
X162845475Y-89504525D01*
X162817804Y-89470807D01*
X162797244Y-89432340D01*
X162784582Y-89390603D01*
X162780000Y-89344079D01*
X162780000Y-88605921D01*
X162784582Y-88559397D01*
X162797244Y-88517660D01*
X162817804Y-88479193D01*
X162845475Y-88445475D01*
X162879193Y-88417804D01*
X162917660Y-88397244D01*
X162959397Y-88384582D01*
X163005921Y-88380000D01*
X163994079Y-88380000D01*
X164040603Y-88384582D01*
X164040603Y-88384582D01*
G37*
G36*
X161745000Y-89370000D02*
G01*
X161255000Y-89370000D01*
X161255000Y-88730000D01*
X161745000Y-88730000D01*
X161745000Y-89370000D01*
X161745000Y-89370000D01*
G37*
G36*
X167940603Y-87784582D02*
G01*
X167982340Y-87797244D01*
X168020807Y-87817804D01*
X168054525Y-87845475D01*
X168082196Y-87879193D01*
X168102756Y-87917660D01*
X168115418Y-87959397D01*
X168120000Y-88005921D01*
X168120000Y-88994079D01*
X168115418Y-89040603D01*
X168102756Y-89082340D01*
X168082196Y-89120807D01*
X168054525Y-89154525D01*
X168020807Y-89182196D01*
X167982340Y-89202756D01*
X167940603Y-89215418D01*
X167894079Y-89220000D01*
X167155921Y-89220000D01*
X167109397Y-89215418D01*
X167067660Y-89202756D01*
X167029193Y-89182196D01*
X166995475Y-89154525D01*
X166967804Y-89120807D01*
X166947244Y-89082340D01*
X166934582Y-89040603D01*
X166930000Y-88994079D01*
X166930000Y-88005921D01*
X166934582Y-87959397D01*
X166947244Y-87917660D01*
X166967804Y-87879193D01*
X166995475Y-87845475D01*
X167029193Y-87817804D01*
X167067660Y-87797244D01*
X167109397Y-87784582D01*
X167155921Y-87780000D01*
X167894079Y-87780000D01*
X167940603Y-87784582D01*
X167940603Y-87784582D01*
G37*
G36*
X165890603Y-87784582D02*
G01*
X165932340Y-87797244D01*
X165970807Y-87817804D01*
X166004525Y-87845475D01*
X166032196Y-87879193D01*
X166052756Y-87917660D01*
X166065418Y-87959397D01*
X166070000Y-88005921D01*
X166070000Y-88994079D01*
X166065418Y-89040603D01*
X166052756Y-89082340D01*
X166032196Y-89120807D01*
X166004525Y-89154525D01*
X165970807Y-89182196D01*
X165932340Y-89202756D01*
X165890603Y-89215418D01*
X165844079Y-89220000D01*
X165105921Y-89220000D01*
X165059397Y-89215418D01*
X165017660Y-89202756D01*
X164979193Y-89182196D01*
X164945475Y-89154525D01*
X164917804Y-89120807D01*
X164897244Y-89082340D01*
X164884582Y-89040603D01*
X164880000Y-88994079D01*
X164880000Y-88005921D01*
X164884582Y-87959397D01*
X164897244Y-87917660D01*
X164917804Y-87879193D01*
X164945475Y-87845475D01*
X164979193Y-87817804D01*
X165017660Y-87797244D01*
X165059397Y-87784582D01*
X165105921Y-87780000D01*
X165844079Y-87780000D01*
X165890603Y-87784582D01*
X165890603Y-87784582D01*
G37*
G36*
X170040603Y-87934582D02*
G01*
X170082340Y-87947244D01*
X170120807Y-87967804D01*
X170154525Y-87995475D01*
X170182196Y-88029193D01*
X170202756Y-88067660D01*
X170215418Y-88109397D01*
X170220000Y-88155921D01*
X170220000Y-88894079D01*
X170215418Y-88940603D01*
X170202756Y-88982340D01*
X170182196Y-89020807D01*
X170154525Y-89054525D01*
X170120807Y-89082196D01*
X170082340Y-89102756D01*
X170040603Y-89115418D01*
X169994079Y-89120000D01*
X169005921Y-89120000D01*
X168959397Y-89115418D01*
X168917660Y-89102756D01*
X168879193Y-89082196D01*
X168845475Y-89054525D01*
X168817804Y-89020807D01*
X168797244Y-88982340D01*
X168784582Y-88940603D01*
X168780000Y-88894079D01*
X168780000Y-88155921D01*
X168784582Y-88109397D01*
X168797244Y-88067660D01*
X168817804Y-88029193D01*
X168845475Y-87995475D01*
X168879193Y-87967804D01*
X168917660Y-87947244D01*
X168959397Y-87934582D01*
X169005921Y-87930000D01*
X169994079Y-87930000D01*
X170040603Y-87934582D01*
X170040603Y-87934582D01*
G37*
G36*
X143540603Y-87434582D02*
G01*
X143582340Y-87447244D01*
X143620807Y-87467804D01*
X143654525Y-87495475D01*
X143682196Y-87529193D01*
X143702756Y-87567660D01*
X143715418Y-87609397D01*
X143720000Y-87655921D01*
X143720000Y-88394079D01*
X143715418Y-88440603D01*
X143702756Y-88482340D01*
X143682196Y-88520807D01*
X143654525Y-88554525D01*
X143620807Y-88582196D01*
X143582340Y-88602756D01*
X143540603Y-88615418D01*
X143494079Y-88620000D01*
X142505921Y-88620000D01*
X142459397Y-88615418D01*
X142417660Y-88602756D01*
X142379193Y-88582196D01*
X142345475Y-88554525D01*
X142317804Y-88520807D01*
X142297244Y-88482340D01*
X142284582Y-88440603D01*
X142280000Y-88394079D01*
X142280000Y-87655921D01*
X142284582Y-87609397D01*
X142297244Y-87567660D01*
X142317804Y-87529193D01*
X142345475Y-87495475D01*
X142379193Y-87467804D01*
X142417660Y-87447244D01*
X142459397Y-87434582D01*
X142505921Y-87430000D01*
X143494079Y-87430000D01*
X143540603Y-87434582D01*
X143540603Y-87434582D01*
G37*
G36*
X123310550Y-86842589D02*
G01*
X123468832Y-86890603D01*
X123474548Y-86892337D01*
X123625686Y-86973123D01*
X123758160Y-87081840D01*
X123866877Y-87214314D01*
X123947663Y-87365452D01*
X123947664Y-87365455D01*
X123997411Y-87529450D01*
X124014209Y-87700000D01*
X123997411Y-87870550D01*
X123947664Y-88034545D01*
X123947663Y-88034548D01*
X123866877Y-88185686D01*
X123758160Y-88318160D01*
X123625686Y-88426877D01*
X123474548Y-88507663D01*
X123474545Y-88507664D01*
X123310550Y-88557411D01*
X123182734Y-88570000D01*
X123097266Y-88570000D01*
X122969450Y-88557411D01*
X122805455Y-88507664D01*
X122805452Y-88507663D01*
X122654314Y-88426877D01*
X122521840Y-88318160D01*
X122413123Y-88185686D01*
X122332337Y-88034548D01*
X122332336Y-88034545D01*
X122282589Y-87870550D01*
X122265791Y-87700000D01*
X122282589Y-87529450D01*
X122332336Y-87365455D01*
X122332337Y-87365452D01*
X122413123Y-87214314D01*
X122521840Y-87081840D01*
X122654314Y-86973123D01*
X122805452Y-86892337D01*
X122811168Y-86890603D01*
X122969450Y-86842589D01*
X123097266Y-86830000D01*
X123182734Y-86830000D01*
X123310550Y-86842589D01*
X123310550Y-86842589D01*
G37*
G36*
X158170550Y-86842589D02*
G01*
X158328832Y-86890603D01*
X158334548Y-86892337D01*
X158485686Y-86973123D01*
X158618160Y-87081840D01*
X158726877Y-87214314D01*
X158807663Y-87365452D01*
X158807664Y-87365455D01*
X158857411Y-87529450D01*
X158874209Y-87700000D01*
X158857411Y-87870550D01*
X158807664Y-88034545D01*
X158807663Y-88034548D01*
X158726877Y-88185686D01*
X158618160Y-88318160D01*
X158485686Y-88426877D01*
X158334548Y-88507663D01*
X158334545Y-88507664D01*
X158170550Y-88557411D01*
X158042734Y-88570000D01*
X157957266Y-88570000D01*
X157829450Y-88557411D01*
X157665455Y-88507664D01*
X157665452Y-88507663D01*
X157514314Y-88426877D01*
X157381840Y-88318160D01*
X157273123Y-88185686D01*
X157192337Y-88034548D01*
X157192336Y-88034545D01*
X157142589Y-87870550D01*
X157125791Y-87700000D01*
X157142589Y-87529450D01*
X157192336Y-87365455D01*
X157192337Y-87365452D01*
X157273123Y-87214314D01*
X157381840Y-87081840D01*
X157514314Y-86973123D01*
X157665452Y-86892337D01*
X157671168Y-86890603D01*
X157829450Y-86842589D01*
X157957266Y-86830000D01*
X158042734Y-86830000D01*
X158170550Y-86842589D01*
X158170550Y-86842589D01*
G37*
G36*
X127040603Y-86934582D02*
G01*
X127082340Y-86947244D01*
X127120807Y-86967804D01*
X127154525Y-86995475D01*
X127182196Y-87029193D01*
X127202756Y-87067660D01*
X127215418Y-87109397D01*
X127220000Y-87155921D01*
X127220000Y-87894079D01*
X127215418Y-87940603D01*
X127202756Y-87982340D01*
X127182196Y-88020807D01*
X127154525Y-88054525D01*
X127120807Y-88082196D01*
X127082340Y-88102756D01*
X127040603Y-88115418D01*
X126994079Y-88120000D01*
X126005921Y-88120000D01*
X125959397Y-88115418D01*
X125917660Y-88102756D01*
X125879193Y-88082196D01*
X125845475Y-88054525D01*
X125817804Y-88020807D01*
X125797244Y-87982340D01*
X125784582Y-87940603D01*
X125780000Y-87894079D01*
X125780000Y-87155921D01*
X125784582Y-87109397D01*
X125797244Y-87067660D01*
X125817804Y-87029193D01*
X125845475Y-86995475D01*
X125879193Y-86967804D01*
X125917660Y-86947244D01*
X125959397Y-86934582D01*
X126005921Y-86930000D01*
X126994079Y-86930000D01*
X127040603Y-86934582D01*
X127040603Y-86934582D01*
G37*
G36*
X163745000Y-87370000D02*
G01*
X163255000Y-87370000D01*
X163255000Y-86730000D01*
X163745000Y-86730000D01*
X163745000Y-87370000D01*
X163745000Y-87370000D01*
G37*
G36*
X161745000Y-87270000D02*
G01*
X161255000Y-87270000D01*
X161255000Y-86630000D01*
X161745000Y-86630000D01*
X161745000Y-87270000D01*
X161745000Y-87270000D01*
G37*
G36*
X170040603Y-85884582D02*
G01*
X170082340Y-85897244D01*
X170120807Y-85917804D01*
X170154525Y-85945475D01*
X170182196Y-85979193D01*
X170202756Y-86017660D01*
X170215418Y-86059397D01*
X170220000Y-86105921D01*
X170220000Y-86844079D01*
X170215418Y-86890603D01*
X170202756Y-86932340D01*
X170182196Y-86970807D01*
X170154525Y-87004525D01*
X170120807Y-87032196D01*
X170082340Y-87052756D01*
X170040603Y-87065418D01*
X169994079Y-87070000D01*
X169005921Y-87070000D01*
X168959397Y-87065418D01*
X168917660Y-87052756D01*
X168879193Y-87032196D01*
X168845475Y-87004525D01*
X168817804Y-86970807D01*
X168797244Y-86932340D01*
X168784582Y-86890603D01*
X168780000Y-86844079D01*
X168780000Y-86105921D01*
X168784582Y-86059397D01*
X168797244Y-86017660D01*
X168817804Y-85979193D01*
X168845475Y-85945475D01*
X168879193Y-85917804D01*
X168917660Y-85897244D01*
X168959397Y-85884582D01*
X169005921Y-85880000D01*
X169994079Y-85880000D01*
X170040603Y-85884582D01*
X170040603Y-85884582D01*
G37*
G36*
X167940603Y-85284582D02*
G01*
X167982340Y-85297244D01*
X168020807Y-85317804D01*
X168054525Y-85345475D01*
X168082196Y-85379193D01*
X168102756Y-85417660D01*
X168115418Y-85459397D01*
X168120000Y-85505921D01*
X168120000Y-86494079D01*
X168115418Y-86540603D01*
X168102756Y-86582340D01*
X168082196Y-86620807D01*
X168054525Y-86654525D01*
X168020807Y-86682196D01*
X167982340Y-86702756D01*
X167940603Y-86715418D01*
X167894079Y-86720000D01*
X167155921Y-86720000D01*
X167109397Y-86715418D01*
X167067660Y-86702756D01*
X167029193Y-86682196D01*
X166995475Y-86654525D01*
X166967804Y-86620807D01*
X166947244Y-86582340D01*
X166934582Y-86540603D01*
X166930000Y-86494079D01*
X166930000Y-85505921D01*
X166934582Y-85459397D01*
X166947244Y-85417660D01*
X166967804Y-85379193D01*
X166995475Y-85345475D01*
X167029193Y-85317804D01*
X167067660Y-85297244D01*
X167109397Y-85284582D01*
X167155921Y-85280000D01*
X167894079Y-85280000D01*
X167940603Y-85284582D01*
X167940603Y-85284582D01*
G37*
G36*
X165890603Y-85284582D02*
G01*
X165932340Y-85297244D01*
X165970807Y-85317804D01*
X166004525Y-85345475D01*
X166032196Y-85379193D01*
X166052756Y-85417660D01*
X166065418Y-85459397D01*
X166070000Y-85505921D01*
X166070000Y-86494079D01*
X166065418Y-86540603D01*
X166052756Y-86582340D01*
X166032196Y-86620807D01*
X166004525Y-86654525D01*
X165970807Y-86682196D01*
X165932340Y-86702756D01*
X165890603Y-86715418D01*
X165844079Y-86720000D01*
X165105921Y-86720000D01*
X165059397Y-86715418D01*
X165017660Y-86702756D01*
X164979193Y-86682196D01*
X164945475Y-86654525D01*
X164917804Y-86620807D01*
X164897244Y-86582340D01*
X164884582Y-86540603D01*
X164880000Y-86494079D01*
X164880000Y-85505921D01*
X164884582Y-85459397D01*
X164897244Y-85417660D01*
X164917804Y-85379193D01*
X164945475Y-85345475D01*
X164979193Y-85317804D01*
X165017660Y-85297244D01*
X165059397Y-85284582D01*
X165105921Y-85280000D01*
X165844079Y-85280000D01*
X165890603Y-85284582D01*
X165890603Y-85284582D01*
G37*
G36*
X155040603Y-85434582D02*
G01*
X155082340Y-85447244D01*
X155120807Y-85467804D01*
X155154525Y-85495475D01*
X155182196Y-85529193D01*
X155202756Y-85567660D01*
X155215418Y-85609397D01*
X155220000Y-85655921D01*
X155220000Y-86394079D01*
X155215418Y-86440603D01*
X155202756Y-86482340D01*
X155182196Y-86520807D01*
X155154525Y-86554525D01*
X155120807Y-86582196D01*
X155082340Y-86602756D01*
X155040603Y-86615418D01*
X154994079Y-86620000D01*
X154005921Y-86620000D01*
X153959397Y-86615418D01*
X153917660Y-86602756D01*
X153879193Y-86582196D01*
X153845475Y-86554525D01*
X153817804Y-86520807D01*
X153797244Y-86482340D01*
X153784582Y-86440603D01*
X153780000Y-86394079D01*
X153780000Y-85655921D01*
X153784582Y-85609397D01*
X153797244Y-85567660D01*
X153817804Y-85529193D01*
X153845475Y-85495475D01*
X153879193Y-85467804D01*
X153917660Y-85447244D01*
X153959397Y-85434582D01*
X154005921Y-85430000D01*
X154994079Y-85430000D01*
X155040603Y-85434582D01*
X155040603Y-85434582D01*
G37*
G36*
X143540603Y-85384582D02*
G01*
X143582340Y-85397244D01*
X143620807Y-85417804D01*
X143654525Y-85445475D01*
X143682196Y-85479193D01*
X143702756Y-85517660D01*
X143715418Y-85559397D01*
X143720000Y-85605921D01*
X143720000Y-86344079D01*
X143715418Y-86390603D01*
X143702756Y-86432340D01*
X143682196Y-86470807D01*
X143654525Y-86504525D01*
X143620807Y-86532196D01*
X143582340Y-86552756D01*
X143540603Y-86565418D01*
X143494079Y-86570000D01*
X142505921Y-86570000D01*
X142459397Y-86565418D01*
X142417660Y-86552756D01*
X142379193Y-86532196D01*
X142345475Y-86504525D01*
X142317804Y-86470807D01*
X142297244Y-86432340D01*
X142284582Y-86390603D01*
X142280000Y-86344079D01*
X142280000Y-85605921D01*
X142284582Y-85559397D01*
X142297244Y-85517660D01*
X142317804Y-85479193D01*
X142345475Y-85445475D01*
X142379193Y-85417804D01*
X142417660Y-85397244D01*
X142459397Y-85384582D01*
X142505921Y-85380000D01*
X143494079Y-85380000D01*
X143540603Y-85384582D01*
X143540603Y-85384582D01*
G37*
G36*
X149950000Y-86295000D02*
G01*
X148850000Y-86295000D01*
X148850000Y-85605000D01*
X149950000Y-85605000D01*
X149950000Y-86295000D01*
X149950000Y-86295000D01*
G37*
G36*
X152150000Y-86295000D02*
G01*
X151050000Y-86295000D01*
X151050000Y-85605000D01*
X152150000Y-85605000D01*
X152150000Y-86295000D01*
X152150000Y-86295000D01*
G37*
G36*
X138149727Y-84149800D02*
G01*
X138297526Y-84179198D01*
X138483148Y-84256085D01*
X138650211Y-84367713D01*
X138792287Y-84509789D01*
X138903915Y-84676852D01*
X138980802Y-84862474D01*
X139006059Y-84989453D01*
X139020000Y-85059539D01*
X139020000Y-85260461D01*
X139016113Y-85280000D01*
X138980802Y-85457526D01*
X138903915Y-85643148D01*
X138792287Y-85810211D01*
X138650211Y-85952287D01*
X138483148Y-86063915D01*
X138297526Y-86140802D01*
X138149727Y-86170200D01*
X138100461Y-86180000D01*
X137899539Y-86180000D01*
X137850273Y-86170200D01*
X137702474Y-86140802D01*
X137516852Y-86063915D01*
X137349789Y-85952287D01*
X137207713Y-85810211D01*
X137096085Y-85643148D01*
X137019198Y-85457526D01*
X136983887Y-85280000D01*
X136980000Y-85260461D01*
X136980000Y-85059539D01*
X136993941Y-84989453D01*
X137019198Y-84862474D01*
X137096085Y-84676852D01*
X137207713Y-84509789D01*
X137349789Y-84367713D01*
X137516852Y-84256085D01*
X137702474Y-84179198D01*
X137850273Y-84149800D01*
X137899539Y-84140000D01*
X138100461Y-84140000D01*
X138149727Y-84149800D01*
X138149727Y-84149800D01*
G37*
G36*
X127040603Y-84884582D02*
G01*
X127082340Y-84897244D01*
X127120807Y-84917804D01*
X127154525Y-84945475D01*
X127182196Y-84979193D01*
X127202756Y-85017660D01*
X127215418Y-85059397D01*
X127220000Y-85105921D01*
X127220000Y-85844079D01*
X127215418Y-85890603D01*
X127202756Y-85932340D01*
X127182196Y-85970807D01*
X127154525Y-86004525D01*
X127120807Y-86032196D01*
X127082340Y-86052756D01*
X127040603Y-86065418D01*
X126994079Y-86070000D01*
X126005921Y-86070000D01*
X125959397Y-86065418D01*
X125917660Y-86052756D01*
X125879193Y-86032196D01*
X125845475Y-86004525D01*
X125817804Y-85970807D01*
X125797244Y-85932340D01*
X125784582Y-85890603D01*
X125780000Y-85844079D01*
X125780000Y-85105921D01*
X125784582Y-85059397D01*
X125797244Y-85017660D01*
X125817804Y-84979193D01*
X125845475Y-84945475D01*
X125879193Y-84917804D01*
X125917660Y-84897244D01*
X125959397Y-84884582D01*
X126005921Y-84880000D01*
X126994079Y-84880000D01*
X127040603Y-84884582D01*
X127040603Y-84884582D01*
G37*
G36*
X123310550Y-84302589D02*
G01*
X123474545Y-84352336D01*
X123474548Y-84352337D01*
X123625686Y-84433123D01*
X123758160Y-84541840D01*
X123866877Y-84674314D01*
X123947663Y-84825452D01*
X123947664Y-84825455D01*
X123997411Y-84989450D01*
X124014209Y-85160000D01*
X123997411Y-85330550D01*
X123958326Y-85459397D01*
X123947663Y-85494548D01*
X123866877Y-85645686D01*
X123758160Y-85778160D01*
X123625686Y-85886877D01*
X123474548Y-85967663D01*
X123474545Y-85967664D01*
X123310550Y-86017411D01*
X123182734Y-86030000D01*
X123097266Y-86030000D01*
X122969450Y-86017411D01*
X122805455Y-85967664D01*
X122805452Y-85967663D01*
X122654314Y-85886877D01*
X122521840Y-85778160D01*
X122413123Y-85645686D01*
X122332337Y-85494548D01*
X122321674Y-85459397D01*
X122282589Y-85330550D01*
X122265791Y-85160000D01*
X122282589Y-84989450D01*
X122332336Y-84825455D01*
X122332337Y-84825452D01*
X122413123Y-84674314D01*
X122521840Y-84541840D01*
X122654314Y-84433123D01*
X122805452Y-84352337D01*
X122805455Y-84352336D01*
X122969450Y-84302589D01*
X123097266Y-84290000D01*
X123182734Y-84290000D01*
X123310550Y-84302589D01*
X123310550Y-84302589D01*
G37*
G36*
X158870000Y-86030000D02*
G01*
X157130000Y-86030000D01*
X157130000Y-84290000D01*
X158870000Y-84290000D01*
X158870000Y-86030000D01*
X158870000Y-86030000D01*
G37*
G36*
X149950000Y-85345000D02*
G01*
X148850000Y-85345000D01*
X148850000Y-84655000D01*
X149950000Y-84655000D01*
X149950000Y-85345000D01*
X149950000Y-85345000D01*
G37*
G36*
X163745000Y-85270000D02*
G01*
X163255000Y-85270000D01*
X163255000Y-84630000D01*
X163745000Y-84630000D01*
X163745000Y-85270000D01*
X163745000Y-85270000D01*
G37*
G36*
X170040603Y-83934582D02*
G01*
X170082340Y-83947244D01*
X170120807Y-83967804D01*
X170154525Y-83995475D01*
X170182196Y-84029193D01*
X170202756Y-84067660D01*
X170215418Y-84109397D01*
X170220000Y-84155921D01*
X170220000Y-84894079D01*
X170215418Y-84940603D01*
X170202756Y-84982340D01*
X170182196Y-85020807D01*
X170154525Y-85054525D01*
X170120807Y-85082196D01*
X170082340Y-85102756D01*
X170040603Y-85115418D01*
X169994079Y-85120000D01*
X169005921Y-85120000D01*
X168959397Y-85115418D01*
X168917660Y-85102756D01*
X168879193Y-85082196D01*
X168845475Y-85054525D01*
X168817804Y-85020807D01*
X168797244Y-84982340D01*
X168784582Y-84940603D01*
X168780000Y-84894079D01*
X168780000Y-84155921D01*
X168784582Y-84109397D01*
X168797244Y-84067660D01*
X168817804Y-84029193D01*
X168845475Y-83995475D01*
X168879193Y-83967804D01*
X168917660Y-83947244D01*
X168959397Y-83934582D01*
X169005921Y-83930000D01*
X169994079Y-83930000D01*
X170040603Y-83934582D01*
X170040603Y-83934582D01*
G37*
G36*
X143540603Y-83434582D02*
G01*
X143582340Y-83447244D01*
X143620807Y-83467804D01*
X143654525Y-83495475D01*
X143682196Y-83529193D01*
X143702756Y-83567660D01*
X143715418Y-83609397D01*
X143720000Y-83655921D01*
X143720000Y-84394079D01*
X143715418Y-84440603D01*
X143702756Y-84482340D01*
X143682196Y-84520807D01*
X143654525Y-84554525D01*
X143620807Y-84582196D01*
X143582340Y-84602756D01*
X143540603Y-84615418D01*
X143494079Y-84620000D01*
X142505921Y-84620000D01*
X142459397Y-84615418D01*
X142417660Y-84602756D01*
X142379193Y-84582196D01*
X142345475Y-84554525D01*
X142317804Y-84520807D01*
X142297244Y-84482340D01*
X142284582Y-84440603D01*
X142280000Y-84394079D01*
X142280000Y-83655921D01*
X142284582Y-83609397D01*
X142297244Y-83567660D01*
X142317804Y-83529193D01*
X142345475Y-83495475D01*
X142379193Y-83467804D01*
X142417660Y-83447244D01*
X142459397Y-83434582D01*
X142505921Y-83430000D01*
X143494079Y-83430000D01*
X143540603Y-83434582D01*
X143540603Y-83434582D01*
G37*
G36*
X155040603Y-83384582D02*
G01*
X155082340Y-83397244D01*
X155120807Y-83417804D01*
X155154525Y-83445475D01*
X155182196Y-83479193D01*
X155202756Y-83517660D01*
X155215418Y-83559397D01*
X155220000Y-83605921D01*
X155220000Y-84344079D01*
X155215418Y-84390603D01*
X155202756Y-84432340D01*
X155182196Y-84470807D01*
X155154525Y-84504525D01*
X155120807Y-84532196D01*
X155082340Y-84552756D01*
X155040603Y-84565418D01*
X154994079Y-84570000D01*
X154005921Y-84570000D01*
X153959397Y-84565418D01*
X153917660Y-84552756D01*
X153879193Y-84532196D01*
X153845475Y-84504525D01*
X153817804Y-84470807D01*
X153797244Y-84432340D01*
X153784582Y-84390603D01*
X153780000Y-84344079D01*
X153780000Y-83605921D01*
X153784582Y-83559397D01*
X153797244Y-83517660D01*
X153817804Y-83479193D01*
X153845475Y-83445475D01*
X153879193Y-83417804D01*
X153917660Y-83397244D01*
X153959397Y-83384582D01*
X154005921Y-83380000D01*
X154994079Y-83380000D01*
X155040603Y-83384582D01*
X155040603Y-83384582D01*
G37*
G36*
X152150000Y-84395000D02*
G01*
X151050000Y-84395000D01*
X151050000Y-83705000D01*
X152150000Y-83705000D01*
X152150000Y-84395000D01*
X152150000Y-84395000D01*
G37*
G36*
X149950000Y-84395000D02*
G01*
X148850000Y-84395000D01*
X148850000Y-83705000D01*
X149950000Y-83705000D01*
X149950000Y-84395000D01*
X149950000Y-84395000D01*
G37*
G36*
X165895000Y-84150000D02*
G01*
X165205000Y-84150000D01*
X165205000Y-83050000D01*
X165895000Y-83050000D01*
X165895000Y-84150000D01*
X165895000Y-84150000D01*
G37*
G36*
X167795000Y-84150000D02*
G01*
X167105000Y-84150000D01*
X167105000Y-83050000D01*
X167795000Y-83050000D01*
X167795000Y-84150000D01*
X167795000Y-84150000D01*
G37*
G36*
X162876462Y-83003726D02*
G01*
X162909848Y-83013853D01*
X162940608Y-83030295D01*
X162967574Y-83052426D01*
X162989705Y-83079392D01*
X163006147Y-83110152D01*
X163016274Y-83143538D01*
X163020000Y-83181367D01*
X163020000Y-83658633D01*
X163016274Y-83696462D01*
X163006147Y-83729848D01*
X162989705Y-83760608D01*
X162967574Y-83787574D01*
X162940608Y-83809705D01*
X162909848Y-83826147D01*
X162876462Y-83836274D01*
X162838633Y-83840000D01*
X161161367Y-83840000D01*
X161123538Y-83836274D01*
X161090152Y-83826147D01*
X161059392Y-83809705D01*
X161032426Y-83787574D01*
X161010295Y-83760608D01*
X160993853Y-83729848D01*
X160983726Y-83696462D01*
X160980000Y-83658633D01*
X160980000Y-83181367D01*
X160983726Y-83143538D01*
X160993853Y-83110152D01*
X161010295Y-83079392D01*
X161032426Y-83052426D01*
X161059392Y-83030295D01*
X161090152Y-83013853D01*
X161123538Y-83003726D01*
X161161367Y-83000000D01*
X162838633Y-83000000D01*
X162876462Y-83003726D01*
X162876462Y-83003726D01*
G37*
G36*
X129890603Y-82284582D02*
G01*
X129932340Y-82297244D01*
X129970807Y-82317804D01*
X130004525Y-82345475D01*
X130032196Y-82379193D01*
X130052756Y-82417660D01*
X130065418Y-82459397D01*
X130070000Y-82505921D01*
X130070000Y-83494079D01*
X130065418Y-83540603D01*
X130052756Y-83582340D01*
X130032196Y-83620807D01*
X130004525Y-83654525D01*
X129970807Y-83682196D01*
X129932340Y-83702756D01*
X129890603Y-83715418D01*
X129844079Y-83720000D01*
X129105921Y-83720000D01*
X129059397Y-83715418D01*
X129017660Y-83702756D01*
X128979193Y-83682196D01*
X128945475Y-83654525D01*
X128917804Y-83620807D01*
X128897244Y-83582340D01*
X128884582Y-83540603D01*
X128880000Y-83494079D01*
X128880000Y-82505921D01*
X128884582Y-82459397D01*
X128897244Y-82417660D01*
X128917804Y-82379193D01*
X128945475Y-82345475D01*
X128979193Y-82317804D01*
X129017660Y-82297244D01*
X129059397Y-82284582D01*
X129105921Y-82280000D01*
X129844079Y-82280000D01*
X129890603Y-82284582D01*
X129890603Y-82284582D01*
G37*
G36*
X131940603Y-82284582D02*
G01*
X131982340Y-82297244D01*
X132020807Y-82317804D01*
X132054525Y-82345475D01*
X132082196Y-82379193D01*
X132102756Y-82417660D01*
X132115418Y-82459397D01*
X132120000Y-82505921D01*
X132120000Y-83494079D01*
X132115418Y-83540603D01*
X132102756Y-83582340D01*
X132082196Y-83620807D01*
X132054525Y-83654525D01*
X132020807Y-83682196D01*
X131982340Y-83702756D01*
X131940603Y-83715418D01*
X131894079Y-83720000D01*
X131155921Y-83720000D01*
X131109397Y-83715418D01*
X131067660Y-83702756D01*
X131029193Y-83682196D01*
X130995475Y-83654525D01*
X130967804Y-83620807D01*
X130947244Y-83582340D01*
X130934582Y-83540603D01*
X130930000Y-83494079D01*
X130930000Y-82505921D01*
X130934582Y-82459397D01*
X130947244Y-82417660D01*
X130967804Y-82379193D01*
X130995475Y-82345475D01*
X131029193Y-82317804D01*
X131067660Y-82297244D01*
X131109397Y-82284582D01*
X131155921Y-82280000D01*
X131894079Y-82280000D01*
X131940603Y-82284582D01*
X131940603Y-82284582D01*
G37*
G36*
X123310550Y-81762589D02*
G01*
X123474545Y-81812336D01*
X123474548Y-81812337D01*
X123625686Y-81893123D01*
X123758160Y-82001840D01*
X123866877Y-82134314D01*
X123947663Y-82285452D01*
X123947664Y-82285455D01*
X123997411Y-82449450D01*
X124014209Y-82620000D01*
X123997411Y-82790550D01*
X123954400Y-82932340D01*
X123947663Y-82954548D01*
X123866877Y-83105686D01*
X123758160Y-83238160D01*
X123625686Y-83346877D01*
X123474548Y-83427663D01*
X123474545Y-83427664D01*
X123310550Y-83477411D01*
X123182734Y-83490000D01*
X123097266Y-83490000D01*
X122969450Y-83477411D01*
X122805455Y-83427664D01*
X122805452Y-83427663D01*
X122654314Y-83346877D01*
X122521840Y-83238160D01*
X122413123Y-83105686D01*
X122332337Y-82954548D01*
X122325600Y-82932340D01*
X122282589Y-82790550D01*
X122265791Y-82620000D01*
X122282589Y-82449450D01*
X122332336Y-82285455D01*
X122332337Y-82285452D01*
X122413123Y-82134314D01*
X122521840Y-82001840D01*
X122654314Y-81893123D01*
X122805452Y-81812337D01*
X122805455Y-81812336D01*
X122969450Y-81762589D01*
X123097266Y-81750000D01*
X123182734Y-81750000D01*
X123310550Y-81762589D01*
X123310550Y-81762589D01*
G37*
G36*
X170040603Y-81884582D02*
G01*
X170082340Y-81897244D01*
X170120807Y-81917804D01*
X170154525Y-81945475D01*
X170182196Y-81979193D01*
X170202756Y-82017660D01*
X170215418Y-82059397D01*
X170220000Y-82105921D01*
X170220000Y-82844079D01*
X170215418Y-82890603D01*
X170202756Y-82932340D01*
X170182196Y-82970807D01*
X170154525Y-83004525D01*
X170120807Y-83032196D01*
X170082340Y-83052756D01*
X170040603Y-83065418D01*
X169994079Y-83070000D01*
X169005921Y-83070000D01*
X168959397Y-83065418D01*
X168917660Y-83052756D01*
X168879193Y-83032196D01*
X168845475Y-83004525D01*
X168817804Y-82970807D01*
X168797244Y-82932340D01*
X168784582Y-82890603D01*
X168780000Y-82844079D01*
X168780000Y-82105921D01*
X168784582Y-82059397D01*
X168797244Y-82017660D01*
X168817804Y-81979193D01*
X168845475Y-81945475D01*
X168879193Y-81917804D01*
X168917660Y-81897244D01*
X168959397Y-81884582D01*
X169005921Y-81880000D01*
X169994079Y-81880000D01*
X170040603Y-81884582D01*
X170040603Y-81884582D01*
G37*
G36*
X136370000Y-82745000D02*
G01*
X135730000Y-82745000D01*
X135730000Y-82255000D01*
X136370000Y-82255000D01*
X136370000Y-82745000D01*
X136370000Y-82745000D01*
G37*
G36*
X134270000Y-82745000D02*
G01*
X133630000Y-82745000D01*
X133630000Y-82255000D01*
X134270000Y-82255000D01*
X134270000Y-82745000D01*
X134270000Y-82745000D01*
G37*
G36*
X143540603Y-81384582D02*
G01*
X143582340Y-81397244D01*
X143620807Y-81417804D01*
X143654525Y-81445475D01*
X143682196Y-81479193D01*
X143702756Y-81517660D01*
X143715418Y-81559397D01*
X143720000Y-81605921D01*
X143720000Y-82344079D01*
X143715418Y-82390603D01*
X143702756Y-82432340D01*
X143682196Y-82470807D01*
X143654525Y-82504525D01*
X143620807Y-82532196D01*
X143582340Y-82552756D01*
X143540603Y-82565418D01*
X143494079Y-82570000D01*
X142505921Y-82570000D01*
X142459397Y-82565418D01*
X142417660Y-82552756D01*
X142379193Y-82532196D01*
X142345475Y-82504525D01*
X142317804Y-82470807D01*
X142297244Y-82432340D01*
X142284582Y-82390603D01*
X142280000Y-82344079D01*
X142280000Y-81605921D01*
X142284582Y-81559397D01*
X142297244Y-81517660D01*
X142317804Y-81479193D01*
X142345475Y-81445475D01*
X142379193Y-81417804D01*
X142417660Y-81397244D01*
X142459397Y-81384582D01*
X142505921Y-81380000D01*
X143494079Y-81380000D01*
X143540603Y-81384582D01*
X143540603Y-81384582D01*
G37*
G36*
X159540603Y-80934582D02*
G01*
X159582340Y-80947244D01*
X159620807Y-80967804D01*
X159654525Y-80995475D01*
X159682196Y-81029193D01*
X159702756Y-81067660D01*
X159715418Y-81109397D01*
X159720000Y-81155921D01*
X159720000Y-81894079D01*
X159715418Y-81940603D01*
X159702756Y-81982340D01*
X159682196Y-82020807D01*
X159654525Y-82054525D01*
X159620807Y-82082196D01*
X159582340Y-82102756D01*
X159540603Y-82115418D01*
X159494079Y-82120000D01*
X158505921Y-82120000D01*
X158459397Y-82115418D01*
X158417660Y-82102756D01*
X158379193Y-82082196D01*
X158345475Y-82054525D01*
X158317804Y-82020807D01*
X158297244Y-81982340D01*
X158284582Y-81940603D01*
X158280000Y-81894079D01*
X158280000Y-81155921D01*
X158284582Y-81109397D01*
X158297244Y-81067660D01*
X158317804Y-81029193D01*
X158345475Y-80995475D01*
X158379193Y-80967804D01*
X158417660Y-80947244D01*
X158459397Y-80934582D01*
X158505921Y-80930000D01*
X159494079Y-80930000D01*
X159540603Y-80934582D01*
X159540603Y-80934582D01*
G37*
G36*
X165895000Y-81950000D02*
G01*
X165205000Y-81950000D01*
X165205000Y-80850000D01*
X165895000Y-80850000D01*
X165895000Y-81950000D01*
X165895000Y-81950000D01*
G37*
G36*
X167795000Y-81950000D02*
G01*
X167105000Y-81950000D01*
X167105000Y-80850000D01*
X167795000Y-80850000D01*
X167795000Y-81950000D01*
X167795000Y-81950000D01*
G37*
G36*
X166845000Y-81950000D02*
G01*
X166155000Y-81950000D01*
X166155000Y-80850000D01*
X166845000Y-80850000D01*
X166845000Y-81950000D01*
X166845000Y-81950000D01*
G37*
G36*
X126540603Y-80434582D02*
G01*
X126582340Y-80447244D01*
X126620807Y-80467804D01*
X126654525Y-80495475D01*
X126682196Y-80529193D01*
X126702756Y-80567660D01*
X126715418Y-80609397D01*
X126720000Y-80655921D01*
X126720000Y-81394079D01*
X126715418Y-81440603D01*
X126702756Y-81482340D01*
X126682196Y-81520807D01*
X126654525Y-81554525D01*
X126620807Y-81582196D01*
X126582340Y-81602756D01*
X126540603Y-81615418D01*
X126494079Y-81620000D01*
X125505921Y-81620000D01*
X125459397Y-81615418D01*
X125417660Y-81602756D01*
X125379193Y-81582196D01*
X125345475Y-81554525D01*
X125317804Y-81520807D01*
X125297244Y-81482340D01*
X125284582Y-81440603D01*
X125280000Y-81394079D01*
X125280000Y-80655921D01*
X125284582Y-80609397D01*
X125297244Y-80567660D01*
X125317804Y-80529193D01*
X125345475Y-80495475D01*
X125379193Y-80467804D01*
X125417660Y-80447244D01*
X125459397Y-80434582D01*
X125505921Y-80430000D01*
X126494079Y-80430000D01*
X126540603Y-80434582D01*
X126540603Y-80434582D01*
G37*
G36*
X132222421Y-78809419D02*
G01*
X132262570Y-78821599D01*
X132299572Y-78841376D01*
X132332006Y-78867994D01*
X132358624Y-78900428D01*
X132378401Y-78937430D01*
X132390581Y-78977579D01*
X132395000Y-79022450D01*
X132395000Y-80977550D01*
X132390581Y-81022421D01*
X132378401Y-81062570D01*
X132358624Y-81099572D01*
X132332006Y-81132006D01*
X132299572Y-81158624D01*
X132262570Y-81178401D01*
X132222421Y-81190581D01*
X132177550Y-81195000D01*
X131072450Y-81195000D01*
X131027579Y-81190581D01*
X130987430Y-81178401D01*
X130950428Y-81158624D01*
X130917994Y-81132006D01*
X130891376Y-81099572D01*
X130871599Y-81062570D01*
X130859419Y-81022421D01*
X130855000Y-80977550D01*
X130855000Y-79022450D01*
X130859419Y-78977579D01*
X130871599Y-78937430D01*
X130891376Y-78900428D01*
X130917994Y-78867994D01*
X130950428Y-78841376D01*
X130987430Y-78821599D01*
X131027579Y-78809419D01*
X131072450Y-78805000D01*
X132177550Y-78805000D01*
X132222421Y-78809419D01*
X132222421Y-78809419D01*
G37*
G36*
X128972421Y-78809419D02*
G01*
X129012570Y-78821599D01*
X129049572Y-78841376D01*
X129082006Y-78867994D01*
X129108624Y-78900428D01*
X129128401Y-78937430D01*
X129140581Y-78977579D01*
X129145000Y-79022450D01*
X129145000Y-80977550D01*
X129140581Y-81022421D01*
X129128401Y-81062570D01*
X129108624Y-81099572D01*
X129082006Y-81132006D01*
X129049572Y-81158624D01*
X129012570Y-81178401D01*
X128972421Y-81190581D01*
X128927550Y-81195000D01*
X127822450Y-81195000D01*
X127777579Y-81190581D01*
X127737430Y-81178401D01*
X127700428Y-81158624D01*
X127667994Y-81132006D01*
X127641376Y-81099572D01*
X127621599Y-81062570D01*
X127609419Y-81022421D01*
X127605000Y-80977550D01*
X127605000Y-79022450D01*
X127609419Y-78977579D01*
X127621599Y-78937430D01*
X127641376Y-78900428D01*
X127667994Y-78867994D01*
X127700428Y-78841376D01*
X127737430Y-78821599D01*
X127777579Y-78809419D01*
X127822450Y-78805000D01*
X128927550Y-78805000D01*
X128972421Y-78809419D01*
X128972421Y-78809419D01*
G37*
G36*
X123310550Y-79222589D02*
G01*
X123474545Y-79272336D01*
X123474548Y-79272337D01*
X123625686Y-79353123D01*
X123758160Y-79461840D01*
X123866877Y-79594314D01*
X123947663Y-79745452D01*
X123947664Y-79745455D01*
X123997411Y-79909450D01*
X124014209Y-80080000D01*
X123997411Y-80250550D01*
X123947664Y-80414545D01*
X123947663Y-80414548D01*
X123866877Y-80565686D01*
X123758160Y-80698160D01*
X123625686Y-80806877D01*
X123474548Y-80887663D01*
X123474545Y-80887664D01*
X123310550Y-80937411D01*
X123182734Y-80950000D01*
X123097266Y-80950000D01*
X122969450Y-80937411D01*
X122805455Y-80887664D01*
X122805452Y-80887663D01*
X122654314Y-80806877D01*
X122521840Y-80698160D01*
X122413123Y-80565686D01*
X122332337Y-80414548D01*
X122332336Y-80414545D01*
X122282589Y-80250550D01*
X122265791Y-80080000D01*
X122282589Y-79909450D01*
X122332336Y-79745455D01*
X122332337Y-79745452D01*
X122413123Y-79594314D01*
X122521840Y-79461840D01*
X122654314Y-79353123D01*
X122805452Y-79272337D01*
X122805455Y-79272336D01*
X122969450Y-79222589D01*
X123097266Y-79210000D01*
X123182734Y-79210000D01*
X123310550Y-79222589D01*
X123310550Y-79222589D01*
G37*
G36*
X156940603Y-79284582D02*
G01*
X156982340Y-79297244D01*
X157020807Y-79317804D01*
X157054525Y-79345475D01*
X157082196Y-79379193D01*
X157102756Y-79417660D01*
X157115418Y-79459397D01*
X157120000Y-79505921D01*
X157120000Y-80494079D01*
X157115418Y-80540603D01*
X157102756Y-80582340D01*
X157082196Y-80620807D01*
X157054525Y-80654525D01*
X157020807Y-80682196D01*
X156982340Y-80702756D01*
X156940603Y-80715418D01*
X156894079Y-80720000D01*
X156155921Y-80720000D01*
X156109397Y-80715418D01*
X156067660Y-80702756D01*
X156029193Y-80682196D01*
X155995475Y-80654525D01*
X155967804Y-80620807D01*
X155947244Y-80582340D01*
X155934582Y-80540603D01*
X155930000Y-80494079D01*
X155930000Y-79505921D01*
X155934582Y-79459397D01*
X155947244Y-79417660D01*
X155967804Y-79379193D01*
X155995475Y-79345475D01*
X156029193Y-79317804D01*
X156067660Y-79297244D01*
X156109397Y-79284582D01*
X156155921Y-79280000D01*
X156894079Y-79280000D01*
X156940603Y-79284582D01*
X156940603Y-79284582D01*
G37*
G36*
X154890603Y-79284582D02*
G01*
X154932340Y-79297244D01*
X154970807Y-79317804D01*
X155004525Y-79345475D01*
X155032196Y-79379193D01*
X155052756Y-79417660D01*
X155065418Y-79459397D01*
X155070000Y-79505921D01*
X155070000Y-80494079D01*
X155065418Y-80540603D01*
X155052756Y-80582340D01*
X155032196Y-80620807D01*
X155004525Y-80654525D01*
X154970807Y-80682196D01*
X154932340Y-80702756D01*
X154890603Y-80715418D01*
X154844079Y-80720000D01*
X154105921Y-80720000D01*
X154059397Y-80715418D01*
X154017660Y-80702756D01*
X153979193Y-80682196D01*
X153945475Y-80654525D01*
X153917804Y-80620807D01*
X153897244Y-80582340D01*
X153884582Y-80540603D01*
X153880000Y-80494079D01*
X153880000Y-79505921D01*
X153884582Y-79459397D01*
X153897244Y-79417660D01*
X153917804Y-79379193D01*
X153945475Y-79345475D01*
X153979193Y-79317804D01*
X154017660Y-79297244D01*
X154059397Y-79284582D01*
X154105921Y-79280000D01*
X154844079Y-79280000D01*
X154890603Y-79284582D01*
X154890603Y-79284582D01*
G37*
G36*
X135272421Y-78309419D02*
G01*
X135312570Y-78321599D01*
X135349572Y-78341376D01*
X135382006Y-78367994D01*
X135408624Y-78400428D01*
X135428401Y-78437430D01*
X135440581Y-78477579D01*
X135445000Y-78522450D01*
X135445000Y-80477550D01*
X135440581Y-80522421D01*
X135428401Y-80562570D01*
X135408624Y-80599572D01*
X135382006Y-80632006D01*
X135349572Y-80658624D01*
X135312570Y-80678401D01*
X135272421Y-80690581D01*
X135227550Y-80695000D01*
X134122450Y-80695000D01*
X134077579Y-80690581D01*
X134037430Y-80678401D01*
X134000428Y-80658624D01*
X133967994Y-80632006D01*
X133941376Y-80599572D01*
X133921599Y-80562570D01*
X133909419Y-80522421D01*
X133905000Y-80477550D01*
X133905000Y-78522450D01*
X133909419Y-78477579D01*
X133921599Y-78437430D01*
X133941376Y-78400428D01*
X133967994Y-78367994D01*
X134000428Y-78341376D01*
X134037430Y-78321599D01*
X134077579Y-78309419D01*
X134122450Y-78305000D01*
X135227550Y-78305000D01*
X135272421Y-78309419D01*
X135272421Y-78309419D01*
G37*
G36*
X138522421Y-78309419D02*
G01*
X138562570Y-78321599D01*
X138599572Y-78341376D01*
X138632006Y-78367994D01*
X138658624Y-78400428D01*
X138678401Y-78437430D01*
X138690581Y-78477579D01*
X138695000Y-78522450D01*
X138695000Y-80477550D01*
X138690581Y-80522421D01*
X138678401Y-80562570D01*
X138658624Y-80599572D01*
X138632006Y-80632006D01*
X138599572Y-80658624D01*
X138562570Y-80678401D01*
X138522421Y-80690581D01*
X138477550Y-80695000D01*
X137372450Y-80695000D01*
X137327579Y-80690581D01*
X137287430Y-80678401D01*
X137250428Y-80658624D01*
X137217994Y-80632006D01*
X137191376Y-80599572D01*
X137171599Y-80562570D01*
X137159419Y-80522421D01*
X137155000Y-80477550D01*
X137155000Y-78522450D01*
X137159419Y-78477579D01*
X137171599Y-78437430D01*
X137191376Y-78400428D01*
X137217994Y-78367994D01*
X137250428Y-78341376D01*
X137287430Y-78321599D01*
X137327579Y-78309419D01*
X137372450Y-78305000D01*
X138477550Y-78305000D01*
X138522421Y-78309419D01*
X138522421Y-78309419D01*
G37*
G36*
X170040603Y-79434582D02*
G01*
X170082340Y-79447244D01*
X170120807Y-79467804D01*
X170154525Y-79495475D01*
X170182196Y-79529193D01*
X170202756Y-79567660D01*
X170215418Y-79609397D01*
X170220000Y-79655921D01*
X170220000Y-80394079D01*
X170215418Y-80440603D01*
X170202756Y-80482340D01*
X170182196Y-80520807D01*
X170154525Y-80554525D01*
X170120807Y-80582196D01*
X170082340Y-80602756D01*
X170040603Y-80615418D01*
X169994079Y-80620000D01*
X169005921Y-80620000D01*
X168959397Y-80615418D01*
X168917660Y-80602756D01*
X168879193Y-80582196D01*
X168845475Y-80554525D01*
X168817804Y-80520807D01*
X168797244Y-80482340D01*
X168784582Y-80440603D01*
X168780000Y-80394079D01*
X168780000Y-79655921D01*
X168784582Y-79609397D01*
X168797244Y-79567660D01*
X168817804Y-79529193D01*
X168845475Y-79495475D01*
X168879193Y-79467804D01*
X168917660Y-79447244D01*
X168959397Y-79434582D01*
X169005921Y-79430000D01*
X169994079Y-79430000D01*
X170040603Y-79434582D01*
X170040603Y-79434582D01*
G37*
G36*
X149622421Y-78859419D02*
G01*
X149662570Y-78871599D01*
X149699572Y-78891376D01*
X149732006Y-78917994D01*
X149758624Y-78950428D01*
X149778401Y-78987430D01*
X149790581Y-79027579D01*
X149795000Y-79072450D01*
X149795000Y-80177550D01*
X149790581Y-80222421D01*
X149778401Y-80262570D01*
X149758624Y-80299572D01*
X149732006Y-80332006D01*
X149699572Y-80358624D01*
X149662570Y-80378401D01*
X149622421Y-80390581D01*
X149577550Y-80395000D01*
X147622450Y-80395000D01*
X147577579Y-80390581D01*
X147537430Y-80378401D01*
X147500428Y-80358624D01*
X147467994Y-80332006D01*
X147441376Y-80299572D01*
X147421599Y-80262570D01*
X147409419Y-80222421D01*
X147405000Y-80177550D01*
X147405000Y-79072450D01*
X147409419Y-79027579D01*
X147421599Y-78987430D01*
X147441376Y-78950428D01*
X147467994Y-78917994D01*
X147500428Y-78891376D01*
X147537430Y-78871599D01*
X147577579Y-78859419D01*
X147622450Y-78855000D01*
X149577550Y-78855000D01*
X149622421Y-78859419D01*
X149622421Y-78859419D01*
G37*
G36*
X159540603Y-78884582D02*
G01*
X159582340Y-78897244D01*
X159620807Y-78917804D01*
X159654525Y-78945475D01*
X159682196Y-78979193D01*
X159702756Y-79017660D01*
X159715418Y-79059397D01*
X159720000Y-79105921D01*
X159720000Y-79844079D01*
X159715418Y-79890603D01*
X159702756Y-79932340D01*
X159682196Y-79970807D01*
X159654525Y-80004525D01*
X159620807Y-80032196D01*
X159582340Y-80052756D01*
X159540603Y-80065418D01*
X159494079Y-80070000D01*
X158505921Y-80070000D01*
X158459397Y-80065418D01*
X158417660Y-80052756D01*
X158379193Y-80032196D01*
X158345475Y-80004525D01*
X158317804Y-79970807D01*
X158297244Y-79932340D01*
X158284582Y-79890603D01*
X158280000Y-79844079D01*
X158280000Y-79105921D01*
X158284582Y-79059397D01*
X158297244Y-79017660D01*
X158317804Y-78979193D01*
X158345475Y-78945475D01*
X158379193Y-78917804D01*
X158417660Y-78897244D01*
X158459397Y-78884582D01*
X158505921Y-78880000D01*
X159494079Y-78880000D01*
X159540603Y-78884582D01*
X159540603Y-78884582D01*
G37*
G36*
X146583500Y-80020000D02*
G01*
X145043500Y-80020000D01*
X145043500Y-78980000D01*
X146583500Y-78980000D01*
X146583500Y-80020000D01*
X146583500Y-80020000D01*
G37*
G36*
X167495000Y-79870000D02*
G01*
X167005000Y-79870000D01*
X167005000Y-79230000D01*
X167495000Y-79230000D01*
X167495000Y-79870000D01*
X167495000Y-79870000D01*
G37*
G36*
X162876462Y-78803726D02*
G01*
X162909848Y-78813853D01*
X162940608Y-78830295D01*
X162967574Y-78852426D01*
X162989705Y-78879392D01*
X163006147Y-78910152D01*
X163016274Y-78943538D01*
X163020000Y-78981367D01*
X163020000Y-79458633D01*
X163016274Y-79496462D01*
X163006147Y-79529848D01*
X162989705Y-79560608D01*
X162967574Y-79587574D01*
X162940608Y-79609705D01*
X162909848Y-79626147D01*
X162876462Y-79636274D01*
X162838633Y-79640000D01*
X161161367Y-79640000D01*
X161123538Y-79636274D01*
X161090152Y-79626147D01*
X161059392Y-79609705D01*
X161032426Y-79587574D01*
X161010295Y-79560608D01*
X160993853Y-79529848D01*
X160983726Y-79496462D01*
X160980000Y-79458633D01*
X160980000Y-78981367D01*
X160983726Y-78943538D01*
X160993853Y-78910152D01*
X161010295Y-78879392D01*
X161032426Y-78852426D01*
X161059392Y-78830295D01*
X161090152Y-78813853D01*
X161123538Y-78803726D01*
X161161367Y-78800000D01*
X162838633Y-78800000D01*
X162876462Y-78803726D01*
X162876462Y-78803726D01*
G37*
G36*
X126540603Y-78384582D02*
G01*
X126582340Y-78397244D01*
X126620807Y-78417804D01*
X126654525Y-78445475D01*
X126682196Y-78479193D01*
X126702756Y-78517660D01*
X126715418Y-78559397D01*
X126720000Y-78605921D01*
X126720000Y-79344079D01*
X126715418Y-79390603D01*
X126702756Y-79432340D01*
X126682196Y-79470807D01*
X126654525Y-79504525D01*
X126620807Y-79532196D01*
X126582340Y-79552756D01*
X126540603Y-79565418D01*
X126494079Y-79570000D01*
X125505921Y-79570000D01*
X125459397Y-79565418D01*
X125417660Y-79552756D01*
X125379193Y-79532196D01*
X125345475Y-79504525D01*
X125317804Y-79470807D01*
X125297244Y-79432340D01*
X125284582Y-79390603D01*
X125280000Y-79344079D01*
X125280000Y-78605921D01*
X125284582Y-78559397D01*
X125297244Y-78517660D01*
X125317804Y-78479193D01*
X125345475Y-78445475D01*
X125379193Y-78417804D01*
X125417660Y-78397244D01*
X125459397Y-78384582D01*
X125505921Y-78380000D01*
X126494079Y-78380000D01*
X126540603Y-78384582D01*
X126540603Y-78384582D01*
G37*
G36*
X142130098Y-76861402D02*
G01*
X142139721Y-76869298D01*
X142150699Y-76875166D01*
X142162611Y-76878780D01*
X142174999Y-76880000D01*
X143826201Y-76880000D01*
X143838589Y-76878780D01*
X143850501Y-76875166D01*
X143861479Y-76869298D01*
X143871102Y-76861402D01*
X143877791Y-76853250D01*
X143899607Y-76868521D01*
X143910455Y-76874626D01*
X143922286Y-76878497D01*
X143936021Y-76880000D01*
X143942396Y-76880000D01*
X143944834Y-76888036D01*
X143950702Y-76899014D01*
X143958598Y-76908637D01*
X143967085Y-76915756D01*
X144756751Y-77468521D01*
X144767599Y-77474626D01*
X144779430Y-77478497D01*
X144793165Y-77480000D01*
X146587000Y-77480000D01*
X146587000Y-78520000D01*
X144793165Y-78520000D01*
X144780777Y-78521220D01*
X144768865Y-78524834D01*
X144756751Y-78531479D01*
X143967085Y-79084244D01*
X143957636Y-79092347D01*
X143949949Y-79102138D01*
X143944321Y-79113241D01*
X143942429Y-79120000D01*
X143936021Y-79120000D01*
X143923633Y-79121220D01*
X143911721Y-79124834D01*
X143899607Y-79131479D01*
X143877791Y-79146750D01*
X143871102Y-79138598D01*
X143861479Y-79130702D01*
X143850501Y-79124834D01*
X143838589Y-79121220D01*
X143826201Y-79120000D01*
X142174999Y-79120000D01*
X142162611Y-79121220D01*
X142150699Y-79124834D01*
X142139721Y-79130702D01*
X142130098Y-79138598D01*
X142123277Y-79146911D01*
X142111500Y-79138598D01*
X142111500Y-79138599D01*
X142101607Y-79131616D01*
X142090794Y-79125475D01*
X142078978Y-79121558D01*
X142064999Y-79120000D01*
X142057943Y-79120000D01*
X142055166Y-79110848D01*
X142049298Y-79099870D01*
X142041402Y-79090247D01*
X142033126Y-79083276D01*
X141221500Y-78510363D01*
X141221500Y-77489637D01*
X142033126Y-76916724D01*
X142042537Y-76908588D01*
X142050185Y-76898766D01*
X142055770Y-76887642D01*
X142057876Y-76880000D01*
X142064999Y-76880000D01*
X142077387Y-76878780D01*
X142089299Y-76875166D01*
X142101609Y-76868383D01*
X142111500Y-76861401D01*
X142111500Y-76861402D01*
X142123277Y-76853089D01*
X142130098Y-76861402D01*
X142130098Y-76861402D01*
G37*
G36*
X170040603Y-77384582D02*
G01*
X170082340Y-77397244D01*
X170120807Y-77417804D01*
X170154525Y-77445475D01*
X170182196Y-77479193D01*
X170202756Y-77517660D01*
X170215418Y-77559397D01*
X170220000Y-77605921D01*
X170220000Y-78344079D01*
X170215418Y-78390603D01*
X170202756Y-78432340D01*
X170182196Y-78470807D01*
X170154525Y-78504525D01*
X170120807Y-78532196D01*
X170082340Y-78552756D01*
X170040603Y-78565418D01*
X169994079Y-78570000D01*
X169005921Y-78570000D01*
X168959397Y-78565418D01*
X168917660Y-78552756D01*
X168879193Y-78532196D01*
X168845475Y-78504525D01*
X168817804Y-78470807D01*
X168797244Y-78432340D01*
X168784582Y-78390603D01*
X168780000Y-78344079D01*
X168780000Y-77605921D01*
X168784582Y-77559397D01*
X168797244Y-77517660D01*
X168817804Y-77479193D01*
X168845475Y-77445475D01*
X168879193Y-77417804D01*
X168917660Y-77397244D01*
X168959397Y-77384582D01*
X169005921Y-77380000D01*
X169994079Y-77380000D01*
X170040603Y-77384582D01*
X170040603Y-77384582D01*
G37*
G36*
X167495000Y-77770000D02*
G01*
X167005000Y-77770000D01*
X167005000Y-77130000D01*
X167495000Y-77130000D01*
X167495000Y-77770000D01*
X167495000Y-77770000D01*
G37*
G36*
X165690603Y-76284582D02*
G01*
X165732340Y-76297244D01*
X165770807Y-76317804D01*
X165804525Y-76345475D01*
X165832196Y-76379193D01*
X165852756Y-76417660D01*
X165865418Y-76459397D01*
X165870000Y-76505921D01*
X165870000Y-77494079D01*
X165865418Y-77540603D01*
X165852756Y-77582340D01*
X165832196Y-77620807D01*
X165804525Y-77654525D01*
X165770807Y-77682196D01*
X165732340Y-77702756D01*
X165690603Y-77715418D01*
X165644079Y-77720000D01*
X164905921Y-77720000D01*
X164859397Y-77715418D01*
X164817660Y-77702756D01*
X164779193Y-77682196D01*
X164745475Y-77654525D01*
X164717804Y-77620807D01*
X164697244Y-77582340D01*
X164684582Y-77540603D01*
X164680000Y-77494079D01*
X164680000Y-76505921D01*
X164684582Y-76459397D01*
X164697244Y-76417660D01*
X164717804Y-76379193D01*
X164745475Y-76345475D01*
X164779193Y-76317804D01*
X164817660Y-76297244D01*
X164859397Y-76284582D01*
X164905921Y-76280000D01*
X165644079Y-76280000D01*
X165690603Y-76284582D01*
X165690603Y-76284582D01*
G37*
G36*
X163640603Y-76284582D02*
G01*
X163682340Y-76297244D01*
X163720807Y-76317804D01*
X163754525Y-76345475D01*
X163782196Y-76379193D01*
X163802756Y-76417660D01*
X163815418Y-76459397D01*
X163820000Y-76505921D01*
X163820000Y-77494079D01*
X163815418Y-77540603D01*
X163802756Y-77582340D01*
X163782196Y-77620807D01*
X163754525Y-77654525D01*
X163720807Y-77682196D01*
X163682340Y-77702756D01*
X163640603Y-77715418D01*
X163594079Y-77720000D01*
X162855921Y-77720000D01*
X162809397Y-77715418D01*
X162767660Y-77702756D01*
X162729193Y-77682196D01*
X162695475Y-77654525D01*
X162667804Y-77620807D01*
X162647244Y-77582340D01*
X162634582Y-77540603D01*
X162630000Y-77494079D01*
X162630000Y-76505921D01*
X162634582Y-76459397D01*
X162647244Y-76417660D01*
X162667804Y-76379193D01*
X162695475Y-76345475D01*
X162729193Y-76317804D01*
X162767660Y-76297244D01*
X162809397Y-76284582D01*
X162855921Y-76280000D01*
X163594079Y-76280000D01*
X163640603Y-76284582D01*
X163640603Y-76284582D01*
G37*
G36*
X131940603Y-76284582D02*
G01*
X131982340Y-76297244D01*
X132020807Y-76317804D01*
X132054525Y-76345475D01*
X132082196Y-76379193D01*
X132102756Y-76417660D01*
X132115418Y-76459397D01*
X132120000Y-76505921D01*
X132120000Y-77494079D01*
X132115418Y-77540603D01*
X132102756Y-77582340D01*
X132082196Y-77620807D01*
X132054525Y-77654525D01*
X132020807Y-77682196D01*
X131982340Y-77702756D01*
X131940603Y-77715418D01*
X131894079Y-77720000D01*
X131155921Y-77720000D01*
X131109397Y-77715418D01*
X131067660Y-77702756D01*
X131029193Y-77682196D01*
X130995475Y-77654525D01*
X130967804Y-77620807D01*
X130947244Y-77582340D01*
X130934582Y-77540603D01*
X130930000Y-77494079D01*
X130930000Y-76505921D01*
X130934582Y-76459397D01*
X130947244Y-76417660D01*
X130967804Y-76379193D01*
X130995475Y-76345475D01*
X131029193Y-76317804D01*
X131067660Y-76297244D01*
X131109397Y-76284582D01*
X131155921Y-76280000D01*
X131894079Y-76280000D01*
X131940603Y-76284582D01*
X131940603Y-76284582D01*
G37*
G36*
X129890603Y-76284582D02*
G01*
X129932340Y-76297244D01*
X129970807Y-76317804D01*
X130004525Y-76345475D01*
X130032196Y-76379193D01*
X130052756Y-76417660D01*
X130065418Y-76459397D01*
X130070000Y-76505921D01*
X130070000Y-77494079D01*
X130065418Y-77540603D01*
X130052756Y-77582340D01*
X130032196Y-77620807D01*
X130004525Y-77654525D01*
X129970807Y-77682196D01*
X129932340Y-77702756D01*
X129890603Y-77715418D01*
X129844079Y-77720000D01*
X129105921Y-77720000D01*
X129059397Y-77715418D01*
X129017660Y-77702756D01*
X128979193Y-77682196D01*
X128945475Y-77654525D01*
X128917804Y-77620807D01*
X128897244Y-77582340D01*
X128884582Y-77540603D01*
X128880000Y-77494079D01*
X128880000Y-76505921D01*
X128884582Y-76459397D01*
X128897244Y-76417660D01*
X128917804Y-76379193D01*
X128945475Y-76345475D01*
X128979193Y-76317804D01*
X129017660Y-76297244D01*
X129059397Y-76284582D01*
X129105921Y-76280000D01*
X129844079Y-76280000D01*
X129890603Y-76284582D01*
X129890603Y-76284582D01*
G37*
G36*
X157040603Y-76434582D02*
G01*
X157082340Y-76447244D01*
X157120807Y-76467804D01*
X157154525Y-76495475D01*
X157182196Y-76529193D01*
X157202756Y-76567660D01*
X157215418Y-76609397D01*
X157220000Y-76655921D01*
X157220000Y-77394079D01*
X157215418Y-77440603D01*
X157202756Y-77482340D01*
X157182196Y-77520807D01*
X157154525Y-77554525D01*
X157120807Y-77582196D01*
X157082340Y-77602756D01*
X157040603Y-77615418D01*
X156994079Y-77620000D01*
X156005921Y-77620000D01*
X155959397Y-77615418D01*
X155917660Y-77602756D01*
X155879193Y-77582196D01*
X155845475Y-77554525D01*
X155817804Y-77520807D01*
X155797244Y-77482340D01*
X155784582Y-77440603D01*
X155780000Y-77394079D01*
X155780000Y-76655921D01*
X155784582Y-76609397D01*
X155797244Y-76567660D01*
X155817804Y-76529193D01*
X155845475Y-76495475D01*
X155879193Y-76467804D01*
X155917660Y-76447244D01*
X155959397Y-76434582D01*
X156005921Y-76430000D01*
X156994079Y-76430000D01*
X157040603Y-76434582D01*
X157040603Y-76434582D01*
G37*
G36*
X152970000Y-77470000D02*
G01*
X152130000Y-77470000D01*
X152130000Y-76530000D01*
X152970000Y-76530000D01*
X152970000Y-77470000D01*
X152970000Y-77470000D01*
G37*
G36*
X154870000Y-77470000D02*
G01*
X154030000Y-77470000D01*
X154030000Y-76530000D01*
X154870000Y-76530000D01*
X154870000Y-77470000D01*
X154870000Y-77470000D01*
G37*
G36*
X159450000Y-77295000D02*
G01*
X158350000Y-77295000D01*
X158350000Y-76605000D01*
X159450000Y-76605000D01*
X159450000Y-77295000D01*
X159450000Y-77295000D01*
G37*
G36*
X161650000Y-77295000D02*
G01*
X160550000Y-77295000D01*
X160550000Y-76605000D01*
X161650000Y-76605000D01*
X161650000Y-77295000D01*
X161650000Y-77295000D01*
G37*
G36*
X149622421Y-75609419D02*
G01*
X149662570Y-75621599D01*
X149699572Y-75641376D01*
X149732006Y-75667994D01*
X149758624Y-75700428D01*
X149778401Y-75737430D01*
X149790581Y-75777579D01*
X149795000Y-75822450D01*
X149795000Y-76927550D01*
X149790581Y-76972421D01*
X149778401Y-77012570D01*
X149758624Y-77049572D01*
X149732006Y-77082006D01*
X149699572Y-77108624D01*
X149662570Y-77128401D01*
X149622421Y-77140581D01*
X149577550Y-77145000D01*
X147622450Y-77145000D01*
X147577579Y-77140581D01*
X147537430Y-77128401D01*
X147500428Y-77108624D01*
X147467994Y-77082006D01*
X147441376Y-77049572D01*
X147421599Y-77012570D01*
X147409419Y-76972421D01*
X147405000Y-76927550D01*
X147405000Y-75822450D01*
X147409419Y-75777579D01*
X147421599Y-75737430D01*
X147441376Y-75700428D01*
X147467994Y-75667994D01*
X147500428Y-75641376D01*
X147537430Y-75621599D01*
X147577579Y-75609419D01*
X147622450Y-75605000D01*
X149577550Y-75605000D01*
X149622421Y-75609419D01*
X149622421Y-75609419D01*
G37*
G36*
X146583500Y-77020000D02*
G01*
X145043500Y-77020000D01*
X145043500Y-75980000D01*
X146583500Y-75980000D01*
X146583500Y-77020000D01*
X146583500Y-77020000D01*
G37*
G36*
X122636462Y-74983726D02*
G01*
X122669848Y-74993853D01*
X122700608Y-75010295D01*
X122727574Y-75032426D01*
X122749705Y-75059392D01*
X122766147Y-75090152D01*
X122776274Y-75123538D01*
X122780000Y-75161367D01*
X122780000Y-76838633D01*
X122776274Y-76876462D01*
X122766147Y-76909848D01*
X122749705Y-76940608D01*
X122727574Y-76967574D01*
X122700608Y-76989705D01*
X122669848Y-77006147D01*
X122636462Y-77016274D01*
X122598633Y-77020000D01*
X122121367Y-77020000D01*
X122083538Y-77016274D01*
X122050152Y-77006147D01*
X122019392Y-76989705D01*
X121992426Y-76967574D01*
X121970295Y-76940608D01*
X121953853Y-76909848D01*
X121943726Y-76876462D01*
X121940000Y-76838633D01*
X121940000Y-75161367D01*
X121943726Y-75123538D01*
X121953853Y-75090152D01*
X121970295Y-75059392D01*
X121992426Y-75032426D01*
X122019392Y-75010295D01*
X122050152Y-74993853D01*
X122083538Y-74983726D01*
X122121367Y-74980000D01*
X122598633Y-74980000D01*
X122636462Y-74983726D01*
X122636462Y-74983726D01*
G37*
G36*
X126836462Y-74983726D02*
G01*
X126869848Y-74993853D01*
X126900608Y-75010295D01*
X126927574Y-75032426D01*
X126949705Y-75059392D01*
X126966147Y-75090152D01*
X126976274Y-75123538D01*
X126980000Y-75161367D01*
X126980000Y-76838633D01*
X126976274Y-76876462D01*
X126966147Y-76909848D01*
X126949705Y-76940608D01*
X126927574Y-76967574D01*
X126900608Y-76989705D01*
X126869848Y-77006147D01*
X126836462Y-77016274D01*
X126798633Y-77020000D01*
X126321367Y-77020000D01*
X126283538Y-77016274D01*
X126250152Y-77006147D01*
X126219392Y-76989705D01*
X126192426Y-76967574D01*
X126170295Y-76940608D01*
X126153853Y-76909848D01*
X126143726Y-76876462D01*
X126140000Y-76838633D01*
X126140000Y-75161367D01*
X126143726Y-75123538D01*
X126153853Y-75090152D01*
X126170295Y-75059392D01*
X126192426Y-75032426D01*
X126219392Y-75010295D01*
X126250152Y-74993853D01*
X126283538Y-74983726D01*
X126321367Y-74980000D01*
X126798633Y-74980000D01*
X126836462Y-74983726D01*
X126836462Y-74983726D01*
G37*
G36*
X136370000Y-76370000D02*
G01*
X134630000Y-76370000D01*
X134630000Y-74630000D01*
X136370000Y-74630000D01*
X136370000Y-76370000D01*
X136370000Y-76370000D01*
G37*
G36*
X138210550Y-74642589D02*
G01*
X138374545Y-74692336D01*
X138374548Y-74692337D01*
X138525686Y-74773123D01*
X138658160Y-74881840D01*
X138766877Y-75014314D01*
X138847663Y-75165452D01*
X138847664Y-75165455D01*
X138897411Y-75329450D01*
X138914209Y-75500000D01*
X138897411Y-75670550D01*
X138854626Y-75811594D01*
X138847663Y-75834548D01*
X138766877Y-75985686D01*
X138658160Y-76118160D01*
X138525686Y-76226877D01*
X138374548Y-76307663D01*
X138374545Y-76307664D01*
X138210550Y-76357411D01*
X138082734Y-76370000D01*
X137997266Y-76370000D01*
X137869450Y-76357411D01*
X137705455Y-76307664D01*
X137705452Y-76307663D01*
X137554314Y-76226877D01*
X137421840Y-76118160D01*
X137313123Y-75985686D01*
X137232337Y-75834548D01*
X137225374Y-75811594D01*
X137182589Y-75670550D01*
X137165791Y-75500000D01*
X137182589Y-75329450D01*
X137232336Y-75165455D01*
X137232337Y-75165452D01*
X137313123Y-75014314D01*
X137421840Y-74881840D01*
X137554314Y-74773123D01*
X137705452Y-74692337D01*
X137705455Y-74692336D01*
X137869450Y-74642589D01*
X137997266Y-74630000D01*
X138082734Y-74630000D01*
X138210550Y-74642589D01*
X138210550Y-74642589D01*
G37*
G36*
X159450000Y-76345000D02*
G01*
X158350000Y-76345000D01*
X158350000Y-75655000D01*
X159450000Y-75655000D01*
X159450000Y-76345000D01*
X159450000Y-76345000D01*
G37*
G36*
X161650000Y-76345000D02*
G01*
X160550000Y-76345000D01*
X160550000Y-75655000D01*
X161650000Y-75655000D01*
X161650000Y-76345000D01*
X161650000Y-76345000D01*
G37*
G36*
X169009726Y-73989799D02*
G01*
X169157526Y-74019198D01*
X169343148Y-74096085D01*
X169510211Y-74207713D01*
X169652287Y-74349789D01*
X169763915Y-74516852D01*
X169840802Y-74702474D01*
X169880000Y-74899540D01*
X169880000Y-75100460D01*
X169840802Y-75297526D01*
X169763915Y-75483148D01*
X169652287Y-75650211D01*
X169510211Y-75792287D01*
X169343148Y-75903915D01*
X169157526Y-75980802D01*
X169009726Y-76010201D01*
X168960461Y-76020000D01*
X168759539Y-76020000D01*
X168710273Y-76010200D01*
X168562474Y-75980802D01*
X168376852Y-75903915D01*
X168209789Y-75792287D01*
X168067713Y-75650211D01*
X167956085Y-75483148D01*
X167879198Y-75297526D01*
X167840000Y-75100460D01*
X167840000Y-74899540D01*
X167879198Y-74702474D01*
X167956085Y-74516852D01*
X168067713Y-74349789D01*
X168209789Y-74207713D01*
X168376852Y-74096085D01*
X168562474Y-74019198D01*
X168710274Y-73989799D01*
X168759539Y-73980000D01*
X168960461Y-73980000D01*
X169009726Y-73989799D01*
X169009726Y-73989799D01*
G37*
G36*
X157040603Y-74384582D02*
G01*
X157082340Y-74397244D01*
X157120807Y-74417804D01*
X157154525Y-74445475D01*
X157182196Y-74479193D01*
X157202756Y-74517660D01*
X157215418Y-74559397D01*
X157220000Y-74605921D01*
X157220000Y-75344079D01*
X157215418Y-75390603D01*
X157202756Y-75432340D01*
X157182196Y-75470807D01*
X157154525Y-75504525D01*
X157120807Y-75532196D01*
X157082340Y-75552756D01*
X157040603Y-75565418D01*
X156994079Y-75570000D01*
X156005921Y-75570000D01*
X155959397Y-75565418D01*
X155917660Y-75552756D01*
X155879193Y-75532196D01*
X155845475Y-75504525D01*
X155817804Y-75470807D01*
X155797244Y-75432340D01*
X155784582Y-75390603D01*
X155780000Y-75344079D01*
X155780000Y-74605921D01*
X155784582Y-74559397D01*
X155797244Y-74517660D01*
X155817804Y-74479193D01*
X155845475Y-74445475D01*
X155879193Y-74417804D01*
X155917660Y-74397244D01*
X155959397Y-74384582D01*
X156005921Y-74380000D01*
X156994079Y-74380000D01*
X157040603Y-74384582D01*
X157040603Y-74384582D01*
G37*
G36*
X129890603Y-74034582D02*
G01*
X129932340Y-74047244D01*
X129970807Y-74067804D01*
X130004525Y-74095475D01*
X130032196Y-74129193D01*
X130052756Y-74167660D01*
X130065418Y-74209397D01*
X130070000Y-74255921D01*
X130070000Y-75244079D01*
X130065418Y-75290603D01*
X130052756Y-75332340D01*
X130032196Y-75370807D01*
X130004525Y-75404525D01*
X129970807Y-75432196D01*
X129932340Y-75452756D01*
X129890603Y-75465418D01*
X129844079Y-75470000D01*
X129105921Y-75470000D01*
X129059397Y-75465418D01*
X129017660Y-75452756D01*
X128979193Y-75432196D01*
X128945475Y-75404525D01*
X128917804Y-75370807D01*
X128897244Y-75332340D01*
X128884582Y-75290603D01*
X128880000Y-75244079D01*
X128880000Y-74255921D01*
X128884582Y-74209397D01*
X128897244Y-74167660D01*
X128917804Y-74129193D01*
X128945475Y-74095475D01*
X128979193Y-74067804D01*
X129017660Y-74047244D01*
X129059397Y-74034582D01*
X129105921Y-74030000D01*
X129844079Y-74030000D01*
X129890603Y-74034582D01*
X129890603Y-74034582D01*
G37*
G36*
X153920000Y-75470000D02*
G01*
X153080000Y-75470000D01*
X153080000Y-74530000D01*
X153920000Y-74530000D01*
X153920000Y-75470000D01*
X153920000Y-75470000D01*
G37*
G36*
X131940603Y-74034582D02*
G01*
X131982340Y-74047244D01*
X132020807Y-74067804D01*
X132054525Y-74095475D01*
X132082196Y-74129193D01*
X132102756Y-74167660D01*
X132115418Y-74209397D01*
X132120000Y-74255921D01*
X132120000Y-75244079D01*
X132115418Y-75290603D01*
X132102756Y-75332340D01*
X132082196Y-75370807D01*
X132054525Y-75404525D01*
X132020807Y-75432196D01*
X131982340Y-75452756D01*
X131940603Y-75465418D01*
X131894079Y-75470000D01*
X131155921Y-75470000D01*
X131109397Y-75465418D01*
X131067660Y-75452756D01*
X131029193Y-75432196D01*
X130995475Y-75404525D01*
X130967804Y-75370807D01*
X130947244Y-75332340D01*
X130934582Y-75290603D01*
X130930000Y-75244079D01*
X130930000Y-74255921D01*
X130934582Y-74209397D01*
X130947244Y-74167660D01*
X130967804Y-74129193D01*
X130995475Y-74095475D01*
X131029193Y-74067804D01*
X131067660Y-74047244D01*
X131109397Y-74034582D01*
X131155921Y-74030000D01*
X131894079Y-74030000D01*
X131940603Y-74034582D01*
X131940603Y-74034582D01*
G37*
G36*
X159450000Y-75395000D02*
G01*
X158350000Y-75395000D01*
X158350000Y-74705000D01*
X159450000Y-74705000D01*
X159450000Y-75395000D01*
X159450000Y-75395000D01*
G37*
G36*
X161650000Y-75395000D02*
G01*
X160550000Y-75395000D01*
X160550000Y-74705000D01*
X161650000Y-74705000D01*
X161650000Y-75395000D01*
X161650000Y-75395000D01*
G37*
G36*
X164245000Y-75170000D02*
G01*
X163705000Y-75170000D01*
X163705000Y-74780000D01*
X164245000Y-74780000D01*
X164245000Y-75170000D01*
X164245000Y-75170000D01*
G37*
G36*
X166295000Y-75170000D02*
G01*
X165755000Y-75170000D01*
X165755000Y-74780000D01*
X166295000Y-74780000D01*
X166295000Y-75170000D01*
X166295000Y-75170000D01*
G37*
G36*
X164245000Y-74520000D02*
G01*
X163705000Y-74520000D01*
X163705000Y-74130000D01*
X164245000Y-74130000D01*
X164245000Y-74520000D01*
X164245000Y-74520000D01*
G37*
G36*
X166295000Y-74520000D02*
G01*
X165755000Y-74520000D01*
X165755000Y-74130000D01*
X166295000Y-74130000D01*
X166295000Y-74520000D01*
X166295000Y-74520000D01*
G37*
G36*
X144922421Y-71909419D02*
G01*
X144962570Y-71921599D01*
X144999572Y-71941376D01*
X145032006Y-71967994D01*
X145058624Y-72000428D01*
X145078401Y-72037430D01*
X145090581Y-72077579D01*
X145095000Y-72122450D01*
X145095000Y-74077550D01*
X145090581Y-74122421D01*
X145078401Y-74162570D01*
X145058624Y-74199572D01*
X145032006Y-74232006D01*
X144999572Y-74258624D01*
X144962570Y-74278401D01*
X144922421Y-74290581D01*
X144877550Y-74295000D01*
X143772450Y-74295000D01*
X143727579Y-74290581D01*
X143687430Y-74278401D01*
X143650428Y-74258624D01*
X143617994Y-74232006D01*
X143591376Y-74199572D01*
X143571599Y-74162570D01*
X143559419Y-74122421D01*
X143555000Y-74077550D01*
X143555000Y-72122450D01*
X143559419Y-72077579D01*
X143571599Y-72037430D01*
X143591376Y-72000428D01*
X143617994Y-71967994D01*
X143650428Y-71941376D01*
X143687430Y-71921599D01*
X143727579Y-71909419D01*
X143772450Y-71905000D01*
X144877550Y-71905000D01*
X144922421Y-71909419D01*
X144922421Y-71909419D01*
G37*
G36*
X141672421Y-71909419D02*
G01*
X141712570Y-71921599D01*
X141749572Y-71941376D01*
X141782006Y-71967994D01*
X141808624Y-72000428D01*
X141828401Y-72037430D01*
X141840581Y-72077579D01*
X141845000Y-72122450D01*
X141845000Y-74077550D01*
X141840581Y-74122421D01*
X141828401Y-74162570D01*
X141808624Y-74199572D01*
X141782006Y-74232006D01*
X141749572Y-74258624D01*
X141712570Y-74278401D01*
X141672421Y-74290581D01*
X141627550Y-74295000D01*
X140522450Y-74295000D01*
X140477579Y-74290581D01*
X140437430Y-74278401D01*
X140400428Y-74258624D01*
X140367994Y-74232006D01*
X140341376Y-74199572D01*
X140321599Y-74162570D01*
X140309419Y-74122421D01*
X140305000Y-74077550D01*
X140305000Y-72122450D01*
X140309419Y-72077579D01*
X140321599Y-72037430D01*
X140341376Y-72000428D01*
X140367994Y-71967994D01*
X140400428Y-71941376D01*
X140437430Y-71921599D01*
X140477579Y-71909419D01*
X140522450Y-71905000D01*
X141627550Y-71905000D01*
X141672421Y-71909419D01*
X141672421Y-71909419D01*
G37*
G36*
X166295000Y-73870000D02*
G01*
X165755000Y-73870000D01*
X165755000Y-73480000D01*
X166295000Y-73480000D01*
X166295000Y-73870000D01*
X166295000Y-73870000D01*
G37*
G36*
X164245000Y-73870000D02*
G01*
X163705000Y-73870000D01*
X163705000Y-73480000D01*
X164245000Y-73480000D01*
X164245000Y-73870000D01*
X164245000Y-73870000D01*
G37*
G36*
X149890603Y-72284582D02*
G01*
X149932340Y-72297244D01*
X149970807Y-72317804D01*
X150004525Y-72345475D01*
X150032196Y-72379193D01*
X150052756Y-72417660D01*
X150065418Y-72459397D01*
X150070000Y-72505921D01*
X150070000Y-73494079D01*
X150065418Y-73540603D01*
X150052756Y-73582340D01*
X150032196Y-73620807D01*
X150004525Y-73654525D01*
X149970807Y-73682196D01*
X149932340Y-73702756D01*
X149890603Y-73715418D01*
X149844079Y-73720000D01*
X149105921Y-73720000D01*
X149059397Y-73715418D01*
X149017660Y-73702756D01*
X148979193Y-73682196D01*
X148945475Y-73654525D01*
X148917804Y-73620807D01*
X148897244Y-73582340D01*
X148884582Y-73540603D01*
X148880000Y-73494079D01*
X148880000Y-72505921D01*
X148884582Y-72459397D01*
X148897244Y-72417660D01*
X148917804Y-72379193D01*
X148945475Y-72345475D01*
X148979193Y-72317804D01*
X149017660Y-72297244D01*
X149059397Y-72284582D01*
X149105921Y-72280000D01*
X149844079Y-72280000D01*
X149890603Y-72284582D01*
X149890603Y-72284582D01*
G37*
G36*
X151940603Y-72284582D02*
G01*
X151982340Y-72297244D01*
X152020807Y-72317804D01*
X152054525Y-72345475D01*
X152082196Y-72379193D01*
X152102756Y-72417660D01*
X152115418Y-72459397D01*
X152120000Y-72505921D01*
X152120000Y-73494079D01*
X152115418Y-73540603D01*
X152102756Y-73582340D01*
X152082196Y-73620807D01*
X152054525Y-73654525D01*
X152020807Y-73682196D01*
X151982340Y-73702756D01*
X151940603Y-73715418D01*
X151894079Y-73720000D01*
X151155921Y-73720000D01*
X151109397Y-73715418D01*
X151067660Y-73702756D01*
X151029193Y-73682196D01*
X150995475Y-73654525D01*
X150967804Y-73620807D01*
X150947244Y-73582340D01*
X150934582Y-73540603D01*
X150930000Y-73494079D01*
X150930000Y-72505921D01*
X150934582Y-72459397D01*
X150947244Y-72417660D01*
X150967804Y-72379193D01*
X150995475Y-72345475D01*
X151029193Y-72317804D01*
X151067660Y-72297244D01*
X151109397Y-72284582D01*
X151155921Y-72280000D01*
X151894079Y-72280000D01*
X151940603Y-72284582D01*
X151940603Y-72284582D01*
G37*
G36*
X158890603Y-72284582D02*
G01*
X158932340Y-72297244D01*
X158970807Y-72317804D01*
X159004525Y-72345475D01*
X159032196Y-72379193D01*
X159052756Y-72417660D01*
X159065418Y-72459397D01*
X159070000Y-72505921D01*
X159070000Y-73494079D01*
X159065418Y-73540603D01*
X159052756Y-73582340D01*
X159032196Y-73620807D01*
X159004525Y-73654525D01*
X158970807Y-73682196D01*
X158932340Y-73702756D01*
X158890603Y-73715418D01*
X158844079Y-73720000D01*
X158105921Y-73720000D01*
X158059397Y-73715418D01*
X158017660Y-73702756D01*
X157979193Y-73682196D01*
X157945475Y-73654525D01*
X157917804Y-73620807D01*
X157897244Y-73582340D01*
X157884582Y-73540603D01*
X157880000Y-73494079D01*
X157880000Y-72505921D01*
X157884582Y-72459397D01*
X157897244Y-72417660D01*
X157917804Y-72379193D01*
X157945475Y-72345475D01*
X157979193Y-72317804D01*
X158017660Y-72297244D01*
X158059397Y-72284582D01*
X158105921Y-72280000D01*
X158844079Y-72280000D01*
X158890603Y-72284582D01*
X158890603Y-72284582D01*
G37*
G36*
X160940603Y-72284582D02*
G01*
X160982340Y-72297244D01*
X161020807Y-72317804D01*
X161054525Y-72345475D01*
X161082196Y-72379193D01*
X161102756Y-72417660D01*
X161115418Y-72459397D01*
X161120000Y-72505921D01*
X161120000Y-73494079D01*
X161115418Y-73540603D01*
X161102756Y-73582340D01*
X161082196Y-73620807D01*
X161054525Y-73654525D01*
X161020807Y-73682196D01*
X160982340Y-73702756D01*
X160940603Y-73715418D01*
X160894079Y-73720000D01*
X160155921Y-73720000D01*
X160109397Y-73715418D01*
X160067660Y-73702756D01*
X160029193Y-73682196D01*
X159995475Y-73654525D01*
X159967804Y-73620807D01*
X159947244Y-73582340D01*
X159934582Y-73540603D01*
X159930000Y-73494079D01*
X159930000Y-72505921D01*
X159934582Y-72459397D01*
X159947244Y-72417660D01*
X159967804Y-72379193D01*
X159995475Y-72345475D01*
X160029193Y-72317804D01*
X160067660Y-72297244D01*
X160109397Y-72284582D01*
X160155921Y-72280000D01*
X160894079Y-72280000D01*
X160940603Y-72284582D01*
X160940603Y-72284582D01*
G37*
G36*
X170440603Y-71784582D02*
G01*
X170482340Y-71797244D01*
X170520807Y-71817804D01*
X170554525Y-71845475D01*
X170582196Y-71879193D01*
X170602756Y-71917660D01*
X170615418Y-71959397D01*
X170620000Y-72005921D01*
X170620000Y-72994079D01*
X170615418Y-73040603D01*
X170602756Y-73082340D01*
X170582196Y-73120807D01*
X170554525Y-73154525D01*
X170520807Y-73182196D01*
X170482340Y-73202756D01*
X170440603Y-73215418D01*
X170394079Y-73220000D01*
X169655921Y-73220000D01*
X169609397Y-73215418D01*
X169567660Y-73202756D01*
X169529193Y-73182196D01*
X169495475Y-73154525D01*
X169467804Y-73120807D01*
X169447244Y-73082340D01*
X169434582Y-73040603D01*
X169430000Y-72994079D01*
X169430000Y-72005921D01*
X169434582Y-71959397D01*
X169447244Y-71917660D01*
X169467804Y-71879193D01*
X169495475Y-71845475D01*
X169529193Y-71817804D01*
X169567660Y-71797244D01*
X169609397Y-71784582D01*
X169655921Y-71780000D01*
X170394079Y-71780000D01*
X170440603Y-71784582D01*
X170440603Y-71784582D01*
G37*
G36*
X168390603Y-71784582D02*
G01*
X168432340Y-71797244D01*
X168470807Y-71817804D01*
X168504525Y-71845475D01*
X168532196Y-71879193D01*
X168552756Y-71917660D01*
X168565418Y-71959397D01*
X168570000Y-72005921D01*
X168570000Y-72994079D01*
X168565418Y-73040603D01*
X168552756Y-73082340D01*
X168532196Y-73120807D01*
X168504525Y-73154525D01*
X168470807Y-73182196D01*
X168432340Y-73202756D01*
X168390603Y-73215418D01*
X168344079Y-73220000D01*
X167605921Y-73220000D01*
X167559397Y-73215418D01*
X167517660Y-73202756D01*
X167479193Y-73182196D01*
X167445475Y-73154525D01*
X167417804Y-73120807D01*
X167397244Y-73082340D01*
X167384582Y-73040603D01*
X167380000Y-72994079D01*
X167380000Y-72005921D01*
X167384582Y-71959397D01*
X167397244Y-71917660D01*
X167417804Y-71879193D01*
X167445475Y-71845475D01*
X167479193Y-71817804D01*
X167517660Y-71797244D01*
X167559397Y-71784582D01*
X167605921Y-71780000D01*
X168344079Y-71780000D01*
X168390603Y-71784582D01*
X168390603Y-71784582D01*
G37*
G36*
X166295000Y-73220000D02*
G01*
X165755000Y-73220000D01*
X165755000Y-72830000D01*
X166295000Y-72830000D01*
X166295000Y-73220000D01*
X166295000Y-73220000D01*
G37*
G36*
X164245000Y-73220000D02*
G01*
X163705000Y-73220000D01*
X163705000Y-72830000D01*
X164245000Y-72830000D01*
X164245000Y-73220000D01*
X164245000Y-73220000D01*
G37*
G36*
X131940603Y-71584582D02*
G01*
X131982340Y-71597244D01*
X132020807Y-71617804D01*
X132054525Y-71645475D01*
X132082196Y-71679193D01*
X132102756Y-71717660D01*
X132115418Y-71759397D01*
X132120000Y-71805921D01*
X132120000Y-72794079D01*
X132115418Y-72840603D01*
X132102756Y-72882340D01*
X132082196Y-72920807D01*
X132054525Y-72954525D01*
X132020807Y-72982196D01*
X131982340Y-73002756D01*
X131940603Y-73015418D01*
X131894079Y-73020000D01*
X131155921Y-73020000D01*
X131109397Y-73015418D01*
X131067660Y-73002756D01*
X131029193Y-72982196D01*
X130995475Y-72954525D01*
X130967804Y-72920807D01*
X130947244Y-72882340D01*
X130934582Y-72840603D01*
X130930000Y-72794079D01*
X130930000Y-71805921D01*
X130934582Y-71759397D01*
X130947244Y-71717660D01*
X130967804Y-71679193D01*
X130995475Y-71645475D01*
X131029193Y-71617804D01*
X131067660Y-71597244D01*
X131109397Y-71584582D01*
X131155921Y-71580000D01*
X131894079Y-71580000D01*
X131940603Y-71584582D01*
X131940603Y-71584582D01*
G37*
G36*
X129890603Y-71584582D02*
G01*
X129932340Y-71597244D01*
X129970807Y-71617804D01*
X130004525Y-71645475D01*
X130032196Y-71679193D01*
X130052756Y-71717660D01*
X130065418Y-71759397D01*
X130070000Y-71805921D01*
X130070000Y-72794079D01*
X130065418Y-72840603D01*
X130052756Y-72882340D01*
X130032196Y-72920807D01*
X130004525Y-72954525D01*
X129970807Y-72982196D01*
X129932340Y-73002756D01*
X129890603Y-73015418D01*
X129844079Y-73020000D01*
X129105921Y-73020000D01*
X129059397Y-73015418D01*
X129017660Y-73002756D01*
X128979193Y-72982196D01*
X128945475Y-72954525D01*
X128917804Y-72920807D01*
X128897244Y-72882340D01*
X128884582Y-72840603D01*
X128880000Y-72794079D01*
X128880000Y-71805921D01*
X128884582Y-71759397D01*
X128897244Y-71717660D01*
X128917804Y-71679193D01*
X128945475Y-71645475D01*
X128979193Y-71617804D01*
X129017660Y-71597244D01*
X129059397Y-71584582D01*
X129105921Y-71580000D01*
X129844079Y-71580000D01*
X129890603Y-71584582D01*
X129890603Y-71584582D01*
G37*
G36*
X122676462Y-70483726D02*
G01*
X122709848Y-70493853D01*
X122740608Y-70510295D01*
X122767574Y-70532426D01*
X122789705Y-70559392D01*
X122806147Y-70590152D01*
X122816274Y-70623538D01*
X122820000Y-70661367D01*
X122820000Y-72338633D01*
X122816274Y-72376462D01*
X122806147Y-72409848D01*
X122789705Y-72440608D01*
X122767574Y-72467574D01*
X122740608Y-72489705D01*
X122709848Y-72506147D01*
X122676462Y-72516274D01*
X122638633Y-72520000D01*
X122161367Y-72520000D01*
X122123538Y-72516274D01*
X122090152Y-72506147D01*
X122059392Y-72489705D01*
X122032426Y-72467574D01*
X122010295Y-72440608D01*
X121993853Y-72409848D01*
X121983726Y-72376462D01*
X121980000Y-72338633D01*
X121980000Y-70661367D01*
X121983726Y-70623538D01*
X121993853Y-70590152D01*
X122010295Y-70559392D01*
X122032426Y-70532426D01*
X122059392Y-70510295D01*
X122090152Y-70493853D01*
X122123538Y-70483726D01*
X122161367Y-70480000D01*
X122638633Y-70480000D01*
X122676462Y-70483726D01*
X122676462Y-70483726D01*
G37*
G36*
X126876462Y-70483726D02*
G01*
X126909848Y-70493853D01*
X126940608Y-70510295D01*
X126967574Y-70532426D01*
X126989705Y-70559392D01*
X127006147Y-70590152D01*
X127016274Y-70623538D01*
X127020000Y-70661367D01*
X127020000Y-72338633D01*
X127016274Y-72376462D01*
X127006147Y-72409848D01*
X126989705Y-72440608D01*
X126967574Y-72467574D01*
X126940608Y-72489705D01*
X126909848Y-72506147D01*
X126876462Y-72516274D01*
X126838633Y-72520000D01*
X126361367Y-72520000D01*
X126323538Y-72516274D01*
X126290152Y-72506147D01*
X126259392Y-72489705D01*
X126232426Y-72467574D01*
X126210295Y-72440608D01*
X126193853Y-72409848D01*
X126183726Y-72376462D01*
X126180000Y-72338633D01*
X126180000Y-70661367D01*
X126183726Y-70623538D01*
X126193853Y-70590152D01*
X126210295Y-70559392D01*
X126232426Y-70532426D01*
X126259392Y-70510295D01*
X126290152Y-70493853D01*
X126323538Y-70483726D01*
X126361367Y-70480000D01*
X126838633Y-70480000D01*
X126876462Y-70483726D01*
X126876462Y-70483726D01*
G37*
G36*
X164011830Y-71432285D02*
G01*
X164031147Y-71438144D01*
X164048941Y-71447655D01*
X164064541Y-71460459D01*
X164077345Y-71476059D01*
X164086856Y-71493853D01*
X164092715Y-71513170D01*
X164095000Y-71536367D01*
X164095000Y-71863633D01*
X164092715Y-71886830D01*
X164086856Y-71906147D01*
X164077345Y-71923941D01*
X164064541Y-71939541D01*
X164048941Y-71952345D01*
X164031147Y-71961856D01*
X164011830Y-71967715D01*
X163988633Y-71970000D01*
X163636367Y-71970000D01*
X163613170Y-71967715D01*
X163593853Y-71961856D01*
X163576059Y-71952345D01*
X163560459Y-71939541D01*
X163547655Y-71923941D01*
X163538144Y-71906147D01*
X163532285Y-71886830D01*
X163530000Y-71863633D01*
X163530000Y-71536367D01*
X163532285Y-71513170D01*
X163538144Y-71493853D01*
X163547655Y-71476059D01*
X163560459Y-71460459D01*
X163576059Y-71447655D01*
X163593853Y-71438144D01*
X163613170Y-71432285D01*
X163636367Y-71430000D01*
X163988633Y-71430000D01*
X164011830Y-71432285D01*
X164011830Y-71432285D01*
G37*
G36*
X166386830Y-71432285D02*
G01*
X166406147Y-71438144D01*
X166423941Y-71447655D01*
X166439541Y-71460459D01*
X166452345Y-71476059D01*
X166461856Y-71493853D01*
X166467715Y-71513170D01*
X166470000Y-71536367D01*
X166470000Y-71863633D01*
X166467715Y-71886830D01*
X166461856Y-71906147D01*
X166452345Y-71923941D01*
X166439541Y-71939541D01*
X166423941Y-71952345D01*
X166406147Y-71961856D01*
X166386830Y-71967715D01*
X166363633Y-71970000D01*
X166011367Y-71970000D01*
X165988170Y-71967715D01*
X165968853Y-71961856D01*
X165951059Y-71952345D01*
X165935459Y-71939541D01*
X165922655Y-71923941D01*
X165913144Y-71906147D01*
X165907285Y-71886830D01*
X165905000Y-71863633D01*
X165905000Y-71536367D01*
X165907285Y-71513170D01*
X165913144Y-71493853D01*
X165922655Y-71476059D01*
X165935459Y-71460459D01*
X165951059Y-71447655D01*
X165968853Y-71438144D01*
X165988170Y-71432285D01*
X166011367Y-71430000D01*
X166363633Y-71430000D01*
X166386830Y-71432285D01*
X166386830Y-71432285D01*
G37*
G36*
X166386830Y-70632285D02*
G01*
X166406147Y-70638144D01*
X166423941Y-70647655D01*
X166439541Y-70660459D01*
X166452345Y-70676059D01*
X166461856Y-70693853D01*
X166467715Y-70713170D01*
X166470000Y-70736367D01*
X166470000Y-71063633D01*
X166467715Y-71086830D01*
X166461856Y-71106147D01*
X166452345Y-71123941D01*
X166439541Y-71139541D01*
X166423941Y-71152345D01*
X166406147Y-71161856D01*
X166386830Y-71167715D01*
X166363633Y-71170000D01*
X166011367Y-71170000D01*
X165988170Y-71167715D01*
X165968853Y-71161856D01*
X165951059Y-71152345D01*
X165935459Y-71139541D01*
X165922655Y-71123941D01*
X165913144Y-71106147D01*
X165907285Y-71086830D01*
X165905000Y-71063633D01*
X165905000Y-70736367D01*
X165907285Y-70713170D01*
X165913144Y-70693853D01*
X165922655Y-70676059D01*
X165935459Y-70660459D01*
X165951059Y-70647655D01*
X165968853Y-70638144D01*
X165988170Y-70632285D01*
X166011367Y-70630000D01*
X166363633Y-70630000D01*
X166386830Y-70632285D01*
X166386830Y-70632285D01*
G37*
G36*
X164011830Y-70632285D02*
G01*
X164031147Y-70638144D01*
X164048941Y-70647655D01*
X164064541Y-70660459D01*
X164077345Y-70676059D01*
X164086856Y-70693853D01*
X164092715Y-70713170D01*
X164095000Y-70736367D01*
X164095000Y-71063633D01*
X164092715Y-71086830D01*
X164086856Y-71106147D01*
X164077345Y-71123941D01*
X164064541Y-71139541D01*
X164048941Y-71152345D01*
X164031147Y-71161856D01*
X164011830Y-71167715D01*
X163988633Y-71170000D01*
X163636367Y-71170000D01*
X163613170Y-71167715D01*
X163593853Y-71161856D01*
X163576059Y-71152345D01*
X163560459Y-71139541D01*
X163547655Y-71123941D01*
X163538144Y-71106147D01*
X163532285Y-71086830D01*
X163530000Y-71063633D01*
X163530000Y-70736367D01*
X163532285Y-70713170D01*
X163538144Y-70693853D01*
X163547655Y-70676059D01*
X163560459Y-70660459D01*
X163576059Y-70647655D01*
X163593853Y-70638144D01*
X163613170Y-70632285D01*
X163636367Y-70630000D01*
X163988633Y-70630000D01*
X164011830Y-70632285D01*
X164011830Y-70632285D01*
G37*
G36*
X161290603Y-69934582D02*
G01*
X161332340Y-69947244D01*
X161370807Y-69967804D01*
X161404525Y-69995475D01*
X161432196Y-70029193D01*
X161452756Y-70067660D01*
X161465418Y-70109397D01*
X161470000Y-70155921D01*
X161470000Y-70894079D01*
X161465418Y-70940603D01*
X161452756Y-70982340D01*
X161432196Y-71020807D01*
X161404525Y-71054525D01*
X161370807Y-71082196D01*
X161332340Y-71102756D01*
X161290603Y-71115418D01*
X161244079Y-71120000D01*
X160255921Y-71120000D01*
X160209397Y-71115418D01*
X160167660Y-71102756D01*
X160129193Y-71082196D01*
X160095475Y-71054525D01*
X160067804Y-71020807D01*
X160047244Y-70982340D01*
X160034582Y-70940603D01*
X160030000Y-70894079D01*
X160030000Y-70155921D01*
X160034582Y-70109397D01*
X160047244Y-70067660D01*
X160067804Y-70029193D01*
X160095475Y-69995475D01*
X160129193Y-69967804D01*
X160167660Y-69947244D01*
X160209397Y-69934582D01*
X160255921Y-69930000D01*
X161244079Y-69930000D01*
X161290603Y-69934582D01*
X161290603Y-69934582D01*
G37*
G36*
X136040603Y-69684582D02*
G01*
X136082340Y-69697244D01*
X136120807Y-69717804D01*
X136154525Y-69745475D01*
X136182196Y-69779193D01*
X136202756Y-69817660D01*
X136215418Y-69859397D01*
X136220000Y-69905921D01*
X136220000Y-70644079D01*
X136215418Y-70690603D01*
X136202756Y-70732340D01*
X136182196Y-70770807D01*
X136154525Y-70804525D01*
X136120807Y-70832196D01*
X136082340Y-70852756D01*
X136040603Y-70865418D01*
X135994079Y-70870000D01*
X135005921Y-70870000D01*
X134959397Y-70865418D01*
X134917660Y-70852756D01*
X134879193Y-70832196D01*
X134845475Y-70804525D01*
X134817804Y-70770807D01*
X134797244Y-70732340D01*
X134784582Y-70690603D01*
X134780000Y-70644079D01*
X134780000Y-69905921D01*
X134784582Y-69859397D01*
X134797244Y-69817660D01*
X134817804Y-69779193D01*
X134845475Y-69745475D01*
X134879193Y-69717804D01*
X134917660Y-69697244D01*
X134959397Y-69684582D01*
X135005921Y-69680000D01*
X135994079Y-69680000D01*
X136040603Y-69684582D01*
X136040603Y-69684582D01*
G37*
G36*
X168390603Y-69284582D02*
G01*
X168432340Y-69297244D01*
X168470807Y-69317804D01*
X168504525Y-69345475D01*
X168532196Y-69379193D01*
X168552756Y-69417660D01*
X168565418Y-69459397D01*
X168570000Y-69505921D01*
X168570000Y-70494079D01*
X168565418Y-70540603D01*
X168552756Y-70582340D01*
X168532196Y-70620807D01*
X168504525Y-70654525D01*
X168470807Y-70682196D01*
X168432340Y-70702756D01*
X168390603Y-70715418D01*
X168344079Y-70720000D01*
X167605921Y-70720000D01*
X167559397Y-70715418D01*
X167517660Y-70702756D01*
X167479193Y-70682196D01*
X167445475Y-70654525D01*
X167417804Y-70620807D01*
X167397244Y-70582340D01*
X167384582Y-70540603D01*
X167380000Y-70494079D01*
X167380000Y-69505921D01*
X167384582Y-69459397D01*
X167397244Y-69417660D01*
X167417804Y-69379193D01*
X167445475Y-69345475D01*
X167479193Y-69317804D01*
X167517660Y-69297244D01*
X167559397Y-69284582D01*
X167605921Y-69280000D01*
X168344079Y-69280000D01*
X168390603Y-69284582D01*
X168390603Y-69284582D01*
G37*
G36*
X170440603Y-69284582D02*
G01*
X170482340Y-69297244D01*
X170520807Y-69317804D01*
X170554525Y-69345475D01*
X170582196Y-69379193D01*
X170602756Y-69417660D01*
X170615418Y-69459397D01*
X170620000Y-69505921D01*
X170620000Y-70494079D01*
X170615418Y-70540603D01*
X170602756Y-70582340D01*
X170582196Y-70620807D01*
X170554525Y-70654525D01*
X170520807Y-70682196D01*
X170482340Y-70702756D01*
X170440603Y-70715418D01*
X170394079Y-70720000D01*
X169655921Y-70720000D01*
X169609397Y-70715418D01*
X169567660Y-70702756D01*
X169529193Y-70682196D01*
X169495475Y-70654525D01*
X169467804Y-70620807D01*
X169447244Y-70582340D01*
X169434582Y-70540603D01*
X169430000Y-70494079D01*
X169430000Y-69505921D01*
X169434582Y-69459397D01*
X169447244Y-69417660D01*
X169467804Y-69379193D01*
X169495475Y-69345475D01*
X169529193Y-69317804D01*
X169567660Y-69297244D01*
X169609397Y-69284582D01*
X169655921Y-69280000D01*
X170394079Y-69280000D01*
X170440603Y-69284582D01*
X170440603Y-69284582D01*
G37*
G36*
X166386830Y-69832285D02*
G01*
X166406147Y-69838144D01*
X166423941Y-69847655D01*
X166439541Y-69860459D01*
X166452345Y-69876059D01*
X166461856Y-69893853D01*
X166467715Y-69913170D01*
X166470000Y-69936367D01*
X166470000Y-70263633D01*
X166467715Y-70286830D01*
X166461856Y-70306147D01*
X166452345Y-70323941D01*
X166439541Y-70339541D01*
X166423941Y-70352345D01*
X166406147Y-70361856D01*
X166386830Y-70367715D01*
X166363633Y-70370000D01*
X166011367Y-70370000D01*
X165988170Y-70367715D01*
X165968853Y-70361856D01*
X165951059Y-70352345D01*
X165935459Y-70339541D01*
X165922655Y-70323941D01*
X165913144Y-70306147D01*
X165907285Y-70286830D01*
X165905000Y-70263633D01*
X165905000Y-69936367D01*
X165907285Y-69913170D01*
X165913144Y-69893853D01*
X165922655Y-69876059D01*
X165935459Y-69860459D01*
X165951059Y-69847655D01*
X165968853Y-69838144D01*
X165988170Y-69832285D01*
X166011367Y-69830000D01*
X166363633Y-69830000D01*
X166386830Y-69832285D01*
X166386830Y-69832285D01*
G37*
G36*
X164011830Y-69832285D02*
G01*
X164031147Y-69838144D01*
X164048941Y-69847655D01*
X164064541Y-69860459D01*
X164077345Y-69876059D01*
X164086856Y-69893853D01*
X164092715Y-69913170D01*
X164095000Y-69936367D01*
X164095000Y-70263633D01*
X164092715Y-70286830D01*
X164086856Y-70306147D01*
X164077345Y-70323941D01*
X164064541Y-70339541D01*
X164048941Y-70352345D01*
X164031147Y-70361856D01*
X164011830Y-70367715D01*
X163988633Y-70370000D01*
X163636367Y-70370000D01*
X163613170Y-70367715D01*
X163593853Y-70361856D01*
X163576059Y-70352345D01*
X163560459Y-70339541D01*
X163547655Y-70323941D01*
X163538144Y-70306147D01*
X163532285Y-70286830D01*
X163530000Y-70263633D01*
X163530000Y-69936367D01*
X163532285Y-69913170D01*
X163538144Y-69893853D01*
X163547655Y-69876059D01*
X163560459Y-69860459D01*
X163576059Y-69847655D01*
X163593853Y-69838144D01*
X163613170Y-69832285D01*
X163636367Y-69830000D01*
X163988633Y-69830000D01*
X164011830Y-69832285D01*
X164011830Y-69832285D01*
G37*
G36*
X133940603Y-68784582D02*
G01*
X133982340Y-68797244D01*
X134020807Y-68817804D01*
X134054525Y-68845475D01*
X134082196Y-68879193D01*
X134102756Y-68917660D01*
X134115418Y-68959397D01*
X134120000Y-69005921D01*
X134120000Y-69994079D01*
X134115418Y-70040603D01*
X134102756Y-70082340D01*
X134082196Y-70120807D01*
X134054525Y-70154525D01*
X134020807Y-70182196D01*
X133982340Y-70202756D01*
X133940603Y-70215418D01*
X133894079Y-70220000D01*
X133155921Y-70220000D01*
X133109397Y-70215418D01*
X133067660Y-70202756D01*
X133029193Y-70182196D01*
X132995475Y-70154525D01*
X132967804Y-70120807D01*
X132947244Y-70082340D01*
X132934582Y-70040603D01*
X132930000Y-69994079D01*
X132930000Y-69005921D01*
X132934582Y-68959397D01*
X132947244Y-68917660D01*
X132967804Y-68879193D01*
X132995475Y-68845475D01*
X133029193Y-68817804D01*
X133067660Y-68797244D01*
X133109397Y-68784582D01*
X133155921Y-68780000D01*
X133894079Y-68780000D01*
X133940603Y-68784582D01*
X133940603Y-68784582D01*
G37*
G36*
X131890603Y-68784582D02*
G01*
X131932340Y-68797244D01*
X131970807Y-68817804D01*
X132004525Y-68845475D01*
X132032196Y-68879193D01*
X132052756Y-68917660D01*
X132065418Y-68959397D01*
X132070000Y-69005921D01*
X132070000Y-69994079D01*
X132065418Y-70040603D01*
X132052756Y-70082340D01*
X132032196Y-70120807D01*
X132004525Y-70154525D01*
X131970807Y-70182196D01*
X131932340Y-70202756D01*
X131890603Y-70215418D01*
X131844079Y-70220000D01*
X131105921Y-70220000D01*
X131059397Y-70215418D01*
X131017660Y-70202756D01*
X130979193Y-70182196D01*
X130945475Y-70154525D01*
X130917804Y-70120807D01*
X130897244Y-70082340D01*
X130884582Y-70040603D01*
X130880000Y-69994079D01*
X130880000Y-69005921D01*
X130884582Y-68959397D01*
X130897244Y-68917660D01*
X130917804Y-68879193D01*
X130945475Y-68845475D01*
X130979193Y-68817804D01*
X131017660Y-68797244D01*
X131059397Y-68784582D01*
X131105921Y-68780000D01*
X131844079Y-68780000D01*
X131890603Y-68784582D01*
X131890603Y-68784582D01*
G37*
G36*
X166386830Y-69032285D02*
G01*
X166406147Y-69038144D01*
X166423941Y-69047655D01*
X166439541Y-69060459D01*
X166452345Y-69076059D01*
X166461856Y-69093853D01*
X166467715Y-69113170D01*
X166470000Y-69136367D01*
X166470000Y-69463633D01*
X166467715Y-69486830D01*
X166461856Y-69506147D01*
X166452345Y-69523941D01*
X166439541Y-69539541D01*
X166423941Y-69552345D01*
X166406147Y-69561856D01*
X166386830Y-69567715D01*
X166363633Y-69570000D01*
X166011367Y-69570000D01*
X165988170Y-69567715D01*
X165968853Y-69561856D01*
X165951059Y-69552345D01*
X165935459Y-69539541D01*
X165922655Y-69523941D01*
X165913144Y-69506147D01*
X165907285Y-69486830D01*
X165905000Y-69463633D01*
X165905000Y-69136367D01*
X165907285Y-69113170D01*
X165913144Y-69093853D01*
X165922655Y-69076059D01*
X165935459Y-69060459D01*
X165951059Y-69047655D01*
X165968853Y-69038144D01*
X165988170Y-69032285D01*
X166011367Y-69030000D01*
X166363633Y-69030000D01*
X166386830Y-69032285D01*
X166386830Y-69032285D01*
G37*
G36*
X164011830Y-69032285D02*
G01*
X164031147Y-69038144D01*
X164048941Y-69047655D01*
X164064541Y-69060459D01*
X164077345Y-69076059D01*
X164086856Y-69093853D01*
X164092715Y-69113170D01*
X164095000Y-69136367D01*
X164095000Y-69463633D01*
X164092715Y-69486830D01*
X164086856Y-69506147D01*
X164077345Y-69523941D01*
X164064541Y-69539541D01*
X164048941Y-69552345D01*
X164031147Y-69561856D01*
X164011830Y-69567715D01*
X163988633Y-69570000D01*
X163636367Y-69570000D01*
X163613170Y-69567715D01*
X163593853Y-69561856D01*
X163576059Y-69552345D01*
X163560459Y-69539541D01*
X163547655Y-69523941D01*
X163538144Y-69506147D01*
X163532285Y-69486830D01*
X163530000Y-69463633D01*
X163530000Y-69136367D01*
X163532285Y-69113170D01*
X163538144Y-69093853D01*
X163547655Y-69076059D01*
X163560459Y-69060459D01*
X163576059Y-69047655D01*
X163593853Y-69038144D01*
X163613170Y-69032285D01*
X163636367Y-69030000D01*
X163988633Y-69030000D01*
X164011830Y-69032285D01*
X164011830Y-69032285D01*
G37*
G36*
X141657500Y-69476250D02*
G01*
X140767500Y-69476250D01*
X140767500Y-68523750D01*
X141657500Y-68523750D01*
X141657500Y-69476250D01*
X141657500Y-69476250D01*
G37*
G36*
X159132500Y-69476250D02*
G01*
X158242500Y-69476250D01*
X158242500Y-68523750D01*
X159132500Y-68523750D01*
X159132500Y-69476250D01*
X159132500Y-69476250D01*
G37*
G36*
X161290603Y-67884582D02*
G01*
X161332340Y-67897244D01*
X161370807Y-67917804D01*
X161404525Y-67945475D01*
X161432196Y-67979193D01*
X161452756Y-68017660D01*
X161465418Y-68059397D01*
X161470000Y-68105921D01*
X161470000Y-68844079D01*
X161465418Y-68890603D01*
X161452756Y-68932340D01*
X161432196Y-68970807D01*
X161404525Y-69004525D01*
X161370807Y-69032196D01*
X161332340Y-69052756D01*
X161290603Y-69065418D01*
X161244079Y-69070000D01*
X160255921Y-69070000D01*
X160209397Y-69065418D01*
X160167660Y-69052756D01*
X160129193Y-69032196D01*
X160095475Y-69004525D01*
X160067804Y-68970807D01*
X160047244Y-68932340D01*
X160034582Y-68890603D01*
X160030000Y-68844079D01*
X160030000Y-68105921D01*
X160034582Y-68059397D01*
X160047244Y-68017660D01*
X160067804Y-67979193D01*
X160095475Y-67945475D01*
X160129193Y-67917804D01*
X160167660Y-67897244D01*
X160209397Y-67884582D01*
X160255921Y-67880000D01*
X161244079Y-67880000D01*
X161290603Y-67884582D01*
X161290603Y-67884582D01*
G37*
G36*
X136040603Y-67634582D02*
G01*
X136082340Y-67647244D01*
X136120807Y-67667804D01*
X136154525Y-67695475D01*
X136182196Y-67729193D01*
X136202756Y-67767660D01*
X136215418Y-67809397D01*
X136220000Y-67855921D01*
X136220000Y-68594079D01*
X136215418Y-68640603D01*
X136202756Y-68682340D01*
X136182196Y-68720807D01*
X136154525Y-68754525D01*
X136120807Y-68782196D01*
X136082340Y-68802756D01*
X136040603Y-68815418D01*
X135994079Y-68820000D01*
X135005921Y-68820000D01*
X134959397Y-68815418D01*
X134917660Y-68802756D01*
X134879193Y-68782196D01*
X134845475Y-68754525D01*
X134817804Y-68720807D01*
X134797244Y-68682340D01*
X134784582Y-68640603D01*
X134780000Y-68594079D01*
X134780000Y-67855921D01*
X134784582Y-67809397D01*
X134797244Y-67767660D01*
X134817804Y-67729193D01*
X134845475Y-67695475D01*
X134879193Y-67667804D01*
X134917660Y-67647244D01*
X134959397Y-67634582D01*
X135005921Y-67630000D01*
X135994079Y-67630000D01*
X136040603Y-67634582D01*
X136040603Y-67634582D01*
G37*
G36*
X123310550Y-66522589D02*
G01*
X123474545Y-66572336D01*
X123474548Y-66572337D01*
X123625686Y-66653123D01*
X123758160Y-66761840D01*
X123866877Y-66894314D01*
X123947663Y-67045452D01*
X123947664Y-67045455D01*
X123997411Y-67209450D01*
X124014209Y-67380000D01*
X123997411Y-67550550D01*
X123960085Y-67673598D01*
X123947663Y-67714548D01*
X123866877Y-67865686D01*
X123758160Y-67998160D01*
X123625686Y-68106877D01*
X123474548Y-68187663D01*
X123474545Y-68187664D01*
X123310550Y-68237411D01*
X123182734Y-68250000D01*
X123097266Y-68250000D01*
X122969450Y-68237411D01*
X122805455Y-68187664D01*
X122805452Y-68187663D01*
X122654314Y-68106877D01*
X122521840Y-67998160D01*
X122413123Y-67865686D01*
X122332337Y-67714548D01*
X122319915Y-67673598D01*
X122282589Y-67550550D01*
X122265791Y-67380000D01*
X122282589Y-67209450D01*
X122332336Y-67045455D01*
X122332337Y-67045452D01*
X122413123Y-66894314D01*
X122521840Y-66761840D01*
X122654314Y-66653123D01*
X122805452Y-66572337D01*
X122805455Y-66572336D01*
X122969450Y-66522589D01*
X123097266Y-66510000D01*
X123182734Y-66510000D01*
X123310550Y-66522589D01*
X123310550Y-66522589D01*
G37*
G36*
X125850550Y-66522589D02*
G01*
X126014545Y-66572336D01*
X126014548Y-66572337D01*
X126165686Y-66653123D01*
X126298160Y-66761840D01*
X126406877Y-66894314D01*
X126487663Y-67045452D01*
X126487664Y-67045455D01*
X126537411Y-67209450D01*
X126554209Y-67380000D01*
X126537411Y-67550550D01*
X126500085Y-67673598D01*
X126487663Y-67714548D01*
X126406877Y-67865686D01*
X126298160Y-67998160D01*
X126165686Y-68106877D01*
X126014548Y-68187663D01*
X126014545Y-68187664D01*
X125850550Y-68237411D01*
X125722734Y-68250000D01*
X125637266Y-68250000D01*
X125509450Y-68237411D01*
X125345455Y-68187664D01*
X125345452Y-68187663D01*
X125194314Y-68106877D01*
X125061840Y-67998160D01*
X124953123Y-67865686D01*
X124872337Y-67714548D01*
X124859915Y-67673598D01*
X124822589Y-67550550D01*
X124805791Y-67380000D01*
X124822589Y-67209450D01*
X124872336Y-67045455D01*
X124872337Y-67045452D01*
X124953123Y-66894314D01*
X125061840Y-66761840D01*
X125194314Y-66653123D01*
X125345452Y-66572337D01*
X125345455Y-66572336D01*
X125509450Y-66522589D01*
X125637266Y-66510000D01*
X125722734Y-66510000D01*
X125850550Y-66522589D01*
X125850550Y-66522589D01*
G37*
G36*
X141657500Y-67976250D02*
G01*
X140767500Y-67976250D01*
X140767500Y-67023750D01*
X141657500Y-67023750D01*
X141657500Y-67976250D01*
X141657500Y-67976250D01*
G37*
G36*
X159132500Y-67976250D02*
G01*
X158242500Y-67976250D01*
X158242500Y-67023750D01*
X159132500Y-67023750D01*
X159132500Y-67976250D01*
X159132500Y-67976250D01*
G37*
G36*
X131890603Y-66534582D02*
G01*
X131932340Y-66547244D01*
X131970807Y-66567804D01*
X132004525Y-66595475D01*
X132032196Y-66629193D01*
X132052756Y-66667660D01*
X132065418Y-66709397D01*
X132070000Y-66755921D01*
X132070000Y-67744079D01*
X132065418Y-67790603D01*
X132052756Y-67832340D01*
X132032196Y-67870807D01*
X132004525Y-67904525D01*
X131970807Y-67932196D01*
X131932340Y-67952756D01*
X131890603Y-67965418D01*
X131844079Y-67970000D01*
X131105921Y-67970000D01*
X131059397Y-67965418D01*
X131017660Y-67952756D01*
X130979193Y-67932196D01*
X130945475Y-67904525D01*
X130917804Y-67870807D01*
X130897244Y-67832340D01*
X130884582Y-67790603D01*
X130880000Y-67744079D01*
X130880000Y-66755921D01*
X130884582Y-66709397D01*
X130897244Y-66667660D01*
X130917804Y-66629193D01*
X130945475Y-66595475D01*
X130979193Y-66567804D01*
X131017660Y-66547244D01*
X131059397Y-66534582D01*
X131105921Y-66530000D01*
X131844079Y-66530000D01*
X131890603Y-66534582D01*
X131890603Y-66534582D01*
G37*
G36*
X133940603Y-66534582D02*
G01*
X133982340Y-66547244D01*
X134020807Y-66567804D01*
X134054525Y-66595475D01*
X134082196Y-66629193D01*
X134102756Y-66667660D01*
X134115418Y-66709397D01*
X134120000Y-66755921D01*
X134120000Y-67744079D01*
X134115418Y-67790603D01*
X134102756Y-67832340D01*
X134082196Y-67870807D01*
X134054525Y-67904525D01*
X134020807Y-67932196D01*
X133982340Y-67952756D01*
X133940603Y-67965418D01*
X133894079Y-67970000D01*
X133155921Y-67970000D01*
X133109397Y-67965418D01*
X133067660Y-67952756D01*
X133029193Y-67932196D01*
X132995475Y-67904525D01*
X132967804Y-67870807D01*
X132947244Y-67832340D01*
X132934582Y-67790603D01*
X132930000Y-67744079D01*
X132930000Y-66755921D01*
X132934582Y-66709397D01*
X132947244Y-66667660D01*
X132967804Y-66629193D01*
X132995475Y-66595475D01*
X133029193Y-66567804D01*
X133067660Y-66547244D01*
X133109397Y-66534582D01*
X133155921Y-66530000D01*
X133894079Y-66530000D01*
X133940603Y-66534582D01*
X133940603Y-66534582D01*
G37*
G36*
X170220000Y-67695000D02*
G01*
X169080000Y-67695000D01*
X169080000Y-67255000D01*
X170220000Y-67255000D01*
X170220000Y-67695000D01*
X170220000Y-67695000D01*
G37*
G36*
X165920000Y-67695000D02*
G01*
X164780000Y-67695000D01*
X164780000Y-67255000D01*
X165920000Y-67255000D01*
X165920000Y-67695000D01*
X165920000Y-67695000D01*
G37*
G36*
X170220000Y-67045000D02*
G01*
X169080000Y-67045000D01*
X169080000Y-66605000D01*
X170220000Y-66605000D01*
X170220000Y-67045000D01*
X170220000Y-67045000D01*
G37*
G36*
X165920000Y-67045000D02*
G01*
X164780000Y-67045000D01*
X164780000Y-66605000D01*
X165920000Y-66605000D01*
X165920000Y-67045000D01*
X165920000Y-67045000D01*
G37*
G36*
X137185603Y-65324582D02*
G01*
X137227340Y-65337244D01*
X137265807Y-65357804D01*
X137299525Y-65385475D01*
X137327196Y-65419193D01*
X137347756Y-65457660D01*
X137360418Y-65499397D01*
X137365000Y-65545921D01*
X137365000Y-66534079D01*
X137360418Y-66580603D01*
X137347756Y-66622340D01*
X137327196Y-66660807D01*
X137299525Y-66694525D01*
X137265807Y-66722196D01*
X137227340Y-66742756D01*
X137185603Y-66755418D01*
X137139079Y-66760000D01*
X136400921Y-66760000D01*
X136354397Y-66755418D01*
X136312660Y-66742756D01*
X136274193Y-66722196D01*
X136240475Y-66694525D01*
X136212804Y-66660807D01*
X136192244Y-66622340D01*
X136179582Y-66580603D01*
X136175000Y-66534079D01*
X136175000Y-65545921D01*
X136179582Y-65499397D01*
X136192244Y-65457660D01*
X136212804Y-65419193D01*
X136240475Y-65385475D01*
X136274193Y-65357804D01*
X136312660Y-65337244D01*
X136354397Y-65324582D01*
X136400921Y-65320000D01*
X137139079Y-65320000D01*
X137185603Y-65324582D01*
X137185603Y-65324582D01*
G37*
G36*
X139235603Y-65324582D02*
G01*
X139277340Y-65337244D01*
X139315807Y-65357804D01*
X139349525Y-65385475D01*
X139377196Y-65419193D01*
X139397756Y-65457660D01*
X139410418Y-65499397D01*
X139415000Y-65545921D01*
X139415000Y-66534079D01*
X139410418Y-66580603D01*
X139397756Y-66622340D01*
X139377196Y-66660807D01*
X139349525Y-66694525D01*
X139315807Y-66722196D01*
X139277340Y-66742756D01*
X139235603Y-66755418D01*
X139189079Y-66760000D01*
X138450921Y-66760000D01*
X138404397Y-66755418D01*
X138362660Y-66742756D01*
X138324193Y-66722196D01*
X138290475Y-66694525D01*
X138262804Y-66660807D01*
X138242244Y-66622340D01*
X138229582Y-66580603D01*
X138225000Y-66534079D01*
X138225000Y-65545921D01*
X138229582Y-65499397D01*
X138242244Y-65457660D01*
X138262804Y-65419193D01*
X138290475Y-65385475D01*
X138324193Y-65357804D01*
X138362660Y-65337244D01*
X138404397Y-65324582D01*
X138450921Y-65320000D01*
X139189079Y-65320000D01*
X139235603Y-65324582D01*
X139235603Y-65324582D01*
G37*
G36*
X159132500Y-66476250D02*
G01*
X158242500Y-66476250D01*
X158242500Y-65523750D01*
X159132500Y-65523750D01*
X159132500Y-66476250D01*
X159132500Y-66476250D01*
G37*
G36*
X141657500Y-66476250D02*
G01*
X140767500Y-66476250D01*
X140767500Y-65523750D01*
X141657500Y-65523750D01*
X141657500Y-66476250D01*
X141657500Y-66476250D01*
G37*
G36*
X170220000Y-66395000D02*
G01*
X169080000Y-66395000D01*
X169080000Y-65955000D01*
X170220000Y-65955000D01*
X170220000Y-66395000D01*
X170220000Y-66395000D01*
G37*
G36*
X165920000Y-66395000D02*
G01*
X164780000Y-66395000D01*
X164780000Y-65955000D01*
X165920000Y-65955000D01*
X165920000Y-66395000D01*
X165920000Y-66395000D01*
G37*
G36*
X163365603Y-64784582D02*
G01*
X163407340Y-64797244D01*
X163445807Y-64817804D01*
X163479525Y-64845475D01*
X163507196Y-64879193D01*
X163527756Y-64917660D01*
X163540418Y-64959397D01*
X163545000Y-65005921D01*
X163545000Y-65994079D01*
X163540418Y-66040603D01*
X163527756Y-66082340D01*
X163507196Y-66120807D01*
X163479525Y-66154525D01*
X163445807Y-66182196D01*
X163407340Y-66202756D01*
X163365603Y-66215418D01*
X163319079Y-66220000D01*
X162580921Y-66220000D01*
X162534397Y-66215418D01*
X162492660Y-66202756D01*
X162454193Y-66182196D01*
X162420475Y-66154525D01*
X162392804Y-66120807D01*
X162372244Y-66082340D01*
X162359582Y-66040603D01*
X162355000Y-65994079D01*
X162355000Y-65005921D01*
X162359582Y-64959397D01*
X162372244Y-64917660D01*
X162392804Y-64879193D01*
X162420475Y-64845475D01*
X162454193Y-64817804D01*
X162492660Y-64797244D01*
X162534397Y-64784582D01*
X162580921Y-64780000D01*
X163319079Y-64780000D01*
X163365603Y-64784582D01*
X163365603Y-64784582D01*
G37*
G36*
X161315603Y-64784582D02*
G01*
X161357340Y-64797244D01*
X161395807Y-64817804D01*
X161429525Y-64845475D01*
X161457196Y-64879193D01*
X161477756Y-64917660D01*
X161490418Y-64959397D01*
X161495000Y-65005921D01*
X161495000Y-65994079D01*
X161490418Y-66040603D01*
X161477756Y-66082340D01*
X161457196Y-66120807D01*
X161429525Y-66154525D01*
X161395807Y-66182196D01*
X161357340Y-66202756D01*
X161315603Y-66215418D01*
X161269079Y-66220000D01*
X160530921Y-66220000D01*
X160484397Y-66215418D01*
X160442660Y-66202756D01*
X160404193Y-66182196D01*
X160370475Y-66154525D01*
X160342804Y-66120807D01*
X160322244Y-66082340D01*
X160309582Y-66040603D01*
X160305000Y-65994079D01*
X160305000Y-65005921D01*
X160309582Y-64959397D01*
X160322244Y-64917660D01*
X160342804Y-64879193D01*
X160370475Y-64845475D01*
X160404193Y-64817804D01*
X160442660Y-64797244D01*
X160484397Y-64784582D01*
X160530921Y-64780000D01*
X161269079Y-64780000D01*
X161315603Y-64784582D01*
X161315603Y-64784582D01*
G37*
G36*
X153240000Y-65750000D02*
G01*
X148900000Y-65750000D01*
X148900000Y-61410000D01*
X153240000Y-61410000D01*
X153240000Y-65750000D01*
X153240000Y-65750000D01*
G37*
G36*
X170220000Y-65745000D02*
G01*
X169080000Y-65745000D01*
X169080000Y-65305000D01*
X170220000Y-65305000D01*
X170220000Y-65745000D01*
X170220000Y-65745000D01*
G37*
G36*
X165920000Y-65745000D02*
G01*
X164780000Y-65745000D01*
X164780000Y-65305000D01*
X165920000Y-65305000D01*
X165920000Y-65745000D01*
X165920000Y-65745000D01*
G37*
G36*
X133940603Y-64284582D02*
G01*
X133982340Y-64297244D01*
X134020807Y-64317804D01*
X134054525Y-64345475D01*
X134082196Y-64379193D01*
X134102756Y-64417660D01*
X134115418Y-64459397D01*
X134120000Y-64505921D01*
X134120000Y-65494079D01*
X134115418Y-65540603D01*
X134102756Y-65582340D01*
X134082196Y-65620807D01*
X134054525Y-65654525D01*
X134020807Y-65682196D01*
X133982340Y-65702756D01*
X133940603Y-65715418D01*
X133894079Y-65720000D01*
X133155921Y-65720000D01*
X133109397Y-65715418D01*
X133067660Y-65702756D01*
X133029193Y-65682196D01*
X132995475Y-65654525D01*
X132967804Y-65620807D01*
X132947244Y-65582340D01*
X132934582Y-65540603D01*
X132930000Y-65494079D01*
X132930000Y-64505921D01*
X132934582Y-64459397D01*
X132947244Y-64417660D01*
X132967804Y-64379193D01*
X132995475Y-64345475D01*
X133029193Y-64317804D01*
X133067660Y-64297244D01*
X133109397Y-64284582D01*
X133155921Y-64280000D01*
X133894079Y-64280000D01*
X133940603Y-64284582D01*
X133940603Y-64284582D01*
G37*
G36*
X131890603Y-64284582D02*
G01*
X131932340Y-64297244D01*
X131970807Y-64317804D01*
X132004525Y-64345475D01*
X132032196Y-64379193D01*
X132052756Y-64417660D01*
X132065418Y-64459397D01*
X132070000Y-64505921D01*
X132070000Y-65494079D01*
X132065418Y-65540603D01*
X132052756Y-65582340D01*
X132032196Y-65620807D01*
X132004525Y-65654525D01*
X131970807Y-65682196D01*
X131932340Y-65702756D01*
X131890603Y-65715418D01*
X131844079Y-65720000D01*
X131105921Y-65720000D01*
X131059397Y-65715418D01*
X131017660Y-65702756D01*
X130979193Y-65682196D01*
X130945475Y-65654525D01*
X130917804Y-65620807D01*
X130897244Y-65582340D01*
X130884582Y-65540603D01*
X130880000Y-65494079D01*
X130880000Y-64505921D01*
X130884582Y-64459397D01*
X130897244Y-64417660D01*
X130917804Y-64379193D01*
X130945475Y-64345475D01*
X130979193Y-64317804D01*
X131017660Y-64297244D01*
X131059397Y-64284582D01*
X131105921Y-64280000D01*
X131844079Y-64280000D01*
X131890603Y-64284582D01*
X131890603Y-64284582D01*
G37*
G36*
X123310550Y-63982589D02*
G01*
X123474545Y-64032336D01*
X123474548Y-64032337D01*
X123625686Y-64113123D01*
X123758160Y-64221840D01*
X123866877Y-64354314D01*
X123947663Y-64505452D01*
X123947664Y-64505455D01*
X123997411Y-64669450D01*
X124014209Y-64840000D01*
X123997411Y-65010550D01*
X123988873Y-65038695D01*
X123947663Y-65174548D01*
X123866877Y-65325686D01*
X123758160Y-65458160D01*
X123625686Y-65566877D01*
X123474548Y-65647663D01*
X123474545Y-65647664D01*
X123310550Y-65697411D01*
X123182734Y-65710000D01*
X123097266Y-65710000D01*
X122969450Y-65697411D01*
X122805455Y-65647664D01*
X122805452Y-65647663D01*
X122654314Y-65566877D01*
X122521840Y-65458160D01*
X122413123Y-65325686D01*
X122332337Y-65174548D01*
X122291127Y-65038695D01*
X122282589Y-65010550D01*
X122265791Y-64840000D01*
X122282589Y-64669450D01*
X122332336Y-64505455D01*
X122332337Y-64505452D01*
X122413123Y-64354314D01*
X122521840Y-64221840D01*
X122654314Y-64113123D01*
X122805452Y-64032337D01*
X122805455Y-64032336D01*
X122969450Y-63982589D01*
X123097266Y-63970000D01*
X123182734Y-63970000D01*
X123310550Y-63982589D01*
X123310550Y-63982589D01*
G37*
G36*
X125850550Y-63982589D02*
G01*
X126014545Y-64032336D01*
X126014548Y-64032337D01*
X126165686Y-64113123D01*
X126298160Y-64221840D01*
X126406877Y-64354314D01*
X126487663Y-64505452D01*
X126487664Y-64505455D01*
X126537411Y-64669450D01*
X126554209Y-64840000D01*
X126537411Y-65010550D01*
X126528873Y-65038695D01*
X126487663Y-65174548D01*
X126406877Y-65325686D01*
X126298160Y-65458160D01*
X126165686Y-65566877D01*
X126014548Y-65647663D01*
X126014545Y-65647664D01*
X125850550Y-65697411D01*
X125722734Y-65710000D01*
X125637266Y-65710000D01*
X125509450Y-65697411D01*
X125345455Y-65647664D01*
X125345452Y-65647663D01*
X125194314Y-65566877D01*
X125061840Y-65458160D01*
X124953123Y-65325686D01*
X124872337Y-65174548D01*
X124831127Y-65038695D01*
X124822589Y-65010550D01*
X124805791Y-64840000D01*
X124822589Y-64669450D01*
X124872336Y-64505455D01*
X124872337Y-64505452D01*
X124953123Y-64354314D01*
X125061840Y-64221840D01*
X125194314Y-64113123D01*
X125345452Y-64032337D01*
X125345455Y-64032336D01*
X125509450Y-63982589D01*
X125637266Y-63970000D01*
X125722734Y-63970000D01*
X125850550Y-63982589D01*
X125850550Y-63982589D01*
G37*
G36*
X159132500Y-64976250D02*
G01*
X158242500Y-64976250D01*
X158242500Y-64023750D01*
X159132500Y-64023750D01*
X159132500Y-64976250D01*
X159132500Y-64976250D01*
G37*
G36*
X141657500Y-64976250D02*
G01*
X140767500Y-64976250D01*
X140767500Y-64023750D01*
X141657500Y-64023750D01*
X141657500Y-64976250D01*
X141657500Y-64976250D01*
G37*
G36*
X137185603Y-62784582D02*
G01*
X137227340Y-62797244D01*
X137265807Y-62817804D01*
X137299525Y-62845475D01*
X137327196Y-62879193D01*
X137347756Y-62917660D01*
X137360418Y-62959397D01*
X137365000Y-63005921D01*
X137365000Y-63994079D01*
X137360418Y-64040603D01*
X137347756Y-64082340D01*
X137327196Y-64120807D01*
X137299525Y-64154525D01*
X137265807Y-64182196D01*
X137227340Y-64202756D01*
X137185603Y-64215418D01*
X137139079Y-64220000D01*
X136400921Y-64220000D01*
X136354397Y-64215418D01*
X136312660Y-64202756D01*
X136274193Y-64182196D01*
X136240475Y-64154525D01*
X136212804Y-64120807D01*
X136192244Y-64082340D01*
X136179582Y-64040603D01*
X136175000Y-63994079D01*
X136175000Y-63005921D01*
X136179582Y-62959397D01*
X136192244Y-62917660D01*
X136212804Y-62879193D01*
X136240475Y-62845475D01*
X136274193Y-62817804D01*
X136312660Y-62797244D01*
X136354397Y-62784582D01*
X136400921Y-62780000D01*
X137139079Y-62780000D01*
X137185603Y-62784582D01*
X137185603Y-62784582D01*
G37*
G36*
X139235603Y-62784582D02*
G01*
X139277340Y-62797244D01*
X139315807Y-62817804D01*
X139349525Y-62845475D01*
X139377196Y-62879193D01*
X139397756Y-62917660D01*
X139410418Y-62959397D01*
X139415000Y-63005921D01*
X139415000Y-63994079D01*
X139410418Y-64040603D01*
X139397756Y-64082340D01*
X139377196Y-64120807D01*
X139349525Y-64154525D01*
X139315807Y-64182196D01*
X139277340Y-64202756D01*
X139235603Y-64215418D01*
X139189079Y-64220000D01*
X138450921Y-64220000D01*
X138404397Y-64215418D01*
X138362660Y-64202756D01*
X138324193Y-64182196D01*
X138290475Y-64154525D01*
X138262804Y-64120807D01*
X138242244Y-64082340D01*
X138229582Y-64040603D01*
X138225000Y-63994079D01*
X138225000Y-63005921D01*
X138229582Y-62959397D01*
X138242244Y-62917660D01*
X138262804Y-62879193D01*
X138290475Y-62845475D01*
X138324193Y-62817804D01*
X138362660Y-62797244D01*
X138404397Y-62784582D01*
X138450921Y-62780000D01*
X139189079Y-62780000D01*
X139235603Y-62784582D01*
X139235603Y-62784582D01*
G37*
G36*
X161830603Y-62664582D02*
G01*
X161872340Y-62677244D01*
X161910807Y-62697804D01*
X161944525Y-62725475D01*
X161972196Y-62759193D01*
X161992756Y-62797660D01*
X162005418Y-62839397D01*
X162010000Y-62885921D01*
X162010000Y-63624079D01*
X162005418Y-63670603D01*
X161992756Y-63712340D01*
X161972196Y-63750807D01*
X161944525Y-63784525D01*
X161910807Y-63812196D01*
X161872340Y-63832756D01*
X161830603Y-63845418D01*
X161784079Y-63850000D01*
X160795921Y-63850000D01*
X160749397Y-63845418D01*
X160707660Y-63832756D01*
X160669193Y-63812196D01*
X160635475Y-63784525D01*
X160607804Y-63750807D01*
X160587244Y-63712340D01*
X160574582Y-63670603D01*
X160570000Y-63624079D01*
X160570000Y-62885921D01*
X160574582Y-62839397D01*
X160587244Y-62797660D01*
X160607804Y-62759193D01*
X160635475Y-62725475D01*
X160669193Y-62697804D01*
X160707660Y-62677244D01*
X160749397Y-62664582D01*
X160795921Y-62660000D01*
X161784079Y-62660000D01*
X161830603Y-62664582D01*
X161830603Y-62664582D01*
G37*
G36*
X159132500Y-63476250D02*
G01*
X158242500Y-63476250D01*
X158242500Y-62523750D01*
X159132500Y-62523750D01*
X159132500Y-63476250D01*
X159132500Y-63476250D01*
G37*
G36*
X141657500Y-63476250D02*
G01*
X140767500Y-63476250D01*
X140767500Y-62523750D01*
X141657500Y-62523750D01*
X141657500Y-63476250D01*
X141657500Y-63476250D01*
G37*
G36*
X169030550Y-61442589D02*
G01*
X169194545Y-61492336D01*
X169194548Y-61492337D01*
X169345686Y-61573123D01*
X169478160Y-61681840D01*
X169586877Y-61814314D01*
X169667663Y-61965452D01*
X169667664Y-61965455D01*
X169717411Y-62129450D01*
X169734209Y-62300000D01*
X169717411Y-62470550D01*
X169684210Y-62580000D01*
X169667663Y-62634548D01*
X169586877Y-62785686D01*
X169478160Y-62918160D01*
X169345686Y-63026877D01*
X169194548Y-63107663D01*
X169194545Y-63107664D01*
X169030550Y-63157411D01*
X168902734Y-63170000D01*
X168817266Y-63170000D01*
X168689450Y-63157411D01*
X168525455Y-63107664D01*
X168525452Y-63107663D01*
X168374314Y-63026877D01*
X168241840Y-62918160D01*
X168133123Y-62785686D01*
X168052337Y-62634548D01*
X168035790Y-62580000D01*
X168002589Y-62470550D01*
X167985791Y-62300000D01*
X168002589Y-62129450D01*
X168052336Y-61965455D01*
X168052337Y-61965452D01*
X168133123Y-61814314D01*
X168241840Y-61681840D01*
X168374314Y-61573123D01*
X168525452Y-61492337D01*
X168525455Y-61492336D01*
X168689450Y-61442589D01*
X168817266Y-61430000D01*
X168902734Y-61430000D01*
X169030550Y-61442589D01*
X169030550Y-61442589D01*
G37*
G36*
X125850550Y-61442589D02*
G01*
X126014545Y-61492336D01*
X126014548Y-61492337D01*
X126165686Y-61573123D01*
X126298160Y-61681840D01*
X126406877Y-61814314D01*
X126487663Y-61965452D01*
X126487664Y-61965455D01*
X126537411Y-62129450D01*
X126554209Y-62300000D01*
X126537411Y-62470550D01*
X126504210Y-62580000D01*
X126487663Y-62634548D01*
X126406877Y-62785686D01*
X126298160Y-62918160D01*
X126165686Y-63026877D01*
X126014548Y-63107663D01*
X126014545Y-63107664D01*
X125850550Y-63157411D01*
X125722734Y-63170000D01*
X125637266Y-63170000D01*
X125509450Y-63157411D01*
X125345455Y-63107664D01*
X125345452Y-63107663D01*
X125194314Y-63026877D01*
X125061840Y-62918160D01*
X124953123Y-62785686D01*
X124872337Y-62634548D01*
X124855790Y-62580000D01*
X124822589Y-62470550D01*
X124805791Y-62300000D01*
X124822589Y-62129450D01*
X124872336Y-61965455D01*
X124872337Y-61965452D01*
X124953123Y-61814314D01*
X125061840Y-61681840D01*
X125194314Y-61573123D01*
X125345452Y-61492337D01*
X125345455Y-61492336D01*
X125509450Y-61442589D01*
X125637266Y-61430000D01*
X125722734Y-61430000D01*
X125850550Y-61442589D01*
X125850550Y-61442589D01*
G37*
G36*
X123310550Y-61442589D02*
G01*
X123474545Y-61492336D01*
X123474548Y-61492337D01*
X123625686Y-61573123D01*
X123758160Y-61681840D01*
X123866877Y-61814314D01*
X123947663Y-61965452D01*
X123947664Y-61965455D01*
X123997411Y-62129450D01*
X124014209Y-62300000D01*
X123997411Y-62470550D01*
X123964210Y-62580000D01*
X123947663Y-62634548D01*
X123866877Y-62785686D01*
X123758160Y-62918160D01*
X123625686Y-63026877D01*
X123474548Y-63107663D01*
X123474545Y-63107664D01*
X123310550Y-63157411D01*
X123182734Y-63170000D01*
X123097266Y-63170000D01*
X122969450Y-63157411D01*
X122805455Y-63107664D01*
X122805452Y-63107663D01*
X122654314Y-63026877D01*
X122521840Y-62918160D01*
X122413123Y-62785686D01*
X122332337Y-62634548D01*
X122315790Y-62580000D01*
X122282589Y-62470550D01*
X122265791Y-62300000D01*
X122282589Y-62129450D01*
X122332336Y-61965455D01*
X122332337Y-61965452D01*
X122413123Y-61814314D01*
X122521840Y-61681840D01*
X122654314Y-61573123D01*
X122805452Y-61492337D01*
X122805455Y-61492336D01*
X122969450Y-61442589D01*
X123097266Y-61430000D01*
X123182734Y-61430000D01*
X123310550Y-61442589D01*
X123310550Y-61442589D01*
G37*
G36*
X129890603Y-61284582D02*
G01*
X129932340Y-61297244D01*
X129970807Y-61317804D01*
X130004525Y-61345475D01*
X130032196Y-61379193D01*
X130052756Y-61417660D01*
X130065418Y-61459397D01*
X130070000Y-61505921D01*
X130070000Y-62494079D01*
X130065418Y-62540603D01*
X130052756Y-62582340D01*
X130032196Y-62620807D01*
X130004525Y-62654525D01*
X129970807Y-62682196D01*
X129932340Y-62702756D01*
X129890603Y-62715418D01*
X129844079Y-62720000D01*
X129105921Y-62720000D01*
X129059397Y-62715418D01*
X129017660Y-62702756D01*
X128979193Y-62682196D01*
X128945475Y-62654525D01*
X128917804Y-62620807D01*
X128897244Y-62582340D01*
X128884582Y-62540603D01*
X128880000Y-62494079D01*
X128880000Y-61505921D01*
X128884582Y-61459397D01*
X128897244Y-61417660D01*
X128917804Y-61379193D01*
X128945475Y-61345475D01*
X128979193Y-61317804D01*
X129017660Y-61297244D01*
X129059397Y-61284582D01*
X129105921Y-61280000D01*
X129844079Y-61280000D01*
X129890603Y-61284582D01*
X129890603Y-61284582D01*
G37*
G36*
X131940603Y-61284582D02*
G01*
X131982340Y-61297244D01*
X132020807Y-61317804D01*
X132054525Y-61345475D01*
X132082196Y-61379193D01*
X132102756Y-61417660D01*
X132115418Y-61459397D01*
X132120000Y-61505921D01*
X132120000Y-62494079D01*
X132115418Y-62540603D01*
X132102756Y-62582340D01*
X132082196Y-62620807D01*
X132054525Y-62654525D01*
X132020807Y-62682196D01*
X131982340Y-62702756D01*
X131940603Y-62715418D01*
X131894079Y-62720000D01*
X131155921Y-62720000D01*
X131109397Y-62715418D01*
X131067660Y-62702756D01*
X131029193Y-62682196D01*
X130995475Y-62654525D01*
X130967804Y-62620807D01*
X130947244Y-62582340D01*
X130934582Y-62540603D01*
X130930000Y-62494079D01*
X130930000Y-61505921D01*
X130934582Y-61459397D01*
X130947244Y-61417660D01*
X130967804Y-61379193D01*
X130995475Y-61345475D01*
X131029193Y-61317804D01*
X131067660Y-61297244D01*
X131109397Y-61284582D01*
X131155921Y-61280000D01*
X131894079Y-61280000D01*
X131940603Y-61284582D01*
X131940603Y-61284582D01*
G37*
G36*
X134540603Y-61394582D02*
G01*
X134582340Y-61407244D01*
X134620807Y-61427804D01*
X134654525Y-61455475D01*
X134682196Y-61489193D01*
X134702756Y-61527660D01*
X134715418Y-61569397D01*
X134720000Y-61615921D01*
X134720000Y-62354079D01*
X134715418Y-62400603D01*
X134702756Y-62442340D01*
X134682196Y-62480807D01*
X134654525Y-62514525D01*
X134620807Y-62542196D01*
X134582340Y-62562756D01*
X134540603Y-62575418D01*
X134494079Y-62580000D01*
X133505921Y-62580000D01*
X133459397Y-62575418D01*
X133417660Y-62562756D01*
X133379193Y-62542196D01*
X133345475Y-62514525D01*
X133317804Y-62480807D01*
X133297244Y-62442340D01*
X133284582Y-62400603D01*
X133280000Y-62354079D01*
X133280000Y-61615921D01*
X133284582Y-61569397D01*
X133297244Y-61527660D01*
X133317804Y-61489193D01*
X133345475Y-61455475D01*
X133379193Y-61427804D01*
X133417660Y-61407244D01*
X133459397Y-61394582D01*
X133505921Y-61390000D01*
X134494079Y-61390000D01*
X134540603Y-61394582D01*
X134540603Y-61394582D01*
G37*
G36*
X141657500Y-61976250D02*
G01*
X140767500Y-61976250D01*
X140767500Y-61023750D01*
X141657500Y-61023750D01*
X141657500Y-61976250D01*
X141657500Y-61976250D01*
G37*
G36*
X159132500Y-61976250D02*
G01*
X158242500Y-61976250D01*
X158242500Y-61023750D01*
X159132500Y-61023750D01*
X159132500Y-61976250D01*
X159132500Y-61976250D01*
G37*
G36*
X161830603Y-60614582D02*
G01*
X161872340Y-60627244D01*
X161910807Y-60647804D01*
X161944525Y-60675475D01*
X161972196Y-60709193D01*
X161992756Y-60747660D01*
X162005418Y-60789397D01*
X162010000Y-60835921D01*
X162010000Y-61574079D01*
X162005418Y-61620603D01*
X161992756Y-61662340D01*
X161972196Y-61700807D01*
X161944525Y-61734525D01*
X161910807Y-61762196D01*
X161872340Y-61782756D01*
X161830603Y-61795418D01*
X161784079Y-61800000D01*
X160795921Y-61800000D01*
X160749397Y-61795418D01*
X160707660Y-61782756D01*
X160669193Y-61762196D01*
X160635475Y-61734525D01*
X160607804Y-61700807D01*
X160587244Y-61662340D01*
X160574582Y-61620603D01*
X160570000Y-61574079D01*
X160570000Y-60835921D01*
X160574582Y-60789397D01*
X160587244Y-60747660D01*
X160607804Y-60709193D01*
X160635475Y-60675475D01*
X160669193Y-60647804D01*
X160707660Y-60627244D01*
X160749397Y-60614582D01*
X160795921Y-60610000D01*
X161784079Y-60610000D01*
X161830603Y-60614582D01*
X161830603Y-60614582D01*
G37*
G36*
X123310550Y-58902589D02*
G01*
X123474545Y-58952336D01*
X123474548Y-58952337D01*
X123625686Y-59033123D01*
X123758160Y-59141840D01*
X123866877Y-59274314D01*
X123947663Y-59425452D01*
X123947664Y-59425455D01*
X123997411Y-59589450D01*
X124014209Y-59760000D01*
X123997411Y-59930550D01*
X123972772Y-60011774D01*
X123947663Y-60094548D01*
X123866877Y-60245686D01*
X123758160Y-60378160D01*
X123625686Y-60486877D01*
X123474548Y-60567663D01*
X123474545Y-60567664D01*
X123310550Y-60617411D01*
X123182734Y-60630000D01*
X123097266Y-60630000D01*
X122969450Y-60617411D01*
X122805455Y-60567664D01*
X122805452Y-60567663D01*
X122654314Y-60486877D01*
X122521840Y-60378160D01*
X122413123Y-60245686D01*
X122332337Y-60094548D01*
X122307228Y-60011774D01*
X122282589Y-59930550D01*
X122265791Y-59760000D01*
X122282589Y-59589450D01*
X122332336Y-59425455D01*
X122332337Y-59425452D01*
X122413123Y-59274314D01*
X122521840Y-59141840D01*
X122654314Y-59033123D01*
X122805452Y-58952337D01*
X122805455Y-58952336D01*
X122969450Y-58902589D01*
X123097266Y-58890000D01*
X123182734Y-58890000D01*
X123310550Y-58902589D01*
X123310550Y-58902589D01*
G37*
G36*
X169030550Y-58902589D02*
G01*
X169194545Y-58952336D01*
X169194548Y-58952337D01*
X169345686Y-59033123D01*
X169478160Y-59141840D01*
X169586877Y-59274314D01*
X169667663Y-59425452D01*
X169667664Y-59425455D01*
X169717411Y-59589450D01*
X169734209Y-59760000D01*
X169717411Y-59930550D01*
X169692772Y-60011774D01*
X169667663Y-60094548D01*
X169586877Y-60245686D01*
X169478160Y-60378160D01*
X169345686Y-60486877D01*
X169194548Y-60567663D01*
X169194545Y-60567664D01*
X169030550Y-60617411D01*
X168902734Y-60630000D01*
X168817266Y-60630000D01*
X168689450Y-60617411D01*
X168525455Y-60567664D01*
X168525452Y-60567663D01*
X168374314Y-60486877D01*
X168241840Y-60378160D01*
X168133123Y-60245686D01*
X168052337Y-60094548D01*
X168027228Y-60011774D01*
X168002589Y-59930550D01*
X167985791Y-59760000D01*
X168002589Y-59589450D01*
X168052336Y-59425455D01*
X168052337Y-59425452D01*
X168133123Y-59274314D01*
X168241840Y-59141840D01*
X168374314Y-59033123D01*
X168525452Y-58952337D01*
X168525455Y-58952336D01*
X168689450Y-58902589D01*
X168817266Y-58890000D01*
X168902734Y-58890000D01*
X169030550Y-58902589D01*
X169030550Y-58902589D01*
G37*
G36*
X125850550Y-58902589D02*
G01*
X126014545Y-58952336D01*
X126014548Y-58952337D01*
X126165686Y-59033123D01*
X126298160Y-59141840D01*
X126406877Y-59274314D01*
X126487663Y-59425452D01*
X126487664Y-59425455D01*
X126537411Y-59589450D01*
X126554209Y-59760000D01*
X126537411Y-59930550D01*
X126512772Y-60011774D01*
X126487663Y-60094548D01*
X126406877Y-60245686D01*
X126298160Y-60378160D01*
X126165686Y-60486877D01*
X126014548Y-60567663D01*
X126014545Y-60567664D01*
X125850550Y-60617411D01*
X125722734Y-60630000D01*
X125637266Y-60630000D01*
X125509450Y-60617411D01*
X125345455Y-60567664D01*
X125345452Y-60567663D01*
X125194314Y-60486877D01*
X125061840Y-60378160D01*
X124953123Y-60245686D01*
X124872337Y-60094548D01*
X124847228Y-60011774D01*
X124822589Y-59930550D01*
X124805791Y-59760000D01*
X124822589Y-59589450D01*
X124872336Y-59425455D01*
X124872337Y-59425452D01*
X124953123Y-59274314D01*
X125061840Y-59141840D01*
X125194314Y-59033123D01*
X125345452Y-58952337D01*
X125345455Y-58952336D01*
X125509450Y-58902589D01*
X125637266Y-58890000D01*
X125722734Y-58890000D01*
X125850550Y-58902589D01*
X125850550Y-58902589D01*
G37*
G36*
X134540603Y-59344582D02*
G01*
X134582340Y-59357244D01*
X134620807Y-59377804D01*
X134654525Y-59405475D01*
X134682196Y-59439193D01*
X134702756Y-59477660D01*
X134715418Y-59519397D01*
X134720000Y-59565921D01*
X134720000Y-60304079D01*
X134715418Y-60350603D01*
X134702756Y-60392340D01*
X134682196Y-60430807D01*
X134654525Y-60464525D01*
X134620807Y-60492196D01*
X134582340Y-60512756D01*
X134540603Y-60525418D01*
X134494079Y-60530000D01*
X133505921Y-60530000D01*
X133459397Y-60525418D01*
X133417660Y-60512756D01*
X133379193Y-60492196D01*
X133345475Y-60464525D01*
X133317804Y-60430807D01*
X133297244Y-60392340D01*
X133284582Y-60350603D01*
X133280000Y-60304079D01*
X133280000Y-59565921D01*
X133284582Y-59519397D01*
X133297244Y-59477660D01*
X133317804Y-59439193D01*
X133345475Y-59405475D01*
X133379193Y-59377804D01*
X133417660Y-59357244D01*
X133459397Y-59344582D01*
X133505921Y-59340000D01*
X134494079Y-59340000D01*
X134540603Y-59344582D01*
X134540603Y-59344582D01*
G37*
G36*
X141657500Y-60476250D02*
G01*
X140767500Y-60476250D01*
X140767500Y-59523750D01*
X141657500Y-59523750D01*
X141657500Y-60476250D01*
X141657500Y-60476250D01*
G37*
G36*
X159132500Y-60476250D02*
G01*
X158242500Y-60476250D01*
X158242500Y-59523750D01*
X159132500Y-59523750D01*
X159132500Y-60476250D01*
X159132500Y-60476250D01*
G37*
G36*
X129890603Y-58784582D02*
G01*
X129932340Y-58797244D01*
X129970807Y-58817804D01*
X130004525Y-58845475D01*
X130032196Y-58879193D01*
X130052756Y-58917660D01*
X130065418Y-58959397D01*
X130070000Y-59005921D01*
X130070000Y-59994079D01*
X130065418Y-60040603D01*
X130052756Y-60082340D01*
X130032196Y-60120807D01*
X130004525Y-60154525D01*
X129970807Y-60182196D01*
X129932340Y-60202756D01*
X129890603Y-60215418D01*
X129844079Y-60220000D01*
X129105921Y-60220000D01*
X129059397Y-60215418D01*
X129017660Y-60202756D01*
X128979193Y-60182196D01*
X128945475Y-60154525D01*
X128917804Y-60120807D01*
X128897244Y-60082340D01*
X128884582Y-60040603D01*
X128880000Y-59994079D01*
X128880000Y-59005921D01*
X128884582Y-58959397D01*
X128897244Y-58917660D01*
X128917804Y-58879193D01*
X128945475Y-58845475D01*
X128979193Y-58817804D01*
X129017660Y-58797244D01*
X129059397Y-58784582D01*
X129105921Y-58780000D01*
X129844079Y-58780000D01*
X129890603Y-58784582D01*
X129890603Y-58784582D01*
G37*
G36*
X131940603Y-58784582D02*
G01*
X131982340Y-58797244D01*
X132020807Y-58817804D01*
X132054525Y-58845475D01*
X132082196Y-58879193D01*
X132102756Y-58917660D01*
X132115418Y-58959397D01*
X132120000Y-59005921D01*
X132120000Y-59994079D01*
X132115418Y-60040603D01*
X132102756Y-60082340D01*
X132082196Y-60120807D01*
X132054525Y-60154525D01*
X132020807Y-60182196D01*
X131982340Y-60202756D01*
X131940603Y-60215418D01*
X131894079Y-60220000D01*
X131155921Y-60220000D01*
X131109397Y-60215418D01*
X131067660Y-60202756D01*
X131029193Y-60182196D01*
X130995475Y-60154525D01*
X130967804Y-60120807D01*
X130947244Y-60082340D01*
X130934582Y-60040603D01*
X130930000Y-59994079D01*
X130930000Y-59005921D01*
X130934582Y-58959397D01*
X130947244Y-58917660D01*
X130967804Y-58879193D01*
X130995475Y-58845475D01*
X131029193Y-58817804D01*
X131067660Y-58797244D01*
X131109397Y-58784582D01*
X131155921Y-58780000D01*
X131894079Y-58780000D01*
X131940603Y-58784582D01*
X131940603Y-58784582D01*
G37*
G36*
X163340603Y-57684582D02*
G01*
X163382340Y-57697244D01*
X163420807Y-57717804D01*
X163454525Y-57745475D01*
X163482196Y-57779193D01*
X163502756Y-57817660D01*
X163515418Y-57859397D01*
X163520000Y-57905921D01*
X163520000Y-58894079D01*
X163515418Y-58940603D01*
X163502756Y-58982340D01*
X163482196Y-59020807D01*
X163454525Y-59054525D01*
X163420807Y-59082196D01*
X163382340Y-59102756D01*
X163340603Y-59115418D01*
X163294079Y-59120000D01*
X162555921Y-59120000D01*
X162509397Y-59115418D01*
X162467660Y-59102756D01*
X162429193Y-59082196D01*
X162395475Y-59054525D01*
X162367804Y-59020807D01*
X162347244Y-58982340D01*
X162334582Y-58940603D01*
X162330000Y-58894079D01*
X162330000Y-57905921D01*
X162334582Y-57859397D01*
X162347244Y-57817660D01*
X162367804Y-57779193D01*
X162395475Y-57745475D01*
X162429193Y-57717804D01*
X162467660Y-57697244D01*
X162509397Y-57684582D01*
X162555921Y-57680000D01*
X163294079Y-57680000D01*
X163340603Y-57684582D01*
X163340603Y-57684582D01*
G37*
G36*
X161290603Y-57684582D02*
G01*
X161332340Y-57697244D01*
X161370807Y-57717804D01*
X161404525Y-57745475D01*
X161432196Y-57779193D01*
X161452756Y-57817660D01*
X161465418Y-57859397D01*
X161470000Y-57905921D01*
X161470000Y-58894079D01*
X161465418Y-58940603D01*
X161452756Y-58982340D01*
X161432196Y-59020807D01*
X161404525Y-59054525D01*
X161370807Y-59082196D01*
X161332340Y-59102756D01*
X161290603Y-59115418D01*
X161244079Y-59120000D01*
X160505921Y-59120000D01*
X160459397Y-59115418D01*
X160417660Y-59102756D01*
X160379193Y-59082196D01*
X160345475Y-59054525D01*
X160317804Y-59020807D01*
X160297244Y-58982340D01*
X160284582Y-58940603D01*
X160280000Y-58894079D01*
X160280000Y-57905921D01*
X160284582Y-57859397D01*
X160297244Y-57817660D01*
X160317804Y-57779193D01*
X160345475Y-57745475D01*
X160379193Y-57717804D01*
X160417660Y-57697244D01*
X160459397Y-57684582D01*
X160505921Y-57680000D01*
X161244079Y-57680000D01*
X161290603Y-57684582D01*
X161290603Y-57684582D01*
G37*
G36*
X141657500Y-58976250D02*
G01*
X140767500Y-58976250D01*
X140767500Y-58023750D01*
X141657500Y-58023750D01*
X141657500Y-58976250D01*
X141657500Y-58976250D01*
G37*
G36*
X159132500Y-58976250D02*
G01*
X158242500Y-58976250D01*
X158242500Y-58023750D01*
X159132500Y-58023750D01*
X159132500Y-58976250D01*
X159132500Y-58976250D01*
G37*
G36*
X166140603Y-57734582D02*
G01*
X166182340Y-57747244D01*
X166220807Y-57767804D01*
X166254525Y-57795475D01*
X166282196Y-57829193D01*
X166302756Y-57867660D01*
X166315418Y-57909397D01*
X166320000Y-57955921D01*
X166320000Y-58694079D01*
X166315418Y-58740603D01*
X166302756Y-58782340D01*
X166282196Y-58820807D01*
X166254525Y-58854525D01*
X166220807Y-58882196D01*
X166182340Y-58902756D01*
X166140603Y-58915418D01*
X166094079Y-58920000D01*
X165105921Y-58920000D01*
X165059397Y-58915418D01*
X165017660Y-58902756D01*
X164979193Y-58882196D01*
X164945475Y-58854525D01*
X164917804Y-58820807D01*
X164897244Y-58782340D01*
X164884582Y-58740603D01*
X164880000Y-58694079D01*
X164880000Y-57955921D01*
X164884582Y-57909397D01*
X164897244Y-57867660D01*
X164917804Y-57829193D01*
X164945475Y-57795475D01*
X164979193Y-57767804D01*
X165017660Y-57747244D01*
X165059397Y-57734582D01*
X165105921Y-57730000D01*
X166094079Y-57730000D01*
X166140603Y-57734582D01*
X166140603Y-57734582D01*
G37*
G36*
X130040603Y-56934582D02*
G01*
X130082340Y-56947244D01*
X130120807Y-56967804D01*
X130154525Y-56995475D01*
X130182196Y-57029193D01*
X130202756Y-57067660D01*
X130215418Y-57109397D01*
X130220000Y-57155921D01*
X130220000Y-57894079D01*
X130215418Y-57940603D01*
X130202756Y-57982340D01*
X130182196Y-58020807D01*
X130154525Y-58054525D01*
X130120807Y-58082196D01*
X130082340Y-58102756D01*
X130040603Y-58115418D01*
X129994079Y-58120000D01*
X129005921Y-58120000D01*
X128959397Y-58115418D01*
X128917660Y-58102756D01*
X128879193Y-58082196D01*
X128845475Y-58054525D01*
X128817804Y-58020807D01*
X128797244Y-57982340D01*
X128784582Y-57940603D01*
X128780000Y-57894079D01*
X128780000Y-57155921D01*
X128784582Y-57109397D01*
X128797244Y-57067660D01*
X128817804Y-57029193D01*
X128845475Y-56995475D01*
X128879193Y-56967804D01*
X128917660Y-56947244D01*
X128959397Y-56934582D01*
X129005921Y-56930000D01*
X129994079Y-56930000D01*
X130040603Y-56934582D01*
X130040603Y-56934582D01*
G37*
G36*
X125850550Y-56362589D02*
G01*
X126014545Y-56412336D01*
X126014548Y-56412337D01*
X126165686Y-56493123D01*
X126298160Y-56601840D01*
X126406877Y-56734314D01*
X126487663Y-56885452D01*
X126487664Y-56885455D01*
X126537411Y-57049450D01*
X126554209Y-57220000D01*
X126537411Y-57390550D01*
X126511414Y-57476250D01*
X126487663Y-57554548D01*
X126406877Y-57705686D01*
X126298160Y-57838160D01*
X126165686Y-57946877D01*
X126014548Y-58027663D01*
X126014545Y-58027664D01*
X125850550Y-58077411D01*
X125722734Y-58090000D01*
X125637266Y-58090000D01*
X125509450Y-58077411D01*
X125345455Y-58027664D01*
X125345452Y-58027663D01*
X125194314Y-57946877D01*
X125061840Y-57838160D01*
X124953123Y-57705686D01*
X124872337Y-57554548D01*
X124848586Y-57476250D01*
X124822589Y-57390550D01*
X124805791Y-57220000D01*
X124822589Y-57049450D01*
X124872336Y-56885455D01*
X124872337Y-56885452D01*
X124953123Y-56734314D01*
X125061840Y-56601840D01*
X125194314Y-56493123D01*
X125345452Y-56412337D01*
X125345455Y-56412336D01*
X125509450Y-56362589D01*
X125637266Y-56350000D01*
X125722734Y-56350000D01*
X125850550Y-56362589D01*
X125850550Y-56362589D01*
G37*
G36*
X124010000Y-58090000D02*
G01*
X122270000Y-58090000D01*
X122270000Y-56350000D01*
X124010000Y-56350000D01*
X124010000Y-58090000D01*
X124010000Y-58090000D01*
G37*
G36*
X169730000Y-58090000D02*
G01*
X167990000Y-58090000D01*
X167990000Y-56350000D01*
X169730000Y-56350000D01*
X169730000Y-58090000D01*
X169730000Y-58090000D01*
G37*
G36*
X159132500Y-57476250D02*
G01*
X158242500Y-57476250D01*
X158242500Y-56523750D01*
X159132500Y-56523750D01*
X159132500Y-57476250D01*
X159132500Y-57476250D01*
G37*
G36*
X141657500Y-57476250D02*
G01*
X140767500Y-57476250D01*
X140767500Y-56523750D01*
X141657500Y-56523750D01*
X141657500Y-57476250D01*
X141657500Y-57476250D01*
G37*
G36*
X166140603Y-55684582D02*
G01*
X166182340Y-55697244D01*
X166220807Y-55717804D01*
X166254525Y-55745475D01*
X166282196Y-55779193D01*
X166302756Y-55817660D01*
X166315418Y-55859397D01*
X166320000Y-55905921D01*
X166320000Y-56644079D01*
X166315418Y-56690603D01*
X166302756Y-56732340D01*
X166282196Y-56770807D01*
X166254525Y-56804525D01*
X166220807Y-56832196D01*
X166182340Y-56852756D01*
X166140603Y-56865418D01*
X166094079Y-56870000D01*
X165105921Y-56870000D01*
X165059397Y-56865418D01*
X165017660Y-56852756D01*
X164979193Y-56832196D01*
X164945475Y-56804525D01*
X164917804Y-56770807D01*
X164897244Y-56732340D01*
X164884582Y-56690603D01*
X164880000Y-56644079D01*
X164880000Y-55905921D01*
X164884582Y-55859397D01*
X164897244Y-55817660D01*
X164917804Y-55779193D01*
X164945475Y-55745475D01*
X164979193Y-55717804D01*
X165017660Y-55697244D01*
X165059397Y-55684582D01*
X165105921Y-55680000D01*
X166094079Y-55680000D01*
X166140603Y-55684582D01*
X166140603Y-55684582D01*
G37*
G36*
X130040603Y-54884582D02*
G01*
X130082340Y-54897244D01*
X130120807Y-54917804D01*
X130154525Y-54945475D01*
X130182196Y-54979193D01*
X130202756Y-55017660D01*
X130215418Y-55059397D01*
X130220000Y-55105921D01*
X130220000Y-55844079D01*
X130215418Y-55890603D01*
X130202756Y-55932340D01*
X130182196Y-55970807D01*
X130154525Y-56004525D01*
X130120807Y-56032196D01*
X130082340Y-56052756D01*
X130040603Y-56065418D01*
X129994079Y-56070000D01*
X129005921Y-56070000D01*
X128959397Y-56065418D01*
X128917660Y-56052756D01*
X128879193Y-56032196D01*
X128845475Y-56004525D01*
X128817804Y-55970807D01*
X128797244Y-55932340D01*
X128784582Y-55890603D01*
X128780000Y-55844079D01*
X128780000Y-55105921D01*
X128784582Y-55059397D01*
X128797244Y-55017660D01*
X128817804Y-54979193D01*
X128845475Y-54945475D01*
X128879193Y-54917804D01*
X128917660Y-54897244D01*
X128959397Y-54884582D01*
X129005921Y-54880000D01*
X129994079Y-54880000D01*
X130040603Y-54884582D01*
X130040603Y-54884582D01*
G37*
G36*
X124325001Y-50648216D02*
G01*
X124691307Y-50721078D01*
X125122617Y-50899733D01*
X125510782Y-51159097D01*
X125510784Y-51159099D01*
X125510787Y-51159101D01*
X125840899Y-51489213D01*
X125840901Y-51489216D01*
X125840903Y-51489218D01*
X126100267Y-51877383D01*
X126278922Y-52308693D01*
X126370000Y-52766576D01*
X126370000Y-53233424D01*
X126278922Y-53691307D01*
X126100267Y-54122617D01*
X125840903Y-54510782D01*
X125840901Y-54510784D01*
X125840899Y-54510787D01*
X125510787Y-54840899D01*
X125510784Y-54840901D01*
X125510782Y-54840903D01*
X125122617Y-55100267D01*
X124691307Y-55278922D01*
X124325001Y-55351784D01*
X124233425Y-55370000D01*
X123766575Y-55370000D01*
X123674999Y-55351784D01*
X123308693Y-55278922D01*
X122877383Y-55100267D01*
X122489218Y-54840903D01*
X122489216Y-54840901D01*
X122489213Y-54840899D01*
X122159101Y-54510787D01*
X122159099Y-54510784D01*
X122159097Y-54510782D01*
X121899733Y-54122617D01*
X121721078Y-53691307D01*
X121630000Y-53233424D01*
X121630000Y-52766576D01*
X121721078Y-52308693D01*
X121899733Y-51877383D01*
X122159097Y-51489218D01*
X122159099Y-51489216D01*
X122159101Y-51489213D01*
X122489213Y-51159101D01*
X122489216Y-51159099D01*
X122489218Y-51159097D01*
X122877383Y-50899733D01*
X123308693Y-50721078D01*
X123674999Y-50648216D01*
X123766575Y-50630000D01*
X124233425Y-50630000D01*
X124325001Y-50648216D01*
X124325001Y-50648216D01*
G37*
G36*
X168325001Y-50648216D02*
G01*
X168691307Y-50721078D01*
X169122617Y-50899733D01*
X169510782Y-51159097D01*
X169510784Y-51159099D01*
X169510787Y-51159101D01*
X169840899Y-51489213D01*
X169840901Y-51489216D01*
X169840903Y-51489218D01*
X170100267Y-51877383D01*
X170278922Y-52308693D01*
X170370000Y-52766576D01*
X170370000Y-53233424D01*
X170278922Y-53691307D01*
X170100267Y-54122617D01*
X169840903Y-54510782D01*
X169840901Y-54510784D01*
X169840899Y-54510787D01*
X169510787Y-54840899D01*
X169510784Y-54840901D01*
X169510782Y-54840903D01*
X169122617Y-55100267D01*
X168691307Y-55278922D01*
X168325001Y-55351784D01*
X168233425Y-55370000D01*
X167766575Y-55370000D01*
X167674999Y-55351784D01*
X167308693Y-55278922D01*
X166877383Y-55100267D01*
X166489218Y-54840903D01*
X166489216Y-54840901D01*
X166489213Y-54840899D01*
X166159101Y-54510787D01*
X166159099Y-54510784D01*
X166159097Y-54510782D01*
X165899733Y-54122617D01*
X165721078Y-53691307D01*
X165630000Y-53233424D01*
X165630000Y-52766576D01*
X165721078Y-52308693D01*
X165899733Y-51877383D01*
X166159097Y-51489218D01*
X166159099Y-51489216D01*
X166159101Y-51489213D01*
X166489213Y-51159101D01*
X166489216Y-51159099D01*
X166489218Y-51159097D01*
X166877383Y-50899733D01*
X167308693Y-50721078D01*
X167674999Y-50648216D01*
X167766575Y-50630000D01*
X168233425Y-50630000D01*
X168325001Y-50648216D01*
X168325001Y-50648216D01*
G37*
G36*
X134540603Y-52934582D02*
G01*
X134582340Y-52947244D01*
X134620807Y-52967804D01*
X134654525Y-52995475D01*
X134682196Y-53029193D01*
X134702756Y-53067660D01*
X134715418Y-53109397D01*
X134720000Y-53155921D01*
X134720000Y-53894079D01*
X134715418Y-53940603D01*
X134702756Y-53982340D01*
X134682196Y-54020807D01*
X134654525Y-54054525D01*
X134620807Y-54082196D01*
X134582340Y-54102756D01*
X134540603Y-54115418D01*
X134494079Y-54120000D01*
X133505921Y-54120000D01*
X133459397Y-54115418D01*
X133417660Y-54102756D01*
X133379193Y-54082196D01*
X133345475Y-54054525D01*
X133317804Y-54020807D01*
X133297244Y-53982340D01*
X133284582Y-53940603D01*
X133280000Y-53894079D01*
X133280000Y-53155921D01*
X133284582Y-53109397D01*
X133297244Y-53067660D01*
X133317804Y-53029193D01*
X133345475Y-52995475D01*
X133379193Y-52967804D01*
X133417660Y-52947244D01*
X133459397Y-52934582D01*
X133505921Y-52930000D01*
X134494079Y-52930000D01*
X134540603Y-52934582D01*
X134540603Y-52934582D01*
G37*
G36*
X132290603Y-52934582D02*
G01*
X132332340Y-52947244D01*
X132370807Y-52967804D01*
X132404525Y-52995475D01*
X132432196Y-53029193D01*
X132452756Y-53067660D01*
X132465418Y-53109397D01*
X132470000Y-53155921D01*
X132470000Y-53894079D01*
X132465418Y-53940603D01*
X132452756Y-53982340D01*
X132432196Y-54020807D01*
X132404525Y-54054525D01*
X132370807Y-54082196D01*
X132332340Y-54102756D01*
X132290603Y-54115418D01*
X132244079Y-54120000D01*
X131255921Y-54120000D01*
X131209397Y-54115418D01*
X131167660Y-54102756D01*
X131129193Y-54082196D01*
X131095475Y-54054525D01*
X131067804Y-54020807D01*
X131047244Y-53982340D01*
X131034582Y-53940603D01*
X131030000Y-53894079D01*
X131030000Y-53155921D01*
X131034582Y-53109397D01*
X131047244Y-53067660D01*
X131067804Y-53029193D01*
X131095475Y-52995475D01*
X131129193Y-52967804D01*
X131167660Y-52947244D01*
X131209397Y-52934582D01*
X131255921Y-52930000D01*
X132244079Y-52930000D01*
X132290603Y-52934582D01*
X132290603Y-52934582D01*
G37*
G36*
X130040603Y-52934582D02*
G01*
X130082340Y-52947244D01*
X130120807Y-52967804D01*
X130154525Y-52995475D01*
X130182196Y-53029193D01*
X130202756Y-53067660D01*
X130215418Y-53109397D01*
X130220000Y-53155921D01*
X130220000Y-53894079D01*
X130215418Y-53940603D01*
X130202756Y-53982340D01*
X130182196Y-54020807D01*
X130154525Y-54054525D01*
X130120807Y-54082196D01*
X130082340Y-54102756D01*
X130040603Y-54115418D01*
X129994079Y-54120000D01*
X129005921Y-54120000D01*
X128959397Y-54115418D01*
X128917660Y-54102756D01*
X128879193Y-54082196D01*
X128845475Y-54054525D01*
X128817804Y-54020807D01*
X128797244Y-53982340D01*
X128784582Y-53940603D01*
X128780000Y-53894079D01*
X128780000Y-53155921D01*
X128784582Y-53109397D01*
X128797244Y-53067660D01*
X128817804Y-53029193D01*
X128845475Y-52995475D01*
X128879193Y-52967804D01*
X128917660Y-52947244D01*
X128959397Y-52934582D01*
X129005921Y-52930000D01*
X129994079Y-52930000D01*
X130040603Y-52934582D01*
X130040603Y-52934582D01*
G37*
G36*
X130040603Y-50884582D02*
G01*
X130082340Y-50897244D01*
X130120807Y-50917804D01*
X130154525Y-50945475D01*
X130182196Y-50979193D01*
X130202756Y-51017660D01*
X130215418Y-51059397D01*
X130220000Y-51105921D01*
X130220000Y-51844079D01*
X130215418Y-51890603D01*
X130202756Y-51932340D01*
X130182196Y-51970807D01*
X130154525Y-52004525D01*
X130120807Y-52032196D01*
X130082340Y-52052756D01*
X130040603Y-52065418D01*
X129994079Y-52070000D01*
X129005921Y-52070000D01*
X128959397Y-52065418D01*
X128917660Y-52052756D01*
X128879193Y-52032196D01*
X128845475Y-52004525D01*
X128817804Y-51970807D01*
X128797244Y-51932340D01*
X128784582Y-51890603D01*
X128780000Y-51844079D01*
X128780000Y-51105921D01*
X128784582Y-51059397D01*
X128797244Y-51017660D01*
X128817804Y-50979193D01*
X128845475Y-50945475D01*
X128879193Y-50917804D01*
X128917660Y-50897244D01*
X128959397Y-50884582D01*
X129005921Y-50880000D01*
X129994079Y-50880000D01*
X130040603Y-50884582D01*
X130040603Y-50884582D01*
G37*
G36*
X132290603Y-50884582D02*
G01*
X132332340Y-50897244D01*
X132370807Y-50917804D01*
X132404525Y-50945475D01*
X132432196Y-50979193D01*
X132452756Y-51017660D01*
X132465418Y-51059397D01*
X132470000Y-51105921D01*
X132470000Y-51844079D01*
X132465418Y-51890603D01*
X132452756Y-51932340D01*
X132432196Y-51970807D01*
X132404525Y-52004525D01*
X132370807Y-52032196D01*
X132332340Y-52052756D01*
X132290603Y-52065418D01*
X132244079Y-52070000D01*
X131255921Y-52070000D01*
X131209397Y-52065418D01*
X131167660Y-52052756D01*
X131129193Y-52032196D01*
X131095475Y-52004525D01*
X131067804Y-51970807D01*
X131047244Y-51932340D01*
X131034582Y-51890603D01*
X131030000Y-51844079D01*
X131030000Y-51105921D01*
X131034582Y-51059397D01*
X131047244Y-51017660D01*
X131067804Y-50979193D01*
X131095475Y-50945475D01*
X131129193Y-50917804D01*
X131167660Y-50897244D01*
X131209397Y-50884582D01*
X131255921Y-50880000D01*
X132244079Y-50880000D01*
X132290603Y-50884582D01*
X132290603Y-50884582D01*
G37*
G36*
X134540603Y-50884582D02*
G01*
X134582340Y-50897244D01*
X134620807Y-50917804D01*
X134654525Y-50945475D01*
X134682196Y-50979193D01*
X134702756Y-51017660D01*
X134715418Y-51059397D01*
X134720000Y-51105921D01*
X134720000Y-51844079D01*
X134715418Y-51890603D01*
X134702756Y-51932340D01*
X134682196Y-51970807D01*
X134654525Y-52004525D01*
X134620807Y-52032196D01*
X134582340Y-52052756D01*
X134540603Y-52065418D01*
X134494079Y-52070000D01*
X133505921Y-52070000D01*
X133459397Y-52065418D01*
X133417660Y-52052756D01*
X133379193Y-52032196D01*
X133345475Y-52004525D01*
X133317804Y-51970807D01*
X133297244Y-51932340D01*
X133284582Y-51890603D01*
X133280000Y-51844079D01*
X133280000Y-51105921D01*
X133284582Y-51059397D01*
X133297244Y-51017660D01*
X133317804Y-50979193D01*
X133345475Y-50945475D01*
X133379193Y-50917804D01*
X133417660Y-50897244D01*
X133459397Y-50884582D01*
X133505921Y-50880000D01*
X134494079Y-50880000D01*
X134540603Y-50884582D01*
X134540603Y-50884582D01*
G37*
M02*
