M48
; DRILL file {KiCad (5.1.4)-1} date 11.01.2020 00:21:54
; FORMAT={-:-/ absolute / inch / decimal}
; #@! TF.CreationDate,2020-01-11T00:21:54+01:00
; #@! TF.GenerationSoftware,Kicad,Pcbnew,(5.1.4)-1
; #@! TF.FileFunction,Plated,1,2,PTH
FMAT,2
INCH
T1C0.0157
T2C0.0217
T3C0.0295
T4C0.0335
T5C0.0394
T6C0.1063
%
G90
G05
T1
X4.8622Y-2.815
X4.8622Y-2.9921
X4.9606Y-3.2579
X5.0295Y-2.6476
X5.0394Y-3.0315
X5.124Y-2.6476
X5.1575Y-2.2638
X5.3248Y-2.2146
X5.3331Y-2.4317
X5.3346Y-2.5787
X5.4331Y-3.2126
X5.4547Y-2.3031
X5.501Y-2.3031
X5.5118Y-2.7165
X5.5354Y-3.0
X5.5591Y-3.1417
X5.5591Y-3.1772
X5.5945Y-3.1417
X5.5945Y-3.1772
X5.6102Y-2.3031
X5.6299Y-3.1417
X5.6299Y-3.1772
X5.6496Y-2.372
X5.6654Y-3.1417
X5.6654Y-3.1772
X5.7008Y-3.1772
X5.7008Y-3.3465
X5.7008Y-3.3819
X5.7008Y-3.4173
X5.7008Y-3.4528
X5.7008Y-3.4882
X5.7343Y-2.878
X5.7362Y-3.1772
X5.7362Y-3.3465
X5.7362Y-3.3819
X5.7362Y-3.4173
X5.7362Y-3.4528
X5.7677Y-2.7077
X5.7717Y-3.3465
X5.7717Y-3.3819
X5.7717Y-3.4173
X5.8071Y-3.3465
X5.8071Y-3.3819
X5.8268Y-2.8976
X5.8366Y-2.5
X5.8425Y-3.3465
X5.8858Y-2.6969
X5.9488Y-2.3937
X5.9488Y-2.6102
X6.0061Y-2.821
X6.0827Y-2.4803
X6.0945Y-2.7156
X6.1024Y-2.5591
X6.1045Y-2.5131
X6.1417Y-2.6476
X6.1496Y-2.752
X6.1752Y-2.4384
X6.2008Y-2.5197
X6.2145Y-2.4412
X6.2221Y-2.7857
X6.2835Y-2.8268
X6.2894Y-2.5492
X6.2974Y-2.4673
X6.2992Y-2.2441
X6.2992Y-2.6378
X6.2992Y-2.3622
X6.3533Y-2.8228
X6.4104Y-2.7953
X6.4104Y-2.8583
X6.4106Y-2.9271
X6.4173Y-2.6476
X6.4262Y-3.0797
X6.4921Y-2.9764
X6.4961Y-2.5394
X6.5261Y-3.1403
X6.5679Y-2.8913
X6.5709Y-2.9843
X6.5945Y-2.6969
X6.624Y-3.3366
X6.6358Y-2.5335
X6.6437Y-3.5827
X6.6437Y-3.6811
X6.6545Y-2.8032
X6.6732Y-3.5335
X6.6969Y-2.6969
T3
X5.3839Y-3.5433
X5.4626Y-3.5433
T5
X4.848Y-2.2528
X4.848Y-2.3528
X4.848Y-2.4528
X4.848Y-2.5528
X4.848Y-2.6528
X4.948Y-2.2528
X4.948Y-2.3528
X4.948Y-2.4528
X4.948Y-2.5528
X4.948Y-2.6528
X6.2205Y-3.3528
X6.2205Y-3.4528
X6.648Y-2.2528
X6.648Y-2.3528
X6.648Y-2.4528
X6.648Y-2.9528
X5.148Y-3.8528
X5.148Y-3.7528
X6.348Y-3.8528
X6.448Y-3.8528
X5.4331Y-3.3528
X5.748Y-3.7528
X5.748Y-3.8528
X5.3346Y-2.9724
X5.4346Y-2.9724
X4.848Y-3.1528
X4.848Y-3.2528
X4.848Y-3.3528
X4.848Y-3.4528
X4.848Y-3.5528
X4.848Y-3.6528
T6
X6.6142Y-3.8189
X6.6142Y-2.0866
X4.8819Y-2.0866
X4.8819Y-3.8189
T2
G00X5.9104Y-3.8632
M15
G01X5.9104Y-3.8888
M16
G05
G00X6.2156Y-3.8632
M15
G01X6.2156Y-3.8888
M16
G05
T4
G00X5.9163Y-3.7156
M15
G01X5.9163Y-3.7372
M16
G05
G00X6.2096Y-3.7156
M15
G01X6.2096Y-3.7372
M16
G05
T0
M30
