%TF.GenerationSoftware,KiCad,Pcbnew,(5.1.4)-1*%
%TF.CreationDate,2020-01-11T00:21:51+01:00*%
%TF.ProjectId,WROOM02_EV,57524f4f-4d30-4325-9f45-562e6b696361,rev?*%
%TF.SameCoordinates,Original*%
%TF.FileFunction,Copper,L2,Bot*%
%TF.FilePolarity,Positive*%
%FSLAX46Y46*%
G04 Gerber Fmt 4.6, Leading zero omitted, Abs format (unit mm)*
G04 Created by KiCad (PCBNEW (5.1.4)-1) date 2020-01-11 00:21:51*
%MOMM*%
%LPD*%
G04 APERTURE LIST*
%ADD10C,4.700000*%
%ADD11R,2.540000X3.510000*%
%ADD12O,1.200000X1.750000*%
%ADD13C,0.100000*%
%ADD14C,1.200000*%
%ADD15R,1.700000X1.700000*%
%ADD16O,1.700000X1.700000*%
%ADD17O,1.450000X2.000000*%
%ADD18O,1.150000X1.800000*%
%ADD19C,2.000000*%
%ADD20C,0.800000*%
%ADD21C,0.250000*%
%ADD22C,0.127000*%
G04 APERTURE END LIST*
D10*
X124000000Y-97000000D03*
X168000000Y-53000000D03*
X124000000Y-53000000D03*
D11*
X165180000Y-68000000D03*
X135820000Y-68000000D03*
D12*
X138750000Y-90000000D03*
D13*
G36*
X137124505Y-89126204D02*
G01*
X137148773Y-89129804D01*
X137172572Y-89135765D01*
X137195671Y-89144030D01*
X137217850Y-89154520D01*
X137238893Y-89167132D01*
X137258599Y-89181747D01*
X137276777Y-89198223D01*
X137293253Y-89216401D01*
X137307868Y-89236107D01*
X137320480Y-89257150D01*
X137330970Y-89279329D01*
X137339235Y-89302428D01*
X137345196Y-89326227D01*
X137348796Y-89350495D01*
X137350000Y-89374999D01*
X137350000Y-90625001D01*
X137348796Y-90649505D01*
X137345196Y-90673773D01*
X137339235Y-90697572D01*
X137330970Y-90720671D01*
X137320480Y-90742850D01*
X137307868Y-90763893D01*
X137293253Y-90783599D01*
X137276777Y-90801777D01*
X137258599Y-90818253D01*
X137238893Y-90832868D01*
X137217850Y-90845480D01*
X137195671Y-90855970D01*
X137172572Y-90864235D01*
X137148773Y-90870196D01*
X137124505Y-90873796D01*
X137100001Y-90875000D01*
X136399999Y-90875000D01*
X136375495Y-90873796D01*
X136351227Y-90870196D01*
X136327428Y-90864235D01*
X136304329Y-90855970D01*
X136282150Y-90845480D01*
X136261107Y-90832868D01*
X136241401Y-90818253D01*
X136223223Y-90801777D01*
X136206747Y-90783599D01*
X136192132Y-90763893D01*
X136179520Y-90742850D01*
X136169030Y-90720671D01*
X136160765Y-90697572D01*
X136154804Y-90673773D01*
X136151204Y-90649505D01*
X136150000Y-90625001D01*
X136150000Y-89374999D01*
X136151204Y-89350495D01*
X136154804Y-89326227D01*
X136160765Y-89302428D01*
X136169030Y-89279329D01*
X136179520Y-89257150D01*
X136192132Y-89236107D01*
X136206747Y-89216401D01*
X136223223Y-89198223D01*
X136241401Y-89181747D01*
X136261107Y-89167132D01*
X136282150Y-89154520D01*
X136304329Y-89144030D01*
X136327428Y-89135765D01*
X136351227Y-89129804D01*
X136375495Y-89126204D01*
X136399999Y-89125000D01*
X137100001Y-89125000D01*
X137124505Y-89126204D01*
X137124505Y-89126204D01*
G37*
D14*
X136750000Y-90000000D03*
D10*
X168000000Y-97000000D03*
D15*
X168860000Y-57220000D03*
D16*
X168860000Y-59760000D03*
X168860000Y-62300000D03*
D15*
X146000000Y-95320000D03*
D16*
X146000000Y-97860000D03*
D15*
X123140000Y-92780000D03*
D16*
X123140000Y-90240000D03*
X123140000Y-87700000D03*
X123140000Y-85160000D03*
X123140000Y-82620000D03*
X123140000Y-80080000D03*
D15*
X123140000Y-57220000D03*
D16*
X125680000Y-57220000D03*
X123140000Y-59760000D03*
X125680000Y-59760000D03*
X123140000Y-62300000D03*
X125680000Y-62300000D03*
X123140000Y-64840000D03*
X125680000Y-64840000D03*
X123140000Y-67380000D03*
X125680000Y-67380000D03*
X158000000Y-87700000D03*
D15*
X158000000Y-85160000D03*
X163780000Y-97860000D03*
D16*
X161240000Y-97860000D03*
D15*
X135500000Y-75500000D03*
D16*
X138040000Y-75500000D03*
D17*
X150275000Y-94650000D03*
X157725000Y-94650000D03*
D18*
X150125000Y-98450000D03*
X157875000Y-98450000D03*
D19*
X138000000Y-85160000D03*
X130760000Y-97860000D03*
X130760000Y-95320000D03*
X168860000Y-75000000D03*
D20*
X123500000Y-71500000D03*
X123500000Y-76000000D03*
X160000000Y-57000000D03*
X159750000Y-64750000D03*
X140000000Y-69000000D03*
X170100000Y-68500000D03*
X147500000Y-85000000D03*
X168750000Y-91000000D03*
X168750000Y-93500000D03*
X169500000Y-89750000D03*
X131000000Y-57500000D03*
X135500000Y-65500000D03*
X128000000Y-77000000D03*
X126000000Y-82750000D03*
X168250000Y-84750000D03*
X163225000Y-78225000D03*
X167500000Y-68500000D03*
X148250000Y-63500000D03*
X138000000Y-81600000D03*
X159600004Y-71800000D03*
X145649964Y-73100000D03*
X162825010Y-72599988D03*
X166900000Y-75800000D03*
X148400000Y-85000000D03*
X146600000Y-85000000D03*
X145700000Y-85000000D03*
X144800000Y-85000000D03*
X144800000Y-85900000D03*
X145700000Y-85900000D03*
X146600000Y-85900000D03*
X147500000Y-85900000D03*
X144800000Y-86800000D03*
X145700000Y-86800000D03*
X146600000Y-86800000D03*
X144800000Y-87700000D03*
X145700000Y-87700000D03*
X144800000Y-88600000D03*
X145700000Y-80700000D03*
X144800000Y-80700000D03*
X143900000Y-80700000D03*
X143900000Y-79800000D03*
X143000000Y-80700000D03*
X143000000Y-79800000D03*
X142100000Y-79800000D03*
X142100000Y-80700000D03*
X141200000Y-80700000D03*
X141200000Y-79800000D03*
X165762660Y-79762660D03*
X151100000Y-60800000D03*
X151100000Y-66299950D03*
X155000000Y-65000012D03*
X157847465Y-62006550D03*
X140600000Y-76200000D03*
X127750000Y-67250000D03*
X130150000Y-67250000D03*
X135460403Y-61764292D03*
X135250000Y-56250000D03*
X162830005Y-74348008D03*
X169024253Y-71201933D03*
X168550000Y-64350000D03*
X164900006Y-75600000D03*
X154800000Y-68974990D03*
X162825010Y-71000000D03*
X161375000Y-71700000D03*
X166825054Y-73439670D03*
X155054706Y-63832061D03*
X156850034Y-61934748D03*
X157500000Y-64000000D03*
X159954158Y-62668748D03*
X156200000Y-69900000D03*
X158041874Y-70756327D03*
X156000000Y-67250000D03*
X160000002Y-67000000D03*
X142500000Y-58500000D03*
X138550004Y-58500000D03*
X143499996Y-60250000D03*
X163000000Y-67250000D03*
X165000000Y-64500008D03*
X139725831Y-58498849D03*
X160000072Y-60000000D03*
X154500000Y-63000000D03*
X146500000Y-68775000D03*
X147999996Y-73600000D03*
X149500000Y-68500000D03*
X152553687Y-71653687D03*
D21*
X130600001Y-57899999D02*
X131000000Y-57500000D01*
X130000000Y-58500000D02*
X130600001Y-57899999D01*
X123140000Y-59760000D02*
X124400000Y-58500000D01*
X124400000Y-58500000D02*
X130000000Y-58500000D01*
X155000000Y-65000012D02*
X157847465Y-62152547D01*
X157847465Y-62152547D02*
X157847465Y-62006550D01*
X140200001Y-75800001D02*
X140600000Y-76200000D01*
X139900000Y-75500000D02*
X140200001Y-75800001D01*
X138040000Y-75500000D02*
X139900000Y-75500000D01*
X126700000Y-66200000D02*
X127750000Y-67250000D01*
X121750000Y-57510000D02*
X121750000Y-65269501D01*
X121750000Y-65269501D02*
X122580499Y-66100000D01*
X123140000Y-57220000D02*
X122040000Y-57220000D01*
X122580499Y-66100000D02*
X126600000Y-66100000D01*
X122040000Y-57220000D02*
X121750000Y-57510000D01*
X126600000Y-66100000D02*
X126700000Y-66200000D01*
X130900000Y-68000000D02*
X135820000Y-68000000D01*
X130150000Y-67250000D02*
X130900000Y-68000000D01*
X135460403Y-56460403D02*
X135250000Y-56250000D01*
X135460403Y-61764292D02*
X135460403Y-56460403D01*
X135500000Y-68320000D02*
X135820000Y-68000000D01*
X135500000Y-75500000D02*
X135500000Y-68320000D01*
X169024253Y-64824253D02*
X168550000Y-64350000D01*
X169024253Y-71201933D02*
X169024253Y-64824253D01*
X164081997Y-75600000D02*
X164334321Y-75600000D01*
X164334321Y-75600000D02*
X164900006Y-75600000D01*
X162830005Y-74348008D02*
X164081997Y-75600000D01*
X154800000Y-68974990D02*
X160800000Y-68974990D01*
X162425011Y-70600001D02*
X162825010Y-71000000D01*
X160800000Y-68974990D02*
X162425011Y-70600001D01*
X162125010Y-71700000D02*
X162825010Y-71000000D01*
X161375000Y-71700000D02*
X162125010Y-71700000D01*
X169024253Y-71201933D02*
X166825054Y-73401132D01*
X166825054Y-73401132D02*
X166825054Y-73439670D01*
X162830005Y-74348008D02*
X165916716Y-74348008D01*
X165916716Y-74348008D02*
X166425055Y-73839669D01*
X166425055Y-73839669D02*
X166825054Y-73439670D01*
X156850034Y-62036733D02*
X156850034Y-61934748D01*
X155054706Y-63832061D02*
X156850034Y-62036733D01*
X159388473Y-62668748D02*
X159954158Y-62668748D01*
X158831252Y-62668748D02*
X159388473Y-62668748D01*
X157500000Y-64000000D02*
X158831252Y-62668748D01*
X156765685Y-69900000D02*
X156200000Y-69900000D01*
X157185547Y-69900000D02*
X156765685Y-69900000D01*
X158041874Y-70756327D02*
X157185547Y-69900000D01*
X156000000Y-67250000D02*
X159750002Y-67250000D01*
X159750002Y-67250000D02*
X160000002Y-67000000D01*
X142500000Y-58500000D02*
X141751980Y-59248020D01*
X139298024Y-59248020D02*
X138950003Y-58899999D01*
X138950003Y-58899999D02*
X138550004Y-58500000D01*
X141751980Y-59248020D02*
X139298024Y-59248020D01*
X163000000Y-67250000D02*
X163000000Y-66500008D01*
X163000000Y-66500008D02*
X164600001Y-64900007D01*
X164600001Y-64900007D02*
X165000000Y-64500008D01*
X143499996Y-60250000D02*
X143499996Y-57999996D01*
X140474683Y-57749997D02*
X140125830Y-58098850D01*
X143249997Y-57749997D02*
X140474683Y-57749997D01*
X140125830Y-58098850D02*
X139725831Y-58498849D01*
X143499996Y-57999996D02*
X143249997Y-57749997D01*
X157500000Y-60000000D02*
X154899999Y-62600001D01*
X160000072Y-60000000D02*
X157500000Y-60000000D01*
X154899999Y-62600001D02*
X154500000Y-63000000D01*
X146500000Y-68775000D02*
X147999996Y-70274996D01*
X147999996Y-70274996D02*
X147999996Y-73034315D01*
X147999996Y-73034315D02*
X147999996Y-73600000D01*
X149500000Y-68500000D02*
X152553687Y-71553687D01*
X152553687Y-71553687D02*
X152553687Y-71653687D01*
D22*
G36*
X135936500Y-56000000D02*
G01*
X135937720Y-56012388D01*
X135941334Y-56024300D01*
X135947202Y-56035279D01*
X135955099Y-56044901D01*
X135964721Y-56052798D01*
X135975700Y-56058666D01*
X135987612Y-56062280D01*
X136000000Y-56063500D01*
X164000000Y-56063500D01*
X164012388Y-56062280D01*
X164024300Y-56058666D01*
X164035279Y-56052798D01*
X164044901Y-56044901D01*
X164052798Y-56035279D01*
X164058666Y-56024300D01*
X164062280Y-56012388D01*
X164063500Y-56000000D01*
X164063500Y-50342500D01*
X167687000Y-50342500D01*
X167221919Y-50435010D01*
X166736465Y-50636092D01*
X166299568Y-50928017D01*
X165928017Y-51299568D01*
X165636092Y-51736465D01*
X165435010Y-52221919D01*
X165332500Y-52737274D01*
X165332500Y-53262726D01*
X165435010Y-53778081D01*
X165636092Y-54263535D01*
X165928017Y-54700432D01*
X166299568Y-55071983D01*
X166736465Y-55363908D01*
X167221919Y-55564990D01*
X167737274Y-55667500D01*
X168262726Y-55667500D01*
X168778081Y-55564990D01*
X169263535Y-55363908D01*
X169700432Y-55071983D01*
X170071983Y-54700432D01*
X170363908Y-54263535D01*
X170564990Y-53778081D01*
X170657500Y-53313000D01*
X170657501Y-96687005D01*
X170564990Y-96221919D01*
X170363908Y-95736465D01*
X170071983Y-95299568D01*
X169700432Y-94928017D01*
X169263535Y-94636092D01*
X168778081Y-94435010D01*
X168262726Y-94332500D01*
X167737274Y-94332500D01*
X167221919Y-94435010D01*
X166736465Y-94636092D01*
X166299568Y-94928017D01*
X165928017Y-95299568D01*
X165636092Y-95736465D01*
X165435010Y-96221919D01*
X165332500Y-96737274D01*
X165332500Y-97262726D01*
X165435010Y-97778081D01*
X165636092Y-98263535D01*
X165928017Y-98700432D01*
X166299568Y-99071983D01*
X166736465Y-99363908D01*
X167221919Y-99564990D01*
X167687000Y-99657500D01*
X124313000Y-99657500D01*
X124778081Y-99564990D01*
X125263535Y-99363908D01*
X125700432Y-99071983D01*
X126071983Y-98700432D01*
X126363908Y-98263535D01*
X126564990Y-97778081D01*
X126667500Y-97262726D01*
X126667500Y-96737274D01*
X126564990Y-96221919D01*
X126363908Y-95736465D01*
X126071983Y-95299568D01*
X125962653Y-95190238D01*
X129442500Y-95190238D01*
X129442500Y-95449762D01*
X129493131Y-95704301D01*
X129592446Y-95944070D01*
X129736631Y-96159857D01*
X129920143Y-96343369D01*
X130135930Y-96487554D01*
X130375699Y-96586869D01*
X130391440Y-96590000D01*
X130375699Y-96593131D01*
X130135930Y-96692446D01*
X129920143Y-96836631D01*
X129736631Y-97020143D01*
X129592446Y-97235930D01*
X129493131Y-97475699D01*
X129442500Y-97730238D01*
X129442500Y-97989762D01*
X129493131Y-98244301D01*
X129592446Y-98484070D01*
X129736631Y-98699857D01*
X129920143Y-98883369D01*
X130135930Y-99027554D01*
X130375699Y-99126869D01*
X130630238Y-99177500D01*
X130889762Y-99177500D01*
X131144301Y-99126869D01*
X131384070Y-99027554D01*
X131599857Y-98883369D01*
X131783369Y-98699857D01*
X131927554Y-98484070D01*
X132026869Y-98244301D01*
X132077500Y-97989762D01*
X132077500Y-97730238D01*
X132026869Y-97475699D01*
X131927554Y-97235930D01*
X131783369Y-97020143D01*
X131773226Y-97010000D01*
X162610964Y-97010000D01*
X162610964Y-98710000D01*
X162617094Y-98772241D01*
X162635249Y-98832090D01*
X162664731Y-98887247D01*
X162704407Y-98935593D01*
X162752753Y-98975269D01*
X162807910Y-99004751D01*
X162867759Y-99022906D01*
X162930000Y-99029036D01*
X164630000Y-99029036D01*
X164692241Y-99022906D01*
X164752090Y-99004751D01*
X164807247Y-98975269D01*
X164855593Y-98935593D01*
X164895269Y-98887247D01*
X164924751Y-98832090D01*
X164942906Y-98772241D01*
X164949036Y-98710000D01*
X164949036Y-97010000D01*
X164942906Y-96947759D01*
X164924751Y-96887910D01*
X164895269Y-96832753D01*
X164855593Y-96784407D01*
X164807247Y-96744731D01*
X164752090Y-96715249D01*
X164692241Y-96697094D01*
X164630000Y-96690964D01*
X162930000Y-96690964D01*
X162867759Y-96697094D01*
X162807910Y-96715249D01*
X162752753Y-96744731D01*
X162704407Y-96784407D01*
X162664731Y-96832753D01*
X162635249Y-96887910D01*
X162617094Y-96947759D01*
X162610964Y-97010000D01*
X131773226Y-97010000D01*
X131599857Y-96836631D01*
X131384070Y-96692446D01*
X131144301Y-96593131D01*
X131128560Y-96590000D01*
X131144301Y-96586869D01*
X131384070Y-96487554D01*
X131599857Y-96343369D01*
X131783369Y-96159857D01*
X131927554Y-95944070D01*
X132026869Y-95704301D01*
X132077500Y-95449762D01*
X132077500Y-95190238D01*
X132026869Y-94935699D01*
X131927554Y-94695930D01*
X131783369Y-94480143D01*
X131773226Y-94470000D01*
X144830964Y-94470000D01*
X144830964Y-96170000D01*
X144837094Y-96232241D01*
X144855249Y-96292090D01*
X144884731Y-96347247D01*
X144924407Y-96395593D01*
X144972753Y-96435269D01*
X145027910Y-96464751D01*
X145087759Y-96482906D01*
X145150000Y-96489036D01*
X146850000Y-96489036D01*
X146912241Y-96482906D01*
X146972090Y-96464751D01*
X147027247Y-96435269D01*
X147075593Y-96395593D01*
X147115269Y-96347247D01*
X147144751Y-96292090D01*
X147162906Y-96232241D01*
X147169036Y-96170000D01*
X147169036Y-95700000D01*
X150779029Y-95700000D01*
X150792882Y-95840654D01*
X150833910Y-95975904D01*
X150900535Y-96100550D01*
X150990197Y-96209803D01*
X151099450Y-96299465D01*
X151224096Y-96366090D01*
X151359346Y-96407118D01*
X151464758Y-96417500D01*
X151535242Y-96417500D01*
X151640654Y-96407118D01*
X151775904Y-96366090D01*
X151900550Y-96299465D01*
X152009803Y-96209803D01*
X152099465Y-96100550D01*
X152166090Y-95975904D01*
X152207118Y-95840654D01*
X152220971Y-95700000D01*
X155779029Y-95700000D01*
X155792882Y-95840654D01*
X155833910Y-95975904D01*
X155900535Y-96100550D01*
X155990197Y-96209803D01*
X156099450Y-96299465D01*
X156224096Y-96366090D01*
X156359346Y-96407118D01*
X156464758Y-96417500D01*
X156535242Y-96417500D01*
X156640654Y-96407118D01*
X156775904Y-96366090D01*
X156900550Y-96299465D01*
X157009803Y-96209803D01*
X157099465Y-96100550D01*
X157166090Y-95975904D01*
X157207118Y-95840654D01*
X157220971Y-95700000D01*
X157207118Y-95559346D01*
X157166090Y-95424096D01*
X157099465Y-95299450D01*
X157009803Y-95190197D01*
X156900550Y-95100535D01*
X156775904Y-95033910D01*
X156640654Y-94992882D01*
X156535242Y-94982500D01*
X156464758Y-94982500D01*
X156359346Y-94992882D01*
X156224096Y-95033910D01*
X156099450Y-95100535D01*
X155990197Y-95190197D01*
X155900535Y-95299450D01*
X155833910Y-95424096D01*
X155792882Y-95559346D01*
X155779029Y-95700000D01*
X152220971Y-95700000D01*
X152207118Y-95559346D01*
X152166090Y-95424096D01*
X152099465Y-95299450D01*
X152009803Y-95190197D01*
X151900550Y-95100535D01*
X151775904Y-95033910D01*
X151640654Y-94992882D01*
X151535242Y-94982500D01*
X151464758Y-94982500D01*
X151359346Y-94992882D01*
X151224096Y-95033910D01*
X151099450Y-95100535D01*
X150990197Y-95190197D01*
X150900535Y-95299450D01*
X150833910Y-95424096D01*
X150792882Y-95559346D01*
X150779029Y-95700000D01*
X147169036Y-95700000D01*
X147169036Y-94470000D01*
X147162906Y-94407759D01*
X147144751Y-94347910D01*
X147115269Y-94292753D01*
X147075593Y-94244407D01*
X147027247Y-94204731D01*
X146972090Y-94175249D01*
X146912241Y-94157094D01*
X146850000Y-94150964D01*
X145150000Y-94150964D01*
X145087759Y-94157094D01*
X145027910Y-94175249D01*
X144972753Y-94204731D01*
X144924407Y-94244407D01*
X144884731Y-94292753D01*
X144855249Y-94347910D01*
X144837094Y-94407759D01*
X144830964Y-94470000D01*
X131773226Y-94470000D01*
X131599857Y-94296631D01*
X131384070Y-94152446D01*
X131144301Y-94053131D01*
X130889762Y-94002500D01*
X130630238Y-94002500D01*
X130375699Y-94053131D01*
X130135930Y-94152446D01*
X129920143Y-94296631D01*
X129736631Y-94480143D01*
X129592446Y-94695930D01*
X129493131Y-94935699D01*
X129442500Y-95190238D01*
X125962653Y-95190238D01*
X125700432Y-94928017D01*
X125263535Y-94636092D01*
X124778081Y-94435010D01*
X124262726Y-94332500D01*
X123737274Y-94332500D01*
X123221919Y-94435010D01*
X122736465Y-94636092D01*
X122299568Y-94928017D01*
X121928017Y-95299568D01*
X121636092Y-95736465D01*
X121435010Y-96221919D01*
X121342500Y-96687000D01*
X121342500Y-90240000D01*
X121966851Y-90240000D01*
X121989393Y-90468870D01*
X122056152Y-90688945D01*
X122164562Y-90891767D01*
X122310458Y-91069542D01*
X122488233Y-91215438D01*
X122691055Y-91323848D01*
X122911130Y-91390607D01*
X123082645Y-91407500D01*
X123197355Y-91407500D01*
X123368870Y-91390607D01*
X123588945Y-91323848D01*
X123791767Y-91215438D01*
X123969542Y-91069542D01*
X124115438Y-90891767D01*
X124223848Y-90688945D01*
X124290607Y-90468870D01*
X124313149Y-90240000D01*
X124290607Y-90011130D01*
X124223848Y-89791055D01*
X124115438Y-89588233D01*
X123969542Y-89410458D01*
X123926336Y-89374999D01*
X135830964Y-89374999D01*
X135830964Y-90625001D01*
X135841898Y-90736014D01*
X135874279Y-90842761D01*
X135926864Y-90941140D01*
X135997630Y-91027370D01*
X136083860Y-91098136D01*
X136182239Y-91150721D01*
X136288986Y-91183102D01*
X136399999Y-91194036D01*
X137100001Y-91194036D01*
X137211014Y-91183102D01*
X137317761Y-91150721D01*
X137416140Y-91098136D01*
X137502370Y-91027370D01*
X137573136Y-90941140D01*
X137625721Y-90842761D01*
X137658102Y-90736014D01*
X137669036Y-90625001D01*
X137669036Y-89374999D01*
X137658102Y-89263986D01*
X137625721Y-89157239D01*
X137573136Y-89058860D01*
X137502370Y-88972630D01*
X137416140Y-88901864D01*
X137317761Y-88849279D01*
X137211014Y-88816898D01*
X137100001Y-88805964D01*
X136399999Y-88805964D01*
X136288986Y-88816898D01*
X136182239Y-88849279D01*
X136083860Y-88901864D01*
X135997630Y-88972630D01*
X135926864Y-89058860D01*
X135874279Y-89157239D01*
X135841898Y-89263986D01*
X135830964Y-89374999D01*
X123926336Y-89374999D01*
X123791767Y-89264562D01*
X123588945Y-89156152D01*
X123368870Y-89089393D01*
X123197355Y-89072500D01*
X123082645Y-89072500D01*
X122911130Y-89089393D01*
X122691055Y-89156152D01*
X122488233Y-89264562D01*
X122310458Y-89410458D01*
X122164562Y-89588233D01*
X122056152Y-89791055D01*
X121989393Y-90011130D01*
X121966851Y-90240000D01*
X121342500Y-90240000D01*
X121342500Y-87700000D01*
X121966851Y-87700000D01*
X121989393Y-87928870D01*
X122056152Y-88148945D01*
X122164562Y-88351767D01*
X122310458Y-88529542D01*
X122488233Y-88675438D01*
X122691055Y-88783848D01*
X122911130Y-88850607D01*
X123082645Y-88867500D01*
X123197355Y-88867500D01*
X123368870Y-88850607D01*
X123588945Y-88783848D01*
X123791767Y-88675438D01*
X123969542Y-88529542D01*
X124115438Y-88351767D01*
X124223848Y-88148945D01*
X124290607Y-87928870D01*
X124313149Y-87700000D01*
X124290607Y-87471130D01*
X124223848Y-87251055D01*
X124115438Y-87048233D01*
X123969542Y-86870458D01*
X123791767Y-86724562D01*
X123588945Y-86616152D01*
X123368870Y-86549393D01*
X123197355Y-86532500D01*
X123082645Y-86532500D01*
X122911130Y-86549393D01*
X122691055Y-86616152D01*
X122488233Y-86724562D01*
X122310458Y-86870458D01*
X122164562Y-87048233D01*
X122056152Y-87251055D01*
X121989393Y-87471130D01*
X121966851Y-87700000D01*
X121342500Y-87700000D01*
X121342500Y-85160000D01*
X121966851Y-85160000D01*
X121989393Y-85388870D01*
X122056152Y-85608945D01*
X122164562Y-85811767D01*
X122310458Y-85989542D01*
X122488233Y-86135438D01*
X122691055Y-86243848D01*
X122911130Y-86310607D01*
X123082645Y-86327500D01*
X123197355Y-86327500D01*
X123368870Y-86310607D01*
X123588945Y-86243848D01*
X123791767Y-86135438D01*
X123969542Y-85989542D01*
X124115438Y-85811767D01*
X124223848Y-85608945D01*
X124290607Y-85388870D01*
X124313149Y-85160000D01*
X124300369Y-85030238D01*
X136682500Y-85030238D01*
X136682500Y-85289762D01*
X136733131Y-85544301D01*
X136832446Y-85784070D01*
X136976631Y-85999857D01*
X137160143Y-86183369D01*
X137375930Y-86327554D01*
X137615699Y-86426869D01*
X137870238Y-86477500D01*
X138129762Y-86477500D01*
X138384301Y-86426869D01*
X138624070Y-86327554D01*
X138839857Y-86183369D01*
X139023369Y-85999857D01*
X139167554Y-85784070D01*
X139266869Y-85544301D01*
X139317500Y-85289762D01*
X139317500Y-85030238D01*
X139266869Y-84775699D01*
X139167554Y-84535930D01*
X139023369Y-84320143D01*
X139013226Y-84310000D01*
X156830964Y-84310000D01*
X156830964Y-86010000D01*
X156837094Y-86072241D01*
X156855249Y-86132090D01*
X156884731Y-86187247D01*
X156924407Y-86235593D01*
X156972753Y-86275269D01*
X157027910Y-86304751D01*
X157087759Y-86322906D01*
X157150000Y-86329036D01*
X158850000Y-86329036D01*
X158912241Y-86322906D01*
X158972090Y-86304751D01*
X159027247Y-86275269D01*
X159075593Y-86235593D01*
X159115269Y-86187247D01*
X159144751Y-86132090D01*
X159162906Y-86072241D01*
X159169036Y-86010000D01*
X159169036Y-84310000D01*
X159162906Y-84247759D01*
X159144751Y-84187910D01*
X159115269Y-84132753D01*
X159075593Y-84084407D01*
X159027247Y-84044731D01*
X158972090Y-84015249D01*
X158912241Y-83997094D01*
X158850000Y-83990964D01*
X157150000Y-83990964D01*
X157087759Y-83997094D01*
X157027910Y-84015249D01*
X156972753Y-84044731D01*
X156924407Y-84084407D01*
X156884731Y-84132753D01*
X156855249Y-84187910D01*
X156837094Y-84247759D01*
X156830964Y-84310000D01*
X139013226Y-84310000D01*
X138839857Y-84136631D01*
X138624070Y-83992446D01*
X138384301Y-83893131D01*
X138129762Y-83842500D01*
X137870238Y-83842500D01*
X137615699Y-83893131D01*
X137375930Y-83992446D01*
X137160143Y-84136631D01*
X136976631Y-84320143D01*
X136832446Y-84535930D01*
X136733131Y-84775699D01*
X136682500Y-85030238D01*
X124300369Y-85030238D01*
X124290607Y-84931130D01*
X124223848Y-84711055D01*
X124115438Y-84508233D01*
X123969542Y-84330458D01*
X123791767Y-84184562D01*
X123588945Y-84076152D01*
X123368870Y-84009393D01*
X123197355Y-83992500D01*
X123082645Y-83992500D01*
X122911130Y-84009393D01*
X122691055Y-84076152D01*
X122488233Y-84184562D01*
X122310458Y-84330458D01*
X122164562Y-84508233D01*
X122056152Y-84711055D01*
X121989393Y-84931130D01*
X121966851Y-85160000D01*
X121342500Y-85160000D01*
X121342500Y-82620000D01*
X121966851Y-82620000D01*
X121989393Y-82848870D01*
X122056152Y-83068945D01*
X122164562Y-83271767D01*
X122310458Y-83449542D01*
X122488233Y-83595438D01*
X122691055Y-83703848D01*
X122911130Y-83770607D01*
X123082645Y-83787500D01*
X123197355Y-83787500D01*
X123368870Y-83770607D01*
X123588945Y-83703848D01*
X123791767Y-83595438D01*
X123969542Y-83449542D01*
X124115438Y-83271767D01*
X124223848Y-83068945D01*
X124290607Y-82848870D01*
X124313149Y-82620000D01*
X124290607Y-82391130D01*
X124223848Y-82171055D01*
X124115438Y-81968233D01*
X123969542Y-81790458D01*
X123791767Y-81644562D01*
X123588945Y-81536152D01*
X123368870Y-81469393D01*
X123197355Y-81452500D01*
X123082645Y-81452500D01*
X122911130Y-81469393D01*
X122691055Y-81536152D01*
X122488233Y-81644562D01*
X122310458Y-81790458D01*
X122164562Y-81968233D01*
X122056152Y-82171055D01*
X121989393Y-82391130D01*
X121966851Y-82620000D01*
X121342500Y-82620000D01*
X121342500Y-80080000D01*
X121966851Y-80080000D01*
X121989393Y-80308870D01*
X122056152Y-80528945D01*
X122164562Y-80731767D01*
X122310458Y-80909542D01*
X122488233Y-81055438D01*
X122691055Y-81163848D01*
X122911130Y-81230607D01*
X123082645Y-81247500D01*
X123197355Y-81247500D01*
X123368870Y-81230607D01*
X123588945Y-81163848D01*
X123791767Y-81055438D01*
X123969542Y-80909542D01*
X124115438Y-80731767D01*
X124223848Y-80528945D01*
X124290607Y-80308870D01*
X124313149Y-80080000D01*
X124290607Y-79851130D01*
X124223848Y-79631055D01*
X124115438Y-79428233D01*
X123969542Y-79250458D01*
X123791767Y-79104562D01*
X123588945Y-78996152D01*
X123368870Y-78929393D01*
X123197355Y-78912500D01*
X123082645Y-78912500D01*
X122911130Y-78929393D01*
X122691055Y-78996152D01*
X122488233Y-79104562D01*
X122310458Y-79250458D01*
X122164562Y-79428233D01*
X122056152Y-79631055D01*
X121989393Y-79851130D01*
X121966851Y-80080000D01*
X121342500Y-80080000D01*
X121342500Y-65445821D01*
X121380295Y-65516530D01*
X121421735Y-65567025D01*
X121435592Y-65583910D01*
X121452476Y-65597766D01*
X122252233Y-66397524D01*
X122266090Y-66414409D01*
X122282974Y-66428265D01*
X122333469Y-66469705D01*
X122349495Y-66478271D01*
X122379122Y-66494107D01*
X122310458Y-66550458D01*
X122164562Y-66728233D01*
X122056152Y-66931055D01*
X121989393Y-67151130D01*
X121966851Y-67380000D01*
X121989393Y-67608870D01*
X122056152Y-67828945D01*
X122164562Y-68031767D01*
X122310458Y-68209542D01*
X122488233Y-68355438D01*
X122691055Y-68463848D01*
X122911130Y-68530607D01*
X123082645Y-68547500D01*
X123197355Y-68547500D01*
X123368870Y-68530607D01*
X123588945Y-68463848D01*
X123791767Y-68355438D01*
X123969542Y-68209542D01*
X124115438Y-68031767D01*
X124223848Y-67828945D01*
X124290607Y-67608870D01*
X124313149Y-67380000D01*
X124290607Y-67151130D01*
X124223848Y-66931055D01*
X124115438Y-66728233D01*
X123969542Y-66550458D01*
X123959845Y-66542500D01*
X124860155Y-66542500D01*
X124850458Y-66550458D01*
X124704562Y-66728233D01*
X124596152Y-66931055D01*
X124529393Y-67151130D01*
X124506851Y-67380000D01*
X124529393Y-67608870D01*
X124596152Y-67828945D01*
X124704562Y-68031767D01*
X124850458Y-68209542D01*
X125028233Y-68355438D01*
X125231055Y-68463848D01*
X125451130Y-68530607D01*
X125622645Y-68547500D01*
X125737355Y-68547500D01*
X125908870Y-68530607D01*
X126128945Y-68463848D01*
X126331767Y-68355438D01*
X126509542Y-68209542D01*
X126655438Y-68031767D01*
X126763848Y-67828945D01*
X126830607Y-67608870D01*
X126853149Y-67380000D01*
X126830607Y-67151130D01*
X126763848Y-66931055D01*
X126716289Y-66842078D01*
X127035991Y-67161780D01*
X127032500Y-67179332D01*
X127032500Y-67320668D01*
X127060073Y-67459287D01*
X127114159Y-67589864D01*
X127192681Y-67707380D01*
X127292620Y-67807319D01*
X127410136Y-67885841D01*
X127540713Y-67939927D01*
X127679332Y-67967500D01*
X127820668Y-67967500D01*
X127959287Y-67939927D01*
X128089864Y-67885841D01*
X128207380Y-67807319D01*
X128307319Y-67707380D01*
X128385841Y-67589864D01*
X128439927Y-67459287D01*
X128467500Y-67320668D01*
X128467500Y-67179332D01*
X129432500Y-67179332D01*
X129432500Y-67320668D01*
X129460073Y-67459287D01*
X129514159Y-67589864D01*
X129592681Y-67707380D01*
X129692620Y-67807319D01*
X129810136Y-67885841D01*
X129940713Y-67939927D01*
X130079332Y-67967500D01*
X130220668Y-67967500D01*
X130238219Y-67964009D01*
X130571735Y-68297525D01*
X130585591Y-68314409D01*
X130602475Y-68328265D01*
X130652970Y-68369705D01*
X130679747Y-68384018D01*
X130729843Y-68410795D01*
X130813255Y-68436097D01*
X130878263Y-68442500D01*
X130878265Y-68442500D01*
X130899999Y-68444641D01*
X130921733Y-68442500D01*
X134230964Y-68442500D01*
X134230964Y-69755000D01*
X134237094Y-69817241D01*
X134255249Y-69877090D01*
X134284731Y-69932247D01*
X134324407Y-69980593D01*
X134372753Y-70020269D01*
X134427910Y-70049751D01*
X134487759Y-70067906D01*
X134550000Y-70074036D01*
X135057501Y-70074036D01*
X135057500Y-74330964D01*
X134650000Y-74330964D01*
X134587759Y-74337094D01*
X134527910Y-74355249D01*
X134472753Y-74384731D01*
X134424407Y-74424407D01*
X134384731Y-74472753D01*
X134355249Y-74527910D01*
X134337094Y-74587759D01*
X134330964Y-74650000D01*
X134330964Y-76350000D01*
X134337094Y-76412241D01*
X134355249Y-76472090D01*
X134384731Y-76527247D01*
X134424407Y-76575593D01*
X134472753Y-76615269D01*
X134527910Y-76644751D01*
X134587759Y-76662906D01*
X134650000Y-76669036D01*
X136350000Y-76669036D01*
X136412241Y-76662906D01*
X136472090Y-76644751D01*
X136527247Y-76615269D01*
X136575593Y-76575593D01*
X136615269Y-76527247D01*
X136644751Y-76472090D01*
X136662906Y-76412241D01*
X136669036Y-76350000D01*
X136669036Y-75500000D01*
X136866851Y-75500000D01*
X136889393Y-75728870D01*
X136956152Y-75948945D01*
X137064562Y-76151767D01*
X137210458Y-76329542D01*
X137388233Y-76475438D01*
X137591055Y-76583848D01*
X137811130Y-76650607D01*
X137982645Y-76667500D01*
X138097355Y-76667500D01*
X138268870Y-76650607D01*
X138488945Y-76583848D01*
X138691767Y-76475438D01*
X138869542Y-76329542D01*
X139015438Y-76151767D01*
X139123848Y-75948945D01*
X139125803Y-75942500D01*
X139716711Y-75942500D01*
X139885991Y-76111780D01*
X139882500Y-76129332D01*
X139882500Y-76270668D01*
X139910073Y-76409287D01*
X139964159Y-76539864D01*
X140042681Y-76657380D01*
X140142620Y-76757319D01*
X140260136Y-76835841D01*
X140390713Y-76889927D01*
X140529332Y-76917500D01*
X140670668Y-76917500D01*
X140809287Y-76889927D01*
X140939864Y-76835841D01*
X141057380Y-76757319D01*
X141157319Y-76657380D01*
X141235841Y-76539864D01*
X141289927Y-76409287D01*
X141317500Y-76270668D01*
X141317500Y-76129332D01*
X141289927Y-75990713D01*
X141235841Y-75860136D01*
X141157319Y-75742620D01*
X141057380Y-75642681D01*
X140939864Y-75564159D01*
X140809287Y-75510073D01*
X140670668Y-75482500D01*
X140529332Y-75482500D01*
X140511780Y-75485991D01*
X140228270Y-75202481D01*
X140214409Y-75185591D01*
X140147029Y-75130295D01*
X140070157Y-75089205D01*
X139986745Y-75063903D01*
X139921737Y-75057500D01*
X139921734Y-75057500D01*
X139900000Y-75055359D01*
X139878266Y-75057500D01*
X139125803Y-75057500D01*
X139123848Y-75051055D01*
X139015438Y-74848233D01*
X138869542Y-74670458D01*
X138691767Y-74524562D01*
X138488945Y-74416152D01*
X138268870Y-74349393D01*
X138097355Y-74332500D01*
X137982645Y-74332500D01*
X137811130Y-74349393D01*
X137591055Y-74416152D01*
X137388233Y-74524562D01*
X137210458Y-74670458D01*
X137064562Y-74848233D01*
X136956152Y-75051055D01*
X136889393Y-75271130D01*
X136866851Y-75500000D01*
X136669036Y-75500000D01*
X136669036Y-74650000D01*
X136662906Y-74587759D01*
X136644751Y-74527910D01*
X136615269Y-74472753D01*
X136575593Y-74424407D01*
X136527247Y-74384731D01*
X136472090Y-74355249D01*
X136412241Y-74337094D01*
X136350000Y-74330964D01*
X135942500Y-74330964D01*
X135942500Y-70074036D01*
X137090000Y-70074036D01*
X137152241Y-70067906D01*
X137212090Y-70049751D01*
X137267247Y-70020269D01*
X137315593Y-69980593D01*
X137355269Y-69932247D01*
X137384751Y-69877090D01*
X137402906Y-69817241D01*
X137409036Y-69755000D01*
X137409036Y-68704332D01*
X145782500Y-68704332D01*
X145782500Y-68845668D01*
X145810073Y-68984287D01*
X145864159Y-69114864D01*
X145942681Y-69232380D01*
X146042620Y-69332319D01*
X146160136Y-69410841D01*
X146290713Y-69464927D01*
X146429332Y-69492500D01*
X146570668Y-69492500D01*
X146588220Y-69489009D01*
X147557496Y-70458286D01*
X147557497Y-73012569D01*
X147557496Y-73012579D01*
X147557496Y-73032738D01*
X147542616Y-73042681D01*
X147442677Y-73142620D01*
X147364155Y-73260136D01*
X147310069Y-73390713D01*
X147282496Y-73529332D01*
X147282496Y-73670668D01*
X147310069Y-73809287D01*
X147364155Y-73939864D01*
X147442677Y-74057380D01*
X147542616Y-74157319D01*
X147660132Y-74235841D01*
X147790709Y-74289927D01*
X147929328Y-74317500D01*
X148070664Y-74317500D01*
X148209283Y-74289927D01*
X148239671Y-74277340D01*
X162112505Y-74277340D01*
X162112505Y-74418676D01*
X162140078Y-74557295D01*
X162194164Y-74687872D01*
X162272686Y-74805388D01*
X162372625Y-74905327D01*
X162490141Y-74983849D01*
X162620718Y-75037935D01*
X162759337Y-75065508D01*
X162900673Y-75065508D01*
X162918224Y-75062017D01*
X163753732Y-75897525D01*
X163767588Y-75914409D01*
X163784472Y-75928265D01*
X163834967Y-75969705D01*
X163874270Y-75990713D01*
X163911840Y-76010795D01*
X163995252Y-76036097D01*
X164060260Y-76042500D01*
X164060262Y-76042500D01*
X164081996Y-76044641D01*
X164103730Y-76042500D01*
X164332744Y-76042500D01*
X164342687Y-76057380D01*
X164442626Y-76157319D01*
X164560142Y-76235841D01*
X164690719Y-76289927D01*
X164829338Y-76317500D01*
X164970674Y-76317500D01*
X165109293Y-76289927D01*
X165239870Y-76235841D01*
X165357386Y-76157319D01*
X165457325Y-76057380D01*
X165535847Y-75939864D01*
X165589933Y-75809287D01*
X165617506Y-75670668D01*
X165617506Y-75529332D01*
X165589933Y-75390713D01*
X165535847Y-75260136D01*
X165457325Y-75142620D01*
X165357386Y-75042681D01*
X165239870Y-74964159D01*
X165109293Y-74910073D01*
X164970674Y-74882500D01*
X164829338Y-74882500D01*
X164690719Y-74910073D01*
X164560142Y-74964159D01*
X164442626Y-75042681D01*
X164342687Y-75142620D01*
X164332744Y-75157500D01*
X164265287Y-75157500D01*
X163978025Y-74870238D01*
X167542500Y-74870238D01*
X167542500Y-75129762D01*
X167593131Y-75384301D01*
X167692446Y-75624070D01*
X167836631Y-75839857D01*
X168020143Y-76023369D01*
X168235930Y-76167554D01*
X168475699Y-76266869D01*
X168730238Y-76317500D01*
X168989762Y-76317500D01*
X169244301Y-76266869D01*
X169484070Y-76167554D01*
X169699857Y-76023369D01*
X169883369Y-75839857D01*
X170027554Y-75624070D01*
X170126869Y-75384301D01*
X170177500Y-75129762D01*
X170177500Y-74870238D01*
X170126869Y-74615699D01*
X170027554Y-74375930D01*
X169883369Y-74160143D01*
X169699857Y-73976631D01*
X169484070Y-73832446D01*
X169244301Y-73733131D01*
X168989762Y-73682500D01*
X168730238Y-73682500D01*
X168475699Y-73733131D01*
X168235930Y-73832446D01*
X168020143Y-73976631D01*
X167836631Y-74160143D01*
X167692446Y-74375930D01*
X167593131Y-74615699D01*
X167542500Y-74870238D01*
X163978025Y-74870238D01*
X163898295Y-74790508D01*
X165894982Y-74790508D01*
X165916716Y-74792649D01*
X165938450Y-74790508D01*
X165938453Y-74790508D01*
X166003461Y-74784105D01*
X166086873Y-74758803D01*
X166163745Y-74717713D01*
X166231125Y-74662417D01*
X166244985Y-74645528D01*
X166736835Y-74153679D01*
X166754386Y-74157170D01*
X166895722Y-74157170D01*
X167034341Y-74129597D01*
X167164918Y-74075511D01*
X167282434Y-73996989D01*
X167382373Y-73897050D01*
X167460895Y-73779534D01*
X167514981Y-73648957D01*
X167542554Y-73510338D01*
X167542554Y-73369002D01*
X167532669Y-73319306D01*
X168936034Y-71915942D01*
X168953585Y-71919433D01*
X169094921Y-71919433D01*
X169233540Y-71891860D01*
X169364117Y-71837774D01*
X169481633Y-71759252D01*
X169581572Y-71659313D01*
X169660094Y-71541797D01*
X169714180Y-71411220D01*
X169741753Y-71272601D01*
X169741753Y-71131265D01*
X169714180Y-70992646D01*
X169660094Y-70862069D01*
X169581572Y-70744553D01*
X169481633Y-70644614D01*
X169466753Y-70634671D01*
X169466753Y-64845987D01*
X169468894Y-64824252D01*
X169466262Y-64797533D01*
X169460350Y-64737508D01*
X169435048Y-64654096D01*
X169407460Y-64602483D01*
X169393958Y-64577223D01*
X169352518Y-64526728D01*
X169338662Y-64509844D01*
X169321778Y-64495988D01*
X169264009Y-64438219D01*
X169267500Y-64420668D01*
X169267500Y-64279332D01*
X169239927Y-64140713D01*
X169185841Y-64010136D01*
X169107319Y-63892620D01*
X169007380Y-63792681D01*
X168889864Y-63714159D01*
X168759287Y-63660073D01*
X168620668Y-63632500D01*
X168479332Y-63632500D01*
X168340713Y-63660073D01*
X168210136Y-63714159D01*
X168092620Y-63792681D01*
X167992681Y-63892620D01*
X167914159Y-64010136D01*
X167860073Y-64140713D01*
X167832500Y-64279332D01*
X167832500Y-64420668D01*
X167860073Y-64559287D01*
X167914159Y-64689864D01*
X167992681Y-64807380D01*
X168092620Y-64907319D01*
X168210136Y-64985841D01*
X168340713Y-65039927D01*
X168479332Y-65067500D01*
X168581754Y-65067500D01*
X168581753Y-70634671D01*
X168566873Y-70644614D01*
X168466934Y-70744553D01*
X168388412Y-70862069D01*
X168334326Y-70992646D01*
X168306753Y-71131265D01*
X168306753Y-71272601D01*
X168310244Y-71290152D01*
X166878227Y-72722170D01*
X166754386Y-72722170D01*
X166615767Y-72749743D01*
X166485190Y-72803829D01*
X166367674Y-72882351D01*
X166267735Y-72982290D01*
X166189213Y-73099806D01*
X166135127Y-73230383D01*
X166107554Y-73369002D01*
X166107554Y-73510338D01*
X166111045Y-73527889D01*
X165733427Y-73905508D01*
X163397267Y-73905508D01*
X163387324Y-73890628D01*
X163287385Y-73790689D01*
X163169869Y-73712167D01*
X163039292Y-73658081D01*
X162900673Y-73630508D01*
X162759337Y-73630508D01*
X162620718Y-73658081D01*
X162490141Y-73712167D01*
X162372625Y-73790689D01*
X162272686Y-73890628D01*
X162194164Y-74008144D01*
X162140078Y-74138721D01*
X162112505Y-74277340D01*
X148239671Y-74277340D01*
X148339860Y-74235841D01*
X148457376Y-74157319D01*
X148557315Y-74057380D01*
X148635837Y-73939864D01*
X148689923Y-73809287D01*
X148717496Y-73670668D01*
X148717496Y-73529332D01*
X148689923Y-73390713D01*
X148635837Y-73260136D01*
X148557315Y-73142620D01*
X148457376Y-73042681D01*
X148442496Y-73032738D01*
X148442496Y-70296733D01*
X148444637Y-70274996D01*
X148436093Y-70188251D01*
X148410791Y-70104839D01*
X148369701Y-70027967D01*
X148328261Y-69977471D01*
X148314405Y-69960587D01*
X148297522Y-69946732D01*
X147214009Y-68863220D01*
X147217500Y-68845668D01*
X147217500Y-68704332D01*
X147189927Y-68565713D01*
X147135841Y-68435136D01*
X147131963Y-68429332D01*
X148782500Y-68429332D01*
X148782500Y-68570668D01*
X148810073Y-68709287D01*
X148864159Y-68839864D01*
X148942681Y-68957380D01*
X149042620Y-69057319D01*
X149160136Y-69135841D01*
X149290713Y-69189927D01*
X149429332Y-69217500D01*
X149570668Y-69217500D01*
X149588220Y-69214009D01*
X151856269Y-71482059D01*
X151836187Y-71583019D01*
X151836187Y-71724355D01*
X151863760Y-71862974D01*
X151917846Y-71993551D01*
X151996368Y-72111067D01*
X152096307Y-72211006D01*
X152213823Y-72289528D01*
X152344400Y-72343614D01*
X152483019Y-72371187D01*
X152624355Y-72371187D01*
X152762974Y-72343614D01*
X152893551Y-72289528D01*
X153011067Y-72211006D01*
X153111006Y-72111067D01*
X153189528Y-71993551D01*
X153243614Y-71862974D01*
X153271187Y-71724355D01*
X153271187Y-71583019D01*
X153243614Y-71444400D01*
X153189528Y-71313823D01*
X153111006Y-71196307D01*
X153011067Y-71096368D01*
X152893551Y-71017846D01*
X152762974Y-70963760D01*
X152624355Y-70936187D01*
X152561977Y-70936187D01*
X150530112Y-68904322D01*
X154082500Y-68904322D01*
X154082500Y-69045658D01*
X154110073Y-69184277D01*
X154164159Y-69314854D01*
X154242681Y-69432370D01*
X154342620Y-69532309D01*
X154460136Y-69610831D01*
X154590713Y-69664917D01*
X154729332Y-69692490D01*
X154870668Y-69692490D01*
X155009287Y-69664917D01*
X155139864Y-69610831D01*
X155257380Y-69532309D01*
X155357319Y-69432370D01*
X155367262Y-69417490D01*
X155667811Y-69417490D01*
X155642681Y-69442620D01*
X155564159Y-69560136D01*
X155510073Y-69690713D01*
X155482500Y-69829332D01*
X155482500Y-69970668D01*
X155510073Y-70109287D01*
X155564159Y-70239864D01*
X155642681Y-70357380D01*
X155742620Y-70457319D01*
X155860136Y-70535841D01*
X155990713Y-70589927D01*
X156129332Y-70617500D01*
X156270668Y-70617500D01*
X156409287Y-70589927D01*
X156539864Y-70535841D01*
X156657380Y-70457319D01*
X156757319Y-70357380D01*
X156767262Y-70342500D01*
X157002258Y-70342500D01*
X157327865Y-70668107D01*
X157324374Y-70685659D01*
X157324374Y-70826995D01*
X157351947Y-70965614D01*
X157406033Y-71096191D01*
X157484555Y-71213707D01*
X157584494Y-71313646D01*
X157702010Y-71392168D01*
X157832587Y-71446254D01*
X157971206Y-71473827D01*
X158112542Y-71473827D01*
X158251161Y-71446254D01*
X158381738Y-71392168D01*
X158499254Y-71313646D01*
X158599193Y-71213707D01*
X158677715Y-71096191D01*
X158731801Y-70965614D01*
X158759374Y-70826995D01*
X158759374Y-70685659D01*
X158731801Y-70547040D01*
X158677715Y-70416463D01*
X158599193Y-70298947D01*
X158499254Y-70199008D01*
X158381738Y-70120486D01*
X158251161Y-70066400D01*
X158112542Y-70038827D01*
X157971206Y-70038827D01*
X157953654Y-70042318D01*
X157513817Y-69602481D01*
X157499956Y-69585591D01*
X157432576Y-69530295D01*
X157355704Y-69489205D01*
X157272292Y-69463903D01*
X157207284Y-69457500D01*
X157207281Y-69457500D01*
X157185547Y-69455359D01*
X157163813Y-69457500D01*
X156767262Y-69457500D01*
X156757319Y-69442620D01*
X156732189Y-69417490D01*
X160616711Y-69417490D01*
X162111001Y-70911781D01*
X162107510Y-70929332D01*
X162107510Y-71070668D01*
X162111001Y-71088220D01*
X161942045Y-71257176D01*
X161932319Y-71242620D01*
X161832380Y-71142681D01*
X161714864Y-71064159D01*
X161584287Y-71010073D01*
X161445668Y-70982500D01*
X161304332Y-70982500D01*
X161165713Y-71010073D01*
X161035136Y-71064159D01*
X160917620Y-71142681D01*
X160817681Y-71242620D01*
X160739159Y-71360136D01*
X160685073Y-71490713D01*
X160657500Y-71629332D01*
X160657500Y-71770668D01*
X160685073Y-71909287D01*
X160739159Y-72039864D01*
X160817681Y-72157380D01*
X160917620Y-72257319D01*
X161035136Y-72335841D01*
X161165713Y-72389927D01*
X161304332Y-72417500D01*
X161445668Y-72417500D01*
X161584287Y-72389927D01*
X161714864Y-72335841D01*
X161832380Y-72257319D01*
X161932319Y-72157380D01*
X161942262Y-72142500D01*
X162103276Y-72142500D01*
X162125010Y-72144641D01*
X162146744Y-72142500D01*
X162146747Y-72142500D01*
X162211755Y-72136097D01*
X162295167Y-72110795D01*
X162372039Y-72069705D01*
X162439419Y-72014409D01*
X162453280Y-71997519D01*
X162736790Y-71714009D01*
X162754342Y-71717500D01*
X162895678Y-71717500D01*
X163034297Y-71689927D01*
X163164874Y-71635841D01*
X163282390Y-71557319D01*
X163382329Y-71457380D01*
X163460851Y-71339864D01*
X163514937Y-71209287D01*
X163542510Y-71070668D01*
X163542510Y-70929332D01*
X163514937Y-70790713D01*
X163460851Y-70660136D01*
X163382329Y-70542620D01*
X163282390Y-70442681D01*
X163164874Y-70364159D01*
X163034297Y-70310073D01*
X162895678Y-70282500D01*
X162754342Y-70282500D01*
X162736791Y-70285991D01*
X161128270Y-68677471D01*
X161114409Y-68660581D01*
X161047029Y-68605285D01*
X160970157Y-68564195D01*
X160886745Y-68538893D01*
X160821737Y-68532490D01*
X160821734Y-68532490D01*
X160800000Y-68530349D01*
X160778266Y-68532490D01*
X155367262Y-68532490D01*
X155357319Y-68517610D01*
X155257380Y-68417671D01*
X155139864Y-68339149D01*
X155009287Y-68285063D01*
X154870668Y-68257490D01*
X154729332Y-68257490D01*
X154590713Y-68285063D01*
X154460136Y-68339149D01*
X154342620Y-68417671D01*
X154242681Y-68517610D01*
X154164159Y-68635126D01*
X154110073Y-68765703D01*
X154082500Y-68904322D01*
X150530112Y-68904322D01*
X150214009Y-68588220D01*
X150217500Y-68570668D01*
X150217500Y-68429332D01*
X150189927Y-68290713D01*
X150135841Y-68160136D01*
X150057319Y-68042620D01*
X149957380Y-67942681D01*
X149839864Y-67864159D01*
X149709287Y-67810073D01*
X149570668Y-67782500D01*
X149429332Y-67782500D01*
X149290713Y-67810073D01*
X149160136Y-67864159D01*
X149042620Y-67942681D01*
X148942681Y-68042620D01*
X148864159Y-68160136D01*
X148810073Y-68290713D01*
X148782500Y-68429332D01*
X147131963Y-68429332D01*
X147057319Y-68317620D01*
X146957380Y-68217681D01*
X146839864Y-68139159D01*
X146709287Y-68085073D01*
X146570668Y-68057500D01*
X146429332Y-68057500D01*
X146290713Y-68085073D01*
X146160136Y-68139159D01*
X146042620Y-68217681D01*
X145942681Y-68317620D01*
X145864159Y-68435136D01*
X145810073Y-68565713D01*
X145782500Y-68704332D01*
X137409036Y-68704332D01*
X137409036Y-67179332D01*
X155282500Y-67179332D01*
X155282500Y-67320668D01*
X155310073Y-67459287D01*
X155364159Y-67589864D01*
X155442681Y-67707380D01*
X155542620Y-67807319D01*
X155660136Y-67885841D01*
X155790713Y-67939927D01*
X155929332Y-67967500D01*
X156070668Y-67967500D01*
X156209287Y-67939927D01*
X156339864Y-67885841D01*
X156457380Y-67807319D01*
X156557319Y-67707380D01*
X156567262Y-67692500D01*
X159728268Y-67692500D01*
X159750002Y-67694641D01*
X159771736Y-67692500D01*
X159771739Y-67692500D01*
X159793082Y-67690398D01*
X159929334Y-67717500D01*
X160070670Y-67717500D01*
X160209289Y-67689927D01*
X160339866Y-67635841D01*
X160457382Y-67557319D01*
X160557321Y-67457380D01*
X160635843Y-67339864D01*
X160689929Y-67209287D01*
X160695887Y-67179332D01*
X162282500Y-67179332D01*
X162282500Y-67320668D01*
X162310073Y-67459287D01*
X162364159Y-67589864D01*
X162442681Y-67707380D01*
X162542620Y-67807319D01*
X162660136Y-67885841D01*
X162790713Y-67939927D01*
X162929332Y-67967500D01*
X163070668Y-67967500D01*
X163209287Y-67939927D01*
X163339864Y-67885841D01*
X163457380Y-67807319D01*
X163557319Y-67707380D01*
X163635841Y-67589864D01*
X163689927Y-67459287D01*
X163717500Y-67320668D01*
X163717500Y-67179332D01*
X163689927Y-67040713D01*
X163635841Y-66910136D01*
X163557319Y-66792620D01*
X163457380Y-66692681D01*
X163442835Y-66682962D01*
X164911781Y-65214017D01*
X164929332Y-65217508D01*
X165070668Y-65217508D01*
X165209287Y-65189935D01*
X165339864Y-65135849D01*
X165457380Y-65057327D01*
X165557319Y-64957388D01*
X165635841Y-64839872D01*
X165689927Y-64709295D01*
X165717500Y-64570676D01*
X165717500Y-64429340D01*
X165689927Y-64290721D01*
X165635841Y-64160144D01*
X165557319Y-64042628D01*
X165457380Y-63942689D01*
X165339864Y-63864167D01*
X165209287Y-63810081D01*
X165070668Y-63782508D01*
X164929332Y-63782508D01*
X164790713Y-63810081D01*
X164660136Y-63864167D01*
X164542620Y-63942689D01*
X164442681Y-64042628D01*
X164364159Y-64160144D01*
X164310073Y-64290721D01*
X164282500Y-64429340D01*
X164282500Y-64570676D01*
X164285991Y-64588227D01*
X162702476Y-66171743D01*
X162685592Y-66185599D01*
X162671736Y-66202483D01*
X162671735Y-66202484D01*
X162630295Y-66252979D01*
X162589205Y-66329852D01*
X162563904Y-66413263D01*
X162555359Y-66500008D01*
X162557501Y-66521752D01*
X162557501Y-66682738D01*
X162542620Y-66692681D01*
X162442681Y-66792620D01*
X162364159Y-66910136D01*
X162310073Y-67040713D01*
X162282500Y-67179332D01*
X160695887Y-67179332D01*
X160717502Y-67070668D01*
X160717502Y-66929332D01*
X160689929Y-66790713D01*
X160635843Y-66660136D01*
X160557321Y-66542620D01*
X160457382Y-66442681D01*
X160339866Y-66364159D01*
X160209289Y-66310073D01*
X160070670Y-66282500D01*
X159929334Y-66282500D01*
X159790715Y-66310073D01*
X159660138Y-66364159D01*
X159542622Y-66442681D01*
X159442683Y-66542620D01*
X159364161Y-66660136D01*
X159310075Y-66790713D01*
X159306736Y-66807500D01*
X156567262Y-66807500D01*
X156557319Y-66792620D01*
X156457380Y-66692681D01*
X156339864Y-66614159D01*
X156209287Y-66560073D01*
X156070668Y-66532500D01*
X155929332Y-66532500D01*
X155790713Y-66560073D01*
X155660136Y-66614159D01*
X155542620Y-66692681D01*
X155442681Y-66792620D01*
X155364159Y-66910136D01*
X155310073Y-67040713D01*
X155282500Y-67179332D01*
X137409036Y-67179332D01*
X137409036Y-66245000D01*
X137402906Y-66182759D01*
X137384751Y-66122910D01*
X137355269Y-66067753D01*
X137315593Y-66019407D01*
X137267247Y-65979731D01*
X137212090Y-65950249D01*
X137152241Y-65932094D01*
X137090000Y-65925964D01*
X134550000Y-65925964D01*
X134487759Y-65932094D01*
X134427910Y-65950249D01*
X134372753Y-65979731D01*
X134324407Y-66019407D01*
X134284731Y-66067753D01*
X134255249Y-66122910D01*
X134237094Y-66182759D01*
X134230964Y-66245000D01*
X134230964Y-67557500D01*
X131083290Y-67557500D01*
X130864009Y-67338219D01*
X130867500Y-67320668D01*
X130867500Y-67179332D01*
X130839927Y-67040713D01*
X130785841Y-66910136D01*
X130707319Y-66792620D01*
X130607380Y-66692681D01*
X130489864Y-66614159D01*
X130359287Y-66560073D01*
X130220668Y-66532500D01*
X130079332Y-66532500D01*
X129940713Y-66560073D01*
X129810136Y-66614159D01*
X129692620Y-66692681D01*
X129592681Y-66792620D01*
X129514159Y-66910136D01*
X129460073Y-67040713D01*
X129432500Y-67179332D01*
X128467500Y-67179332D01*
X128439927Y-67040713D01*
X128385841Y-66910136D01*
X128307319Y-66792620D01*
X128207380Y-66692681D01*
X128089864Y-66614159D01*
X127959287Y-66560073D01*
X127820668Y-66532500D01*
X127679332Y-66532500D01*
X127661780Y-66535991D01*
X126928271Y-65802482D01*
X126914409Y-65785591D01*
X126847029Y-65730295D01*
X126770157Y-65689205D01*
X126686745Y-65663903D01*
X126621737Y-65657500D01*
X126621734Y-65657500D01*
X126600000Y-65655359D01*
X126578266Y-65657500D01*
X126519425Y-65657500D01*
X126655438Y-65491767D01*
X126763848Y-65288945D01*
X126830607Y-65068870D01*
X126853149Y-64840000D01*
X126830607Y-64611130D01*
X126763848Y-64391055D01*
X126655438Y-64188233D01*
X126509542Y-64010458D01*
X126331767Y-63864562D01*
X126128945Y-63756152D01*
X125908870Y-63689393D01*
X125737355Y-63672500D01*
X125622645Y-63672500D01*
X125451130Y-63689393D01*
X125231055Y-63756152D01*
X125028233Y-63864562D01*
X124850458Y-64010458D01*
X124704562Y-64188233D01*
X124596152Y-64391055D01*
X124529393Y-64611130D01*
X124506851Y-64840000D01*
X124529393Y-65068870D01*
X124596152Y-65288945D01*
X124704562Y-65491767D01*
X124840575Y-65657500D01*
X123979425Y-65657500D01*
X124115438Y-65491767D01*
X124223848Y-65288945D01*
X124290607Y-65068870D01*
X124313149Y-64840000D01*
X124290607Y-64611130D01*
X124223848Y-64391055D01*
X124115438Y-64188233D01*
X123969542Y-64010458D01*
X123791767Y-63864562D01*
X123588945Y-63756152D01*
X123368870Y-63689393D01*
X123197355Y-63672500D01*
X123082645Y-63672500D01*
X122911130Y-63689393D01*
X122691055Y-63756152D01*
X122488233Y-63864562D01*
X122310458Y-64010458D01*
X122192500Y-64154190D01*
X122192500Y-62985810D01*
X122310458Y-63129542D01*
X122488233Y-63275438D01*
X122691055Y-63383848D01*
X122911130Y-63450607D01*
X123082645Y-63467500D01*
X123197355Y-63467500D01*
X123368870Y-63450607D01*
X123588945Y-63383848D01*
X123791767Y-63275438D01*
X123969542Y-63129542D01*
X124115438Y-62951767D01*
X124223848Y-62748945D01*
X124290607Y-62528870D01*
X124313149Y-62300000D01*
X124506851Y-62300000D01*
X124529393Y-62528870D01*
X124596152Y-62748945D01*
X124704562Y-62951767D01*
X124850458Y-63129542D01*
X125028233Y-63275438D01*
X125231055Y-63383848D01*
X125451130Y-63450607D01*
X125622645Y-63467500D01*
X125737355Y-63467500D01*
X125908870Y-63450607D01*
X126128945Y-63383848D01*
X126331767Y-63275438D01*
X126509542Y-63129542D01*
X126655438Y-62951767D01*
X126667429Y-62929332D01*
X153782500Y-62929332D01*
X153782500Y-63070668D01*
X153810073Y-63209287D01*
X153864159Y-63339864D01*
X153942681Y-63457380D01*
X154042620Y-63557319D01*
X154160136Y-63635841D01*
X154290713Y-63689927D01*
X154349111Y-63701543D01*
X154337206Y-63761393D01*
X154337206Y-63902729D01*
X154364779Y-64041348D01*
X154418865Y-64171925D01*
X154497387Y-64289441D01*
X154597326Y-64389380D01*
X154609867Y-64397760D01*
X154542620Y-64442693D01*
X154442681Y-64542632D01*
X154364159Y-64660148D01*
X154310073Y-64790725D01*
X154282500Y-64929344D01*
X154282500Y-65070680D01*
X154310073Y-65209299D01*
X154364159Y-65339876D01*
X154442681Y-65457392D01*
X154542620Y-65557331D01*
X154660136Y-65635853D01*
X154790713Y-65689939D01*
X154929332Y-65717512D01*
X155070668Y-65717512D01*
X155209287Y-65689939D01*
X155339864Y-65635853D01*
X155457380Y-65557331D01*
X155557319Y-65457392D01*
X155635841Y-65339876D01*
X155689927Y-65209299D01*
X155717500Y-65070680D01*
X155717500Y-64929344D01*
X155714009Y-64911792D01*
X156803862Y-63821940D01*
X156782500Y-63929332D01*
X156782500Y-64070668D01*
X156810073Y-64209287D01*
X156864159Y-64339864D01*
X156942681Y-64457380D01*
X157042620Y-64557319D01*
X157160136Y-64635841D01*
X157290713Y-64689927D01*
X157429332Y-64717500D01*
X157570668Y-64717500D01*
X157709287Y-64689927D01*
X157839864Y-64635841D01*
X157957380Y-64557319D01*
X158057319Y-64457380D01*
X158135841Y-64339864D01*
X158189927Y-64209287D01*
X158217500Y-64070668D01*
X158217500Y-63929332D01*
X158214009Y-63911781D01*
X159014542Y-63111248D01*
X159386896Y-63111248D01*
X159396839Y-63126128D01*
X159496778Y-63226067D01*
X159614294Y-63304589D01*
X159744871Y-63358675D01*
X159883490Y-63386248D01*
X160024826Y-63386248D01*
X160163445Y-63358675D01*
X160294022Y-63304589D01*
X160411538Y-63226067D01*
X160511477Y-63126128D01*
X160589999Y-63008612D01*
X160644085Y-62878035D01*
X160671658Y-62739416D01*
X160671658Y-62598080D01*
X160644085Y-62459461D01*
X160589999Y-62328884D01*
X160511477Y-62211368D01*
X160411538Y-62111429D01*
X160294022Y-62032907D01*
X160163445Y-61978821D01*
X160024826Y-61951248D01*
X159883490Y-61951248D01*
X159744871Y-61978821D01*
X159614294Y-62032907D01*
X159496778Y-62111429D01*
X159396839Y-62211368D01*
X159386896Y-62226248D01*
X158852989Y-62226248D01*
X158831252Y-62224107D01*
X158809515Y-62226248D01*
X158744507Y-62232651D01*
X158661095Y-62257953D01*
X158584223Y-62299043D01*
X158516843Y-62354339D01*
X158502987Y-62371223D01*
X157588219Y-63285991D01*
X157570668Y-63282500D01*
X157429332Y-63282500D01*
X157321940Y-63303862D01*
X157901752Y-62724050D01*
X157918133Y-62724050D01*
X158056752Y-62696477D01*
X158187329Y-62642391D01*
X158304845Y-62563869D01*
X158404784Y-62463930D01*
X158483306Y-62346414D01*
X158537392Y-62215837D01*
X158564965Y-62077218D01*
X158564965Y-61935882D01*
X158537392Y-61797263D01*
X158483306Y-61666686D01*
X158404784Y-61549170D01*
X158304845Y-61449231D01*
X158187329Y-61370709D01*
X158056752Y-61316623D01*
X157918133Y-61289050D01*
X157776797Y-61289050D01*
X157638178Y-61316623D01*
X157507601Y-61370709D01*
X157390085Y-61449231D01*
X157384651Y-61454666D01*
X157307414Y-61377429D01*
X157189898Y-61298907D01*
X157059321Y-61244821D01*
X156920702Y-61217248D01*
X156908542Y-61217248D01*
X157683290Y-60442500D01*
X159432810Y-60442500D01*
X159442753Y-60457380D01*
X159542692Y-60557319D01*
X159660208Y-60635841D01*
X159790785Y-60689927D01*
X159929404Y-60717500D01*
X160070740Y-60717500D01*
X160209359Y-60689927D01*
X160339936Y-60635841D01*
X160457452Y-60557319D01*
X160557391Y-60457380D01*
X160635913Y-60339864D01*
X160689999Y-60209287D01*
X160717572Y-60070668D01*
X160717572Y-59929332D01*
X160689999Y-59790713D01*
X160677278Y-59760000D01*
X167686851Y-59760000D01*
X167709393Y-59988870D01*
X167776152Y-60208945D01*
X167884562Y-60411767D01*
X168030458Y-60589542D01*
X168208233Y-60735438D01*
X168411055Y-60843848D01*
X168631130Y-60910607D01*
X168802645Y-60927500D01*
X168917355Y-60927500D01*
X169088870Y-60910607D01*
X169308945Y-60843848D01*
X169511767Y-60735438D01*
X169689542Y-60589542D01*
X169835438Y-60411767D01*
X169943848Y-60208945D01*
X170010607Y-59988870D01*
X170033149Y-59760000D01*
X170010607Y-59531130D01*
X169943848Y-59311055D01*
X169835438Y-59108233D01*
X169689542Y-58930458D01*
X169511767Y-58784562D01*
X169308945Y-58676152D01*
X169088870Y-58609393D01*
X168917355Y-58592500D01*
X168802645Y-58592500D01*
X168631130Y-58609393D01*
X168411055Y-58676152D01*
X168208233Y-58784562D01*
X168030458Y-58930458D01*
X167884562Y-59108233D01*
X167776152Y-59311055D01*
X167709393Y-59531130D01*
X167686851Y-59760000D01*
X160677278Y-59760000D01*
X160635913Y-59660136D01*
X160557391Y-59542620D01*
X160457452Y-59442681D01*
X160339936Y-59364159D01*
X160209359Y-59310073D01*
X160070740Y-59282500D01*
X159929404Y-59282500D01*
X159790785Y-59310073D01*
X159660208Y-59364159D01*
X159542692Y-59442681D01*
X159442753Y-59542620D01*
X159432810Y-59557500D01*
X157521737Y-59557500D01*
X157500000Y-59555359D01*
X157478263Y-59557500D01*
X157413255Y-59563903D01*
X157329843Y-59589205D01*
X157252971Y-59630295D01*
X157185591Y-59685591D01*
X157171735Y-59702475D01*
X154602480Y-62271731D01*
X154602474Y-62271736D01*
X154588219Y-62285991D01*
X154570668Y-62282500D01*
X154429332Y-62282500D01*
X154290713Y-62310073D01*
X154160136Y-62364159D01*
X154042620Y-62442681D01*
X153942681Y-62542620D01*
X153864159Y-62660136D01*
X153810073Y-62790713D01*
X153782500Y-62929332D01*
X126667429Y-62929332D01*
X126763848Y-62748945D01*
X126830607Y-62528870D01*
X126853149Y-62300000D01*
X126830607Y-62071130D01*
X126763848Y-61851055D01*
X126655438Y-61648233D01*
X126509542Y-61470458D01*
X126331767Y-61324562D01*
X126128945Y-61216152D01*
X125908870Y-61149393D01*
X125737355Y-61132500D01*
X125622645Y-61132500D01*
X125451130Y-61149393D01*
X125231055Y-61216152D01*
X125028233Y-61324562D01*
X124850458Y-61470458D01*
X124704562Y-61648233D01*
X124596152Y-61851055D01*
X124529393Y-62071130D01*
X124506851Y-62300000D01*
X124313149Y-62300000D01*
X124290607Y-62071130D01*
X124223848Y-61851055D01*
X124115438Y-61648233D01*
X123969542Y-61470458D01*
X123791767Y-61324562D01*
X123588945Y-61216152D01*
X123368870Y-61149393D01*
X123197355Y-61132500D01*
X123082645Y-61132500D01*
X122911130Y-61149393D01*
X122691055Y-61216152D01*
X122488233Y-61324562D01*
X122310458Y-61470458D01*
X122192500Y-61614190D01*
X122192500Y-59760000D01*
X124506851Y-59760000D01*
X124529393Y-59988870D01*
X124596152Y-60208945D01*
X124704562Y-60411767D01*
X124850458Y-60589542D01*
X125028233Y-60735438D01*
X125231055Y-60843848D01*
X125451130Y-60910607D01*
X125622645Y-60927500D01*
X125737355Y-60927500D01*
X125908870Y-60910607D01*
X126128945Y-60843848D01*
X126331767Y-60735438D01*
X126509542Y-60589542D01*
X126655438Y-60411767D01*
X126763848Y-60208945D01*
X126830607Y-59988870D01*
X126853149Y-59760000D01*
X126830607Y-59531130D01*
X126763848Y-59311055D01*
X126655438Y-59108233D01*
X126509542Y-58930458D01*
X126331767Y-58784562D01*
X126128945Y-58676152D01*
X125908870Y-58609393D01*
X125737355Y-58592500D01*
X125622645Y-58592500D01*
X125451130Y-58609393D01*
X125231055Y-58676152D01*
X125028233Y-58784562D01*
X124850458Y-58930458D01*
X124704562Y-59108233D01*
X124596152Y-59311055D01*
X124529393Y-59531130D01*
X124506851Y-59760000D01*
X122192500Y-59760000D01*
X122192500Y-58372210D01*
X122227759Y-58382906D01*
X122290000Y-58389036D01*
X123990000Y-58389036D01*
X124052241Y-58382906D01*
X124112090Y-58364751D01*
X124167247Y-58335269D01*
X124215593Y-58295593D01*
X124255269Y-58247247D01*
X124284751Y-58192090D01*
X124302906Y-58132241D01*
X124309036Y-58070000D01*
X124309036Y-57220000D01*
X124506851Y-57220000D01*
X124529393Y-57448870D01*
X124596152Y-57668945D01*
X124704562Y-57871767D01*
X124850458Y-58049542D01*
X125028233Y-58195438D01*
X125231055Y-58303848D01*
X125451130Y-58370607D01*
X125622645Y-58387500D01*
X125737355Y-58387500D01*
X125908870Y-58370607D01*
X126128945Y-58303848D01*
X126331767Y-58195438D01*
X126509542Y-58049542D01*
X126655438Y-57871767D01*
X126763848Y-57668945D01*
X126830607Y-57448870D01*
X126853149Y-57220000D01*
X126830607Y-56991130D01*
X126763848Y-56771055D01*
X126655438Y-56568233D01*
X126509542Y-56390458D01*
X126331767Y-56244562D01*
X126209730Y-56179332D01*
X134532500Y-56179332D01*
X134532500Y-56320668D01*
X134560073Y-56459287D01*
X134614159Y-56589864D01*
X134692681Y-56707380D01*
X134792620Y-56807319D01*
X134910136Y-56885841D01*
X135017904Y-56930479D01*
X135017903Y-61197030D01*
X135003023Y-61206973D01*
X134903084Y-61306912D01*
X134824562Y-61424428D01*
X134770476Y-61555005D01*
X134742903Y-61693624D01*
X134742903Y-61834960D01*
X134770476Y-61973579D01*
X134824562Y-62104156D01*
X134903084Y-62221672D01*
X135003023Y-62321611D01*
X135120539Y-62400133D01*
X135251116Y-62454219D01*
X135389735Y-62481792D01*
X135531071Y-62481792D01*
X135669690Y-62454219D01*
X135800267Y-62400133D01*
X135917783Y-62321611D01*
X136017722Y-62221672D01*
X136096244Y-62104156D01*
X136150330Y-61973579D01*
X136177903Y-61834960D01*
X136177903Y-61693624D01*
X136150330Y-61555005D01*
X136096244Y-61424428D01*
X136017722Y-61306912D01*
X135917783Y-61206973D01*
X135902903Y-61197030D01*
X135902903Y-58429332D01*
X137832504Y-58429332D01*
X137832504Y-58570668D01*
X137860077Y-58709287D01*
X137914163Y-58839864D01*
X137992685Y-58957380D01*
X138092624Y-59057319D01*
X138210140Y-59135841D01*
X138340717Y-59189927D01*
X138479336Y-59217500D01*
X138620672Y-59217500D01*
X138638223Y-59214009D01*
X138652478Y-59228264D01*
X138652483Y-59228268D01*
X138969759Y-59545545D01*
X138983615Y-59562429D01*
X139000499Y-59576285D01*
X139050994Y-59617725D01*
X139074511Y-59630295D01*
X139127867Y-59658815D01*
X139211279Y-59684117D01*
X139276287Y-59690520D01*
X139276289Y-59690520D01*
X139298023Y-59692661D01*
X139319758Y-59690520D01*
X141730246Y-59690520D01*
X141751980Y-59692661D01*
X141773714Y-59690520D01*
X141773717Y-59690520D01*
X141838725Y-59684117D01*
X141922137Y-59658815D01*
X141999009Y-59617725D01*
X142066389Y-59562429D01*
X142080249Y-59545540D01*
X142411781Y-59214009D01*
X142429332Y-59217500D01*
X142570668Y-59217500D01*
X142709287Y-59189927D01*
X142839864Y-59135841D01*
X142957380Y-59057319D01*
X143057319Y-58957380D01*
X143057497Y-58957114D01*
X143057496Y-59682738D01*
X143042616Y-59692681D01*
X142942677Y-59792620D01*
X142864155Y-59910136D01*
X142810069Y-60040713D01*
X142782496Y-60179332D01*
X142782496Y-60320668D01*
X142810069Y-60459287D01*
X142864155Y-60589864D01*
X142942677Y-60707380D01*
X143042616Y-60807319D01*
X143160132Y-60885841D01*
X143290709Y-60939927D01*
X143429328Y-60967500D01*
X143570664Y-60967500D01*
X143709283Y-60939927D01*
X143839860Y-60885841D01*
X143957376Y-60807319D01*
X144057315Y-60707380D01*
X144135837Y-60589864D01*
X144189923Y-60459287D01*
X144217496Y-60320668D01*
X144217496Y-60179332D01*
X144189923Y-60040713D01*
X144135837Y-59910136D01*
X144057315Y-59792620D01*
X143957376Y-59692681D01*
X143942496Y-59682738D01*
X143942496Y-58021730D01*
X143944637Y-57999996D01*
X143942496Y-57978259D01*
X143936093Y-57913251D01*
X143910791Y-57829839D01*
X143884872Y-57781349D01*
X143869701Y-57752966D01*
X143849053Y-57727806D01*
X143814405Y-57685587D01*
X143797515Y-57671726D01*
X143578267Y-57452478D01*
X143564406Y-57435588D01*
X143497026Y-57380292D01*
X143420154Y-57339202D01*
X143336742Y-57313900D01*
X143271734Y-57307497D01*
X143271731Y-57307497D01*
X143249997Y-57305356D01*
X143228263Y-57307497D01*
X140496420Y-57307497D01*
X140474683Y-57305356D01*
X140452946Y-57307497D01*
X140387938Y-57313900D01*
X140304526Y-57339202D01*
X140227654Y-57380292D01*
X140160274Y-57435588D01*
X140146418Y-57452472D01*
X139828310Y-57770581D01*
X139828305Y-57770585D01*
X139814050Y-57784840D01*
X139796499Y-57781349D01*
X139655163Y-57781349D01*
X139516544Y-57808922D01*
X139385967Y-57863008D01*
X139268451Y-57941530D01*
X139168512Y-58041469D01*
X139137533Y-58087832D01*
X139107323Y-58042620D01*
X139007384Y-57942681D01*
X138889868Y-57864159D01*
X138759291Y-57810073D01*
X138620672Y-57782500D01*
X138479336Y-57782500D01*
X138340717Y-57810073D01*
X138210140Y-57864159D01*
X138092624Y-57942681D01*
X137992685Y-58042620D01*
X137914163Y-58160136D01*
X137860077Y-58290713D01*
X137832504Y-58429332D01*
X135902903Y-58429332D01*
X135902903Y-56548672D01*
X135939927Y-56459287D01*
X135957687Y-56370000D01*
X167690964Y-56370000D01*
X167690964Y-58070000D01*
X167697094Y-58132241D01*
X167715249Y-58192090D01*
X167744731Y-58247247D01*
X167784407Y-58295593D01*
X167832753Y-58335269D01*
X167887910Y-58364751D01*
X167947759Y-58382906D01*
X168010000Y-58389036D01*
X169710000Y-58389036D01*
X169772241Y-58382906D01*
X169832090Y-58364751D01*
X169887247Y-58335269D01*
X169935593Y-58295593D01*
X169975269Y-58247247D01*
X170004751Y-58192090D01*
X170022906Y-58132241D01*
X170029036Y-58070000D01*
X170029036Y-56370000D01*
X170022906Y-56307759D01*
X170004751Y-56247910D01*
X169975269Y-56192753D01*
X169935593Y-56144407D01*
X169887247Y-56104731D01*
X169832090Y-56075249D01*
X169772241Y-56057094D01*
X169710000Y-56050964D01*
X168010000Y-56050964D01*
X167947759Y-56057094D01*
X167887910Y-56075249D01*
X167832753Y-56104731D01*
X167784407Y-56144407D01*
X167744731Y-56192753D01*
X167715249Y-56247910D01*
X167697094Y-56307759D01*
X167690964Y-56370000D01*
X135957687Y-56370000D01*
X135967500Y-56320668D01*
X135967500Y-56179332D01*
X135939927Y-56040713D01*
X135885841Y-55910136D01*
X135807319Y-55792620D01*
X135707380Y-55692681D01*
X135589864Y-55614159D01*
X135459287Y-55560073D01*
X135320668Y-55532500D01*
X135179332Y-55532500D01*
X135040713Y-55560073D01*
X134910136Y-55614159D01*
X134792620Y-55692681D01*
X134692681Y-55792620D01*
X134614159Y-55910136D01*
X134560073Y-56040713D01*
X134532500Y-56179332D01*
X126209730Y-56179332D01*
X126128945Y-56136152D01*
X125908870Y-56069393D01*
X125737355Y-56052500D01*
X125622645Y-56052500D01*
X125451130Y-56069393D01*
X125231055Y-56136152D01*
X125028233Y-56244562D01*
X124850458Y-56390458D01*
X124704562Y-56568233D01*
X124596152Y-56771055D01*
X124529393Y-56991130D01*
X124506851Y-57220000D01*
X124309036Y-57220000D01*
X124309036Y-56370000D01*
X124302906Y-56307759D01*
X124284751Y-56247910D01*
X124255269Y-56192753D01*
X124215593Y-56144407D01*
X124167247Y-56104731D01*
X124112090Y-56075249D01*
X124052241Y-56057094D01*
X123990000Y-56050964D01*
X122290000Y-56050964D01*
X122227759Y-56057094D01*
X122167910Y-56075249D01*
X122112753Y-56104731D01*
X122064407Y-56144407D01*
X122024731Y-56192753D01*
X121995249Y-56247910D01*
X121977094Y-56307759D01*
X121970964Y-56370000D01*
X121970964Y-56782159D01*
X121953255Y-56783903D01*
X121869843Y-56809205D01*
X121792970Y-56850295D01*
X121767810Y-56870943D01*
X121725591Y-56905591D01*
X121711730Y-56922481D01*
X121452481Y-57181730D01*
X121435591Y-57195591D01*
X121415560Y-57220000D01*
X121380295Y-57262971D01*
X121356897Y-57306745D01*
X121342500Y-57333680D01*
X121342500Y-53313000D01*
X121435010Y-53778081D01*
X121636092Y-54263535D01*
X121928017Y-54700432D01*
X122299568Y-55071983D01*
X122736465Y-55363908D01*
X123221919Y-55564990D01*
X123737274Y-55667500D01*
X124262726Y-55667500D01*
X124778081Y-55564990D01*
X125263535Y-55363908D01*
X125700432Y-55071983D01*
X126071983Y-54700432D01*
X126363908Y-54263535D01*
X126564990Y-53778081D01*
X126667500Y-53262726D01*
X126667500Y-52737274D01*
X126564990Y-52221919D01*
X126363908Y-51736465D01*
X126071983Y-51299568D01*
X125700432Y-50928017D01*
X125263535Y-50636092D01*
X124778081Y-50435010D01*
X124313000Y-50342500D01*
X135936500Y-50342500D01*
X135936500Y-56000000D01*
X135936500Y-56000000D01*
G37*
X135936500Y-56000000D02*
X135937720Y-56012388D01*
X135941334Y-56024300D01*
X135947202Y-56035279D01*
X135955099Y-56044901D01*
X135964721Y-56052798D01*
X135975700Y-56058666D01*
X135987612Y-56062280D01*
X136000000Y-56063500D01*
X164000000Y-56063500D01*
X164012388Y-56062280D01*
X164024300Y-56058666D01*
X164035279Y-56052798D01*
X164044901Y-56044901D01*
X164052798Y-56035279D01*
X164058666Y-56024300D01*
X164062280Y-56012388D01*
X164063500Y-56000000D01*
X164063500Y-50342500D01*
X167687000Y-50342500D01*
X167221919Y-50435010D01*
X166736465Y-50636092D01*
X166299568Y-50928017D01*
X165928017Y-51299568D01*
X165636092Y-51736465D01*
X165435010Y-52221919D01*
X165332500Y-52737274D01*
X165332500Y-53262726D01*
X165435010Y-53778081D01*
X165636092Y-54263535D01*
X165928017Y-54700432D01*
X166299568Y-55071983D01*
X166736465Y-55363908D01*
X167221919Y-55564990D01*
X167737274Y-55667500D01*
X168262726Y-55667500D01*
X168778081Y-55564990D01*
X169263535Y-55363908D01*
X169700432Y-55071983D01*
X170071983Y-54700432D01*
X170363908Y-54263535D01*
X170564990Y-53778081D01*
X170657500Y-53313000D01*
X170657501Y-96687005D01*
X170564990Y-96221919D01*
X170363908Y-95736465D01*
X170071983Y-95299568D01*
X169700432Y-94928017D01*
X169263535Y-94636092D01*
X168778081Y-94435010D01*
X168262726Y-94332500D01*
X167737274Y-94332500D01*
X167221919Y-94435010D01*
X166736465Y-94636092D01*
X166299568Y-94928017D01*
X165928017Y-95299568D01*
X165636092Y-95736465D01*
X165435010Y-96221919D01*
X165332500Y-96737274D01*
X165332500Y-97262726D01*
X165435010Y-97778081D01*
X165636092Y-98263535D01*
X165928017Y-98700432D01*
X166299568Y-99071983D01*
X166736465Y-99363908D01*
X167221919Y-99564990D01*
X167687000Y-99657500D01*
X124313000Y-99657500D01*
X124778081Y-99564990D01*
X125263535Y-99363908D01*
X125700432Y-99071983D01*
X126071983Y-98700432D01*
X126363908Y-98263535D01*
X126564990Y-97778081D01*
X126667500Y-97262726D01*
X126667500Y-96737274D01*
X126564990Y-96221919D01*
X126363908Y-95736465D01*
X126071983Y-95299568D01*
X125962653Y-95190238D01*
X129442500Y-95190238D01*
X129442500Y-95449762D01*
X129493131Y-95704301D01*
X129592446Y-95944070D01*
X129736631Y-96159857D01*
X129920143Y-96343369D01*
X130135930Y-96487554D01*
X130375699Y-96586869D01*
X130391440Y-96590000D01*
X130375699Y-96593131D01*
X130135930Y-96692446D01*
X129920143Y-96836631D01*
X129736631Y-97020143D01*
X129592446Y-97235930D01*
X129493131Y-97475699D01*
X129442500Y-97730238D01*
X129442500Y-97989762D01*
X129493131Y-98244301D01*
X129592446Y-98484070D01*
X129736631Y-98699857D01*
X129920143Y-98883369D01*
X130135930Y-99027554D01*
X130375699Y-99126869D01*
X130630238Y-99177500D01*
X130889762Y-99177500D01*
X131144301Y-99126869D01*
X131384070Y-99027554D01*
X131599857Y-98883369D01*
X131783369Y-98699857D01*
X131927554Y-98484070D01*
X132026869Y-98244301D01*
X132077500Y-97989762D01*
X132077500Y-97730238D01*
X132026869Y-97475699D01*
X131927554Y-97235930D01*
X131783369Y-97020143D01*
X131773226Y-97010000D01*
X162610964Y-97010000D01*
X162610964Y-98710000D01*
X162617094Y-98772241D01*
X162635249Y-98832090D01*
X162664731Y-98887247D01*
X162704407Y-98935593D01*
X162752753Y-98975269D01*
X162807910Y-99004751D01*
X162867759Y-99022906D01*
X162930000Y-99029036D01*
X164630000Y-99029036D01*
X164692241Y-99022906D01*
X164752090Y-99004751D01*
X164807247Y-98975269D01*
X164855593Y-98935593D01*
X164895269Y-98887247D01*
X164924751Y-98832090D01*
X164942906Y-98772241D01*
X164949036Y-98710000D01*
X164949036Y-97010000D01*
X164942906Y-96947759D01*
X164924751Y-96887910D01*
X164895269Y-96832753D01*
X164855593Y-96784407D01*
X164807247Y-96744731D01*
X164752090Y-96715249D01*
X164692241Y-96697094D01*
X164630000Y-96690964D01*
X162930000Y-96690964D01*
X162867759Y-96697094D01*
X162807910Y-96715249D01*
X162752753Y-96744731D01*
X162704407Y-96784407D01*
X162664731Y-96832753D01*
X162635249Y-96887910D01*
X162617094Y-96947759D01*
X162610964Y-97010000D01*
X131773226Y-97010000D01*
X131599857Y-96836631D01*
X131384070Y-96692446D01*
X131144301Y-96593131D01*
X131128560Y-96590000D01*
X131144301Y-96586869D01*
X131384070Y-96487554D01*
X131599857Y-96343369D01*
X131783369Y-96159857D01*
X131927554Y-95944070D01*
X132026869Y-95704301D01*
X132077500Y-95449762D01*
X132077500Y-95190238D01*
X132026869Y-94935699D01*
X131927554Y-94695930D01*
X131783369Y-94480143D01*
X131773226Y-94470000D01*
X144830964Y-94470000D01*
X144830964Y-96170000D01*
X144837094Y-96232241D01*
X144855249Y-96292090D01*
X144884731Y-96347247D01*
X144924407Y-96395593D01*
X144972753Y-96435269D01*
X145027910Y-96464751D01*
X145087759Y-96482906D01*
X145150000Y-96489036D01*
X146850000Y-96489036D01*
X146912241Y-96482906D01*
X146972090Y-96464751D01*
X147027247Y-96435269D01*
X147075593Y-96395593D01*
X147115269Y-96347247D01*
X147144751Y-96292090D01*
X147162906Y-96232241D01*
X147169036Y-96170000D01*
X147169036Y-95700000D01*
X150779029Y-95700000D01*
X150792882Y-95840654D01*
X150833910Y-95975904D01*
X150900535Y-96100550D01*
X150990197Y-96209803D01*
X151099450Y-96299465D01*
X151224096Y-96366090D01*
X151359346Y-96407118D01*
X151464758Y-96417500D01*
X151535242Y-96417500D01*
X151640654Y-96407118D01*
X151775904Y-96366090D01*
X151900550Y-96299465D01*
X152009803Y-96209803D01*
X152099465Y-96100550D01*
X152166090Y-95975904D01*
X152207118Y-95840654D01*
X152220971Y-95700000D01*
X155779029Y-95700000D01*
X155792882Y-95840654D01*
X155833910Y-95975904D01*
X155900535Y-96100550D01*
X155990197Y-96209803D01*
X156099450Y-96299465D01*
X156224096Y-96366090D01*
X156359346Y-96407118D01*
X156464758Y-96417500D01*
X156535242Y-96417500D01*
X156640654Y-96407118D01*
X156775904Y-96366090D01*
X156900550Y-96299465D01*
X157009803Y-96209803D01*
X157099465Y-96100550D01*
X157166090Y-95975904D01*
X157207118Y-95840654D01*
X157220971Y-95700000D01*
X157207118Y-95559346D01*
X157166090Y-95424096D01*
X157099465Y-95299450D01*
X157009803Y-95190197D01*
X156900550Y-95100535D01*
X156775904Y-95033910D01*
X156640654Y-94992882D01*
X156535242Y-94982500D01*
X156464758Y-94982500D01*
X156359346Y-94992882D01*
X156224096Y-95033910D01*
X156099450Y-95100535D01*
X155990197Y-95190197D01*
X155900535Y-95299450D01*
X155833910Y-95424096D01*
X155792882Y-95559346D01*
X155779029Y-95700000D01*
X152220971Y-95700000D01*
X152207118Y-95559346D01*
X152166090Y-95424096D01*
X152099465Y-95299450D01*
X152009803Y-95190197D01*
X151900550Y-95100535D01*
X151775904Y-95033910D01*
X151640654Y-94992882D01*
X151535242Y-94982500D01*
X151464758Y-94982500D01*
X151359346Y-94992882D01*
X151224096Y-95033910D01*
X151099450Y-95100535D01*
X150990197Y-95190197D01*
X150900535Y-95299450D01*
X150833910Y-95424096D01*
X150792882Y-95559346D01*
X150779029Y-95700000D01*
X147169036Y-95700000D01*
X147169036Y-94470000D01*
X147162906Y-94407759D01*
X147144751Y-94347910D01*
X147115269Y-94292753D01*
X147075593Y-94244407D01*
X147027247Y-94204731D01*
X146972090Y-94175249D01*
X146912241Y-94157094D01*
X146850000Y-94150964D01*
X145150000Y-94150964D01*
X145087759Y-94157094D01*
X145027910Y-94175249D01*
X144972753Y-94204731D01*
X144924407Y-94244407D01*
X144884731Y-94292753D01*
X144855249Y-94347910D01*
X144837094Y-94407759D01*
X144830964Y-94470000D01*
X131773226Y-94470000D01*
X131599857Y-94296631D01*
X131384070Y-94152446D01*
X131144301Y-94053131D01*
X130889762Y-94002500D01*
X130630238Y-94002500D01*
X130375699Y-94053131D01*
X130135930Y-94152446D01*
X129920143Y-94296631D01*
X129736631Y-94480143D01*
X129592446Y-94695930D01*
X129493131Y-94935699D01*
X129442500Y-95190238D01*
X125962653Y-95190238D01*
X125700432Y-94928017D01*
X125263535Y-94636092D01*
X124778081Y-94435010D01*
X124262726Y-94332500D01*
X123737274Y-94332500D01*
X123221919Y-94435010D01*
X122736465Y-94636092D01*
X122299568Y-94928017D01*
X121928017Y-95299568D01*
X121636092Y-95736465D01*
X121435010Y-96221919D01*
X121342500Y-96687000D01*
X121342500Y-90240000D01*
X121966851Y-90240000D01*
X121989393Y-90468870D01*
X122056152Y-90688945D01*
X122164562Y-90891767D01*
X122310458Y-91069542D01*
X122488233Y-91215438D01*
X122691055Y-91323848D01*
X122911130Y-91390607D01*
X123082645Y-91407500D01*
X123197355Y-91407500D01*
X123368870Y-91390607D01*
X123588945Y-91323848D01*
X123791767Y-91215438D01*
X123969542Y-91069542D01*
X124115438Y-90891767D01*
X124223848Y-90688945D01*
X124290607Y-90468870D01*
X124313149Y-90240000D01*
X124290607Y-90011130D01*
X124223848Y-89791055D01*
X124115438Y-89588233D01*
X123969542Y-89410458D01*
X123926336Y-89374999D01*
X135830964Y-89374999D01*
X135830964Y-90625001D01*
X135841898Y-90736014D01*
X135874279Y-90842761D01*
X135926864Y-90941140D01*
X135997630Y-91027370D01*
X136083860Y-91098136D01*
X136182239Y-91150721D01*
X136288986Y-91183102D01*
X136399999Y-91194036D01*
X137100001Y-91194036D01*
X137211014Y-91183102D01*
X137317761Y-91150721D01*
X137416140Y-91098136D01*
X137502370Y-91027370D01*
X137573136Y-90941140D01*
X137625721Y-90842761D01*
X137658102Y-90736014D01*
X137669036Y-90625001D01*
X137669036Y-89374999D01*
X137658102Y-89263986D01*
X137625721Y-89157239D01*
X137573136Y-89058860D01*
X137502370Y-88972630D01*
X137416140Y-88901864D01*
X137317761Y-88849279D01*
X137211014Y-88816898D01*
X137100001Y-88805964D01*
X136399999Y-88805964D01*
X136288986Y-88816898D01*
X136182239Y-88849279D01*
X136083860Y-88901864D01*
X135997630Y-88972630D01*
X135926864Y-89058860D01*
X135874279Y-89157239D01*
X135841898Y-89263986D01*
X135830964Y-89374999D01*
X123926336Y-89374999D01*
X123791767Y-89264562D01*
X123588945Y-89156152D01*
X123368870Y-89089393D01*
X123197355Y-89072500D01*
X123082645Y-89072500D01*
X122911130Y-89089393D01*
X122691055Y-89156152D01*
X122488233Y-89264562D01*
X122310458Y-89410458D01*
X122164562Y-89588233D01*
X122056152Y-89791055D01*
X121989393Y-90011130D01*
X121966851Y-90240000D01*
X121342500Y-90240000D01*
X121342500Y-87700000D01*
X121966851Y-87700000D01*
X121989393Y-87928870D01*
X122056152Y-88148945D01*
X122164562Y-88351767D01*
X122310458Y-88529542D01*
X122488233Y-88675438D01*
X122691055Y-88783848D01*
X122911130Y-88850607D01*
X123082645Y-88867500D01*
X123197355Y-88867500D01*
X123368870Y-88850607D01*
X123588945Y-88783848D01*
X123791767Y-88675438D01*
X123969542Y-88529542D01*
X124115438Y-88351767D01*
X124223848Y-88148945D01*
X124290607Y-87928870D01*
X124313149Y-87700000D01*
X124290607Y-87471130D01*
X124223848Y-87251055D01*
X124115438Y-87048233D01*
X123969542Y-86870458D01*
X123791767Y-86724562D01*
X123588945Y-86616152D01*
X123368870Y-86549393D01*
X123197355Y-86532500D01*
X123082645Y-86532500D01*
X122911130Y-86549393D01*
X122691055Y-86616152D01*
X122488233Y-86724562D01*
X122310458Y-86870458D01*
X122164562Y-87048233D01*
X122056152Y-87251055D01*
X121989393Y-87471130D01*
X121966851Y-87700000D01*
X121342500Y-87700000D01*
X121342500Y-85160000D01*
X121966851Y-85160000D01*
X121989393Y-85388870D01*
X122056152Y-85608945D01*
X122164562Y-85811767D01*
X122310458Y-85989542D01*
X122488233Y-86135438D01*
X122691055Y-86243848D01*
X122911130Y-86310607D01*
X123082645Y-86327500D01*
X123197355Y-86327500D01*
X123368870Y-86310607D01*
X123588945Y-86243848D01*
X123791767Y-86135438D01*
X123969542Y-85989542D01*
X124115438Y-85811767D01*
X124223848Y-85608945D01*
X124290607Y-85388870D01*
X124313149Y-85160000D01*
X124300369Y-85030238D01*
X136682500Y-85030238D01*
X136682500Y-85289762D01*
X136733131Y-85544301D01*
X136832446Y-85784070D01*
X136976631Y-85999857D01*
X137160143Y-86183369D01*
X137375930Y-86327554D01*
X137615699Y-86426869D01*
X137870238Y-86477500D01*
X138129762Y-86477500D01*
X138384301Y-86426869D01*
X138624070Y-86327554D01*
X138839857Y-86183369D01*
X139023369Y-85999857D01*
X139167554Y-85784070D01*
X139266869Y-85544301D01*
X139317500Y-85289762D01*
X139317500Y-85030238D01*
X139266869Y-84775699D01*
X139167554Y-84535930D01*
X139023369Y-84320143D01*
X139013226Y-84310000D01*
X156830964Y-84310000D01*
X156830964Y-86010000D01*
X156837094Y-86072241D01*
X156855249Y-86132090D01*
X156884731Y-86187247D01*
X156924407Y-86235593D01*
X156972753Y-86275269D01*
X157027910Y-86304751D01*
X157087759Y-86322906D01*
X157150000Y-86329036D01*
X158850000Y-86329036D01*
X158912241Y-86322906D01*
X158972090Y-86304751D01*
X159027247Y-86275269D01*
X159075593Y-86235593D01*
X159115269Y-86187247D01*
X159144751Y-86132090D01*
X159162906Y-86072241D01*
X159169036Y-86010000D01*
X159169036Y-84310000D01*
X159162906Y-84247759D01*
X159144751Y-84187910D01*
X159115269Y-84132753D01*
X159075593Y-84084407D01*
X159027247Y-84044731D01*
X158972090Y-84015249D01*
X158912241Y-83997094D01*
X158850000Y-83990964D01*
X157150000Y-83990964D01*
X157087759Y-83997094D01*
X157027910Y-84015249D01*
X156972753Y-84044731D01*
X156924407Y-84084407D01*
X156884731Y-84132753D01*
X156855249Y-84187910D01*
X156837094Y-84247759D01*
X156830964Y-84310000D01*
X139013226Y-84310000D01*
X138839857Y-84136631D01*
X138624070Y-83992446D01*
X138384301Y-83893131D01*
X138129762Y-83842500D01*
X137870238Y-83842500D01*
X137615699Y-83893131D01*
X137375930Y-83992446D01*
X137160143Y-84136631D01*
X136976631Y-84320143D01*
X136832446Y-84535930D01*
X136733131Y-84775699D01*
X136682500Y-85030238D01*
X124300369Y-85030238D01*
X124290607Y-84931130D01*
X124223848Y-84711055D01*
X124115438Y-84508233D01*
X123969542Y-84330458D01*
X123791767Y-84184562D01*
X123588945Y-84076152D01*
X123368870Y-84009393D01*
X123197355Y-83992500D01*
X123082645Y-83992500D01*
X122911130Y-84009393D01*
X122691055Y-84076152D01*
X122488233Y-84184562D01*
X122310458Y-84330458D01*
X122164562Y-84508233D01*
X122056152Y-84711055D01*
X121989393Y-84931130D01*
X121966851Y-85160000D01*
X121342500Y-85160000D01*
X121342500Y-82620000D01*
X121966851Y-82620000D01*
X121989393Y-82848870D01*
X122056152Y-83068945D01*
X122164562Y-83271767D01*
X122310458Y-83449542D01*
X122488233Y-83595438D01*
X122691055Y-83703848D01*
X122911130Y-83770607D01*
X123082645Y-83787500D01*
X123197355Y-83787500D01*
X123368870Y-83770607D01*
X123588945Y-83703848D01*
X123791767Y-83595438D01*
X123969542Y-83449542D01*
X124115438Y-83271767D01*
X124223848Y-83068945D01*
X124290607Y-82848870D01*
X124313149Y-82620000D01*
X124290607Y-82391130D01*
X124223848Y-82171055D01*
X124115438Y-81968233D01*
X123969542Y-81790458D01*
X123791767Y-81644562D01*
X123588945Y-81536152D01*
X123368870Y-81469393D01*
X123197355Y-81452500D01*
X123082645Y-81452500D01*
X122911130Y-81469393D01*
X122691055Y-81536152D01*
X122488233Y-81644562D01*
X122310458Y-81790458D01*
X122164562Y-81968233D01*
X122056152Y-82171055D01*
X121989393Y-82391130D01*
X121966851Y-82620000D01*
X121342500Y-82620000D01*
X121342500Y-80080000D01*
X121966851Y-80080000D01*
X121989393Y-80308870D01*
X122056152Y-80528945D01*
X122164562Y-80731767D01*
X122310458Y-80909542D01*
X122488233Y-81055438D01*
X122691055Y-81163848D01*
X122911130Y-81230607D01*
X123082645Y-81247500D01*
X123197355Y-81247500D01*
X123368870Y-81230607D01*
X123588945Y-81163848D01*
X123791767Y-81055438D01*
X123969542Y-80909542D01*
X124115438Y-80731767D01*
X124223848Y-80528945D01*
X124290607Y-80308870D01*
X124313149Y-80080000D01*
X124290607Y-79851130D01*
X124223848Y-79631055D01*
X124115438Y-79428233D01*
X123969542Y-79250458D01*
X123791767Y-79104562D01*
X123588945Y-78996152D01*
X123368870Y-78929393D01*
X123197355Y-78912500D01*
X123082645Y-78912500D01*
X122911130Y-78929393D01*
X122691055Y-78996152D01*
X122488233Y-79104562D01*
X122310458Y-79250458D01*
X122164562Y-79428233D01*
X122056152Y-79631055D01*
X121989393Y-79851130D01*
X121966851Y-80080000D01*
X121342500Y-80080000D01*
X121342500Y-65445821D01*
X121380295Y-65516530D01*
X121421735Y-65567025D01*
X121435592Y-65583910D01*
X121452476Y-65597766D01*
X122252233Y-66397524D01*
X122266090Y-66414409D01*
X122282974Y-66428265D01*
X122333469Y-66469705D01*
X122349495Y-66478271D01*
X122379122Y-66494107D01*
X122310458Y-66550458D01*
X122164562Y-66728233D01*
X122056152Y-66931055D01*
X121989393Y-67151130D01*
X121966851Y-67380000D01*
X121989393Y-67608870D01*
X122056152Y-67828945D01*
X122164562Y-68031767D01*
X122310458Y-68209542D01*
X122488233Y-68355438D01*
X122691055Y-68463848D01*
X122911130Y-68530607D01*
X123082645Y-68547500D01*
X123197355Y-68547500D01*
X123368870Y-68530607D01*
X123588945Y-68463848D01*
X123791767Y-68355438D01*
X123969542Y-68209542D01*
X124115438Y-68031767D01*
X124223848Y-67828945D01*
X124290607Y-67608870D01*
X124313149Y-67380000D01*
X124290607Y-67151130D01*
X124223848Y-66931055D01*
X124115438Y-66728233D01*
X123969542Y-66550458D01*
X123959845Y-66542500D01*
X124860155Y-66542500D01*
X124850458Y-66550458D01*
X124704562Y-66728233D01*
X124596152Y-66931055D01*
X124529393Y-67151130D01*
X124506851Y-67380000D01*
X124529393Y-67608870D01*
X124596152Y-67828945D01*
X124704562Y-68031767D01*
X124850458Y-68209542D01*
X125028233Y-68355438D01*
X125231055Y-68463848D01*
X125451130Y-68530607D01*
X125622645Y-68547500D01*
X125737355Y-68547500D01*
X125908870Y-68530607D01*
X126128945Y-68463848D01*
X126331767Y-68355438D01*
X126509542Y-68209542D01*
X126655438Y-68031767D01*
X126763848Y-67828945D01*
X126830607Y-67608870D01*
X126853149Y-67380000D01*
X126830607Y-67151130D01*
X126763848Y-66931055D01*
X126716289Y-66842078D01*
X127035991Y-67161780D01*
X127032500Y-67179332D01*
X127032500Y-67320668D01*
X127060073Y-67459287D01*
X127114159Y-67589864D01*
X127192681Y-67707380D01*
X127292620Y-67807319D01*
X127410136Y-67885841D01*
X127540713Y-67939927D01*
X127679332Y-67967500D01*
X127820668Y-67967500D01*
X127959287Y-67939927D01*
X128089864Y-67885841D01*
X128207380Y-67807319D01*
X128307319Y-67707380D01*
X128385841Y-67589864D01*
X128439927Y-67459287D01*
X128467500Y-67320668D01*
X128467500Y-67179332D01*
X129432500Y-67179332D01*
X129432500Y-67320668D01*
X129460073Y-67459287D01*
X129514159Y-67589864D01*
X129592681Y-67707380D01*
X129692620Y-67807319D01*
X129810136Y-67885841D01*
X129940713Y-67939927D01*
X130079332Y-67967500D01*
X130220668Y-67967500D01*
X130238219Y-67964009D01*
X130571735Y-68297525D01*
X130585591Y-68314409D01*
X130602475Y-68328265D01*
X130652970Y-68369705D01*
X130679747Y-68384018D01*
X130729843Y-68410795D01*
X130813255Y-68436097D01*
X130878263Y-68442500D01*
X130878265Y-68442500D01*
X130899999Y-68444641D01*
X130921733Y-68442500D01*
X134230964Y-68442500D01*
X134230964Y-69755000D01*
X134237094Y-69817241D01*
X134255249Y-69877090D01*
X134284731Y-69932247D01*
X134324407Y-69980593D01*
X134372753Y-70020269D01*
X134427910Y-70049751D01*
X134487759Y-70067906D01*
X134550000Y-70074036D01*
X135057501Y-70074036D01*
X135057500Y-74330964D01*
X134650000Y-74330964D01*
X134587759Y-74337094D01*
X134527910Y-74355249D01*
X134472753Y-74384731D01*
X134424407Y-74424407D01*
X134384731Y-74472753D01*
X134355249Y-74527910D01*
X134337094Y-74587759D01*
X134330964Y-74650000D01*
X134330964Y-76350000D01*
X134337094Y-76412241D01*
X134355249Y-76472090D01*
X134384731Y-76527247D01*
X134424407Y-76575593D01*
X134472753Y-76615269D01*
X134527910Y-76644751D01*
X134587759Y-76662906D01*
X134650000Y-76669036D01*
X136350000Y-76669036D01*
X136412241Y-76662906D01*
X136472090Y-76644751D01*
X136527247Y-76615269D01*
X136575593Y-76575593D01*
X136615269Y-76527247D01*
X136644751Y-76472090D01*
X136662906Y-76412241D01*
X136669036Y-76350000D01*
X136669036Y-75500000D01*
X136866851Y-75500000D01*
X136889393Y-75728870D01*
X136956152Y-75948945D01*
X137064562Y-76151767D01*
X137210458Y-76329542D01*
X137388233Y-76475438D01*
X137591055Y-76583848D01*
X137811130Y-76650607D01*
X137982645Y-76667500D01*
X138097355Y-76667500D01*
X138268870Y-76650607D01*
X138488945Y-76583848D01*
X138691767Y-76475438D01*
X138869542Y-76329542D01*
X139015438Y-76151767D01*
X139123848Y-75948945D01*
X139125803Y-75942500D01*
X139716711Y-75942500D01*
X139885991Y-76111780D01*
X139882500Y-76129332D01*
X139882500Y-76270668D01*
X139910073Y-76409287D01*
X139964159Y-76539864D01*
X140042681Y-76657380D01*
X140142620Y-76757319D01*
X140260136Y-76835841D01*
X140390713Y-76889927D01*
X140529332Y-76917500D01*
X140670668Y-76917500D01*
X140809287Y-76889927D01*
X140939864Y-76835841D01*
X141057380Y-76757319D01*
X141157319Y-76657380D01*
X141235841Y-76539864D01*
X141289927Y-76409287D01*
X141317500Y-76270668D01*
X141317500Y-76129332D01*
X141289927Y-75990713D01*
X141235841Y-75860136D01*
X141157319Y-75742620D01*
X141057380Y-75642681D01*
X140939864Y-75564159D01*
X140809287Y-75510073D01*
X140670668Y-75482500D01*
X140529332Y-75482500D01*
X140511780Y-75485991D01*
X140228270Y-75202481D01*
X140214409Y-75185591D01*
X140147029Y-75130295D01*
X140070157Y-75089205D01*
X139986745Y-75063903D01*
X139921737Y-75057500D01*
X139921734Y-75057500D01*
X139900000Y-75055359D01*
X139878266Y-75057500D01*
X139125803Y-75057500D01*
X139123848Y-75051055D01*
X139015438Y-74848233D01*
X138869542Y-74670458D01*
X138691767Y-74524562D01*
X138488945Y-74416152D01*
X138268870Y-74349393D01*
X138097355Y-74332500D01*
X137982645Y-74332500D01*
X137811130Y-74349393D01*
X137591055Y-74416152D01*
X137388233Y-74524562D01*
X137210458Y-74670458D01*
X137064562Y-74848233D01*
X136956152Y-75051055D01*
X136889393Y-75271130D01*
X136866851Y-75500000D01*
X136669036Y-75500000D01*
X136669036Y-74650000D01*
X136662906Y-74587759D01*
X136644751Y-74527910D01*
X136615269Y-74472753D01*
X136575593Y-74424407D01*
X136527247Y-74384731D01*
X136472090Y-74355249D01*
X136412241Y-74337094D01*
X136350000Y-74330964D01*
X135942500Y-74330964D01*
X135942500Y-70074036D01*
X137090000Y-70074036D01*
X137152241Y-70067906D01*
X137212090Y-70049751D01*
X137267247Y-70020269D01*
X137315593Y-69980593D01*
X137355269Y-69932247D01*
X137384751Y-69877090D01*
X137402906Y-69817241D01*
X137409036Y-69755000D01*
X137409036Y-68704332D01*
X145782500Y-68704332D01*
X145782500Y-68845668D01*
X145810073Y-68984287D01*
X145864159Y-69114864D01*
X145942681Y-69232380D01*
X146042620Y-69332319D01*
X146160136Y-69410841D01*
X146290713Y-69464927D01*
X146429332Y-69492500D01*
X146570668Y-69492500D01*
X146588220Y-69489009D01*
X147557496Y-70458286D01*
X147557497Y-73012569D01*
X147557496Y-73012579D01*
X147557496Y-73032738D01*
X147542616Y-73042681D01*
X147442677Y-73142620D01*
X147364155Y-73260136D01*
X147310069Y-73390713D01*
X147282496Y-73529332D01*
X147282496Y-73670668D01*
X147310069Y-73809287D01*
X147364155Y-73939864D01*
X147442677Y-74057380D01*
X147542616Y-74157319D01*
X147660132Y-74235841D01*
X147790709Y-74289927D01*
X147929328Y-74317500D01*
X148070664Y-74317500D01*
X148209283Y-74289927D01*
X148239671Y-74277340D01*
X162112505Y-74277340D01*
X162112505Y-74418676D01*
X162140078Y-74557295D01*
X162194164Y-74687872D01*
X162272686Y-74805388D01*
X162372625Y-74905327D01*
X162490141Y-74983849D01*
X162620718Y-75037935D01*
X162759337Y-75065508D01*
X162900673Y-75065508D01*
X162918224Y-75062017D01*
X163753732Y-75897525D01*
X163767588Y-75914409D01*
X163784472Y-75928265D01*
X163834967Y-75969705D01*
X163874270Y-75990713D01*
X163911840Y-76010795D01*
X163995252Y-76036097D01*
X164060260Y-76042500D01*
X164060262Y-76042500D01*
X164081996Y-76044641D01*
X164103730Y-76042500D01*
X164332744Y-76042500D01*
X164342687Y-76057380D01*
X164442626Y-76157319D01*
X164560142Y-76235841D01*
X164690719Y-76289927D01*
X164829338Y-76317500D01*
X164970674Y-76317500D01*
X165109293Y-76289927D01*
X165239870Y-76235841D01*
X165357386Y-76157319D01*
X165457325Y-76057380D01*
X165535847Y-75939864D01*
X165589933Y-75809287D01*
X165617506Y-75670668D01*
X165617506Y-75529332D01*
X165589933Y-75390713D01*
X165535847Y-75260136D01*
X165457325Y-75142620D01*
X165357386Y-75042681D01*
X165239870Y-74964159D01*
X165109293Y-74910073D01*
X164970674Y-74882500D01*
X164829338Y-74882500D01*
X164690719Y-74910073D01*
X164560142Y-74964159D01*
X164442626Y-75042681D01*
X164342687Y-75142620D01*
X164332744Y-75157500D01*
X164265287Y-75157500D01*
X163978025Y-74870238D01*
X167542500Y-74870238D01*
X167542500Y-75129762D01*
X167593131Y-75384301D01*
X167692446Y-75624070D01*
X167836631Y-75839857D01*
X168020143Y-76023369D01*
X168235930Y-76167554D01*
X168475699Y-76266869D01*
X168730238Y-76317500D01*
X168989762Y-76317500D01*
X169244301Y-76266869D01*
X169484070Y-76167554D01*
X169699857Y-76023369D01*
X169883369Y-75839857D01*
X170027554Y-75624070D01*
X170126869Y-75384301D01*
X170177500Y-75129762D01*
X170177500Y-74870238D01*
X170126869Y-74615699D01*
X170027554Y-74375930D01*
X169883369Y-74160143D01*
X169699857Y-73976631D01*
X169484070Y-73832446D01*
X169244301Y-73733131D01*
X168989762Y-73682500D01*
X168730238Y-73682500D01*
X168475699Y-73733131D01*
X168235930Y-73832446D01*
X168020143Y-73976631D01*
X167836631Y-74160143D01*
X167692446Y-74375930D01*
X167593131Y-74615699D01*
X167542500Y-74870238D01*
X163978025Y-74870238D01*
X163898295Y-74790508D01*
X165894982Y-74790508D01*
X165916716Y-74792649D01*
X165938450Y-74790508D01*
X165938453Y-74790508D01*
X166003461Y-74784105D01*
X166086873Y-74758803D01*
X166163745Y-74717713D01*
X166231125Y-74662417D01*
X166244985Y-74645528D01*
X166736835Y-74153679D01*
X166754386Y-74157170D01*
X166895722Y-74157170D01*
X167034341Y-74129597D01*
X167164918Y-74075511D01*
X167282434Y-73996989D01*
X167382373Y-73897050D01*
X167460895Y-73779534D01*
X167514981Y-73648957D01*
X167542554Y-73510338D01*
X167542554Y-73369002D01*
X167532669Y-73319306D01*
X168936034Y-71915942D01*
X168953585Y-71919433D01*
X169094921Y-71919433D01*
X169233540Y-71891860D01*
X169364117Y-71837774D01*
X169481633Y-71759252D01*
X169581572Y-71659313D01*
X169660094Y-71541797D01*
X169714180Y-71411220D01*
X169741753Y-71272601D01*
X169741753Y-71131265D01*
X169714180Y-70992646D01*
X169660094Y-70862069D01*
X169581572Y-70744553D01*
X169481633Y-70644614D01*
X169466753Y-70634671D01*
X169466753Y-64845987D01*
X169468894Y-64824252D01*
X169466262Y-64797533D01*
X169460350Y-64737508D01*
X169435048Y-64654096D01*
X169407460Y-64602483D01*
X169393958Y-64577223D01*
X169352518Y-64526728D01*
X169338662Y-64509844D01*
X169321778Y-64495988D01*
X169264009Y-64438219D01*
X169267500Y-64420668D01*
X169267500Y-64279332D01*
X169239927Y-64140713D01*
X169185841Y-64010136D01*
X169107319Y-63892620D01*
X169007380Y-63792681D01*
X168889864Y-63714159D01*
X168759287Y-63660073D01*
X168620668Y-63632500D01*
X168479332Y-63632500D01*
X168340713Y-63660073D01*
X168210136Y-63714159D01*
X168092620Y-63792681D01*
X167992681Y-63892620D01*
X167914159Y-64010136D01*
X167860073Y-64140713D01*
X167832500Y-64279332D01*
X167832500Y-64420668D01*
X167860073Y-64559287D01*
X167914159Y-64689864D01*
X167992681Y-64807380D01*
X168092620Y-64907319D01*
X168210136Y-64985841D01*
X168340713Y-65039927D01*
X168479332Y-65067500D01*
X168581754Y-65067500D01*
X168581753Y-70634671D01*
X168566873Y-70644614D01*
X168466934Y-70744553D01*
X168388412Y-70862069D01*
X168334326Y-70992646D01*
X168306753Y-71131265D01*
X168306753Y-71272601D01*
X168310244Y-71290152D01*
X166878227Y-72722170D01*
X166754386Y-72722170D01*
X166615767Y-72749743D01*
X166485190Y-72803829D01*
X166367674Y-72882351D01*
X166267735Y-72982290D01*
X166189213Y-73099806D01*
X166135127Y-73230383D01*
X166107554Y-73369002D01*
X166107554Y-73510338D01*
X166111045Y-73527889D01*
X165733427Y-73905508D01*
X163397267Y-73905508D01*
X163387324Y-73890628D01*
X163287385Y-73790689D01*
X163169869Y-73712167D01*
X163039292Y-73658081D01*
X162900673Y-73630508D01*
X162759337Y-73630508D01*
X162620718Y-73658081D01*
X162490141Y-73712167D01*
X162372625Y-73790689D01*
X162272686Y-73890628D01*
X162194164Y-74008144D01*
X162140078Y-74138721D01*
X162112505Y-74277340D01*
X148239671Y-74277340D01*
X148339860Y-74235841D01*
X148457376Y-74157319D01*
X148557315Y-74057380D01*
X148635837Y-73939864D01*
X148689923Y-73809287D01*
X148717496Y-73670668D01*
X148717496Y-73529332D01*
X148689923Y-73390713D01*
X148635837Y-73260136D01*
X148557315Y-73142620D01*
X148457376Y-73042681D01*
X148442496Y-73032738D01*
X148442496Y-70296733D01*
X148444637Y-70274996D01*
X148436093Y-70188251D01*
X148410791Y-70104839D01*
X148369701Y-70027967D01*
X148328261Y-69977471D01*
X148314405Y-69960587D01*
X148297522Y-69946732D01*
X147214009Y-68863220D01*
X147217500Y-68845668D01*
X147217500Y-68704332D01*
X147189927Y-68565713D01*
X147135841Y-68435136D01*
X147131963Y-68429332D01*
X148782500Y-68429332D01*
X148782500Y-68570668D01*
X148810073Y-68709287D01*
X148864159Y-68839864D01*
X148942681Y-68957380D01*
X149042620Y-69057319D01*
X149160136Y-69135841D01*
X149290713Y-69189927D01*
X149429332Y-69217500D01*
X149570668Y-69217500D01*
X149588220Y-69214009D01*
X151856269Y-71482059D01*
X151836187Y-71583019D01*
X151836187Y-71724355D01*
X151863760Y-71862974D01*
X151917846Y-71993551D01*
X151996368Y-72111067D01*
X152096307Y-72211006D01*
X152213823Y-72289528D01*
X152344400Y-72343614D01*
X152483019Y-72371187D01*
X152624355Y-72371187D01*
X152762974Y-72343614D01*
X152893551Y-72289528D01*
X153011067Y-72211006D01*
X153111006Y-72111067D01*
X153189528Y-71993551D01*
X153243614Y-71862974D01*
X153271187Y-71724355D01*
X153271187Y-71583019D01*
X153243614Y-71444400D01*
X153189528Y-71313823D01*
X153111006Y-71196307D01*
X153011067Y-71096368D01*
X152893551Y-71017846D01*
X152762974Y-70963760D01*
X152624355Y-70936187D01*
X152561977Y-70936187D01*
X150530112Y-68904322D01*
X154082500Y-68904322D01*
X154082500Y-69045658D01*
X154110073Y-69184277D01*
X154164159Y-69314854D01*
X154242681Y-69432370D01*
X154342620Y-69532309D01*
X154460136Y-69610831D01*
X154590713Y-69664917D01*
X154729332Y-69692490D01*
X154870668Y-69692490D01*
X155009287Y-69664917D01*
X155139864Y-69610831D01*
X155257380Y-69532309D01*
X155357319Y-69432370D01*
X155367262Y-69417490D01*
X155667811Y-69417490D01*
X155642681Y-69442620D01*
X155564159Y-69560136D01*
X155510073Y-69690713D01*
X155482500Y-69829332D01*
X155482500Y-69970668D01*
X155510073Y-70109287D01*
X155564159Y-70239864D01*
X155642681Y-70357380D01*
X155742620Y-70457319D01*
X155860136Y-70535841D01*
X155990713Y-70589927D01*
X156129332Y-70617500D01*
X156270668Y-70617500D01*
X156409287Y-70589927D01*
X156539864Y-70535841D01*
X156657380Y-70457319D01*
X156757319Y-70357380D01*
X156767262Y-70342500D01*
X157002258Y-70342500D01*
X157327865Y-70668107D01*
X157324374Y-70685659D01*
X157324374Y-70826995D01*
X157351947Y-70965614D01*
X157406033Y-71096191D01*
X157484555Y-71213707D01*
X157584494Y-71313646D01*
X157702010Y-71392168D01*
X157832587Y-71446254D01*
X157971206Y-71473827D01*
X158112542Y-71473827D01*
X158251161Y-71446254D01*
X158381738Y-71392168D01*
X158499254Y-71313646D01*
X158599193Y-71213707D01*
X158677715Y-71096191D01*
X158731801Y-70965614D01*
X158759374Y-70826995D01*
X158759374Y-70685659D01*
X158731801Y-70547040D01*
X158677715Y-70416463D01*
X158599193Y-70298947D01*
X158499254Y-70199008D01*
X158381738Y-70120486D01*
X158251161Y-70066400D01*
X158112542Y-70038827D01*
X157971206Y-70038827D01*
X157953654Y-70042318D01*
X157513817Y-69602481D01*
X157499956Y-69585591D01*
X157432576Y-69530295D01*
X157355704Y-69489205D01*
X157272292Y-69463903D01*
X157207284Y-69457500D01*
X157207281Y-69457500D01*
X157185547Y-69455359D01*
X157163813Y-69457500D01*
X156767262Y-69457500D01*
X156757319Y-69442620D01*
X156732189Y-69417490D01*
X160616711Y-69417490D01*
X162111001Y-70911781D01*
X162107510Y-70929332D01*
X162107510Y-71070668D01*
X162111001Y-71088220D01*
X161942045Y-71257176D01*
X161932319Y-71242620D01*
X161832380Y-71142681D01*
X161714864Y-71064159D01*
X161584287Y-71010073D01*
X161445668Y-70982500D01*
X161304332Y-70982500D01*
X161165713Y-71010073D01*
X161035136Y-71064159D01*
X160917620Y-71142681D01*
X160817681Y-71242620D01*
X160739159Y-71360136D01*
X160685073Y-71490713D01*
X160657500Y-71629332D01*
X160657500Y-71770668D01*
X160685073Y-71909287D01*
X160739159Y-72039864D01*
X160817681Y-72157380D01*
X160917620Y-72257319D01*
X161035136Y-72335841D01*
X161165713Y-72389927D01*
X161304332Y-72417500D01*
X161445668Y-72417500D01*
X161584287Y-72389927D01*
X161714864Y-72335841D01*
X161832380Y-72257319D01*
X161932319Y-72157380D01*
X161942262Y-72142500D01*
X162103276Y-72142500D01*
X162125010Y-72144641D01*
X162146744Y-72142500D01*
X162146747Y-72142500D01*
X162211755Y-72136097D01*
X162295167Y-72110795D01*
X162372039Y-72069705D01*
X162439419Y-72014409D01*
X162453280Y-71997519D01*
X162736790Y-71714009D01*
X162754342Y-71717500D01*
X162895678Y-71717500D01*
X163034297Y-71689927D01*
X163164874Y-71635841D01*
X163282390Y-71557319D01*
X163382329Y-71457380D01*
X163460851Y-71339864D01*
X163514937Y-71209287D01*
X163542510Y-71070668D01*
X163542510Y-70929332D01*
X163514937Y-70790713D01*
X163460851Y-70660136D01*
X163382329Y-70542620D01*
X163282390Y-70442681D01*
X163164874Y-70364159D01*
X163034297Y-70310073D01*
X162895678Y-70282500D01*
X162754342Y-70282500D01*
X162736791Y-70285991D01*
X161128270Y-68677471D01*
X161114409Y-68660581D01*
X161047029Y-68605285D01*
X160970157Y-68564195D01*
X160886745Y-68538893D01*
X160821737Y-68532490D01*
X160821734Y-68532490D01*
X160800000Y-68530349D01*
X160778266Y-68532490D01*
X155367262Y-68532490D01*
X155357319Y-68517610D01*
X155257380Y-68417671D01*
X155139864Y-68339149D01*
X155009287Y-68285063D01*
X154870668Y-68257490D01*
X154729332Y-68257490D01*
X154590713Y-68285063D01*
X154460136Y-68339149D01*
X154342620Y-68417671D01*
X154242681Y-68517610D01*
X154164159Y-68635126D01*
X154110073Y-68765703D01*
X154082500Y-68904322D01*
X150530112Y-68904322D01*
X150214009Y-68588220D01*
X150217500Y-68570668D01*
X150217500Y-68429332D01*
X150189927Y-68290713D01*
X150135841Y-68160136D01*
X150057319Y-68042620D01*
X149957380Y-67942681D01*
X149839864Y-67864159D01*
X149709287Y-67810073D01*
X149570668Y-67782500D01*
X149429332Y-67782500D01*
X149290713Y-67810073D01*
X149160136Y-67864159D01*
X149042620Y-67942681D01*
X148942681Y-68042620D01*
X148864159Y-68160136D01*
X148810073Y-68290713D01*
X148782500Y-68429332D01*
X147131963Y-68429332D01*
X147057319Y-68317620D01*
X146957380Y-68217681D01*
X146839864Y-68139159D01*
X146709287Y-68085073D01*
X146570668Y-68057500D01*
X146429332Y-68057500D01*
X146290713Y-68085073D01*
X146160136Y-68139159D01*
X146042620Y-68217681D01*
X145942681Y-68317620D01*
X145864159Y-68435136D01*
X145810073Y-68565713D01*
X145782500Y-68704332D01*
X137409036Y-68704332D01*
X137409036Y-67179332D01*
X155282500Y-67179332D01*
X155282500Y-67320668D01*
X155310073Y-67459287D01*
X155364159Y-67589864D01*
X155442681Y-67707380D01*
X155542620Y-67807319D01*
X155660136Y-67885841D01*
X155790713Y-67939927D01*
X155929332Y-67967500D01*
X156070668Y-67967500D01*
X156209287Y-67939927D01*
X156339864Y-67885841D01*
X156457380Y-67807319D01*
X156557319Y-67707380D01*
X156567262Y-67692500D01*
X159728268Y-67692500D01*
X159750002Y-67694641D01*
X159771736Y-67692500D01*
X159771739Y-67692500D01*
X159793082Y-67690398D01*
X159929334Y-67717500D01*
X160070670Y-67717500D01*
X160209289Y-67689927D01*
X160339866Y-67635841D01*
X160457382Y-67557319D01*
X160557321Y-67457380D01*
X160635843Y-67339864D01*
X160689929Y-67209287D01*
X160695887Y-67179332D01*
X162282500Y-67179332D01*
X162282500Y-67320668D01*
X162310073Y-67459287D01*
X162364159Y-67589864D01*
X162442681Y-67707380D01*
X162542620Y-67807319D01*
X162660136Y-67885841D01*
X162790713Y-67939927D01*
X162929332Y-67967500D01*
X163070668Y-67967500D01*
X163209287Y-67939927D01*
X163339864Y-67885841D01*
X163457380Y-67807319D01*
X163557319Y-67707380D01*
X163635841Y-67589864D01*
X163689927Y-67459287D01*
X163717500Y-67320668D01*
X163717500Y-67179332D01*
X163689927Y-67040713D01*
X163635841Y-66910136D01*
X163557319Y-66792620D01*
X163457380Y-66692681D01*
X163442835Y-66682962D01*
X164911781Y-65214017D01*
X164929332Y-65217508D01*
X165070668Y-65217508D01*
X165209287Y-65189935D01*
X165339864Y-65135849D01*
X165457380Y-65057327D01*
X165557319Y-64957388D01*
X165635841Y-64839872D01*
X165689927Y-64709295D01*
X165717500Y-64570676D01*
X165717500Y-64429340D01*
X165689927Y-64290721D01*
X165635841Y-64160144D01*
X165557319Y-64042628D01*
X165457380Y-63942689D01*
X165339864Y-63864167D01*
X165209287Y-63810081D01*
X165070668Y-63782508D01*
X164929332Y-63782508D01*
X164790713Y-63810081D01*
X164660136Y-63864167D01*
X164542620Y-63942689D01*
X164442681Y-64042628D01*
X164364159Y-64160144D01*
X164310073Y-64290721D01*
X164282500Y-64429340D01*
X164282500Y-64570676D01*
X164285991Y-64588227D01*
X162702476Y-66171743D01*
X162685592Y-66185599D01*
X162671736Y-66202483D01*
X162671735Y-66202484D01*
X162630295Y-66252979D01*
X162589205Y-66329852D01*
X162563904Y-66413263D01*
X162555359Y-66500008D01*
X162557501Y-66521752D01*
X162557501Y-66682738D01*
X162542620Y-66692681D01*
X162442681Y-66792620D01*
X162364159Y-66910136D01*
X162310073Y-67040713D01*
X162282500Y-67179332D01*
X160695887Y-67179332D01*
X160717502Y-67070668D01*
X160717502Y-66929332D01*
X160689929Y-66790713D01*
X160635843Y-66660136D01*
X160557321Y-66542620D01*
X160457382Y-66442681D01*
X160339866Y-66364159D01*
X160209289Y-66310073D01*
X160070670Y-66282500D01*
X159929334Y-66282500D01*
X159790715Y-66310073D01*
X159660138Y-66364159D01*
X159542622Y-66442681D01*
X159442683Y-66542620D01*
X159364161Y-66660136D01*
X159310075Y-66790713D01*
X159306736Y-66807500D01*
X156567262Y-66807500D01*
X156557319Y-66792620D01*
X156457380Y-66692681D01*
X156339864Y-66614159D01*
X156209287Y-66560073D01*
X156070668Y-66532500D01*
X155929332Y-66532500D01*
X155790713Y-66560073D01*
X155660136Y-66614159D01*
X155542620Y-66692681D01*
X155442681Y-66792620D01*
X155364159Y-66910136D01*
X155310073Y-67040713D01*
X155282500Y-67179332D01*
X137409036Y-67179332D01*
X137409036Y-66245000D01*
X137402906Y-66182759D01*
X137384751Y-66122910D01*
X137355269Y-66067753D01*
X137315593Y-66019407D01*
X137267247Y-65979731D01*
X137212090Y-65950249D01*
X137152241Y-65932094D01*
X137090000Y-65925964D01*
X134550000Y-65925964D01*
X134487759Y-65932094D01*
X134427910Y-65950249D01*
X134372753Y-65979731D01*
X134324407Y-66019407D01*
X134284731Y-66067753D01*
X134255249Y-66122910D01*
X134237094Y-66182759D01*
X134230964Y-66245000D01*
X134230964Y-67557500D01*
X131083290Y-67557500D01*
X130864009Y-67338219D01*
X130867500Y-67320668D01*
X130867500Y-67179332D01*
X130839927Y-67040713D01*
X130785841Y-66910136D01*
X130707319Y-66792620D01*
X130607380Y-66692681D01*
X130489864Y-66614159D01*
X130359287Y-66560073D01*
X130220668Y-66532500D01*
X130079332Y-66532500D01*
X129940713Y-66560073D01*
X129810136Y-66614159D01*
X129692620Y-66692681D01*
X129592681Y-66792620D01*
X129514159Y-66910136D01*
X129460073Y-67040713D01*
X129432500Y-67179332D01*
X128467500Y-67179332D01*
X128439927Y-67040713D01*
X128385841Y-66910136D01*
X128307319Y-66792620D01*
X128207380Y-66692681D01*
X128089864Y-66614159D01*
X127959287Y-66560073D01*
X127820668Y-66532500D01*
X127679332Y-66532500D01*
X127661780Y-66535991D01*
X126928271Y-65802482D01*
X126914409Y-65785591D01*
X126847029Y-65730295D01*
X126770157Y-65689205D01*
X126686745Y-65663903D01*
X126621737Y-65657500D01*
X126621734Y-65657500D01*
X126600000Y-65655359D01*
X126578266Y-65657500D01*
X126519425Y-65657500D01*
X126655438Y-65491767D01*
X126763848Y-65288945D01*
X126830607Y-65068870D01*
X126853149Y-64840000D01*
X126830607Y-64611130D01*
X126763848Y-64391055D01*
X126655438Y-64188233D01*
X126509542Y-64010458D01*
X126331767Y-63864562D01*
X126128945Y-63756152D01*
X125908870Y-63689393D01*
X125737355Y-63672500D01*
X125622645Y-63672500D01*
X125451130Y-63689393D01*
X125231055Y-63756152D01*
X125028233Y-63864562D01*
X124850458Y-64010458D01*
X124704562Y-64188233D01*
X124596152Y-64391055D01*
X124529393Y-64611130D01*
X124506851Y-64840000D01*
X124529393Y-65068870D01*
X124596152Y-65288945D01*
X124704562Y-65491767D01*
X124840575Y-65657500D01*
X123979425Y-65657500D01*
X124115438Y-65491767D01*
X124223848Y-65288945D01*
X124290607Y-65068870D01*
X124313149Y-64840000D01*
X124290607Y-64611130D01*
X124223848Y-64391055D01*
X124115438Y-64188233D01*
X123969542Y-64010458D01*
X123791767Y-63864562D01*
X123588945Y-63756152D01*
X123368870Y-63689393D01*
X123197355Y-63672500D01*
X123082645Y-63672500D01*
X122911130Y-63689393D01*
X122691055Y-63756152D01*
X122488233Y-63864562D01*
X122310458Y-64010458D01*
X122192500Y-64154190D01*
X122192500Y-62985810D01*
X122310458Y-63129542D01*
X122488233Y-63275438D01*
X122691055Y-63383848D01*
X122911130Y-63450607D01*
X123082645Y-63467500D01*
X123197355Y-63467500D01*
X123368870Y-63450607D01*
X123588945Y-63383848D01*
X123791767Y-63275438D01*
X123969542Y-63129542D01*
X124115438Y-62951767D01*
X124223848Y-62748945D01*
X124290607Y-62528870D01*
X124313149Y-62300000D01*
X124506851Y-62300000D01*
X124529393Y-62528870D01*
X124596152Y-62748945D01*
X124704562Y-62951767D01*
X124850458Y-63129542D01*
X125028233Y-63275438D01*
X125231055Y-63383848D01*
X125451130Y-63450607D01*
X125622645Y-63467500D01*
X125737355Y-63467500D01*
X125908870Y-63450607D01*
X126128945Y-63383848D01*
X126331767Y-63275438D01*
X126509542Y-63129542D01*
X126655438Y-62951767D01*
X126667429Y-62929332D01*
X153782500Y-62929332D01*
X153782500Y-63070668D01*
X153810073Y-63209287D01*
X153864159Y-63339864D01*
X153942681Y-63457380D01*
X154042620Y-63557319D01*
X154160136Y-63635841D01*
X154290713Y-63689927D01*
X154349111Y-63701543D01*
X154337206Y-63761393D01*
X154337206Y-63902729D01*
X154364779Y-64041348D01*
X154418865Y-64171925D01*
X154497387Y-64289441D01*
X154597326Y-64389380D01*
X154609867Y-64397760D01*
X154542620Y-64442693D01*
X154442681Y-64542632D01*
X154364159Y-64660148D01*
X154310073Y-64790725D01*
X154282500Y-64929344D01*
X154282500Y-65070680D01*
X154310073Y-65209299D01*
X154364159Y-65339876D01*
X154442681Y-65457392D01*
X154542620Y-65557331D01*
X154660136Y-65635853D01*
X154790713Y-65689939D01*
X154929332Y-65717512D01*
X155070668Y-65717512D01*
X155209287Y-65689939D01*
X155339864Y-65635853D01*
X155457380Y-65557331D01*
X155557319Y-65457392D01*
X155635841Y-65339876D01*
X155689927Y-65209299D01*
X155717500Y-65070680D01*
X155717500Y-64929344D01*
X155714009Y-64911792D01*
X156803862Y-63821940D01*
X156782500Y-63929332D01*
X156782500Y-64070668D01*
X156810073Y-64209287D01*
X156864159Y-64339864D01*
X156942681Y-64457380D01*
X157042620Y-64557319D01*
X157160136Y-64635841D01*
X157290713Y-64689927D01*
X157429332Y-64717500D01*
X157570668Y-64717500D01*
X157709287Y-64689927D01*
X157839864Y-64635841D01*
X157957380Y-64557319D01*
X158057319Y-64457380D01*
X158135841Y-64339864D01*
X158189927Y-64209287D01*
X158217500Y-64070668D01*
X158217500Y-63929332D01*
X158214009Y-63911781D01*
X159014542Y-63111248D01*
X159386896Y-63111248D01*
X159396839Y-63126128D01*
X159496778Y-63226067D01*
X159614294Y-63304589D01*
X159744871Y-63358675D01*
X159883490Y-63386248D01*
X160024826Y-63386248D01*
X160163445Y-63358675D01*
X160294022Y-63304589D01*
X160411538Y-63226067D01*
X160511477Y-63126128D01*
X160589999Y-63008612D01*
X160644085Y-62878035D01*
X160671658Y-62739416D01*
X160671658Y-62598080D01*
X160644085Y-62459461D01*
X160589999Y-62328884D01*
X160511477Y-62211368D01*
X160411538Y-62111429D01*
X160294022Y-62032907D01*
X160163445Y-61978821D01*
X160024826Y-61951248D01*
X159883490Y-61951248D01*
X159744871Y-61978821D01*
X159614294Y-62032907D01*
X159496778Y-62111429D01*
X159396839Y-62211368D01*
X159386896Y-62226248D01*
X158852989Y-62226248D01*
X158831252Y-62224107D01*
X158809515Y-62226248D01*
X158744507Y-62232651D01*
X158661095Y-62257953D01*
X158584223Y-62299043D01*
X158516843Y-62354339D01*
X158502987Y-62371223D01*
X157588219Y-63285991D01*
X157570668Y-63282500D01*
X157429332Y-63282500D01*
X157321940Y-63303862D01*
X157901752Y-62724050D01*
X157918133Y-62724050D01*
X158056752Y-62696477D01*
X158187329Y-62642391D01*
X158304845Y-62563869D01*
X158404784Y-62463930D01*
X158483306Y-62346414D01*
X158537392Y-62215837D01*
X158564965Y-62077218D01*
X158564965Y-61935882D01*
X158537392Y-61797263D01*
X158483306Y-61666686D01*
X158404784Y-61549170D01*
X158304845Y-61449231D01*
X158187329Y-61370709D01*
X158056752Y-61316623D01*
X157918133Y-61289050D01*
X157776797Y-61289050D01*
X157638178Y-61316623D01*
X157507601Y-61370709D01*
X157390085Y-61449231D01*
X157384651Y-61454666D01*
X157307414Y-61377429D01*
X157189898Y-61298907D01*
X157059321Y-61244821D01*
X156920702Y-61217248D01*
X156908542Y-61217248D01*
X157683290Y-60442500D01*
X159432810Y-60442500D01*
X159442753Y-60457380D01*
X159542692Y-60557319D01*
X159660208Y-60635841D01*
X159790785Y-60689927D01*
X159929404Y-60717500D01*
X160070740Y-60717500D01*
X160209359Y-60689927D01*
X160339936Y-60635841D01*
X160457452Y-60557319D01*
X160557391Y-60457380D01*
X160635913Y-60339864D01*
X160689999Y-60209287D01*
X160717572Y-60070668D01*
X160717572Y-59929332D01*
X160689999Y-59790713D01*
X160677278Y-59760000D01*
X167686851Y-59760000D01*
X167709393Y-59988870D01*
X167776152Y-60208945D01*
X167884562Y-60411767D01*
X168030458Y-60589542D01*
X168208233Y-60735438D01*
X168411055Y-60843848D01*
X168631130Y-60910607D01*
X168802645Y-60927500D01*
X168917355Y-60927500D01*
X169088870Y-60910607D01*
X169308945Y-60843848D01*
X169511767Y-60735438D01*
X169689542Y-60589542D01*
X169835438Y-60411767D01*
X169943848Y-60208945D01*
X170010607Y-59988870D01*
X170033149Y-59760000D01*
X170010607Y-59531130D01*
X169943848Y-59311055D01*
X169835438Y-59108233D01*
X169689542Y-58930458D01*
X169511767Y-58784562D01*
X169308945Y-58676152D01*
X169088870Y-58609393D01*
X168917355Y-58592500D01*
X168802645Y-58592500D01*
X168631130Y-58609393D01*
X168411055Y-58676152D01*
X168208233Y-58784562D01*
X168030458Y-58930458D01*
X167884562Y-59108233D01*
X167776152Y-59311055D01*
X167709393Y-59531130D01*
X167686851Y-59760000D01*
X160677278Y-59760000D01*
X160635913Y-59660136D01*
X160557391Y-59542620D01*
X160457452Y-59442681D01*
X160339936Y-59364159D01*
X160209359Y-59310073D01*
X160070740Y-59282500D01*
X159929404Y-59282500D01*
X159790785Y-59310073D01*
X159660208Y-59364159D01*
X159542692Y-59442681D01*
X159442753Y-59542620D01*
X159432810Y-59557500D01*
X157521737Y-59557500D01*
X157500000Y-59555359D01*
X157478263Y-59557500D01*
X157413255Y-59563903D01*
X157329843Y-59589205D01*
X157252971Y-59630295D01*
X157185591Y-59685591D01*
X157171735Y-59702475D01*
X154602480Y-62271731D01*
X154602474Y-62271736D01*
X154588219Y-62285991D01*
X154570668Y-62282500D01*
X154429332Y-62282500D01*
X154290713Y-62310073D01*
X154160136Y-62364159D01*
X154042620Y-62442681D01*
X153942681Y-62542620D01*
X153864159Y-62660136D01*
X153810073Y-62790713D01*
X153782500Y-62929332D01*
X126667429Y-62929332D01*
X126763848Y-62748945D01*
X126830607Y-62528870D01*
X126853149Y-62300000D01*
X126830607Y-62071130D01*
X126763848Y-61851055D01*
X126655438Y-61648233D01*
X126509542Y-61470458D01*
X126331767Y-61324562D01*
X126128945Y-61216152D01*
X125908870Y-61149393D01*
X125737355Y-61132500D01*
X125622645Y-61132500D01*
X125451130Y-61149393D01*
X125231055Y-61216152D01*
X125028233Y-61324562D01*
X124850458Y-61470458D01*
X124704562Y-61648233D01*
X124596152Y-61851055D01*
X124529393Y-62071130D01*
X124506851Y-62300000D01*
X124313149Y-62300000D01*
X124290607Y-62071130D01*
X124223848Y-61851055D01*
X124115438Y-61648233D01*
X123969542Y-61470458D01*
X123791767Y-61324562D01*
X123588945Y-61216152D01*
X123368870Y-61149393D01*
X123197355Y-61132500D01*
X123082645Y-61132500D01*
X122911130Y-61149393D01*
X122691055Y-61216152D01*
X122488233Y-61324562D01*
X122310458Y-61470458D01*
X122192500Y-61614190D01*
X122192500Y-59760000D01*
X124506851Y-59760000D01*
X124529393Y-59988870D01*
X124596152Y-60208945D01*
X124704562Y-60411767D01*
X124850458Y-60589542D01*
X125028233Y-60735438D01*
X125231055Y-60843848D01*
X125451130Y-60910607D01*
X125622645Y-60927500D01*
X125737355Y-60927500D01*
X125908870Y-60910607D01*
X126128945Y-60843848D01*
X126331767Y-60735438D01*
X126509542Y-60589542D01*
X126655438Y-60411767D01*
X126763848Y-60208945D01*
X126830607Y-59988870D01*
X126853149Y-59760000D01*
X126830607Y-59531130D01*
X126763848Y-59311055D01*
X126655438Y-59108233D01*
X126509542Y-58930458D01*
X126331767Y-58784562D01*
X126128945Y-58676152D01*
X125908870Y-58609393D01*
X125737355Y-58592500D01*
X125622645Y-58592500D01*
X125451130Y-58609393D01*
X125231055Y-58676152D01*
X125028233Y-58784562D01*
X124850458Y-58930458D01*
X124704562Y-59108233D01*
X124596152Y-59311055D01*
X124529393Y-59531130D01*
X124506851Y-59760000D01*
X122192500Y-59760000D01*
X122192500Y-58372210D01*
X122227759Y-58382906D01*
X122290000Y-58389036D01*
X123990000Y-58389036D01*
X124052241Y-58382906D01*
X124112090Y-58364751D01*
X124167247Y-58335269D01*
X124215593Y-58295593D01*
X124255269Y-58247247D01*
X124284751Y-58192090D01*
X124302906Y-58132241D01*
X124309036Y-58070000D01*
X124309036Y-57220000D01*
X124506851Y-57220000D01*
X124529393Y-57448870D01*
X124596152Y-57668945D01*
X124704562Y-57871767D01*
X124850458Y-58049542D01*
X125028233Y-58195438D01*
X125231055Y-58303848D01*
X125451130Y-58370607D01*
X125622645Y-58387500D01*
X125737355Y-58387500D01*
X125908870Y-58370607D01*
X126128945Y-58303848D01*
X126331767Y-58195438D01*
X126509542Y-58049542D01*
X126655438Y-57871767D01*
X126763848Y-57668945D01*
X126830607Y-57448870D01*
X126853149Y-57220000D01*
X126830607Y-56991130D01*
X126763848Y-56771055D01*
X126655438Y-56568233D01*
X126509542Y-56390458D01*
X126331767Y-56244562D01*
X126209730Y-56179332D01*
X134532500Y-56179332D01*
X134532500Y-56320668D01*
X134560073Y-56459287D01*
X134614159Y-56589864D01*
X134692681Y-56707380D01*
X134792620Y-56807319D01*
X134910136Y-56885841D01*
X135017904Y-56930479D01*
X135017903Y-61197030D01*
X135003023Y-61206973D01*
X134903084Y-61306912D01*
X134824562Y-61424428D01*
X134770476Y-61555005D01*
X134742903Y-61693624D01*
X134742903Y-61834960D01*
X134770476Y-61973579D01*
X134824562Y-62104156D01*
X134903084Y-62221672D01*
X135003023Y-62321611D01*
X135120539Y-62400133D01*
X135251116Y-62454219D01*
X135389735Y-62481792D01*
X135531071Y-62481792D01*
X135669690Y-62454219D01*
X135800267Y-62400133D01*
X135917783Y-62321611D01*
X136017722Y-62221672D01*
X136096244Y-62104156D01*
X136150330Y-61973579D01*
X136177903Y-61834960D01*
X136177903Y-61693624D01*
X136150330Y-61555005D01*
X136096244Y-61424428D01*
X136017722Y-61306912D01*
X135917783Y-61206973D01*
X135902903Y-61197030D01*
X135902903Y-58429332D01*
X137832504Y-58429332D01*
X137832504Y-58570668D01*
X137860077Y-58709287D01*
X137914163Y-58839864D01*
X137992685Y-58957380D01*
X138092624Y-59057319D01*
X138210140Y-59135841D01*
X138340717Y-59189927D01*
X138479336Y-59217500D01*
X138620672Y-59217500D01*
X138638223Y-59214009D01*
X138652478Y-59228264D01*
X138652483Y-59228268D01*
X138969759Y-59545545D01*
X138983615Y-59562429D01*
X139000499Y-59576285D01*
X139050994Y-59617725D01*
X139074511Y-59630295D01*
X139127867Y-59658815D01*
X139211279Y-59684117D01*
X139276287Y-59690520D01*
X139276289Y-59690520D01*
X139298023Y-59692661D01*
X139319758Y-59690520D01*
X141730246Y-59690520D01*
X141751980Y-59692661D01*
X141773714Y-59690520D01*
X141773717Y-59690520D01*
X141838725Y-59684117D01*
X141922137Y-59658815D01*
X141999009Y-59617725D01*
X142066389Y-59562429D01*
X142080249Y-59545540D01*
X142411781Y-59214009D01*
X142429332Y-59217500D01*
X142570668Y-59217500D01*
X142709287Y-59189927D01*
X142839864Y-59135841D01*
X142957380Y-59057319D01*
X143057319Y-58957380D01*
X143057497Y-58957114D01*
X143057496Y-59682738D01*
X143042616Y-59692681D01*
X142942677Y-59792620D01*
X142864155Y-59910136D01*
X142810069Y-60040713D01*
X142782496Y-60179332D01*
X142782496Y-60320668D01*
X142810069Y-60459287D01*
X142864155Y-60589864D01*
X142942677Y-60707380D01*
X143042616Y-60807319D01*
X143160132Y-60885841D01*
X143290709Y-60939927D01*
X143429328Y-60967500D01*
X143570664Y-60967500D01*
X143709283Y-60939927D01*
X143839860Y-60885841D01*
X143957376Y-60807319D01*
X144057315Y-60707380D01*
X144135837Y-60589864D01*
X144189923Y-60459287D01*
X144217496Y-60320668D01*
X144217496Y-60179332D01*
X144189923Y-60040713D01*
X144135837Y-59910136D01*
X144057315Y-59792620D01*
X143957376Y-59692681D01*
X143942496Y-59682738D01*
X143942496Y-58021730D01*
X143944637Y-57999996D01*
X143942496Y-57978259D01*
X143936093Y-57913251D01*
X143910791Y-57829839D01*
X143884872Y-57781349D01*
X143869701Y-57752966D01*
X143849053Y-57727806D01*
X143814405Y-57685587D01*
X143797515Y-57671726D01*
X143578267Y-57452478D01*
X143564406Y-57435588D01*
X143497026Y-57380292D01*
X143420154Y-57339202D01*
X143336742Y-57313900D01*
X143271734Y-57307497D01*
X143271731Y-57307497D01*
X143249997Y-57305356D01*
X143228263Y-57307497D01*
X140496420Y-57307497D01*
X140474683Y-57305356D01*
X140452946Y-57307497D01*
X140387938Y-57313900D01*
X140304526Y-57339202D01*
X140227654Y-57380292D01*
X140160274Y-57435588D01*
X140146418Y-57452472D01*
X139828310Y-57770581D01*
X139828305Y-57770585D01*
X139814050Y-57784840D01*
X139796499Y-57781349D01*
X139655163Y-57781349D01*
X139516544Y-57808922D01*
X139385967Y-57863008D01*
X139268451Y-57941530D01*
X139168512Y-58041469D01*
X139137533Y-58087832D01*
X139107323Y-58042620D01*
X139007384Y-57942681D01*
X138889868Y-57864159D01*
X138759291Y-57810073D01*
X138620672Y-57782500D01*
X138479336Y-57782500D01*
X138340717Y-57810073D01*
X138210140Y-57864159D01*
X138092624Y-57942681D01*
X137992685Y-58042620D01*
X137914163Y-58160136D01*
X137860077Y-58290713D01*
X137832504Y-58429332D01*
X135902903Y-58429332D01*
X135902903Y-56548672D01*
X135939927Y-56459287D01*
X135957687Y-56370000D01*
X167690964Y-56370000D01*
X167690964Y-58070000D01*
X167697094Y-58132241D01*
X167715249Y-58192090D01*
X167744731Y-58247247D01*
X167784407Y-58295593D01*
X167832753Y-58335269D01*
X167887910Y-58364751D01*
X167947759Y-58382906D01*
X168010000Y-58389036D01*
X169710000Y-58389036D01*
X169772241Y-58382906D01*
X169832090Y-58364751D01*
X169887247Y-58335269D01*
X169935593Y-58295593D01*
X169975269Y-58247247D01*
X170004751Y-58192090D01*
X170022906Y-58132241D01*
X170029036Y-58070000D01*
X170029036Y-56370000D01*
X170022906Y-56307759D01*
X170004751Y-56247910D01*
X169975269Y-56192753D01*
X169935593Y-56144407D01*
X169887247Y-56104731D01*
X169832090Y-56075249D01*
X169772241Y-56057094D01*
X169710000Y-56050964D01*
X168010000Y-56050964D01*
X167947759Y-56057094D01*
X167887910Y-56075249D01*
X167832753Y-56104731D01*
X167784407Y-56144407D01*
X167744731Y-56192753D01*
X167715249Y-56247910D01*
X167697094Y-56307759D01*
X167690964Y-56370000D01*
X135957687Y-56370000D01*
X135967500Y-56320668D01*
X135967500Y-56179332D01*
X135939927Y-56040713D01*
X135885841Y-55910136D01*
X135807319Y-55792620D01*
X135707380Y-55692681D01*
X135589864Y-55614159D01*
X135459287Y-55560073D01*
X135320668Y-55532500D01*
X135179332Y-55532500D01*
X135040713Y-55560073D01*
X134910136Y-55614159D01*
X134792620Y-55692681D01*
X134692681Y-55792620D01*
X134614159Y-55910136D01*
X134560073Y-56040713D01*
X134532500Y-56179332D01*
X126209730Y-56179332D01*
X126128945Y-56136152D01*
X125908870Y-56069393D01*
X125737355Y-56052500D01*
X125622645Y-56052500D01*
X125451130Y-56069393D01*
X125231055Y-56136152D01*
X125028233Y-56244562D01*
X124850458Y-56390458D01*
X124704562Y-56568233D01*
X124596152Y-56771055D01*
X124529393Y-56991130D01*
X124506851Y-57220000D01*
X124309036Y-57220000D01*
X124309036Y-56370000D01*
X124302906Y-56307759D01*
X124284751Y-56247910D01*
X124255269Y-56192753D01*
X124215593Y-56144407D01*
X124167247Y-56104731D01*
X124112090Y-56075249D01*
X124052241Y-56057094D01*
X123990000Y-56050964D01*
X122290000Y-56050964D01*
X122227759Y-56057094D01*
X122167910Y-56075249D01*
X122112753Y-56104731D01*
X122064407Y-56144407D01*
X122024731Y-56192753D01*
X121995249Y-56247910D01*
X121977094Y-56307759D01*
X121970964Y-56370000D01*
X121970964Y-56782159D01*
X121953255Y-56783903D01*
X121869843Y-56809205D01*
X121792970Y-56850295D01*
X121767810Y-56870943D01*
X121725591Y-56905591D01*
X121711730Y-56922481D01*
X121452481Y-57181730D01*
X121435591Y-57195591D01*
X121415560Y-57220000D01*
X121380295Y-57262971D01*
X121356897Y-57306745D01*
X121342500Y-57333680D01*
X121342500Y-53313000D01*
X121435010Y-53778081D01*
X121636092Y-54263535D01*
X121928017Y-54700432D01*
X122299568Y-55071983D01*
X122736465Y-55363908D01*
X123221919Y-55564990D01*
X123737274Y-55667500D01*
X124262726Y-55667500D01*
X124778081Y-55564990D01*
X125263535Y-55363908D01*
X125700432Y-55071983D01*
X126071983Y-54700432D01*
X126363908Y-54263535D01*
X126564990Y-53778081D01*
X126667500Y-53262726D01*
X126667500Y-52737274D01*
X126564990Y-52221919D01*
X126363908Y-51736465D01*
X126071983Y-51299568D01*
X125700432Y-50928017D01*
X125263535Y-50636092D01*
X124778081Y-50435010D01*
X124313000Y-50342500D01*
X135936500Y-50342500D01*
X135936500Y-56000000D01*
M02*
