%TF.GenerationSoftware,KiCad,Pcbnew,(5.1.4)-1*%
%TF.CreationDate,2020-01-11T00:21:51+01:00*%
%TF.ProjectId,WROOM02_EV,57524f4f-4d30-4325-9f45-562e6b696361,rev?*%
%TF.SameCoordinates,Original*%
%TF.FileFunction,Legend,Bot*%
%TF.FilePolarity,Positive*%
%FSLAX46Y46*%
G04 Gerber Fmt 4.6, Leading zero omitted, Abs format (unit mm)*
G04 Created by KiCad (PCBNEW (5.1.4)-1) date 2020-01-11 00:21:51*
%MOMM*%
%LPD*%
G04 APERTURE LIST*
%ADD10C,0.150000*%
%ADD11C,0.120000*%
G04 APERTURE END LIST*
D10*
X152695238Y-59057142D02*
X152742857Y-59104761D01*
X152885714Y-59152380D01*
X152980952Y-59152380D01*
X153123809Y-59104761D01*
X153219047Y-59009523D01*
X153266666Y-58914285D01*
X153314285Y-58723809D01*
X153314285Y-58580952D01*
X153266666Y-58390476D01*
X153219047Y-58295238D01*
X153123809Y-58200000D01*
X152980952Y-58152380D01*
X152885714Y-58152380D01*
X152742857Y-58200000D01*
X152695238Y-58247619D01*
X151695238Y-59152380D02*
X152028571Y-58676190D01*
X152266666Y-59152380D02*
X152266666Y-58152380D01*
X151885714Y-58152380D01*
X151790476Y-58200000D01*
X151742857Y-58247619D01*
X151695238Y-58342857D01*
X151695238Y-58485714D01*
X151742857Y-58580952D01*
X151790476Y-58628571D01*
X151885714Y-58676190D01*
X152266666Y-58676190D01*
X151314285Y-58247619D02*
X151266666Y-58200000D01*
X151171428Y-58152380D01*
X150933333Y-58152380D01*
X150838095Y-58200000D01*
X150790476Y-58247619D01*
X150742857Y-58342857D01*
X150742857Y-58438095D01*
X150790476Y-58580952D01*
X151361904Y-59152380D01*
X150742857Y-59152380D01*
X150123809Y-58152380D02*
X150028571Y-58152380D01*
X149933333Y-58200000D01*
X149885714Y-58247619D01*
X149838095Y-58342857D01*
X149790476Y-58533333D01*
X149790476Y-58771428D01*
X149838095Y-58961904D01*
X149885714Y-59057142D01*
X149933333Y-59104761D01*
X150028571Y-59152380D01*
X150123809Y-59152380D01*
X150219047Y-59104761D01*
X150266666Y-59057142D01*
X150314285Y-58961904D01*
X150361904Y-58771428D01*
X150361904Y-58533333D01*
X150314285Y-58342857D01*
X150266666Y-58247619D01*
X150219047Y-58200000D01*
X150123809Y-58152380D01*
X149457142Y-58152380D02*
X148838095Y-58152380D01*
X149171428Y-58533333D01*
X149028571Y-58533333D01*
X148933333Y-58580952D01*
X148885714Y-58628571D01*
X148838095Y-58723809D01*
X148838095Y-58961904D01*
X148885714Y-59057142D01*
X148933333Y-59104761D01*
X149028571Y-59152380D01*
X149314285Y-59152380D01*
X149409523Y-59104761D01*
X149457142Y-59057142D01*
X148457142Y-58247619D02*
X148409523Y-58200000D01*
X148314285Y-58152380D01*
X148076190Y-58152380D01*
X147980952Y-58200000D01*
X147933333Y-58247619D01*
X147885714Y-58342857D01*
X147885714Y-58438095D01*
X147933333Y-58580952D01*
X148504761Y-59152380D01*
X147885714Y-59152380D01*
D11*
X136190000Y-71610000D02*
X139808000Y-71610000D01*
X136190000Y-69900000D02*
X136190000Y-71610000D01*
X142652700Y-76110000D02*
X158347300Y-76110000D01*
X164810000Y-69900000D02*
X164810000Y-71610000D01*
X161192000Y-71610000D02*
X164810000Y-71610000D01*
X164810000Y-64390000D02*
X161192000Y-64390000D01*
X164810000Y-66100000D02*
X164810000Y-64390000D01*
X158347300Y-59890000D02*
X154360000Y-59890000D01*
X152160000Y-62090000D02*
X154360000Y-59890000D01*
X152160000Y-62090000D02*
X148840000Y-62090000D01*
X148840000Y-62090000D02*
X146640000Y-59890000D01*
X146640000Y-59890000D02*
X142652700Y-59890000D01*
X139808000Y-64390000D02*
X136190000Y-64390000D01*
X136190000Y-66100000D02*
X136190000Y-64390000D01*
X142654630Y-76111789D02*
G75*
G02X139808000Y-71610000I7845370J8111789D01*
G01*
X158345370Y-59888211D02*
G75*
G02X161192000Y-64390000I-7845370J-8111789D01*
G01*
X158345370Y-76111789D02*
G75*
G03X161192000Y-71610000I-7845370J8111789D01*
G01*
X142654630Y-59888211D02*
G75*
G03X139808000Y-64390000I7845370J-8111789D01*
G01*
M02*
